<svg xmlns="http://www.w3.org/2000/svg" width="408.475" height="448.213" viewBox="0 0 408.475 448.213">
  <g id="Mobile_login-pana" data-name="Mobile login-pana" transform="translate(32.177 20.943)">
    <path id="Path_3850" data-name="Path 3850" d="M204.237,0c112.8,0,204.237,91.44,204.237,204.237,0,98.585-69.849,180.855-162.741,200.019-13.41,2.767-17.885,7.912-41.5,43.957-21.6-32.99-27.866-41.167-41.248-43.906C70.009,385.281,0,302.935,0,204.237,0,91.44,91.44,0,204.237,0Z" transform="translate(-32.177 -20.943)" fill="#90ea93"/>
    <g id="freepik--Padlock--inject-5" transform="translate(209.85 36.072)">
      <path id="Path_3778" data-name="Path 3778" d="M354.265,53.5l-3.632,1.3-1.559-4.747A15.932,15.932,0,0,0,328.7,39.609c-8.386,2.955-12.851,12.554-9.987,21.307l1.559,4.747-3.646,1.3a5.8,5.8,0,0,0-3.4,7.25L323.331,105.1a5.452,5.452,0,0,0,6.954,3.6l37.642-13.464a5.826,5.826,0,0,0,3.435-7.321L361.247,57.037a5.438,5.438,0,0,0-6.982-3.534ZM325.573,58.44a9.3,9.3,0,0,1,5.473-11.673,8.718,8.718,0,0,1,11.165,5.72l1.552,4.747-16.638,5.953Zm21.159,27.408,2.581,7.885a.642.642,0,0,1-.4.79l-3.618,1.291a.578.578,0,0,1-.705-.381l-2.6-7.85a7.053,7.053,0,0,1-6.348-4.937A7.413,7.413,0,0,1,340,73.35a6.947,6.947,0,0,1,8.894,4.556,7.533,7.533,0,0,1-2.158,7.963Z" transform="translate(-312.921 -38.719)" fill="#252525"/>
      <path id="Path_3779" data-name="Path 3779" d="M353.473,61.4c0,.1-6.736,2.631-15.115,5.642s-15.213,5.431-15.249,5.36,6.736-2.624,15.122-5.642S353.438,61.307,353.473,61.4Z" transform="translate(-315.923 -45.402)" fill="#263238"/>
      <path id="Path_3780" data-name="Path 3780" d="M365.877,63.24a1.234,1.234,0,0,1,.078.19c.056.141.12.324.2.55.183.515.437,1.227.755,2.116l2.708,7.885c1.129,3.343,2.476,7.307,3.971,11.708.705,2.208,1.538,4.507,2.313,6.926a10.579,10.579,0,0,1,.529,3.872,5.2,5.2,0,0,1-.571,1.954,5.389,5.389,0,0,1-1.333,1.573,12.7,12.7,0,0,1-3.583,1.827l-3.632,1.3-6.877,2.461-11.645,4.147-7.864,2.765-2.116.705-.564.183a.6.6,0,0,1-.19.049.371.371,0,0,0,.176-.085l.55-.219,2.116-.8,7.822-2.878,11.623-4.232,6.863-2.483,3.632-1.312a12.081,12.081,0,0,0,3.477-1.77,5.015,5.015,0,0,0,1.241-1.46,4.641,4.641,0,0,0,.529-1.813,10.149,10.149,0,0,0-.508-3.731c-.762-2.4-1.566-4.718-2.292-6.926-1.467-4.408-2.821-8.386-3.893-11.729s-1.975-6.03-2.6-7.921c-.3-.924-.522-1.643-.705-2.165l-.169-.564a.66.66,0,0,1-.049-.134Z" transform="translate(-320.329 -45.946)" fill="#263238"/>
      <path id="Path_3781" data-name="Path 3781" d="M343.063,48.882s-.374-.183-1.065-.465a9.4,9.4,0,0,0-3.082-.621,10.58,10.58,0,0,0-4.556.86,10.156,10.156,0,0,0-4.309,3.6,9.535,9.535,0,0,0-1.657,5.353,16.5,16.5,0,0,0,.705,4.62c.367,1.284.748,2.306,1,3.019a7.879,7.879,0,0,1,.367,1.114,6.189,6.189,0,0,1-.5-1.065c-.289-.705-.705-1.707-1.114-3a16.04,16.04,0,0,1-.811-4.69,9.67,9.67,0,0,1,1.693-5.558,10.319,10.319,0,0,1,4.479-3.71,10.5,10.5,0,0,1,4.69-.8,8.88,8.88,0,0,1,3.124.741,5.824,5.824,0,0,1,.762.423,1.052,1.052,0,0,1,.275.176Z" transform="translate(-317.376 -41.314)" fill="#263238"/>
      <path id="Path_3782" data-name="Path 3782" d="M348.034,88.211a2.428,2.428,0,0,1,.353-.176,7,7,0,0,1,1.093-.388,7.821,7.821,0,0,1,1.827-.31,6.193,6.193,0,0,1,2.476.374,7.644,7.644,0,0,1,4.281,4.937,7.109,7.109,0,0,1,0,4.048,9.168,9.168,0,0,1-2.271,3.8l.042-.19c.938,2.574,1.961,5.367,3.019,8.28l.064.176-.176.063-1.615.536-3.526,1.178-.176.056-.056-.176c-.966-2.92-2.024-5.642-2.821-8.316l.155.12a7.053,7.053,0,0,1-3.78-1.488,8.535,8.535,0,0,1-2.363-2.821,6.447,6.447,0,0,1-.748-3.174,7.66,7.66,0,0,1,2.955-5.826,4.485,4.485,0,0,1,1.22-.705,13.588,13.588,0,0,0-1.157.769,7.5,7.5,0,0,0-2.179,3.1,6.672,6.672,0,0,0,.219,5.692,8.281,8.281,0,0,0,2.306,2.708,6.715,6.715,0,0,0,3.6,1.411h.12l.035.106c.776,2.624,1.841,5.367,2.821,8.3l-.233-.113L357.048,109l1.608-.543-.113.24c-1.051-2.913-2.066-5.713-3-8.287v-.106l.085-.085a8.985,8.985,0,0,0,2.229-3.646,6.821,6.821,0,0,0,0-3.872,7.457,7.457,0,0,0-4.077-4.8,6.059,6.059,0,0,0-2.391-.4,8.084,8.084,0,0,0-1.806.247C348.535,88.006,348.041,88.246,348.034,88.211Z" transform="translate(-322.023 -53.044)" fill="#263238"/>
    </g>
    <g id="freepik--Device--inject-5" transform="translate(128.337 67.253)">
      <path id="Path_3783" data-name="Path 3783" d="M283.072,290.563l-70.452-.324a15.354,15.354,0,0,1-15.27-15.418L198.1,98.207A15.34,15.34,0,0,1,213.515,82.93l70.445.324a15.354,15.354,0,0,1,15.277,15.411l-.748,176.607A15.354,15.354,0,0,1,283.072,290.563Z" transform="translate(-197.35 -82.93)" fill="#455a64"/>
      <path id="Path_3784" data-name="Path 3784" d="M285.815,91.9H272.16a3.393,3.393,0,0,0-3.329,3.456v2.476a3.385,3.385,0,0,1-3.329,3.449l-26.618-.12a3.4,3.4,0,0,1-3.308-3.484V95.2a3.4,3.4,0,0,0-3.3-3.484h-4.8l-11.955-.056A10.749,10.749,0,0,0,204.705,102.3L204,274.692a10.742,10.742,0,0,0,10.692,10.791l70.3.324a10.749,10.749,0,0,0,10.8-10.7l.705-172.39A10.756,10.756,0,0,0,285.815,91.9Z" transform="translate(-199.31 -85.502)" fill="#fff"/>
      <path id="Path_3785" data-name="Path 3785" d="M284.34,327.415l-52.277-.226c-.543,0-.98-.592-.973-1.312l.056-13.676c0-.705.444-1.312.987-1.312l52.277.24a1.185,1.185,0,0,1,.973,1.319l-.049,13.662C285.335,326.837,284.883,327.422,284.34,327.415Z" transform="translate(-207.293 -150.11)" fill="#7ecc94"/>
      <text id="SING_UP" data-name="SING UP" transform="translate(38.961 168.349)" fill="#e8e8e3" font-size="4" font-family="Helvetica"><tspan x="0" y="0">SING UP</tspan></text>
      <rect id="Rectangle_59" data-name="Rectangle 59" width="18.14" height="3.329" transform="translate(17.057 56.991) rotate(0.26)" fill="#7ecc94"/>
      <rect id="Rectangle_60" data-name="Rectangle 60" width="18.14" height="3.329" transform="translate(17.057 56.991) rotate(0.26)" opacity="0.1"/>
      <path id="Path_3786" data-name="Path 3786" d="M292.748,187.637a1.621,1.621,0,0,0,.416-.1,1.114,1.114,0,0,0,.705-.952V177.22a1.369,1.369,0,0,0-.2-.924,1.058,1.058,0,0,0-.839-.43H281.541l-58.991-.219a.938.938,0,0,0-.776.388,1.348,1.348,0,0,0-.183.924v8.464a5.569,5.569,0,0,0,0,.987.953.953,0,0,0,.55.635,1.1,1.1,0,0,0,.437.078h3.59l15.665.085,26.519.162,17.879.141,4.859.056H268.352l-26.519-.085-15.665-.063h-3.59a1.411,1.411,0,0,1-.578-.1,1.326,1.326,0,0,1-.762-.882,2,2,0,0,1-.042-.564v-8.986a3.934,3.934,0,0,1,0-.564,1.2,1.2,0,0,1,.233-.571,1.3,1.3,0,0,1,1.072-.543l58.991.324,10.192.07h1.1a1.206,1.206,0,0,1,.987.515,1.5,1.5,0,0,1,.226,1.037v4.507c0,2.116-.049,3.738-.064,4.867a1.143,1.143,0,0,1-.741.98A.846.846,0,0,1,292.748,187.637Z" transform="translate(-204.374 -110.125)" fill="#e0e0e0"/>
      <rect id="Rectangle_61" data-name="Rectangle 61" width="33.177" height="3.11" transform="translate(22.506 69.063)" fill="#7ecc94"/>
      <rect id="Rectangle_62" data-name="Rectangle 62" width="33.177" height="3.11" transform="translate(22.506 69.063)" fill="#fff" opacity="0.2"/>
      <rect id="Rectangle_63" data-name="Rectangle 63" width="18.14" height="3.329" transform="translate(16.933 87.361) rotate(0.26)" fill="#7ecc94"/>
      <rect id="Rectangle_64" data-name="Rectangle 64" width="18.14" height="3.329" transform="translate(16.933 87.361) rotate(0.26)" opacity="0.1"/>
      <path id="Path_3787" data-name="Path 3787" d="M292.222,230.73a3.645,3.645,0,0,0,.423-.078,1.446,1.446,0,0,0,.889-.8,1.975,1.975,0,0,0,.127-.9v-8.414a1.516,1.516,0,0,0-.2-.931,1.368,1.368,0,0,0-.769-.6,4.322,4.322,0,0,0-1.065-.056H281.473l-58.787-.219a1.3,1.3,0,0,0-1.291,1.136v8.464a4.049,4.049,0,0,0,.042.987,1.34,1.34,0,0,0,.515.705,1.467,1.467,0,0,0,.875.226h3.019l15.608.078,26.428.162,17.816.141,4.845.056H267.882l-26.442-.028-15.608-.056h-3.068a1.77,1.77,0,0,1-1.079-.289,1.693,1.693,0,0,1-.663-.924,4.438,4.438,0,0,1-.056-1.086V219.84a1.672,1.672,0,0,1,1.657-1.46l58.787.324,10.149.078a4.365,4.365,0,0,1,1.128.078,1.559,1.559,0,0,1,.868.705,1.7,1.7,0,0,1,.226,1.03v8.449a1.969,1.969,0,0,1-.148.924,1.5,1.5,0,0,1-.952.8,1.325,1.325,0,0,1-.458-.042Z" transform="translate(-204.306 -122.847)" fill="#e0e0e0"/>
      <rect id="Rectangle_65" data-name="Rectangle 65" width="18.14" height="3.329" transform="translate(16.797 119.049) rotate(0.26)" fill="#7ecc94"/>
      <rect id="Rectangle_66" data-name="Rectangle 66" width="18.14" height="3.329" transform="translate(16.797 119.049) rotate(0.26)" opacity="0.1"/>
      <path id="Path_3788" data-name="Path 3788" d="M292.048,275.6a3.377,3.377,0,0,0,.423-.078,1.453,1.453,0,0,0,.889-.8,1.989,1.989,0,0,0,.127-.9V265.41a1.517,1.517,0,0,0-.2-.931,1.411,1.411,0,0,0-.769-.592,4.311,4.311,0,0,0-1.065-.063H281.3l-58.787-.219a1.3,1.3,0,0,0-1.291,1.135q0,1.058,0,2.116V273.2a3.991,3.991,0,0,0,.042.98,1.291,1.291,0,0,0,.515.705,1.41,1.41,0,0,0,.875.226h3.068l15.608.085,26.428.162,17.816.141,4.845.056H267.758l-26.428-.078-15.608-.063h-3.068a1.728,1.728,0,0,1-1.079-.289,1.693,1.693,0,0,1-.663-.924,4.441,4.441,0,0,1-.056-1.086v-8.5a1.664,1.664,0,0,1,1.65-1.46l58.787.324,10.149.078a4.367,4.367,0,0,1,1.128.078,1.559,1.559,0,0,1,.867.705,1.7,1.7,0,0,1,.226,1.03v8.449a1.933,1.933,0,0,1-.148.924,1.5,1.5,0,0,1-.952.8A1.114,1.114,0,0,1,292.048,275.6Z" transform="translate(-204.274 -136.044)" fill="#e0e0e0"/>
      <rect id="Rectangle_67" data-name="Rectangle 67" width="33.177" height="3.11" transform="translate(21.798 100.163) rotate(0.26)" fill="#7ecc94"/>
      <rect id="Rectangle_68" data-name="Rectangle 68" width="33.177" height="3.11" transform="translate(21.798 100.163) rotate(0.26)" fill="#fff" opacity="0.2"/>
      <path id="Path_3789" data-name="Path 3789" d="M231.3,271.989a1.453,1.453,0,1,1-1.411-1.559A1.5,1.5,0,0,1,231.3,271.989Z" transform="translate(-206.499 -138.186)" fill="#7ecc94"/>
      <path id="Path_3790" data-name="Path 3790" d="M237.667,272.021a1.453,1.453,0,1,1-.694-1.342A1.453,1.453,0,0,1,237.667,272.021Z" transform="translate(-208.376 -138.197)" fill="#7ecc94"/>
      <path id="Path_3791" data-name="Path 3791" d="M244.047,272.049a1.453,1.453,0,1,1-1.411-1.559A1.5,1.5,0,0,1,244.047,272.049Z" transform="translate(-210.256 -138.203)" fill="#7ecc94"/>
      <path id="Path_3792" data-name="Path 3792" d="M250.417,272.079a1.453,1.453,0,1,1-1.411-1.559,1.5,1.5,0,0,1,1.411,1.559Z" transform="translate(-212.134 -138.212)" fill="#7ecc94"/>
      <path id="Path_3793" data-name="Path 3793" d="M256.787,272.1a1.453,1.453,0,1,1-1.411-1.552A1.5,1.5,0,0,1,256.787,272.1Z" transform="translate(-214.011 -138.221)" fill="#7ecc94"/>
      <path id="Path_3794" data-name="Path 3794" d="M263.167,272.132a1.453,1.453,0,1,1-1.446-1.552A1.5,1.5,0,0,1,263.167,272.132Z" transform="translate(-215.891 -138.23)" fill="#7ecc94"/>
      <path id="Path_3795" data-name="Path 3795" d="M269.537,272.161a1.453,1.453,0,1,1-.694-1.342A1.453,1.453,0,0,1,269.537,272.161Z" transform="translate(-217.768 -138.238)" fill="#7ecc94"/>
      <path id="Path_3796" data-name="Path 3796" d="M275.907,272.192a1.453,1.453,0,1,1-1.446-1.552A1.5,1.5,0,0,1,275.907,272.192Z" transform="translate(-219.645 -138.248)" fill="#7ecc94"/>
      <path id="Path_3797" data-name="Path 3797" d="M282.277,272.221a1.453,1.453,0,1,1-1.411-1.552A1.5,1.5,0,0,1,282.277,272.221Z" transform="translate(-221.523 -138.257)" fill="#7ecc94"/>
      <g id="Group_1066" data-name="Group 1066" transform="translate(21.897 132.244)" opacity="0.2">
        <path id="Path_3798" data-name="Path 3798" d="M231.3,271.989a1.453,1.453,0,1,1-1.411-1.559A1.5,1.5,0,0,1,231.3,271.989Z" transform="translate(-228.396 -270.429)" fill="#fff"/>
        <path id="Path_3799" data-name="Path 3799" d="M237.667,272.021a1.453,1.453,0,1,1-.694-1.342A1.453,1.453,0,0,1,237.667,272.021Z" transform="translate(-230.273 -270.44)" fill="#fff"/>
        <path id="Path_3800" data-name="Path 3800" d="M244.047,272.049a1.453,1.453,0,1,1-1.411-1.559A1.5,1.5,0,0,1,244.047,272.049Z" transform="translate(-232.153 -270.447)" fill="#fff"/>
        <path id="Path_3801" data-name="Path 3801" d="M250.417,272.079a1.453,1.453,0,1,1-1.411-1.559,1.5,1.5,0,0,1,1.411,1.559Z" transform="translate(-234.03 -270.456)" fill="#fff"/>
        <path id="Path_3802" data-name="Path 3802" d="M256.787,272.1a1.453,1.453,0,1,1-1.411-1.552A1.5,1.5,0,0,1,256.787,272.1Z" transform="translate(-235.907 -270.465)" fill="#fff"/>
        <path id="Path_3803" data-name="Path 3803" d="M263.167,272.132a1.453,1.453,0,1,1-1.446-1.552A1.5,1.5,0,0,1,263.167,272.132Z" transform="translate(-237.787 -270.474)" fill="#fff"/>
        <path id="Path_3804" data-name="Path 3804" d="M269.537,272.161a1.453,1.453,0,1,1-.694-1.342A1.453,1.453,0,0,1,269.537,272.161Z" transform="translate(-239.665 -270.482)" fill="#fff"/>
        <path id="Path_3805" data-name="Path 3805" d="M275.907,272.192a1.453,1.453,0,1,1-1.446-1.552A1.5,1.5,0,0,1,275.907,272.192Z" transform="translate(-241.542 -270.491)" fill="#fff"/>
        <path id="Path_3806" data-name="Path 3806" d="M282.277,272.221a1.453,1.453,0,1,1-1.411-1.552A1.5,1.5,0,0,1,282.277,272.221Z" transform="translate(-243.419 -270.5)" fill="#fff"/>
      </g>
      <path id="Path_3807" data-name="Path 3807" d="M272.085,126.323a2.729,2.729,0,0,0,1.629-2.532,2.567,2.567,0,1,0-5.128,0,2.737,2.737,0,0,0,1.636,2.56c-3.95.592-3.773,4.881-3.773,4.881l9.338.042S276.006,126.908,272.085,126.323Z" transform="translate(-217.713 -94.175)" fill="#7ecc94"/>
      <path id="Path_3808" data-name="Path 3808" d="M272.085,126.323a2.729,2.729,0,0,0,1.629-2.532,2.567,2.567,0,1,0-5.128,0,2.737,2.737,0,0,0,1.636,2.56c-3.95.592-3.773,4.881-3.773,4.881l9.338.042S276.006,126.908,272.085,126.323Z" transform="translate(-217.713 -94.175)" opacity="0.1"/>
      <rect id="Rectangle_69" data-name="Rectangle 69" width="33.283" height="3.978" transform="translate(36.263 39.714) rotate(0.26)" fill="#7ecc94"/>
      <rect id="Rectangle_70" data-name="Rectangle 70" width="33.283" height="3.978" transform="translate(36.263 39.714) rotate(0.26)" fill="#fff" opacity="0.2"/>
    </g>
    <g id="freepik--Character--inject-5" transform="translate(75.518 161.926)">
      <path id="Path_3809" data-name="Path 3809" d="M166.594,445.788v-6.03l-10.812-.078-.092,9.12.67.049c2.983.19,15.178.473,17.181-.148C175.77,448.01,166.594,445.788,166.594,445.788Z" transform="translate(-132.253 -252.736)" fill="#7ecc94"/>
      <path id="Path_3810" data-name="Path 3810" d="M173.81,451.593c0,.1-4.048.183-9.035.183s-9.035-.085-9.035-.183,4.048-.183,9.035-.183S173.81,451.495,173.81,451.593Z" transform="translate(-132.268 -256.193)" fill="#263238"/>
      <path id="Path_3811" data-name="Path 3811" d="M171.405,449.617c-.092-.049,0-.367.219-.705s.515-.48.585-.409-.078.339-.289.628S171.5,449.666,171.405,449.617Z" transform="translate(-136.874 -255.331)" fill="#263238"/>
      <path id="Path_3812" data-name="Path 3812" d="M172.38,450.1c-.1,0-.049-.395.162-.769s.494-.6.571-.543-.049.374-.247.705S172.471,450.134,172.38,450.1Z" transform="translate(-137.157 -255.418)" fill="#263238"/>
      <path id="Path_3813" data-name="Path 3813" d="M159.057,450.746c-.042,0-.2-.127-.437-.395a6.988,6.988,0,0,0-.945-.945,2.489,2.489,0,0,0-1.171-.515c-.332-.042-.543,0-.564-.042s.183-.19.571-.219a2.179,2.179,0,0,1,1.411.48,3.977,3.977,0,0,1,.931,1.093C159.014,450.513,159.1,450.718,159.057,450.746Z" transform="translate(-132.326 -255.374)" fill="#263238"/>
      <path id="Path_3814" data-name="Path 3814" d="M171.034,448.465c.049.085-.134.3-.444.409s-.585.071-.6,0,.2-.219.473-.317S170.977,448.38,171.034,448.465Z" transform="translate(-136.467 -255.315)" fill="#263238"/>
      <path id="Path_3815" data-name="Path 3815" d="M170.688,447.576c0,.106-.282.19-.649.2s-.656-.078-.649-.176.3-.19.649-.2S170.674,447.477,170.688,447.576Z" transform="translate(-136.29 -255.011)" fill="#263238"/>
      <path id="Path_3816" data-name="Path 3816" d="M204.344,445.788v-6.03l-10.812-.078-.092,9.028.67.049c2.983.19,15.185.564,17.181-.056C213.52,448.01,204.344,445.788,204.344,445.788Z" transform="translate(-143.378 -252.736)" fill="#7ecc94"/>
      <path id="Path_3817" data-name="Path 3817" d="M211.563,451.613c0,.1-4.041.183-9.035.183s-9.028-.085-9.028-.183,4.041-.183,9.028-.183S211.563,451.515,211.563,451.613Z" transform="translate(-143.395 -256.199)" fill="#263238"/>
      <path id="Path_3818" data-name="Path 3818" d="M209.157,449.617c-.085-.049,0-.367.219-.705s.515-.48.585-.409-.078.339-.289.628S209.248,449.666,209.157,449.617Z" transform="translate(-148 -255.331)" fill="#263238"/>
      <path id="Path_3819" data-name="Path 3819" d="M210.131,450.1c-.092,0-.049-.395.169-.769s.494-.6.571-.543-.056.374-.254.705S210.23,450.134,210.131,450.1Z" transform="translate(-148.283 -255.418)" fill="#263238"/>
      <path id="Path_3820" data-name="Path 3820" d="M196.807,450.746c-.042,0-.2-.127-.437-.395a6.989,6.989,0,0,0-.945-.945,2.489,2.489,0,0,0-1.171-.515c-.324-.042-.543,0-.564-.042s.183-.19.571-.219a2.179,2.179,0,0,1,1.411.48,3.859,3.859,0,0,1,.931,1.093C196.764,450.513,196.849,450.718,196.807,450.746Z" transform="translate(-143.451 -255.374)" fill="#263238"/>
      <path id="Path_3821" data-name="Path 3821" d="M208.784,448.465c.049.085-.134.3-.444.409s-.585.071-.6,0,.2-.219.473-.317S208.727,448.38,208.784,448.465Z" transform="translate(-147.592 -255.315)" fill="#263238"/>
      <path id="Path_3822" data-name="Path 3822" d="M208.461,447.576c0,.106-.282.19-.649.2s-.649-.078-.642-.176.289-.19.642-.2S208.461,447.477,208.461,447.576Z" transform="translate(-147.424 -255.011)" fill="#263238"/>
      <path id="Path_3823" data-name="Path 3823" d="M223.262,190.467c-.282-.289-.98-.148-.98-.148a3.61,3.61,0,0,0,0-1.227c-.127-.395-1.016-.317-1.016-.317a4.1,4.1,0,0,1,0-1,.36.36,0,0,0-.2-.36,3.258,3.258,0,0,0-1.326-.24c-.543-.388,1.657-3.47,2.476-4.458s.67-1.756-.056-1.756c-.5,0-3.068,2.962-3.858,3.957s-2.885,3.759-2.955,1.552-.959-3.872-1.516-4.154-1.15.381-.846.994a7.893,7.893,0,0,1,.494,2.172,5.192,5.192,0,0,1-.078,1.777,21.308,21.308,0,0,1-.952,3.188h-.056s-15.39,14.762-16.5,15.813c-.994.945-21-1.121-25.01-1.545a26.862,26.862,0,0,0-4.119-.282c-1.742.078-2.052.324-3.787.346a85.779,85.779,0,0,0-13.076,1.15,10.84,10.84,0,0,0-8.506,7.377c-4.041,12.625-13.2,42.508-14.811,59.295a71.24,71.24,0,0,0-3.3,6.82c-1.136,3.089-.86,3.2-.48,3.266,1.03.19,2.2-5.353,2.638-4.013s-2.222,6.609-1.143,6.764c1.411.2,2.532-5.642,2.666-6.108s.832-.317.705.12c-.2.621-2.186,7.2-.8,7.413.762.113.846-1.277.846-1.277s1.411-6.3,2.052-6.171-.042,3.844-.367,5.085.127,1.869.79,1.566c.451-.212,1.531-3.985,1.827-5.212s1.037-4.627,2.031-2.659,2.5,3.11,3.124,3.139a.705.705,0,0,0,.346-1.262,7.99,7.99,0,0,1-1.361-1.763,5.2,5.2,0,0,1-.705-1.65,17.892,17.892,0,0,1-.494-3.569l-.113-.705c1.58-7.822,6.129-30.779,12.7-45.442l2.694,5.544,1.171,4.1-7.18,17.724,30.624-.4-4.57-17.59,5.551-18.338h0c6,.134,21.413.36,23.98-.8,3.23-1.411,19.939-22.513,19.939-22.513h0a38.6,38.6,0,0,0,3.124-2.708S223.875,191.1,223.262,190.467Z" transform="translate(-122.46 -176.492)" fill="#ffbe9d"/>
      <path id="Path_3824" data-name="Path 3824" d="M147.406,250.414c.889-3.033,5.452-18.027,5.452-18.027s2.243,12.223,1.65,13.7a26.092,26.092,0,0,1-1.925,3.639c-5.177,7.878-4.5,11.821-4.5,11.821l31.28-.952c.071-4.373-2.518-14.543-3.054-16.165s1.248-6.933,1.248-6.933,3.527-3.59,3.4-5.438a29.892,29.892,0,0,0-.614-4.937l19.043.705-.6-12.907-27.352-2.737c-.952,2.687-9.564,1.368-9.564,1.368-9.3.31-9.874,2.017-13.739,5.022s-10.262,28.79-10.262,28.79Z" transform="translate(-127.001 -185.692)" fill="#7ecc94"/>
      <path id="Path_3825" data-name="Path 3825" d="M172.951,261.591a6.581,6.581,0,0,1-1.643.085c-1.023,0-2.426-.071-3.971-.226s-2.941-.374-3.936-.571a6.782,6.782,0,0,1-1.6-.409,8.814,8.814,0,0,1,1.643.155c1,.127,2.391.3,3.929.458s2.934.261,3.943.332A8.707,8.707,0,0,1,172.951,261.591Z" transform="translate(-134.053 -199.923)" fill="#263238"/>
      <path id="Path_3826" data-name="Path 3826" d="M175.584,258.29a7.228,7.228,0,0,1-1.707.585,31.359,31.359,0,0,1-8.626,1.023,7.116,7.116,0,0,1-1.791-.169,12.062,12.062,0,0,1,1.791-.092c1.107-.035,2.631-.113,4.309-.31s3.174-.48,4.232-.705A11.7,11.7,0,0,1,175.584,258.29Z" transform="translate(-134.543 -199.281)" fill="#263238"/>
      <path id="Path_3827" data-name="Path 3827" d="M194.48,241.47a7.343,7.343,0,0,1-.219,1.594c-.183.98-.465,2.32-.825,3.787s-.705,2.821-1.016,3.738a7.053,7.053,0,0,1-.55,1.516,7.18,7.18,0,0,1,.3-1.58c.268-1.1.571-2.37.91-3.759s.663-2.659.931-3.759a6.728,6.728,0,0,1,.473-1.538Z" transform="translate(-142.915 -194.324)" fill="#263238"/>
      <path id="Path_3828" data-name="Path 3828" d="M147.873,262.753a32.787,32.787,0,0,1-4.817-1.121,33.481,33.481,0,0,1-4.725-1.481,33.915,33.915,0,0,1,4.817,1.121A33.113,33.113,0,0,1,147.873,262.753Z" transform="translate(-127.137 -199.829)" fill="#263238"/>
      <path id="Path_3829" data-name="Path 3829" d="M194.931,227.273a2.37,2.37,0,0,1-.8,0,8.359,8.359,0,0,1-2.151-.515,8.838,8.838,0,0,1-5.106-5.015,9.113,9.113,0,0,1-.628-3.971,6.172,6.172,0,0,1,.966-3.146,3.266,3.266,0,0,1,1.784-1.319,2.158,2.158,0,0,1,.6-.078h.212a2.286,2.286,0,0,0-.769.19,3.209,3.209,0,0,0-1.615,1.319,8.05,8.05,0,0,0-.2,6.841,8.619,8.619,0,0,0,2.179,3.188,9.262,9.262,0,0,0,2.673,1.721A13.583,13.583,0,0,0,194.931,227.273Z" transform="translate(-141.251 -186.002)" fill="#263238"/>
      <path id="Path_3830" data-name="Path 3830" d="M221.8,228.569a58.765,58.765,0,0,1-.169-6.5,58.184,58.184,0,0,1,.2-6.5,58.586,58.586,0,0,1,.169,6.5A56.428,56.428,0,0,1,221.8,228.569Z" transform="translate(-151.678 -186.691)" fill="#263238"/>
      <path id="Path_3831" data-name="Path 3831" d="M180.806,202.977c.078-1.573.24-3.35.24-3.35a4.712,4.712,0,0,0,4.126-4.45c.233-4.02,0-13.295,0-13.295l-7.053-3.611-7.829,6.157,1.206,20.1,7.18.458a2.074,2.074,0,0,0,2.13-2.01Z" transform="translate(-136.555 -175.699)" fill="#ffbe9d"/>
      <path id="Path_3832" data-name="Path 3832" d="M185.519,196.772a.327.327,0,0,1-.064.169.522.522,0,0,1-.444.2c-.451,0-.889-.522-1.044-1.129a1.841,1.841,0,0,1,0-.9.776.776,0,0,1,.423-.607.388.388,0,0,1,.3,0,.36.36,0,0,1,.162.162.2.2,0,0,1,0,.19.206.206,0,0,0-.07-.141.254.254,0,0,0-.331-.07.6.6,0,0,0-.289.5,1.806,1.806,0,0,0,0,.8c.141.55.522.995.86,1.037a.487.487,0,0,0,.374-.106C185.476,196.821,185.5,196.765,185.519,196.772Z" transform="translate(-140.57 -180.476)" fill="#eb996e"/>
      <path id="Path_3833" data-name="Path 3833" d="M179.885,178.635c-.543-1.848-2.511-2.765-4.3-3.273a13.555,13.555,0,0,0-8.344-.134c-2.666.98-5.868,2.7-5.868,5.642-1.573-.127-2.476,1.248-3.1,2.955a11.074,11.074,0,0,0-.705,3.244h0c-.2,3.851-1.277,9.169-3.773,11.99-1.411,1.573-3.364,2.659-4.168,4.62-.705,1.7-.339,3.717-.994,5.438-.585,1.516-1.876,2.6-2.821,3.914a10.5,10.5,0,0,0-.67,10.149,12.851,12.851,0,0,0,7.681,6.63,17.963,17.963,0,0,0,10.121.1,16.927,16.927,0,0,0,6.785-3.364,11.327,11.327,0,0,0,3.936-6.517c.5-2.878-.3-5.8-.9-8.668-1.876-9.049-1.34-9.522,1.03-17.922.056-.148.085-.3.127-.451s.063-.219.092-.332h0a5.313,5.313,0,0,0,.106-1.009,1.94,1.94,0,0,1-2.038-.437,2.116,2.116,0,0,1-.48-2.116,3.075,3.075,0,0,1,1.82-1.714c.783-.324,1.622-.494,2.391-.853a7.988,7.988,0,0,0,3.526-4.07,5.586,5.586,0,0,0,.55-3.823Z" transform="translate(-128.85 -174.625)" fill="#263238"/>
      <path id="Path_3834" data-name="Path 3834" d="M186.088,198a3.449,3.449,0,0,1,.367.705c.212.444.494,1.072.8,1.8l.056.134h-.148l-.705.063c-.487,0-.9.092-1.375.085a.254.254,0,0,1-.183-.162.318.318,0,0,1,0-.2,2.84,2.84,0,0,1,.064-.282l.127-.5a4.778,4.778,0,0,1,.3-.973,4.761,4.761,0,0,1-.148,1.009l-.1.5c-.035.169-.1.43,0,.409.353,0,.853-.078,1.319-.106l.705-.063-.092.155c-.3-.705-.557-1.368-.705-1.827a2.751,2.751,0,0,1-.282-.748Z" transform="translate(-140.857 -181.513)" fill="#7ecc94"/>
      <path id="Path_3835" data-name="Path 3835" d="M151.719,281.772,183,280.82l13.612,53.137-2.5,60.952H177.568l2.024-59.654-12.1-36.993,1.862,99.01-16.716.247-1.756-93.064c-.078-2.588-.924-8.421-.607-10.988Z" transform="translate(-130.638 -205.92)" fill="#263238"/>
      <path id="Path_3836" data-name="Path 3836" d="M176.359,305.754a6.266,6.266,0,0,1-1.53-.092c-.945-.113-2.236-.31-3.653-.592s-2.687-.607-3.6-.868a5.82,5.82,0,0,1-1.411-.508c0-.106,2.3.444,5.12,1.016S176.373,305.648,176.359,305.754Z" transform="translate(-135.338 -212.658)" fill="#455a64"/>
      <path id="Path_3837" data-name="Path 3837" d="M205.217,437.763c0,.1-3.745.183-8.365.183s-8.372-.085-8.372-.183,3.745-.183,8.372-.183S205.217,437.658,205.217,437.763Z" transform="translate(-141.916 -252.118)" fill="#455a64"/>
      <path id="Path_3838" data-name="Path 3838" d="M170.363,442.2c0,.106-3.639.183-8.125.183s-8.118-.078-8.118-.183,3.639-.183,8.118-.183S170.363,442.1,170.363,442.2Z" transform="translate(-131.79 -253.426)" fill="#455a64"/>
      <path id="Path_3839" data-name="Path 3839" d="M173.416,401.54c-.1,0-.536-21.632-.98-48.313s-.705-48.327-.614-48.327.543,21.624.98,48.32S173.522,401.54,173.416,401.54Z" transform="translate(-137.002 -213.017)" fill="#455a64"/>
      <path id="Path_3840" data-name="Path 3840" d="M204.348,391.964a1.8,1.8,0,0,1,0-.289v-.846c0-.762.056-1.855.1-3.244.1-2.821.24-6.919.416-11.941.381-10.1.917-24.023,1.5-39.391v-.367c-3.7-14.811-7.053-28.254-9.486-37.98l-2.821-11.5c-.324-1.347-.571-2.4-.748-3.132-.085-.346-.141-.614-.19-.818a1.218,1.218,0,0,1-.049-.282,1.561,1.561,0,0,1,.085.275c.056.2.127.465.226.8.19.705.465,1.777.818,3.117.705,2.722,1.7,6.644,2.941,11.475,2.454,9.719,5.84,23.127,9.592,37.959v.466c-.628,15.368-1.2,29.284-1.615,39.384-.219,5.029-.4,9.1-.529,11.934-.071,1.411-.127,2.483-.162,3.244,0,.36-.042.642-.049.846A1.347,1.347,0,0,1,204.348,391.964Z" transform="translate(-143.269 -206.318)" fill="#455a64"/>
      <path id="Path_3841" data-name="Path 3841" d="M198.271,356.5a18.891,18.891,0,0,1-3.653.811c-1.523.261-2.821.444-3.407.473v-.141c.19.056.289.092.289.12s-.12,0-.317,0h-.423l.423-.127c.55-.162,1.848-.43,3.371-.705a19.047,19.047,0,0,1,3.717-.43Z" transform="translate(-142.588 -228.223)" fill="#455a64"/>
      <path id="Path_3842" data-name="Path 3842" d="M198.253,359.129a18.2,18.2,0,0,1-3.294-.148,18.606,18.606,0,0,1-3.28-.36A20.884,20.884,0,0,1,198.253,359.129Z" transform="translate(-142.859 -228.828)" fill="#455a64"/>
      <path id="Path_3843" data-name="Path 3843" d="M152.16,282.894a4.288,4.288,0,0,0,3.089,1.643,13.916,13.916,0,0,0,3.787-.07c8.076-.9,16.631-1.721,24.537-3.646-10.234.571-21.046.381-31.28.952l-.106.875" transform="translate(-131.213 -205.92)" opacity="0.2"/>
      <g id="Group_1067" data-name="Group 1067" transform="translate(31.492 91.397)" opacity="0.2">
        <path id="Path_3844" data-name="Path 3844" d="M167.11,304.21l5.769,22.386-.4-21.441Z" transform="translate(-167.11 -304.21)"/>
      </g>
    </g>
  </g>
</svg>
