<?xml version="1.0" standalone="no"?>
<!DOCTYPE svg PUBLIC "-//W3C//DTD SVG 20010904//EN"
 "http://www.w3.org/TR/2001/REC-SVG-20010904/DTD/svg10.dtd">
<svg version="1.0" xmlns="http://www.w3.org/2000/svg"
 width="45.000000pt" height="45.000000pt" viewBox="0 0 45.000000 45.000000"
 preserveAspectRatio="xMidYMid meet">

<g transform="translate(0.000000,45.000000) scale(0.100000,-0.100000)"
fill="#000000" stroke="none">
<path d="M133 370 c-19 -8 -43 -38 -43 -54 0 -3 65 -6 145 -6 135 0 145 1 165
22 40 44 30 48 -112 47 -73 0 -143 -4 -155 -9z"/>
<path d="M90 257 c-27 -13 -43 -60 -55 -162 -7 -51 -6 -53 14 -48 28 7 79 67
87 101 11 52 12 52 68 52 47 0 57 4 75 26 12 15 21 31 21 35 0 14 -182 10
-210 -4z"/>
</g>
</svg>
