<?xml version="1.0" standalone="no"?>
<!DOCTYPE svg PUBLIC "-//W3C//DTD SVG 20010904//EN"
 "http://www.w3.org/TR/2001/REC-SVG-20010904/DTD/svg10.dtd">
<svg version="1.0" xmlns="http://www.w3.org/2000/svg"
 width="203.000000pt" height="60.000000pt" viewBox="0 0 203.000000 60.000000"
 preserveAspectRatio="xMidYMid meet">

<g transform="translate(0.000000,60.000000) scale(0.100000,-0.100000)"
fill="#000000" stroke="none">
<path d="M213 520 c-19 -8 -53 -56 -53 -75 0 -4 70 -5 156 -3 150 3 157 4 175
27 10 13 19 32 19 42 0 18 -9 19 -137 18 -76 0 -148 -4 -160 -9z"/>
<path d="M1800 330 c0 -80 4 -130 10 -130 6 0 10 5 10 10 0 7 6 7 19 0 25 -13
67 -13 91 0 43 23 43 117 0 140 -26 14 -84 12 -98 -2 -9 -9 -12 2 -12 50 0 35
-4 62 -10 62 -6 0 -10 -50 -10 -130z m121 2 c25 -21 30 -71 9 -96 -17 -21 -69
-20 -92 1 -18 16 -24 59 -10 79 9 13 43 33 58 34 7 0 22 -8 35 -18z"/>
<path d="M620 325 c0 -77 4 -125 10 -125 6 0 10 27 10 60 l0 60 55 0 c30 0 55
5 55 10 0 6 -25 10 -55 10 l-55 0 0 40 0 39 55 3 c79 4 73 22 -7 26 l-68 3 0
-126z"/>
<path d="M1300 437 c-34 -17 -70 -74 -70 -109 0 -41 27 -93 57 -114 30 -19
110 -22 142 -5 17 10 21 21 21 66 l0 55 -40 0 c-22 0 -40 -4 -40 -10 0 -5 14
-10 30 -10 26 0 30 -3 30 -29 0 -53 -8 -61 -61 -61 -63 0 -96 21 -109 71 -25
93 72 176 146 124 20 -13 34 -11 34 5 0 12 -50 30 -83 30 -18 0 -43 -6 -57
-13z"/>
<path d="M1140 386 c0 -18 -7 -26 -22 -29 l-23 -4 22 -8 c19 -6 22 -15 25 -74
3 -64 4 -66 31 -69 15 -2 27 1 27 7 0 6 -9 11 -20 11 -18 0 -20 7 -20 60 0 53
2 60 20 60 11 0 20 5 20 10 0 6 -9 10 -20 10 -15 0 -20 7 -20 25 0 14 -4 25
-10 25 -5 0 -10 -11 -10 -24z"/>
<path d="M155 377 c-22 -19 -29 -37 -42 -125 -9 -56 -13 -106 -9 -109 10 -11
56 18 79 49 11 14 25 48 32 75 l12 48 62 5 c65 5 91 23 91 62 0 16 -10 18 -99
18 -89 0 -103 -2 -126 -23z"/>
<path d="M817 353 c-15 -15 -5 -22 18 -13 30 11 52 4 66 -21 8 -16 6 -19 -15
-19 -57 0 -104 -38 -90 -74 8 -22 52 -31 86 -18 16 6 28 6 28 1 0 -5 4 -9 9
-9 11 0 1 131 -12 148 -10 13 -79 17 -90 5z m93 -77 c0 -3 -4 -16 -10 -30 -8
-21 -16 -26 -44 -26 -39 0 -53 21 -30 45 14 13 84 22 84 11z"/>
<path d="M982 348 c-28 -28 -11 -58 43 -75 40 -13 41 -47 2 -51 -16 -2 -35 2
-43 9 -11 9 -14 8 -14 -4 0 -27 74 -39 98 -15 26 26 7 78 -28 78 -9 0 -25 6
-36 14 -18 14 -18 16 -3 31 13 13 21 15 37 6 31 -17 47 -14 32 4 -15 18 -71
20 -88 3z"/>
<path d="M1510 280 c0 -47 4 -80 10 -80 6 0 10 26 10 58 0 60 11 82 42 82 10
0 18 5 18 10 0 14 -33 13 -48 -2 -9 -9 -12 -9 -12 0 0 7 -4 12 -10 12 -6 0
-10 -33 -10 -80z"/>
<path d="M1635 349 c-11 -16 1 -22 23 -10 21 11 52 5 64 -13 13 -19 9 -23 -34
-30 -23 -4 -48 -12 -55 -18 -16 -13 -17 -50 -1 -66 16 -16 70 -16 86 0 9 9 12
9 12 0 0 -7 5 -12 10 -12 6 0 10 26 10 58 0 76 -18 102 -70 102 -21 0 -42 -5
-45 -11z m95 -80 c0 -27 -22 -49 -51 -49 -33 0 -48 22 -29 45 14 17 80 21 80
4z"/>
</g>
</svg>
