<svg width="153" height="200" viewBox="0 0 153 200" fill="none" xmlns="http://www.w3.org/2000/svg">
<path d="M70.5771 54.0478C72.8208 52.6152 74.1291 49.7026 75.9051 47.7608C79.4571 43.9069 84.945 37.6139 85.7738 34.0382L71.992 29.3022L67.4277 40.4318C66.4627 43.013 62.1648 46.784 59.779 48.0094C58.3819 48.7376 56.8546 49.3829 55.3035 50.0282C52.1896 51.2832 48.8448 52.3962 45.6066 53.515L46.4235 59.3936C48.3089 59.4106 50.1939 59.3316 52.0712 59.1568C53.936 58.9792 55.8067 58.7424 57.6775 58.3872C59.5985 58.0399 61.4964 57.5753 63.3606 56.996C65.2787 56.4158 68.5998 55.3029 70.5771 54.0478Z" fill="#624DE3"/>
<path opacity="0.8" d="M70.5771 54.0478C72.8208 52.6152 74.1291 49.7026 75.9051 47.7608C79.4571 43.9069 84.945 37.6139 85.7738 34.0382L71.992 29.3022L67.4277 40.4318C66.4627 43.013 62.1648 46.784 59.779 48.0094C58.3819 48.7376 56.8546 49.3829 55.3035 50.0282C52.1896 51.2832 48.8448 52.3962 45.6066 53.515L46.4235 59.3936C48.3089 59.4106 50.1939 59.3316 52.0712 59.1568C53.936 58.9792 55.8067 58.7424 57.6775 58.3872C59.5985 58.0399 61.4964 57.5753 63.3606 56.996C65.2787 56.4158 68.5998 55.3029 70.5771 54.0478Z" fill="white"/>
<path d="M56.1915 59.4588L53.6933 50.04C53.6933 50.04 39.2189 52.6804 38.7571 56.6882C38.2835 60.8322 48.3594 60.7316 56.1915 59.4588Z" fill="#263238"/>
<path d="M45.796 54.5514L47.8917 51.5914C47.8917 51.5914 40.539 50.6619 40.3437 51.84C40.101 53.4562 42.2854 54.5573 45.796 54.5514Z" fill="#263238"/>
<path d="M112.485 117.599C112.332 117.6 112.183 117.548 112.065 117.451C109.205 115.166 100.13 107.073 103.185 98.9808C105.683 92.3385 111.745 86.7441 118.991 84.3702C121.775 83.5384 124.619 82.9248 127.498 82.535C129.446 82.2213 131.458 81.8957 133.382 81.4339C142.233 79.3086 146.691 73.4656 145.015 66.184C144.252 62.8865 142.209 60.2225 140.042 57.3987C138.32 55.1609 136.55 52.8462 135.478 50.1941C135.478 50.1941 135.478 50.1467 135.478 50.123C134.466 46.5059 135.904 43.019 137.301 39.6683C137.627 38.8809 137.935 38.135 138.219 37.3832C139.403 34.1686 140.498 30.7113 140.315 27.2185C140.096 23.0745 137.319 18.599 133.246 15.8818C126.882 11.6253 115.137 7.82463 110.158 13.1704C109.734 13.6519 109.339 14.158 108.974 14.6859C108.475 15.3971 107.917 16.0645 107.305 16.6809C106.286 17.611 105.069 18.2986 103.747 18.6923C102.424 19.0859 101.03 19.1755 99.668 18.9542C98.2548 18.7138 96.9161 18.1507 95.7559 17.3088C94.5957 16.4669 93.6453 15.3688 92.9784 14.0998C92.9391 14.0206 92.9158 13.9344 92.91 13.8461C92.9042 13.7579 92.916 13.6694 92.9446 13.5857C92.9732 13.502 93.0182 13.4248 93.0768 13.3586C93.1355 13.2924 93.2066 13.2385 93.2863 13.2C93.3659 13.1605 93.4526 13.1372 93.5413 13.1313C93.63 13.1254 93.7189 13.1371 93.8031 13.1657C93.8873 13.1943 93.965 13.2393 94.0317 13.298C94.0984 13.3567 94.1529 13.428 94.192 13.5078C94.739 14.5675 95.5223 15.4872 96.4814 16.1959C97.4405 16.9045 98.5497 17.3832 99.7232 17.595C100.897 17.8067 102.103 17.7457 103.25 17.4168C104.396 17.088 105.451 16.4999 106.334 15.6982C106.888 15.1352 107.395 14.5273 107.849 13.8808C108.249 13.3141 108.679 12.7706 109.14 12.2528C115.261 5.69343 128.516 11.1102 134.004 14.7569C138.414 17.7169 141.428 22.5713 141.67 27.1475C141.866 30.8889 140.741 34.5061 139.486 37.8568C139.202 38.6323 138.894 39.4197 138.556 40.1893C137.254 43.3269 135.904 46.5651 136.78 49.7264C137.781 52.195 139.492 54.4209 141.149 56.5758C143.304 59.3878 145.536 62.2945 146.365 65.8821C148.194 73.8445 143.239 80.463 133.732 82.7481C131.76 83.2217 129.724 83.5533 127.752 83.867C124.948 84.2438 122.177 84.8376 119.464 85.643C112.597 87.8867 106.861 93.1792 104.499 99.4425C101.77 106.689 110.288 114.243 112.964 116.386C113.067 116.475 113.14 116.592 113.174 116.723C113.209 116.855 113.203 116.993 113.158 117.121C113.112 117.249 113.03 117.36 112.92 117.44C112.811 117.52 112.68 117.565 112.544 117.57L112.485 117.599Z" fill="#624DE3"/>
<path opacity="0.7" d="M112.485 117.599C112.332 117.6 112.183 117.548 112.065 117.451C109.205 115.166 100.13 107.073 103.185 98.9808C105.683 92.3385 111.745 86.7441 118.991 84.3702C121.775 83.5384 124.619 82.9248 127.498 82.535C129.446 82.2213 131.458 81.8957 133.382 81.4339C142.233 79.3086 146.691 73.4656 145.015 66.184C144.252 62.8865 142.209 60.2225 140.042 57.3987C138.32 55.1609 136.55 52.8462 135.478 50.1941C135.478 50.1941 135.478 50.1467 135.478 50.123C134.466 46.5059 135.904 43.019 137.301 39.6683C137.627 38.8809 137.935 38.135 138.219 37.3832C139.403 34.1686 140.498 30.7113 140.315 27.2185C140.096 23.0745 137.319 18.599 133.246 15.8818C126.882 11.6253 115.137 7.82463 110.158 13.1704C109.734 13.6519 109.339 14.158 108.974 14.6859C108.475 15.3971 107.917 16.0645 107.305 16.6809C106.286 17.611 105.069 18.2986 103.747 18.6923C102.424 19.0859 101.03 19.1755 99.668 18.9542C98.2548 18.7138 96.9161 18.1507 95.7559 17.3088C94.5957 16.4669 93.6453 15.3688 92.9784 14.0998C92.9391 14.0206 92.9158 13.9344 92.91 13.8461C92.9042 13.7579 92.916 13.6694 92.9446 13.5857C92.9732 13.502 93.0182 13.4248 93.0768 13.3586C93.1355 13.2924 93.2066 13.2385 93.2863 13.2C93.3659 13.1605 93.4526 13.1372 93.5413 13.1313C93.63 13.1254 93.7189 13.1371 93.8031 13.1657C93.8873 13.1943 93.965 13.2393 94.0317 13.298C94.0984 13.3567 94.1529 13.428 94.192 13.5078C94.739 14.5675 95.5223 15.4872 96.4814 16.1959C97.4405 16.9045 98.5497 17.3832 99.7232 17.595C100.897 17.8067 102.103 17.7457 103.25 17.4168C104.396 17.088 105.451 16.4999 106.334 15.6982C106.888 15.1352 107.395 14.5273 107.849 13.8808C108.249 13.3141 108.679 12.7706 109.14 12.2528C115.261 5.69343 128.516 11.1102 134.004 14.7569C138.414 17.7169 141.428 22.5713 141.67 27.1475C141.866 30.8889 140.741 34.5061 139.486 37.8568C139.202 38.6323 138.894 39.4197 138.556 40.1893C137.254 43.3269 135.904 46.5651 136.78 49.7264C137.781 52.195 139.492 54.4209 141.149 56.5758C143.304 59.3878 145.536 62.2945 146.365 65.8821C148.194 73.8445 143.239 80.463 133.732 82.7481C131.76 83.2217 129.724 83.5533 127.752 83.867C124.948 84.2438 122.177 84.8376 119.464 85.643C112.597 87.8867 106.861 93.1792 104.499 99.4425C101.77 106.689 110.288 114.243 112.964 116.386C113.067 116.475 113.14 116.592 113.174 116.723C113.209 116.855 113.203 116.993 113.158 117.121C113.112 117.249 113.03 117.36 112.92 117.44C112.811 117.52 112.68 117.565 112.544 117.57L112.485 117.599Z" fill="white"/>
<path opacity="0.2" d="M72.436 43.7944C71.6723 45.0672 71.5006 49.1224 71.8913 52.9586C73.4069 51.4312 74.508 49.2823 75.917 47.7431L76.213 47.4234C74.6501 45.2212 72.8741 43.013 72.436 43.7944Z" fill="black"/>
<path d="M71.9801 29.2548C71.9801 29.2548 68.4281 43.7528 78.5277 67.7348L105.588 62.9277C105.126 59.2396 99.3128 42.5037 100.26 24.578C97.2033 24.2305 94.117 24.2305 91.0603 24.578C87.1879 25.0674 83.3429 25.753 79.54 26.6322C76.9627 27.3314 74.4367 28.2076 71.9801 29.2548Z" fill="#624DE3"/>
<path opacity="0.8" d="M71.9801 29.2548C71.9801 29.2548 68.4281 43.7528 78.5277 67.7348L105.588 62.9277C105.126 59.2396 99.3128 42.5037 100.26 24.578C97.2033 24.2305 94.117 24.2305 91.0603 24.578C87.1879 25.0674 83.3429 25.753 79.54 26.6322C76.9627 27.3314 74.4367 28.2076 71.9801 29.2548Z" fill="white"/>
<path opacity="0.2" d="M97.1283 38.1172C98.3092 39.5968 99.6604 40.9321 101.154 42.0954C100.976 40.8581 100.811 39.5913 100.674 38.3007L97.1283 38.1172Z" fill="black"/>
<path d="M78.5277 67.7647C78.5277 67.7647 64.8169 83.6895 65.9358 97.4357C67.1198 111.738 82.0027 135.176 82.0027 135.176L91.0485 130.641C91.0485 130.641 85.1285 106.008 80.5345 98.8506C85.5429 90.5093 92.1555 80.5519 96.7198 65.2842C88.3608 66.776 78.5277 67.7647 78.5277 67.7647Z" fill="#624DE3"/>
<path opacity="0.8" d="M78.5277 67.7647C78.5277 67.7647 64.8169 83.6895 65.9358 97.4357C67.1198 111.738 82.0027 135.176 82.0027 135.176L91.0485 130.641C91.0485 130.641 85.1285 106.008 80.5345 98.8506C85.5429 90.5093 92.1555 80.5519 96.7198 65.2842C88.3608 66.776 78.5277 67.7647 78.5277 67.7647Z" fill="white"/>
<path opacity="0.2" d="M91.38 76.0998C88.8936 77.9765 87.3781 83.4939 87.3366 87.3478C89.438 83.5855 91.3256 79.7077 92.9902 75.7328C92.7112 75.6758 92.4232 75.6791 92.1455 75.7424C91.8678 75.8057 91.6068 75.9276 91.38 76.0998Z" fill="black"/>
<path d="M82.2454 134.323L89.9414 129.628C90.064 129.569 90.2034 129.553 90.3361 129.585C90.4687 129.616 90.5865 129.692 90.6696 129.8L93.9552 135.471C94.061 135.584 94.1405 135.719 94.188 135.866C94.2356 136.013 94.2499 136.169 94.2301 136.322C94.2103 136.476 94.1568 136.623 94.0735 136.753C93.9901 136.883 93.879 136.994 93.748 137.076C91.4806 138.26 91.309 138.153 88.4851 139.704C86.7506 140.663 83.2814 142.836 80.8838 144.156C78.4862 145.476 76.8405 143.114 77.5509 142.191C80.1853 138.787 80.9134 137.455 81.535 135.229C81.5873 135.038 81.677 134.86 81.799 134.704C81.921 134.549 82.0727 134.419 82.2454 134.323Z" fill="#624DE3"/>
<path opacity="0.8" d="M82.2454 134.323L89.9414 129.628C90.064 129.569 90.2034 129.553 90.3361 129.585C90.4687 129.616 90.5865 129.692 90.6696 129.8L93.9552 135.471C94.061 135.584 94.1405 135.719 94.188 135.866C94.2356 136.013 94.2499 136.169 94.2301 136.322C94.2103 136.476 94.1568 136.623 94.0735 136.753C93.9901 136.883 93.879 136.994 93.748 137.076C91.4806 138.26 91.309 138.153 88.4851 139.704C86.7506 140.663 83.2814 142.836 80.8838 144.156C78.4862 145.476 76.8405 143.114 77.5509 142.191C80.1853 138.787 80.9134 137.455 81.535 135.229C81.5873 135.038 81.677 134.86 81.799 134.704C81.921 134.549 82.0727 134.419 82.2454 134.323Z" fill="white"/>
<path d="M142.487 143.227L97.3888 189.409L89.6277 173.674L126.574 135.839L142.487 143.227Z" fill="#624DE3"/>
<path opacity="0.4" d="M142.487 143.227L97.3888 189.409L89.6277 173.674L126.574 135.839L142.487 143.227Z" fill="black"/>
<path d="M137.207 153.836L107.873 183.88L94.7367 165.747L118.772 141.137L137.207 153.836Z" fill="#624DE3"/>
<path opacity="0.3" d="M137.207 153.836L107.873 183.88L94.7367 165.747L118.772 141.137L137.207 153.836Z" fill="black"/>
<path d="M54.3267 144.251C54.3267 144.251 65.8707 156.547 75.7867 167.244C77.168 168.772 78.1249 170.636 78.5621 172.649C78.9994 174.661 78.9018 176.754 78.279 178.717C75.988 186.413 79.3446 199.988 79.3446 199.988C68.3749 190.634 38.917 182.453 54.3267 144.251Z" fill="#624DE3"/>
<path opacity="0.3" d="M54.3267 144.251C54.3267 144.251 65.8707 156.547 75.7867 167.244C77.168 168.772 78.1249 170.636 78.5621 172.649C78.9994 174.661 78.9018 176.754 78.279 178.717C75.988 186.413 79.3446 199.988 79.3446 199.988C68.3749 190.634 38.917 182.453 54.3267 144.251Z" fill="black"/>
<path d="M96.3232 101.248C96.3232 101.248 108.891 112.496 119.82 122.158C121.38 123.501 123.265 124.413 125.287 124.803C127.309 125.192 129.398 125.046 131.346 124.378C138.959 121.903 152.658 124.94 152.658 124.94C143.026 114.195 134.152 84.9387 96.3232 101.248Z" fill="#624DE3"/>
<path opacity="0.3" d="M96.3232 101.248C96.3232 101.248 108.891 112.496 119.82 122.158C121.38 123.501 123.265 124.413 125.287 124.803C127.309 125.192 129.398 125.046 131.346 124.378C138.959 121.903 152.658 124.94 152.658 124.94C143.026 114.195 134.152 84.9387 96.3232 101.248Z" fill="black"/>
<path d="M67.5224 71.6069C42.8064 50.0877 16.125 43.3981 5.3624 54.4389C-5.40016 65.4797 1.92289 91.9835 24.0163 116.179L78.8355 176.207C79.9127 177.385 81.2188 178.331 82.6741 178.987C84.1294 179.643 85.7031 179.995 87.2991 180.021C88.8951 180.048 90.4797 179.749 91.956 179.142C93.4324 178.535 94.7693 177.633 95.8851 176.492L129.528 142.043C130.644 140.901 131.514 139.543 132.086 138.052C132.657 136.562 132.919 134.97 132.854 133.375C132.789 131.78 132.399 130.215 131.708 128.775C131.018 127.336 130.04 126.053 128.836 125.005L67.5224 71.6069Z" fill="#624DE3"/>
<path opacity="0.1" d="M96.5837 167.422C96.8874 167.573 97.1511 167.794 97.3536 168.066C97.5561 168.338 97.6917 168.654 97.7493 168.989C97.807 169.323 97.7851 169.666 97.6854 169.991C97.5858 170.315 97.4111 170.611 97.1757 170.855C93.5645 174.585 86.7269 173.638 82.2218 168.777L27.8347 110.169C16.9064 98.3945 9.13344 86.4894 5.10784 76.4905C3.92384 73.5305 8.03232 71.4526 9.7432 74.1225C15.1955 82.6414 23.3237 92.812 33.5002 103.415L90.7466 162.976C92.4338 164.77 94.4061 166.272 96.5837 167.422Z" fill="white"/>
<path opacity="0.1" d="M28.0952 50.0756C22.5659 49.8744 15.6218 53.0356 9.91488 58.8728C4.208 64.7099 1.22433 71.731 1.54993 77.2603C-0.681914 67.5811 0.484326 59.4174 5.35648 54.4209C10.2286 49.4244 18.3686 48.0688 28.0952 50.0756Z" fill="black"/>
<path opacity="0.3" d="M47.2069 115.901C58.8016 115.67 68.0139 106.084 67.7832 94.4891C67.5525 82.8944 57.9661 73.6821 46.3714 73.9128C34.7766 74.1435 25.5643 83.7299 25.795 95.3247C26.0258 106.919 35.6122 116.132 47.2069 115.901Z" fill="black"/>
<path d="M62.6293 107.159C69.7818 98.0306 68.18 84.8321 59.0514 77.6795C49.9228 70.5269 36.7243 72.1288 29.5717 81.2574C22.4191 90.3859 24.021 103.584 33.1496 110.737C42.2782 117.89 55.4767 116.288 62.6293 107.159Z" fill="white"/>
<path opacity="0.7" d="M60.4182 106.706C67.3126 98.7975 66.4903 86.7972 58.5816 79.9029C50.6728 73.0085 38.6726 73.8308 31.7782 81.7396C24.8838 89.6483 25.7061 101.649 33.6149 108.543C41.5236 115.437 53.5239 114.615 60.4182 106.706Z" fill="#624DE3"/>
<g opacity="0.2">
<path d="M32.5115 80.9305C30.7024 82.7678 29.2917 84.9584 28.3675 87.3656L37.4606 111.128C41.1338 112.995 45.3138 113.618 49.3717 112.904L36.0517 78.083C34.7617 78.8867 33.5731 79.8428 32.5115 80.9305Z" fill="white"/>
<path d="M37.4488 77.2957L50.9405 112.573C53.0169 112.03 54.9864 111.139 56.7658 109.939L43.5642 75.3599C41.4289 75.6456 39.3595 76.3006 37.4488 77.2957Z" fill="white"/>
</g>
<path d="M117.363 135.981L121.383 127.959C121.455 127.845 121.565 127.759 121.693 127.716C121.821 127.673 121.96 127.675 122.087 127.722L127.77 130.386C127.919 130.426 128.058 130.498 128.176 130.597C128.294 130.697 128.389 130.821 128.453 130.961C128.518 131.102 128.551 131.255 128.549 131.409C128.548 131.563 128.512 131.715 128.445 131.854C127.166 134.057 127.066 134.447 125.485 137.248C124.526 138.97 122.744 142.635 121.418 145.015C120.092 147.394 117.446 146.264 117.558 145.109C117.979 140.841 117.872 139.314 117.227 137.123C117.171 136.933 117.155 136.734 117.178 136.538C117.202 136.342 117.264 136.152 117.363 135.981Z" fill="#624DE3"/>
<path opacity="0.8" d="M117.363 135.981L121.383 127.959C121.455 127.845 121.565 127.759 121.693 127.716C121.821 127.673 121.96 127.675 122.087 127.722L127.77 130.386C127.919 130.426 128.058 130.498 128.176 130.597C128.294 130.697 128.389 130.821 128.453 130.961C128.518 131.102 128.551 131.255 128.549 131.409C128.548 131.563 128.512 131.715 128.445 131.854C127.166 134.057 127.066 134.447 125.485 137.248C124.526 138.97 122.744 142.635 121.418 145.015C120.092 147.394 117.446 146.264 117.558 145.109C117.979 140.841 117.872 139.314 117.227 137.123C117.171 136.933 117.155 136.734 117.178 136.538C117.202 136.342 117.264 136.152 117.363 135.981Z" fill="white"/>
<path d="M88.118 66.0597C88.118 66.0597 88.1713 91.2552 93.5881 103.433C99.52 116.8 117.73 137.52 117.73 137.52L124.597 130.623C124.597 130.623 115.936 111.679 107.897 101.55C107.731 89.0707 109.081 75.4547 105.766 64.1416C99.939 65.2195 94.0401 65.8606 88.118 66.0597Z" fill="#624DE3"/>
<path opacity="0.8" d="M88.118 66.0597C88.118 66.0597 88.1713 91.2552 93.5881 103.433C99.52 116.8 117.73 137.52 117.73 137.52L124.597 130.623C124.597 130.623 115.936 111.679 107.897 101.55C107.731 89.0707 109.081 75.4547 105.766 64.1416C99.939 65.2195 94.0401 65.8606 88.118 66.0597Z" fill="white"/>
<path d="M104.889 66.0716C92.3331 68.9724 82.8789 69.2684 79.025 69.2388C78.7809 69.2394 78.5393 69.1897 78.3153 69.0928C78.0913 68.9959 77.8897 68.8538 77.7231 68.6755C77.5564 68.4972 77.4283 68.2864 77.3467 68.0564C77.2652 67.8264 77.2319 67.582 77.249 67.3385C77.2705 66.8768 77.4711 66.4417 77.8082 66.1256C78.1454 65.8095 78.5925 65.6372 79.0546 65.6454C87.4887 65.5644 95.8868 64.5338 104.09 62.5729C104.318 62.5184 104.554 62.5093 104.785 62.5461C105.015 62.583 105.237 62.6651 105.436 62.7878C105.635 62.9105 105.808 63.0713 105.945 63.2609C106.082 63.4506 106.18 63.6654 106.233 63.8931C106.293 64.1245 106.305 64.3656 106.269 64.6019C106.234 64.8382 106.15 65.0649 106.025 65.2683C105.899 65.4717 105.734 65.6477 105.539 65.7858C105.344 65.9238 105.123 66.021 104.889 66.0716Z" fill="#263238"/>
<path d="M118.813 39.8046C117.748 37.3597 116.268 35.7376 114.273 34.0208C110.324 30.6049 103.812 25.3125 100.26 24.6021L95.9443 38.5318L107.287 42.7173C109.531 44.3157 110.034 45.3694 110.697 47.9683C111.094 49.4957 111.384 51.1237 111.668 52.7813C112.195 56.0905 112.562 59.6129 112.911 63.011L118.831 63.5201C119.267 61.6859 119.609 59.8305 119.855 57.9613C120.098 56.1083 120.281 54.2317 120.353 52.3254C120.445 50.3757 120.413 48.4222 120.258 46.4765C120.14 44.1891 119.652 41.9359 118.813 39.8046Z" fill="#624DE3"/>
<path opacity="0.8" d="M118.813 39.8046C117.748 37.3597 116.268 35.7376 114.273 34.0208C110.324 30.6049 103.812 25.3125 100.26 24.6021L95.9443 38.5318L107.287 42.7173C109.531 44.3157 110.034 45.3694 110.697 47.9683C111.094 49.4957 111.384 51.1237 111.668 52.7813C112.195 56.0905 112.562 59.6129 112.911 63.011L118.831 63.5201C119.267 61.6859 119.609 59.8305 119.855 57.9613C120.098 56.1083 120.281 54.2317 120.353 52.3254C120.445 50.3757 120.413 48.4222 120.258 46.4765C120.14 44.1891 119.652 41.9359 118.813 39.8046Z" fill="white"/>
<path d="M120.613 54.3262H111.271C111.271 54.3262 110.626 69.0315 114.427 70.3694C118.357 71.7724 120.11 62.2471 120.613 54.3262Z" fill="#263238"/>
<path d="M113.912 63.0345L111.508 60.335C111.508 60.335 109.264 66.474 110.632 67.2318C111.999 67.9895 113.136 66.4799 113.912 63.0345Z" fill="#263238"/>
<path opacity="0.2" d="M91.0307 24.5902C87.1685 25.0767 83.3333 25.7584 79.54 26.6326C78.0896 27.0115 76.6925 27.4673 75.4907 27.8876C78.074 28.8306 80.8541 29.1035 83.5715 28.6809C84.5422 28.5202 85.4902 28.2439 86.3953 27.858C89 27.2046 91.4397 26.015 93.5585 24.3652C92.7238 24.4067 91.8713 24.4777 91.0307 24.5902Z" fill="black"/>
<path d="M86.4368 13.6558C86.3776 17.0242 86.8038 23.1278 89.4678 24.8682C89.4678 24.8682 89.5034 26.3423 83.9978 27.3073C79.5045 28.0946 79.3506 26.6679 79.3506 26.6679C82.8256 25.1524 82.2514 22.4766 81.168 20.0612L86.4368 13.6558Z" fill="#FFB573"/>
<path opacity="0.2" d="M84.276 16.2666L81.1621 20.0613C81.4199 20.6207 81.6298 21.201 81.7896 21.7959C83.1453 21.3519 84.7792 19.493 84.6667 18.013C84.6414 17.4123 84.509 16.8209 84.276 16.2666Z" fill="black"/>
<path d="M76.1419 13.2888C74.5494 11.128 72.7498 7.99632 73.5253 6.44528C74.3008 4.89424 77.5331 3.98848 79.0013 5.12512C80.8424 6.56368 79.4986 11.0333 76.1419 13.2888Z" fill="#263238"/>
<path d="M86.644 9.05594C86.7802 13.5374 87.088 16.1599 85.0456 18.6523C81.9731 22.4055 76.284 20.8663 74.8099 16.5151C73.4898 12.6079 73.4957 5.9065 77.693 3.72794C78.6185 3.24526 79.6521 3.00727 80.6955 3.0366C81.7389 3.06592 82.7575 3.36158 83.6545 3.89549C84.5514 4.42939 85.2969 5.1838 85.8202 6.08701C86.3434 6.99023 86.627 8.01225 86.644 9.05594Z" fill="#FFB573"/>
<path d="M86.4901 13.2414C84.501 11.4654 82.1152 8.72444 82.5711 7.04908C83.0269 5.37372 86.0106 3.84636 87.6741 4.68108C89.7639 5.71116 89.3317 10.3643 86.4901 13.2414Z" fill="#263238"/>
<path d="M84.276 6.77083C81.2154 7.61739 72.5603 9.32235 73.7739 5.67563C74.9875 2.02891 79.7472 1.33627 81.4699 2.12363C83.1926 2.91099 84.5542 0.827148 84.5542 0.827148C84.8029 1.41915 83.4827 3.04715 81.5942 3.31355C79.7058 3.57995 89.752 1.83355 87.1176 5.40923C84.4832 8.98491 84.276 6.77083 84.276 6.77083Z" fill="#263238"/>
<path d="M89.1127 13.7918C88.8598 14.2897 88.5109 14.7328 88.0863 15.0955C87.6616 15.4582 87.1694 15.7334 86.6381 15.9053C85.2173 16.3611 84.4536 15.1001 84.8029 13.7267C85.1166 12.4894 86.2414 10.7667 87.6918 10.9147C88.0086 10.9518 88.311 11.0675 88.5717 11.2513C88.8323 11.4352 89.0428 11.6813 89.184 11.9672C89.3252 12.2532 89.3926 12.5699 89.3802 12.8886C89.3677 13.2073 89.2758 13.5178 89.1127 13.7918Z" fill="#FFB573"/>
<path d="M80.0018 10.9029C80.0373 11.264 79.8715 11.5778 79.6347 11.6015C79.3979 11.6252 79.1789 11.3469 79.1434 11.0095C79.1078 10.672 79.2736 10.3346 79.5104 10.3168C79.7472 10.2991 79.9662 10.5418 80.0018 10.9029Z" fill="#263238"/>
<path d="M75.8992 11.2821C75.9347 11.6432 75.769 11.9569 75.5322 11.9747C75.2954 11.9925 75.0704 11.7201 75.0408 11.3827C75.0112 11.0453 75.171 10.7078 75.4078 10.6841C75.6446 10.6605 75.8637 10.915 75.8992 11.2821Z" fill="#263238"/>
<path d="M77.2194 11.3413C76.8887 12.4903 76.4006 13.588 75.769 14.6032C76.0343 14.7606 76.3312 14.8571 76.6383 14.8857C76.9455 14.9144 77.2551 14.8745 77.545 14.769L77.2194 11.3413Z" fill="#ED893E"/>
<path d="M80.4872 14.9402C79.9853 15.3626 79.3648 15.6191 78.7112 15.6743C78.6829 15.6743 78.6558 15.6631 78.6358 15.6431C78.6158 15.6231 78.6046 15.596 78.6046 15.5677C78.6046 15.5395 78.6158 15.5124 78.6358 15.4924C78.6558 15.4724 78.6829 15.4612 78.7112 15.4612C79.1641 15.4306 79.6034 15.2934 79.9933 15.0609C80.3831 14.8284 80.7126 14.5072 80.9549 14.1233C80.961 14.1108 80.9697 14.0998 80.9804 14.0908C80.9911 14.0819 81.0035 14.0753 81.0168 14.0714C81.0302 14.0675 81.0442 14.0664 81.058 14.0682C81.0718 14.07 81.085 14.0746 81.0969 14.0818C81.1219 14.0945 81.1409 14.1165 81.1498 14.1431C81.1587 14.1697 81.1567 14.1988 81.1443 14.2239C80.9691 14.4995 80.7466 14.742 80.4872 14.9402Z" fill="#263238"/>
<path d="M81.2331 9.41723C81.1934 9.45557 81.1403 9.47699 81.0851 9.47699C81.0299 9.47699 80.9769 9.45557 80.9371 9.41723C80.7627 9.21321 80.5426 9.05326 80.2947 8.95038C80.0467 8.84751 79.778 8.80463 79.5104 8.82523C79.4824 8.8303 79.4536 8.8297 79.4258 8.82347C79.398 8.81723 79.3718 8.80549 79.3486 8.78893C79.3254 8.77238 79.3058 8.75134 79.2909 8.72707C79.2759 8.7028 79.2661 8.67578 79.2618 8.64762C79.2531 8.59121 79.2669 8.53366 79.3 8.48723C79.3332 8.44079 79.3832 8.40913 79.4394 8.39898C79.778 8.36555 80.1196 8.41368 80.4358 8.53933C80.752 8.66498 81.0335 8.86451 81.2568 9.12123C81.2767 9.14102 81.2924 9.16455 81.3032 9.19046C81.3139 9.21636 81.3195 9.24413 81.3195 9.27218C81.3195 9.30023 81.3139 9.32801 81.3032 9.35391C81.2924 9.37982 81.2767 9.40335 81.2568 9.42315L81.2331 9.41723Z" fill="#263238"/>
<path d="M74.0936 9.98518C74.0645 10.0096 74.0294 10.0257 73.9919 10.0319C73.9544 10.0382 73.916 10.0343 73.8805 10.0207C73.8541 10.0115 73.8298 9.99704 73.8091 9.9782C73.7884 9.95936 73.7718 9.93653 73.7602 9.91109C73.7486 9.88564 73.7422 9.85811 73.7415 9.83014C73.7408 9.80218 73.7458 9.77437 73.7562 9.74838C73.869 9.42748 74.0567 9.13814 74.3038 8.90441C74.551 8.67068 74.8503 8.49931 75.177 8.40454C75.2046 8.39871 75.233 8.39837 75.2608 8.40355C75.2885 8.40872 75.3149 8.41931 75.3386 8.4347C75.3622 8.45009 75.3826 8.46999 75.3985 8.49326C75.4145 8.51652 75.4257 8.5427 75.4315 8.5703C75.4374 8.5979 75.4377 8.62638 75.4325 8.65411C75.4273 8.68184 75.4168 8.70827 75.4014 8.73191C75.386 8.75555 75.3661 8.77592 75.3428 8.79187C75.3195 8.80782 75.2934 8.81903 75.2658 8.82486C75.0086 8.90236 74.7735 9.03996 74.5799 9.22628C74.3864 9.4126 74.24 9.64229 74.1528 9.89638C74.1401 9.9301 74.1198 9.96047 74.0936 9.98518Z" fill="#263238"/>
<path d="M96.4179 11.9449C97.8032 19.2679 93.5112 26.1943 86.7446 27.8164C86.4842 27.8756 86.2178 27.9289 85.9514 27.9763C82.689 28.5345 79.3366 27.8251 76.58 25.9931C78.4523 26.459 80.4117 26.4474 82.2784 25.9594C84.1451 25.4714 85.8595 24.5226 87.2643 23.2C88.6691 21.8774 89.7194 20.2234 90.3189 18.3894C90.9185 16.5555 91.048 14.6004 90.6957 12.7034C90.3434 10.8064 89.5206 9.02816 88.3026 7.53175C87.0846 6.03535 85.5104 4.86864 83.7244 4.13859C81.9385 3.40855 79.9978 3.13853 78.0803 3.35329C76.1629 3.56805 74.33 4.26071 72.7498 5.36778C74.0754 3.58743 75.8425 2.18358 77.8765 1.29482C78.7892 0.90199 79.7449 0.617852 80.724 0.448259C87.9523 -0.806781 94.9734 4.31994 96.4179 11.9449Z" fill="#624DE3"/>
<path opacity="0.8" d="M96.4179 11.9449C97.8032 19.2679 93.5112 26.1943 86.7446 27.8164C86.4842 27.8756 86.2178 27.9289 85.9514 27.9763C82.689 28.5345 79.3366 27.8251 76.58 25.9931C78.4523 26.459 80.4117 26.4474 82.2784 25.9594C84.1451 25.4714 85.8595 24.5226 87.2643 23.2C88.6691 21.8774 89.7194 20.2234 90.3189 18.3894C90.9185 16.5555 91.048 14.6004 90.6957 12.7034C90.3434 10.8064 89.5206 9.02816 88.3026 7.53175C87.0846 6.03535 85.5104 4.86864 83.7244 4.13859C81.9385 3.40855 79.9978 3.13853 78.0803 3.35329C76.1629 3.56805 74.33 4.26071 72.7498 5.36778C74.0754 3.58743 75.8425 2.18358 77.8765 1.29482C78.7892 0.90199 79.7449 0.617852 80.724 0.448259C87.9523 -0.806781 94.9734 4.31994 96.4179 11.9449Z" fill="white"/>
<path d="M93.748 12.8331C95.0445 19.3807 92.0134 25.5315 86.7742 27.8167C85.9283 28.1797 85.0418 28.44 84.1339 28.5922C79.8597 29.2907 75.621 27.497 72.6906 24.1877C74.4097 25.4168 76.4336 26.1496 78.5411 26.306C80.6486 26.4624 82.7586 26.0364 84.6403 25.0745C86.522 24.1126 88.1031 22.652 89.2106 20.8521C90.3182 19.0523 90.9096 16.9826 90.9203 14.8694C90.9309 12.7561 90.3604 10.6806 89.271 8.86968C88.1816 7.0588 86.6153 5.58228 84.7434 4.60153C82.8714 3.62077 80.7659 3.17354 78.6569 3.30872C76.5479 3.4439 74.5167 4.15629 72.7853 5.36801C71.6636 6.14529 70.6927 7.12021 69.92 8.24513C70.6119 6.53993 71.6962 5.02192 73.0849 3.81434C74.4735 2.60676 76.1273 1.74364 77.912 1.29505C78.1666 1.23585 78.4211 1.18849 78.6757 1.14113C85.46 0.0104134 92.2206 5.25553 93.748 12.8331Z" fill="#624DE3"/>
<path opacity="0.6" d="M93.748 12.8331C95.0445 19.3807 92.0134 25.5315 86.7742 27.8167C85.9283 28.1797 85.0418 28.44 84.1339 28.5922C79.8597 29.2907 75.621 27.497 72.6906 24.1877C74.4097 25.4168 76.4336 26.1496 78.5411 26.306C80.6486 26.4624 82.7586 26.0364 84.6403 25.0745C86.522 24.1126 88.1031 22.652 89.2106 20.8521C90.3182 19.0523 90.9096 16.9826 90.9203 14.8694C90.9309 12.7561 90.3604 10.6806 89.271 8.86968C88.1816 7.0588 86.6153 5.58228 84.7434 4.60153C82.8714 3.62077 80.7659 3.17354 78.6569 3.30872C76.5479 3.4439 74.5167 4.15629 72.7853 5.36801C71.6636 6.14529 70.6927 7.12021 69.92 8.24513C70.6119 6.53993 71.6962 5.02192 73.0849 3.81434C74.4735 2.60676 76.1273 1.74364 77.912 1.29505C78.1666 1.23585 78.4211 1.18849 78.6757 1.14113C85.46 0.0104134 92.2206 5.25553 93.748 12.8331Z" fill="white"/>
<path opacity="0.2" d="M90.8827 14.2598C90.9913 16.5368 90.4223 18.7948 89.2477 20.7484C88.073 22.702 86.3455 24.2635 84.2834 25.2353C82.2214 26.2071 79.9175 26.5457 77.6631 26.2082C75.4086 25.8707 73.3049 24.8723 71.6179 23.3392C69.9308 21.8061 68.7362 19.8073 68.1852 17.5953C67.6341 15.3833 67.7513 13.0577 68.522 10.9123C69.2926 8.76696 70.6821 6.8983 72.5147 5.5426C74.3473 4.18691 76.5408 3.40506 78.8178 3.29593C80.3299 3.22346 81.8415 3.44957 83.2662 3.96136C84.691 4.47315 86.0009 5.2606 87.1213 6.27871C88.2417 7.29683 89.1505 8.52569 89.7959 9.8951C90.4413 11.2645 90.8106 12.7476 90.8827 14.2598Z" fill="#624DE3"/>
<path opacity="0.2" d="M67.8539 15.3607C67.9999 18.4145 69.3531 21.2852 71.6157 23.3413C73.8783 25.3975 76.8651 26.4705 79.9189 26.3245C82.9727 26.1785 85.8434 24.8253 87.8996 22.5627C89.9557 20.3001 91.0288 17.3134 90.8827 14.2596C85.7087 13.0933 73.1938 12.2764 67.8539 15.3607Z" fill="#624DE3"/>
<path opacity="0.2" d="M92.6232 42.2496C87.3418 42.5665 82.0906 43.2689 76.9115 44.3512L76.6215 44.0848L92.0608 33.5176L92.345 33.784C92.345 33.784 92.4693 39.4435 92.6232 42.2496Z" fill="black"/>
<path d="M92.339 41.9832C87.0557 42.3005 81.8025 43.0029 76.6214 44.0848C76.3314 41.2491 76.1064 38.3957 75.9643 35.5185C81.277 34.4799 86.6555 33.8113 92.0608 33.5176C92.0924 36.3552 92.1851 39.1771 92.339 41.9832Z" fill="white"/>
<path opacity="0.3" d="M88.9706 36.2524C88.9694 36.4607 88.9086 36.6644 88.7952 36.8392C88.6818 37.014 88.5207 37.1527 88.3309 37.2387C88.1411 37.3247 87.9307 37.3544 87.7245 37.3244C87.5183 37.2944 87.325 37.2059 87.1676 37.0694C87.0102 36.9329 86.8952 36.7541 86.8364 36.5542C86.7775 36.3543 86.7772 36.1418 86.8355 35.9417C86.8938 35.7417 87.0083 35.5626 87.1653 35.4256C87.3223 35.2886 87.5153 35.1996 87.7214 35.169C88.0298 35.151 88.3331 35.2541 88.5664 35.4565C88.7998 35.6589 88.9448 35.9445 88.9706 36.2524Z" fill="#624DE3"/>
<path opacity="0.3" d="M89.0653 39.6207C89.0643 39.8294 89.0034 40.0333 88.8899 40.2084C88.7764 40.3835 88.6149 40.5222 88.4248 40.6082C88.2347 40.6942 88.0239 40.7237 87.8175 40.6934C87.611 40.663 87.4177 40.574 87.2603 40.4369C87.103 40.2998 86.9884 40.1204 86.9301 39.9201C86.8718 39.7198 86.8722 39.5069 86.9314 39.3068C86.9906 39.1067 87.106 38.9278 87.2639 38.7914C87.4218 38.655 87.6155 38.5668 87.822 38.5373C88.1294 38.5209 88.4312 38.6248 88.6633 38.827C88.8953 39.0293 89.0395 39.3139 89.0653 39.6207Z" fill="#624DE3"/>
<path d="M78.5632 41.6632C80.4773 41.3209 82.4078 41.0779 84.347 40.935C83.0624 39.159 81.1384 36.1221 81.1384 36.1221C80.1778 37.9199 79.3181 39.7698 78.5632 41.6632Z" fill="#624DE3"/>
</svg>
