<svg width="45" height="45" viewBox="0 0 45 45" fill="none" xmlns="http://www.w3.org/2000/svg">
<rect width="45" height="45" rx="20" fill="url(#paint0_linear_769_2)"/>
<path d="M20.394 12.0817C20.2528 12.1189 19.9555 12.1932 19.7474 12.2378C19.5318 12.2824 19.3535 12.3493 19.3535 12.379C19.3535 12.4088 19.294 12.4385 19.2122 12.4385C19.1379 12.4385 18.9744 12.4905 18.8629 12.55C18.744 12.6095 18.573 12.6615 18.4764 12.6615C18.3798 12.6615 18.3277 12.6912 18.35 12.7358C18.3723 12.773 18.3352 12.8101 18.2609 12.8101C18.1865 12.8101 18.0602 12.8622 17.9858 12.9216C17.9041 12.9811 17.7777 13.0331 17.7034 13.0331C17.6291 13.0331 17.5696 13.0629 17.5696 13.1074C17.5696 13.1446 17.5176 13.1818 17.4581 13.1818C17.3987 13.1818 17.3466 13.2041 17.3466 13.2412C17.3466 13.2933 17.1237 13.4271 16.8858 13.5237C16.8115 13.546 16.752 13.598 16.752 13.6352C16.752 13.6723 16.7 13.7021 16.6405 13.7021C16.5811 13.7021 16.529 13.7318 16.529 13.7764C16.529 13.8135 16.4473 13.8656 16.3432 13.8953C16.2392 13.9176 16.1797 13.9696 16.202 14.0068C16.2243 14.044 16.202 14.0737 16.1574 14.0737C16.0682 14.0737 15.979 14.1406 15.5554 14.5345C15.3919 14.6906 15.2283 14.817 15.1912 14.817C15.1466 14.817 15.1168 14.8393 15.1168 14.8764C15.1168 14.9061 14.9756 15.0845 14.7972 15.2629C14.6263 15.4487 14.381 15.7312 14.2621 15.8947C14.1432 16.0582 13.9648 16.2663 13.8756 16.3555C13.779 16.4447 13.7046 16.5711 13.7046 16.638C13.7046 16.6974 13.6823 16.7494 13.6452 16.7494C13.5932 16.7494 13.4594 16.9724 13.3627 17.2103C13.3404 17.2846 13.2884 17.3441 13.2513 17.3441C13.2141 17.3441 13.1844 17.3961 13.1844 17.4555C13.1844 17.515 13.1472 17.567 13.1026 17.567C13.0654 17.567 13.0506 17.5968 13.0729 17.6414C13.0952 17.6785 13.0803 17.7157 13.0431 17.7157C12.9985 17.7157 12.9614 17.7826 12.9614 17.8643C12.9614 17.9461 12.9316 18.013 12.8871 18.013C12.8499 18.013 12.8127 18.0948 12.8127 18.1988C12.8127 18.3029 12.783 18.3846 12.7384 18.3846C12.7012 18.3846 12.6492 18.5035 12.6195 18.6448C12.5972 18.786 12.5451 18.9272 12.508 18.9495C12.4708 18.9718 12.4411 19.0684 12.4411 19.1725C12.4411 19.2691 12.4114 19.3509 12.3816 19.3509C12.3519 19.3509 12.285 19.5293 12.2404 19.7374C12.1958 19.9529 12.1215 20.2874 12.0695 20.4806C11.9505 20.9563 11.9951 24.9328 12.1215 25.0814C12.1661 25.1409 12.2255 25.3416 12.2553 25.5423C12.285 25.7355 12.337 25.9139 12.3742 25.9362C12.4114 25.9585 12.4411 26.0551 12.4411 26.1592C12.4411 26.2558 12.4708 26.3376 12.508 26.3376C12.5526 26.3376 12.6046 26.4862 12.6343 26.672C12.6566 26.8578 12.7087 26.9842 12.7458 26.9619C12.783 26.9396 12.8127 26.9768 12.8127 27.0437C12.8127 27.1031 12.8945 27.2889 12.9985 27.4525C13.1026 27.616 13.1844 27.7944 13.1844 27.8613C13.1844 27.9207 13.2141 27.9727 13.2438 27.9727C13.2735 27.9727 13.4222 28.1809 13.5783 28.4336C13.7269 28.6937 13.9351 28.991 14.0391 29.1025C14.1432 29.214 14.2249 29.3255 14.2249 29.3478C14.2249 29.437 15.154 30.3884 15.6371 30.7971C15.8081 30.9384 16.0236 31.1316 16.1203 31.2208C16.2169 31.3174 16.3358 31.3918 16.373 31.3918C16.4176 31.3918 16.5216 31.4661 16.6182 31.5553C16.7149 31.6519 16.9304 31.7931 17.1014 31.8749C17.2797 31.9566 17.421 32.0458 17.421 32.0756C17.421 32.1127 17.473 32.135 17.5325 32.135C17.5919 32.135 17.6439 32.1648 17.6439 32.2094C17.6439 32.2465 17.7034 32.2837 17.7777 32.2837C17.8521 32.2837 17.9784 32.3357 18.0602 32.3952C18.1345 32.4546 18.2683 32.5067 18.3426 32.5067C18.4244 32.5067 18.4615 32.529 18.4318 32.5587C18.3872 32.6033 18.8406 32.7594 19.3014 32.856C19.4129 32.8783 19.5021 32.9229 19.5021 32.96C19.5021 32.9972 19.5764 33.0269 19.6731 33.0269C19.9332 33.0269 20.394 33.1756 20.394 33.2574C20.394 33.2945 20.4758 33.4209 20.5798 33.5324C20.6839 33.6439 20.7657 33.7553 20.7657 33.7925C20.7657 33.8222 20.8474 33.9263 20.9366 34.0155C21.0332 34.1047 21.2042 34.3128 21.3082 34.4763C21.4123 34.6398 21.5833 34.8702 21.6873 34.9892C21.7914 35.1081 21.8806 35.227 21.8806 35.2567C21.8806 35.279 21.94 35.3682 22.0143 35.45C22.0887 35.5317 22.215 35.6878 22.2819 35.7993C22.386 35.9554 22.4752 36 22.6684 36C22.8096 36 22.9211 35.9628 22.9211 35.9182C22.9211 35.8662 23.0029 35.7547 23.1069 35.6581C23.211 35.5615 23.2928 35.4648 23.2928 35.4426C23.2928 35.4203 23.3299 35.3608 23.3671 35.3088C23.7164 34.9 23.8205 34.7587 23.8576 34.6398C23.8799 34.5729 23.932 34.5135 23.9691 34.5135C24.0063 34.5135 24.036 34.4763 24.036 34.4317C24.036 34.3871 24.0806 34.3128 24.1326 34.2533C24.1772 34.2013 24.2887 34.0675 24.3705 33.956C24.4523 33.852 24.5712 33.7033 24.6306 33.6364C24.6901 33.5621 24.8016 33.4209 24.8685 33.3094C24.9725 33.1533 25.0766 33.1013 25.4111 33.0641C25.634 33.0344 25.8199 32.9823 25.8199 32.9452C25.8199 32.908 25.8793 32.8783 25.9611 32.8783C26.0354 32.8783 26.1989 32.8263 26.3104 32.7668C26.4293 32.7073 26.6003 32.6553 26.6969 32.6553C26.7861 32.6553 26.8604 32.6181 26.8604 32.581C26.8604 32.5364 26.9273 32.5067 27.0091 32.5067C27.0908 32.5067 27.1577 32.4769 27.1577 32.4323C27.1577 32.3952 27.2767 32.3431 27.4179 32.3134C27.5665 32.2911 27.6706 32.2465 27.6483 32.2242C27.626 32.2019 27.6855 32.1425 27.7895 32.0904C28.2057 31.8749 28.4659 31.7188 28.5997 31.5924C28.6814 31.5255 28.7706 31.4661 28.7929 31.4661C28.8226 31.4661 28.9416 31.3843 29.0605 31.2803C29.1794 31.1762 29.2983 31.0945 29.3281 31.0945C29.3578 31.0945 29.5956 30.8863 29.8632 30.6262C30.1308 30.3735 30.3909 30.1282 30.443 30.0836C30.495 30.0316 30.6436 29.8681 30.7626 29.7194C30.8889 29.5633 31.0747 29.3329 31.1937 29.2066C31.3052 29.0802 31.4166 28.9167 31.4389 28.8498C31.4612 28.7755 31.5133 28.716 31.5504 28.716C31.5876 28.716 31.6173 28.664 31.6173 28.6045C31.6173 28.5451 31.6471 28.493 31.6768 28.493C31.714 28.493 31.8031 28.3444 31.8849 28.1586C31.9592 27.9727 32.0484 27.8241 32.0781 27.8241C32.1079 27.8241 32.1376 27.7721 32.1376 27.7126C32.1376 27.6531 32.1673 27.6011 32.1971 27.6011C32.264 27.6011 32.5092 27.0808 32.5092 26.9322C32.5092 26.8801 32.5315 26.8578 32.5613 26.8876C32.6059 26.9322 32.762 26.4788 32.8586 26.018C32.8809 25.9065 32.9255 25.8173 32.9552 25.8173C32.9849 25.8173 33.037 25.624 33.0667 25.3862C33.0964 25.1558 33.1559 24.9179 33.2005 24.8585C33.3194 24.7172 33.3714 21.2313 33.2599 20.7259C33.0667 19.7968 32.9998 19.5367 32.9552 19.4995C32.9255 19.4772 32.8809 19.3806 32.8586 19.2765C32.7025 18.6373 32.6207 18.3846 32.5687 18.3846C32.5315 18.3846 32.5092 18.3177 32.5092 18.2434C32.5092 18.1616 32.4869 18.0873 32.4572 18.0725C32.3755 18.0427 32.1376 17.5745 32.1376 17.4481C32.1376 17.3887 32.1079 17.3441 32.0781 17.3441C32.0484 17.3441 31.9221 17.1731 31.8031 16.9724C31.6842 16.7643 31.5653 16.6008 31.5356 16.6008C31.5058 16.6008 31.4612 16.5413 31.4389 16.467C31.4166 16.4001 31.2977 16.2217 31.1714 16.0805C31.0524 15.9393 30.9484 15.7981 30.9484 15.7758C30.9484 15.7163 30.0862 14.8541 29.6848 14.5197C29.5213 14.3784 29.276 14.1703 29.1497 14.0514C29.0308 13.9399 28.9044 13.8507 28.8747 13.8507C28.8449 13.8507 28.7558 13.7913 28.674 13.7169C28.5328 13.598 28.1983 13.3973 27.849 13.2264C27.7523 13.1818 27.678 13.1223 27.678 13.0926C27.678 13.0703 27.5814 13.0257 27.455 12.996C27.3361 12.9662 27.2321 12.9142 27.2321 12.877C27.2321 12.8399 27.1652 12.8101 27.0834 12.8101C27.0017 12.8101 26.9348 12.7804 26.9348 12.7432C26.9348 12.7061 26.801 12.6541 26.6375 12.6243C26.4739 12.5946 26.3253 12.5426 26.2955 12.5054C26.2733 12.4682 26.1915 12.4385 26.1097 12.4385C26.0354 12.4385 25.9685 12.4088 25.9685 12.3716C25.9685 12.3345 25.8124 12.2899 25.6192 12.2601C25.4185 12.2378 25.1286 12.1635 24.9651 12.104C24.7347 12.0223 24.2293 12 22.661 12C21.561 12.0074 20.5352 12.0371 20.394 12.0817ZM23.9766 15.0325C23.9171 15.0697 24.0881 15.1068 24.4225 15.1366C24.7198 15.1589 24.9725 15.2183 24.9874 15.2629C25.0023 15.3001 25.0989 15.3372 25.1955 15.3372C25.2921 15.3372 25.3739 15.367 25.3739 15.4116C25.3739 15.4487 25.4259 15.4859 25.4854 15.4859C25.6415 15.4859 26.1915 15.7312 26.1915 15.7981C26.1915 15.8352 26.251 15.8575 26.3327 15.8575C26.407 15.8575 26.5111 15.9096 26.5631 15.969C26.6152 16.0285 26.7043 16.0805 26.7564 16.0805C26.8158 16.0805 26.8604 16.1102 26.8604 16.1548C26.8604 16.192 26.8976 16.2292 26.9348 16.2292C27.0165 16.2292 27.1206 16.3035 27.4179 16.5785C27.5145 16.6751 27.6186 16.7494 27.6483 16.7494C27.7449 16.7494 28.6294 17.7083 28.6814 17.8643C28.7037 17.9461 28.7632 18.013 28.8004 18.013C28.8375 18.013 28.9267 18.1319 28.9936 18.2731C29.0605 18.4144 29.1423 18.5333 29.1794 18.5333C29.2091 18.5333 29.2389 18.5853 29.2389 18.6448C29.2389 18.7042 29.276 18.7563 29.3132 18.7563C29.3578 18.7563 29.3875 18.7934 29.3875 18.838C29.3875 18.9495 29.6254 19.4549 29.7071 19.507C29.7443 19.5293 29.7889 19.6928 29.8112 19.8563C29.8335 20.0272 29.8781 20.1462 29.9152 20.1239C29.9524 20.1016 29.9821 20.1833 29.9821 20.2948C29.9821 20.4137 30.0193 20.5475 30.0639 20.5921C30.1085 20.6367 30.1605 20.9638 30.1828 21.3131C30.2051 21.6624 30.2572 21.93 30.2869 21.9077C30.324 21.8854 30.3538 22.1901 30.3538 22.5841C30.3538 22.978 30.324 23.2827 30.2869 23.2604C30.2572 23.2381 30.2051 23.5057 30.1828 23.8551C30.1605 24.2044 30.1085 24.5314 30.0639 24.576C30.0193 24.6206 29.9821 24.7544 29.9821 24.8733C29.9821 24.9848 29.9524 25.0666 29.9152 25.0443C29.8781 25.022 29.8335 25.1409 29.8112 25.3119C29.7889 25.4902 29.7294 25.6389 29.6923 25.6538C29.6477 25.6686 29.6105 25.7429 29.6105 25.8247C29.6105 25.899 29.5808 25.9659 29.5436 25.9659C29.5065 25.9659 29.4544 26.0551 29.4247 26.1666C29.4024 26.2781 29.3504 26.3896 29.3206 26.4119C29.2909 26.4342 29.172 26.6126 29.0605 26.8132C28.8078 27.2443 28.7558 27.3112 28.072 27.995C27.3881 28.6863 27.0908 28.939 26.9645 28.939C26.905 28.939 26.8604 28.9687 26.8604 29.0133C26.8604 29.0505 26.8084 29.0876 26.7489 29.0876C26.6895 29.0876 26.6375 29.1174 26.6375 29.1545C26.6375 29.1917 26.4888 29.2809 26.303 29.3626C26.1172 29.437 25.9685 29.5187 25.9685 29.5485C25.9685 29.5856 25.9239 29.6079 25.8645 29.6079C25.8124 29.6079 25.6638 29.66 25.5523 29.7194C25.4334 29.7789 25.2475 29.8309 25.1361 29.8309C25.0171 29.8309 24.9279 29.8606 24.9279 29.9052C24.9279 29.9424 24.8536 29.9796 24.757 29.9796C24.6604 29.9796 24.5414 30.0242 24.4968 30.0687C24.3631 30.2025 20.9589 30.2025 20.8326 30.0687C20.7805 30.0242 20.6393 29.9796 20.5278 29.9796C20.4163 29.9796 20.3197 29.9424 20.3197 29.9052C20.3197 29.8606 20.2379 29.8309 20.1339 29.8309C19.9258 29.8309 19.3535 29.6005 19.3535 29.5187C19.3535 29.4816 19.3014 29.4593 19.2345 29.4593C19.1007 29.4593 18.6622 29.2289 18.6251 29.1397C18.6102 29.1099 18.5433 29.0876 18.4838 29.0876C18.4169 29.0876 18.3798 29.0653 18.4095 29.043C18.4318 29.0133 18.35 28.939 18.2163 28.8721C17.8446 28.6788 17.2946 28.1734 16.752 27.5268C16.6108 27.3558 16.4547 27.1774 16.4027 27.118C16.3507 27.066 16.3358 27.0065 16.3581 26.9768C16.3878 26.9545 16.3655 26.9322 16.3209 26.9322C16.2689 26.9322 16.2317 26.8801 16.2317 26.8207C16.2317 26.7612 16.2094 26.7092 16.1797 26.7092C16.098 26.7092 15.8601 26.2781 15.8601 26.1443C15.8601 26.0848 15.8378 26.0403 15.8006 26.0403C15.7263 26.0403 15.4885 25.4828 15.4885 25.297C15.4885 25.2152 15.4587 25.1483 15.4142 25.1483C15.377 25.1483 15.3398 25.074 15.3398 24.9774C15.3398 24.8808 15.3027 24.7693 15.2581 24.7247C15.2135 24.6801 15.1614 24.3902 15.1391 24.078C15.1094 23.7287 15.0722 23.5429 15.0351 23.6023C14.9979 23.6544 14.9756 23.2084 14.9756 22.5841C14.9756 21.9672 15.0054 21.5361 15.0351 21.6178C15.0722 21.707 15.1094 21.5286 15.1466 21.0975C15.1689 20.7259 15.2283 20.4137 15.2655 20.4063C15.3101 20.3914 15.3398 20.2948 15.3398 20.1982C15.3398 20.1016 15.377 20.0198 15.4142 20.0198C15.4587 20.0198 15.4885 19.9529 15.4885 19.8637C15.4885 19.7151 15.6892 19.2097 15.7858 19.1279C15.8081 19.1056 15.8898 18.9495 15.9642 18.7711C16.0459 18.6002 16.1351 18.459 16.1723 18.459C16.202 18.459 16.2317 18.4218 16.2317 18.3772C16.2317 18.3326 16.3061 18.1988 16.4027 18.0725C16.648 17.738 18.0081 16.3778 18.0973 16.3778C18.1345 16.3778 18.2311 16.3184 18.3129 16.244C18.3872 16.1771 18.5805 16.0508 18.7365 15.969C18.8926 15.8873 19.0339 15.8055 19.0561 15.7832C19.1379 15.6866 19.6433 15.4859 19.792 15.4859C19.8812 15.4859 19.9481 15.4487 19.9481 15.4116C19.9481 15.367 20.0075 15.3372 20.0819 15.3372C20.1562 15.3372 20.2528 15.3001 20.29 15.2629C20.3346 15.2183 20.6096 15.1589 20.9069 15.1366C21.2413 15.1068 21.4049 15.0697 21.3454 15.0325C21.2934 14.9953 21.8806 14.9656 22.661 14.9656C23.4414 14.9656 24.0286 14.9953 23.9766 15.0325Z" fill="white"/>
<path d="M21.5831 15.4784C21.4791 15.5156 21.2338 15.5453 21.0406 15.5528C20.825 15.5602 20.6987 15.5899 20.7284 15.6345C20.7507 15.6717 20.7061 15.7089 20.6169 15.7089C20.5351 15.7089 20.4088 15.7386 20.3345 15.7758C20.0223 15.9318 19.6358 16.0805 19.5392 16.0805C19.4797 16.0805 19.4277 16.1028 19.4277 16.1325C19.4277 16.1697 19.2865 16.2589 19.1081 16.3406C18.9371 16.4224 18.7513 16.5339 18.6993 16.5785C18.6398 16.6305 18.5283 16.7123 18.4466 16.7569C18.1864 16.8981 17.3242 17.7008 16.96 18.1542C16.7668 18.3846 16.083 19.4995 16.083 19.5813C16.083 19.611 15.9938 19.834 15.8897 20.0718C15.585 20.7556 15.5701 20.7854 15.5255 21.1347C15.3695 22.3685 15.4363 24.2787 15.6445 24.5091C15.6816 24.5537 15.7114 24.6578 15.7114 24.7544C15.7114 24.851 15.7485 24.9253 15.7857 24.9253C15.8303 24.9253 15.86 25.0071 15.86 25.1037C15.86 25.2078 15.8897 25.3044 15.9269 25.3341C15.9641 25.3564 16.0161 25.4754 16.0458 25.5943C16.0756 25.7206 16.1201 25.8173 16.1424 25.8173C16.1722 25.8173 16.2539 25.9659 16.3283 26.1517C16.41 26.3375 16.4992 26.4862 16.5364 26.4862C16.5735 26.4862 16.6033 26.5382 16.6033 26.5977C16.6033 26.6571 16.633 26.7092 16.6627 26.7092C16.6999 26.7092 16.7891 26.8281 16.8708 26.9693C16.9452 27.1105 17.0715 27.2518 17.1384 27.2741C17.2127 27.2964 17.2722 27.341 17.2722 27.3707C17.2722 27.497 18.1864 28.3444 18.3202 28.3444C18.3574 28.3444 18.3797 28.3741 18.3574 28.4113C18.3351 28.4484 18.3871 28.493 18.4837 28.5227C18.5729 28.545 18.7141 28.6194 18.7959 28.6937C18.8777 28.768 19.0858 28.8944 19.2567 28.9761C19.4351 29.0579 19.5763 29.1471 19.5763 29.1768C19.5763 29.214 19.6358 29.2363 19.7101 29.2363C19.8588 29.2437 20.5946 29.489 20.6689 29.5633C20.6912 29.5856 20.8101 29.6079 20.9291 29.6079C21.0554 29.6079 21.1298 29.6376 21.1 29.6822C21.0703 29.7343 21.5831 29.7566 22.5866 29.7566C23.59 29.7566 24.1028 29.7343 24.0731 29.6822C24.0434 29.6376 24.1325 29.6079 24.2886 29.6079C24.4298 29.6079 24.5711 29.5707 24.5934 29.5336C24.6157 29.489 24.6974 29.4593 24.7643 29.4593C24.8312 29.4593 24.9873 29.4072 25.1062 29.3478C25.2177 29.2883 25.3812 29.2363 25.4556 29.2363C25.5373 29.2363 25.5968 29.214 25.5968 29.1768C25.5968 29.1471 25.7454 29.0579 25.9312 28.9761C26.1171 28.8944 26.2657 28.8052 26.2657 28.7829C26.2657 28.7532 26.3252 28.716 26.3995 28.6863C26.6522 28.6045 26.8826 28.4261 27.5441 27.7943C28.161 27.2072 28.3469 26.8727 28.3469 26.3747C28.3469 26.1517 28.3171 25.9659 28.2725 25.9659C28.2354 25.9659 28.1982 25.9139 28.1982 25.8544C28.1982 25.795 28.0644 25.6091 27.9009 25.4456C27.663 25.2003 27.5293 25.126 27.2245 25.0814C26.8306 25.0145 26.1914 25.1112 26.1914 25.2301C26.1914 25.2672 26.1394 25.297 26.0799 25.297C26.0204 25.297 25.9684 25.3267 25.9684 25.3639C25.9684 25.4754 25.3589 26.0402 25.2474 26.0402C25.188 26.0402 25.1657 26.07 25.188 26.1146C25.2103 26.1517 25.1805 26.1889 25.1211 26.1889C25.0542 26.1889 25.0022 26.2186 25.0022 26.2558C25.0022 26.2929 24.9055 26.345 24.7792 26.3747C24.6603 26.4044 24.5562 26.4565 24.5562 26.4936C24.5562 26.5308 24.4893 26.5605 24.4075 26.5605C24.3258 26.5605 24.2589 26.5828 24.2589 26.62C24.2589 26.7463 23.642 26.8727 22.8021 26.9099C22.0663 26.9396 21.8284 26.9247 21.4494 26.8132C21.1966 26.7389 20.9885 26.6497 20.9885 26.62C20.9885 26.5903 20.9068 26.5605 20.8027 26.5605C20.6987 26.5605 20.6169 26.5308 20.6169 26.4936C20.6169 26.4565 20.5426 26.4119 20.4459 26.3821C20.3568 26.3598 20.2081 26.2781 20.1189 26.1889C20.0297 26.1071 19.9257 26.0402 19.8885 26.0402C19.8588 26.0402 19.673 25.8619 19.4797 25.6463C18.9966 25.1112 18.9817 25.0889 18.9817 24.9997C18.9817 24.9625 18.9446 24.9253 18.9 24.9253C18.8628 24.9253 18.8479 24.8882 18.8702 24.851C18.8925 24.8064 18.8777 24.7767 18.8331 24.7767C18.781 24.7767 18.7587 24.7321 18.781 24.6801C18.7959 24.6355 18.7513 24.5091 18.677 24.4125C18.4689 24.1523 18.4986 23.9294 18.781 23.6915C18.9966 23.5057 19.004 23.4983 18.8331 23.5503C18.6844 23.5949 18.6695 23.5875 18.7364 23.5131C18.9297 23.305 20.7656 23.528 20.7656 23.751C20.7656 23.7881 20.825 23.8104 20.9068 23.8104C20.9811 23.8104 21.0852 23.8625 21.1372 23.9219C21.1892 23.9814 21.2784 24.0334 21.3304 24.0334C21.3899 24.0334 21.4345 24.0632 21.4345 24.1077C21.4345 24.1449 21.4865 24.1821 21.546 24.1821C21.6054 24.1821 21.6575 24.2118 21.6575 24.2564C21.6575 24.301 22.594 24.3307 24.3184 24.3307C26.0576 24.3307 26.9346 24.301 26.8603 24.2564C26.7786 24.2044 26.8083 24.1821 26.9941 24.1821C27.232 24.1821 27.232 24.1821 27.232 23.8104V23.4388H25.2995C24.2366 23.4388 23.367 23.4165 23.367 23.3794C23.3744 23.2233 23.5231 23.1712 23.9988 23.1564C24.2886 23.1489 25.1285 23.1192 25.8792 23.0969L27.232 23.0449V22.651C27.232 22.428 27.2245 22.2496 27.2171 22.2422C27.2022 22.2422 26.4069 22.2124 25.4481 22.1753C23.5156 22.1009 23.4264 22.0861 23.3818 21.9671C23.3595 21.9003 23.8501 21.878 25.292 21.878H27.232V21.5063C27.232 21.261 27.2022 21.1347 27.1428 21.1347C27.0759 21.1347 27.0759 21.1124 27.1502 21.0678C27.2988 20.9712 26.5927 20.9266 24.3407 20.8671C22.9582 20.83 22.3413 20.8448 22.0217 20.9117C21.7764 20.9637 21.5831 21.0381 21.5831 21.0678C21.5831 21.105 21.5311 21.1347 21.4717 21.1347C21.4122 21.1347 21.3602 21.1644 21.3602 21.2016C21.3602 21.2387 21.2784 21.2908 21.1743 21.3131C21.0703 21.3428 20.9885 21.3948 20.9885 21.432C20.9885 21.4766 20.9216 21.5063 20.8399 21.5063C20.7581 21.5063 20.6912 21.5286 20.6912 21.5584C20.6912 21.707 20.2155 21.8259 19.5094 21.8557C18.7587 21.9003 18.7364 21.8928 18.6027 21.7219C18.402 21.4617 18.4317 21.261 18.7439 20.6293C19.0486 20.0049 19.9405 19.0238 20.275 18.9346C20.3791 18.9123 20.4682 18.8603 20.4682 18.8231C20.4682 18.786 20.5203 18.7562 20.5797 18.7562C20.6392 18.7562 20.6912 18.7265 20.6912 18.6968C20.6912 18.615 21.5162 18.3846 21.8284 18.3846C21.9771 18.3846 22.1034 18.3474 22.1034 18.3103C22.1034 18.2657 22.3264 18.236 22.6237 18.236C22.9136 18.236 23.144 18.2657 23.144 18.3029C23.144 18.34 23.3224 18.3846 23.5379 18.3995C23.8798 18.4292 24.6008 18.6968 24.7049 18.838C24.7272 18.8603 24.8238 18.9123 24.9204 18.9421C25.1285 19.009 25.4481 19.284 26.1765 20.0421C26.2434 20.1164 26.3921 20.1982 26.511 20.2205C26.6225 20.2428 26.7117 20.2874 26.7117 20.3245C26.7117 20.4137 27.3583 20.4137 27.4103 20.3245C27.4326 20.2874 27.5367 20.2353 27.6482 20.213C27.8266 20.1684 28.1982 19.8637 28.1982 19.7597C28.1982 19.7374 28.2651 19.6482 28.3469 19.559C28.4658 19.4326 28.4955 19.2914 28.4955 18.9272C28.4955 18.6671 28.4658 18.4589 28.4212 18.4589C28.384 18.4589 28.3469 18.4292 28.3469 18.3846C28.3469 18.1914 27.1353 16.9724 26.7265 16.7569C26.6448 16.7123 26.5333 16.6305 26.4738 16.5785C26.4218 16.5339 26.236 16.4224 26.065 16.3406C25.8866 16.2589 25.7454 16.1697 25.7454 16.1325C25.7454 16.1028 25.6934 16.0805 25.6339 16.0805C25.5745 16.0805 25.3515 15.9987 25.1359 15.8947C24.9278 15.7906 24.69 15.7089 24.6157 15.7089C24.5413 15.7089 24.4819 15.6791 24.4819 15.642C24.4819 15.6048 24.3258 15.5528 24.1325 15.5305C23.5008 15.4487 21.7764 15.419 21.5831 15.4784Z" fill="white"/>
<defs>
<linearGradient id="paint0_linear_769_2" x1="39" y1="4" x2="11.5" y2="45" gradientUnits="userSpaceOnUse">
<stop stop-color="#90EA93"/>
<stop offset="1" stop-color="#6FCF97"/>
</linearGradient>
</defs>
</svg>
