<svg width="390" height="331" viewBox="0 0 390 331" fill="none" xmlns="http://www.w3.org/2000/svg">
<path d="M117.858 232.873C84.2455 174.654 143.03 100.338 158.567 68.8171C174.105 37.2962 289.479 34.13 323.092 92.3488C356.705 150.568 314.029 263.651 293.513 260.615C272.996 257.58 151.471 291.092 117.858 232.873Z" fill="#D2F2D3"/>
<path d="M1.50039 110.5C0.667058 124.167 83.3836 229.526 110.584 243.926C137.784 258.326 157.25 228.593 163.584 211.926C166.084 207.259 172.384 199.326 177.584 204.926" stroke="black" stroke-width="2" stroke-dasharray="13 5"/>
<circle cx="185.5" cy="210.5" r="7.5" fill="black"/>
<g clip-path="url(#clip0_756_4)">
<path d="M218.208 100.825H240.844V80.5773C240.844 77.5817 239.652 74.7088 237.529 72.5906C235.407 70.4724 232.528 69.2824 229.526 69.2824C226.524 69.2825 223.646 70.4726 221.523 72.5908C219.401 74.7089 218.208 77.5817 218.208 80.5773V100.825Z" fill="#263238"/>
<path d="M225.33 95.3327L209.13 95.9492C208.565 95.4649 205.359 91.6501 205.359 91.6501C205.359 91.6501 196.555 90.5238 196.503 90.842C196.451 91.1603 205.162 100.459 206.024 101.398C206.267 101.711 206.579 101.964 206.935 102.138C207.292 102.312 207.683 102.402 208.08 102.401C210.358 102.54 222.91 103.325 222.91 103.325L225.33 95.3327Z" fill="#FFA8A7"/>
<path d="M141.882 168.207L141.396 167.93C140.989 167.666 140.651 167.309 140.408 166.889C140.165 166.469 140.024 165.998 139.998 165.514V115.84C140.024 115.356 140.165 114.885 140.407 114.465C140.65 114.045 140.989 113.688 141.396 113.424L205.328 76.593C205.762 76.3736 206.241 76.2593 206.727 76.2593C207.213 76.2593 207.692 76.3736 208.125 76.593L208.61 76.8697C209.017 77.1345 209.356 77.4912 209.599 77.9111C209.842 78.331 209.982 78.8022 210.009 79.2863V128.96C209.982 129.444 209.842 129.915 209.599 130.335C209.356 130.755 209.018 131.112 208.611 131.377L144.678 168.207C144.245 168.427 143.766 168.541 143.28 168.541C142.794 168.541 142.315 168.427 141.882 168.207Z" fill="#6FCF97"/>
<path opacity="0.4" d="M209.995 79.0642C209.899 78.3413 209.314 78.0777 208.608 78.4796L144.675 115.316C144.263 115.573 143.922 115.93 143.686 116.354L140.413 114.469C140.647 114.042 140.988 113.682 141.402 113.424L205.33 76.5944C205.764 76.3747 206.243 76.2602 206.729 76.2602C207.215 76.2602 207.694 76.3747 208.128 76.5944L208.613 76.8711C208.987 77.1169 209.304 77.4398 209.542 77.8181C209.78 78.1965 209.935 78.6214 209.995 79.0642Z" fill="white"/>
<path opacity="0.1" d="M144.44 168.317C144.031 168.48 143.591 168.555 143.151 168.537C142.71 168.518 142.279 168.405 141.885 168.207L141.395 167.93C140.989 167.665 140.652 167.307 140.41 166.887C140.168 166.467 140.029 165.996 140.003 165.513V115.841C140.018 115.355 140.159 114.882 140.413 114.468L143.686 116.353C143.437 116.769 143.296 117.241 143.276 117.726V167.403C143.276 168.2 143.782 168.573 144.44 168.317Z" fill="black"/>
<path d="M149.739 118.051L154.547 115.283C154.897 115.082 155.181 115.245 155.181 115.648V121.045C155.169 121.264 155.105 121.477 154.995 121.666C154.884 121.856 154.729 122.016 154.544 122.134L149.743 124.843C149.391 125.042 149.105 124.875 149.105 124.472V119.153C149.116 118.932 149.179 118.717 149.289 118.526C149.399 118.334 149.553 118.171 149.739 118.051Z" fill="#FAFAFA"/>
<path d="M153.924 121.36C153.865 121.405 153.793 121.431 153.719 121.435C153.645 121.439 153.571 121.42 153.508 121.381L152.022 120.259C151.823 120.109 151.848 119.695 152.077 119.335C152.306 118.974 152.654 118.803 152.851 118.953L153.887 119.734L156.764 113.563C156.944 113.178 157.288 112.92 157.532 112.986C157.776 113.051 157.829 113.418 157.649 113.803L154.365 120.847C154.275 121.05 154.129 121.223 153.945 121.347L153.924 121.36Z" fill="#37474F"/>
<path d="M149.739 129.808L154.547 127.04C154.897 126.839 155.181 127.002 155.181 127.406V132.802C155.169 133.021 155.105 133.234 154.995 133.423C154.884 133.613 154.729 133.773 154.544 133.891L149.743 136.6C149.391 136.799 149.105 136.633 149.105 136.229V130.903C149.117 130.684 149.181 130.47 149.291 130.28C149.401 130.09 149.554 129.928 149.739 129.808Z" fill="#FAFAFA"/>
<path d="M153.924 133.117C153.865 133.162 153.793 133.188 153.719 133.192C153.645 133.196 153.571 133.177 153.508 133.138L152.022 132.016C151.823 131.866 151.848 131.452 152.077 131.092C152.306 130.731 152.654 130.56 152.851 130.71L153.887 131.492L156.764 125.32C156.944 124.935 157.288 124.677 157.532 124.743C157.776 124.808 157.829 125.175 157.649 125.56L154.365 132.604C154.275 132.807 154.129 132.98 153.945 133.105L153.924 133.117Z" fill="#37474F"/>
<path d="M149.739 141.565L154.547 138.797C154.897 138.595 155.181 138.759 155.181 139.163V144.555C155.169 144.774 155.105 144.987 154.995 145.177C154.884 145.366 154.729 145.527 154.544 145.645L149.743 148.354C149.391 148.552 149.105 148.386 149.105 147.983V142.663C149.117 142.443 149.18 142.229 149.29 142.038C149.4 141.847 149.554 141.685 149.739 141.565Z" fill="#FAFAFA"/>
<path d="M153.924 144.874C153.865 144.919 153.793 144.945 153.719 144.949C153.645 144.953 153.571 144.934 153.508 144.895L152.022 143.773C151.823 143.624 151.848 143.209 152.077 142.849C152.306 142.488 152.654 142.317 152.851 142.467L153.887 143.249L156.764 137.077C156.944 136.692 157.288 136.434 157.532 136.5C157.776 136.565 157.829 136.932 157.649 137.317L154.365 144.361C154.275 144.564 154.129 144.737 153.945 144.862L153.924 144.874Z" fill="#37474F"/>
<path d="M149.739 153.354L154.547 150.586C154.897 150.384 155.181 150.547 155.181 150.951V156.342C155.169 156.561 155.105 156.775 154.995 156.964C154.884 157.154 154.73 157.314 154.544 157.433L149.743 160.141C149.391 160.34 149.105 160.173 149.105 159.77V154.451C149.117 154.231 149.18 154.017 149.29 153.826C149.4 153.636 149.554 153.474 149.739 153.354Z" fill="#FAFAFA"/>
<path d="M153.924 156.663C153.865 156.708 153.793 156.734 153.719 156.737C153.645 156.741 153.571 156.722 153.508 156.683L152.022 155.561C151.823 155.412 151.848 154.998 152.077 154.637C152.306 154.276 152.654 154.105 152.851 154.255L153.887 155.037L156.764 148.866C156.944 148.481 157.288 148.223 157.532 148.289C157.776 148.354 157.829 148.72 157.649 149.105L154.365 156.15C154.275 156.353 154.129 156.526 153.945 156.65L153.924 156.663Z" fill="#37474F"/>
<path d="M161.126 112.99C161.126 113.642 161.694 113.844 162.394 113.441L180.676 102.908C181.022 102.709 181.317 102.433 181.538 102.101C181.758 101.769 181.897 101.39 181.945 100.995C181.945 100.342 181.377 100.14 180.677 100.544L162.394 111.078C162.049 111.276 161.754 111.552 161.534 111.884C161.314 112.216 161.174 112.595 161.126 112.99Z" fill="#455A64"/>
<path d="M161.126 116.952C161.126 117.604 161.694 117.806 162.394 117.403L201.494 94.9066C201.84 94.7082 202.134 94.432 202.354 94.1001C202.574 93.7681 202.714 93.3895 202.762 92.9943C202.762 92.3412 202.194 92.1392 201.494 92.5426L162.394 115.04C162.048 115.238 161.754 115.514 161.534 115.846C161.314 116.178 161.174 116.557 161.126 116.952Z" fill="#F0F0F0"/>
<path d="M161.126 124.491C161.126 125.143 161.694 125.345 162.394 124.942L180.676 114.409C181.022 114.21 181.317 113.934 181.538 113.602C181.758 113.27 181.897 112.891 181.945 112.496C181.945 111.843 181.377 111.641 180.677 112.045L162.397 122.581C162.051 122.779 161.756 123.054 161.536 123.386C161.315 123.717 161.175 124.096 161.126 124.491Z" fill="#455A64"/>
<path d="M161.126 128.453C161.126 129.106 161.694 129.307 162.394 128.904L201.494 106.408C201.84 106.21 202.134 105.934 202.355 105.602C202.575 105.269 202.714 104.891 202.762 104.495C202.762 103.842 202.194 103.64 201.494 104.044L162.394 126.541C162.048 126.739 161.754 127.015 161.534 127.347C161.314 127.679 161.174 128.058 161.126 128.453Z" fill="#F0F0F0"/>
<path d="M161.126 136.723C161.126 137.376 161.694 137.578 162.394 137.174L180.676 126.641C181.022 126.443 181.317 126.166 181.538 125.834C181.758 125.502 181.897 125.123 181.945 124.728C181.945 124.076 181.377 123.874 180.677 124.277L162.394 134.811C162.049 135.009 161.754 135.286 161.534 135.617C161.314 135.949 161.174 136.328 161.126 136.723Z" fill="#455A64"/>
<path d="M161.126 140.685C161.126 141.338 161.694 141.54 162.394 141.136L201.494 118.641C201.84 118.442 202.134 118.166 202.355 117.834C202.575 117.502 202.714 117.123 202.762 116.728C202.762 116.075 202.194 115.873 201.494 116.276L162.394 138.773C162.048 138.972 161.754 139.248 161.534 139.58C161.314 139.912 161.174 140.29 161.126 140.685Z" fill="#F0F0F0"/>
<path d="M161.126 148.956C161.126 149.609 161.694 149.811 162.394 149.407L180.676 138.873C181.022 138.675 181.317 138.399 181.538 138.067C181.758 137.735 181.897 137.356 181.945 136.96C181.945 136.308 181.377 136.106 180.677 136.509L162.394 147.043C162.049 147.242 161.754 147.518 161.534 147.85C161.314 148.182 161.174 148.56 161.126 148.956Z" fill="#455A64"/>
<path d="M161.126 152.918C161.126 153.571 161.694 153.773 162.394 153.369L201.494 130.873C201.84 130.675 202.134 130.398 202.355 130.066C202.575 129.734 202.714 129.355 202.762 128.96C202.762 128.307 202.194 128.105 201.494 128.508L162.394 151.005C162.048 151.204 161.754 151.48 161.534 151.812C161.314 152.144 161.174 152.523 161.126 152.918Z" fill="#F0F0F0"/>
<path d="M218.005 205.175C216.696 206.551 215.258 207.799 213.711 208.902C213.466 209.057 213.262 209.268 213.115 209.517C212.912 209.937 212.597 210.978 214.518 211.647C215.488 211.983 216.519 212.106 217.542 212.008C218.564 211.911 219.553 211.594 220.442 211.08C222.019 210.094 222.09 208.045 223.577 206.877C224.68 206.011 226.057 205.788 226.947 204.658C227.568 203.87 227.406 202.822 227.086 201.524C226.732 200.108 226.57 199.033 226.1 199.145L226.177 199.796C225.591 200.73 222.553 201.005 221.201 200.361C220.22 202.02 219.153 203.627 218.005 205.175Z" fill="#263238"/>
<path d="M216.673 206.5V206.491C217.13 206.076 217.574 205.642 218.006 205.176C218.904 204.011 219.732 202.793 220.485 201.529C221.005 200.762 221.249 199.841 221.178 198.918C221.072 197.939 220.8 195.427 220.8 195.427L225.614 195.087L226.174 199.797C226.289 200.865 225.405 201.812 223.839 203.159C222.273 204.506 220.284 207.648 218.865 208.438C217.447 209.228 216.433 209.199 215.828 208.795C215.207 208.377 215.145 208.058 216.673 206.5Z" fill="#FFA8A7"/>
<path d="M239.628 205.601V204.879C239.343 205.726 238.019 209.371 236.012 211.199C234.417 212.651 232.239 214.329 231.686 215.948C231.11 217.633 234.715 218.198 236.206 217.935C238.196 217.6 240.02 216.623 241.399 215.152C242.257 214.1 242.803 212.854 243.416 212.027C244.029 211.201 245.439 210.276 245.773 209.32C245.874 208.426 245.775 207.52 245.483 206.669C245.249 205.777 244.994 204.795 244.689 204.879C244.689 204.988 244.689 205.432 244.689 205.432C243.969 205.997 243.076 206.298 242.16 206.285C241.418 206.314 239.622 206.168 239.628 205.601Z" fill="#263238"/>
<path d="M234.568 212.48C235.063 212.039 235.561 211.608 236.013 211.197C237.414 209.92 238.483 207.755 239.098 206.278C239.448 205.436 239.629 204.533 239.629 203.622V200.744H244.69V205.428V205.552L244.664 205.566C244.421 206.614 242.099 209.405 240.782 211.225C239.898 212.445 238.217 213.997 236.21 214.264C234.304 214.518 233.331 213.92 234.568 212.48Z" fill="#FFA8A7"/>
<path d="M243.681 127.143C247.602 135.692 243.542 165.805 243.542 165.805C243.66 167.193 245.249 169.922 245.841 176.028C246.541 183.242 244.743 201.356 244.743 201.356C243.972 201.803 243.103 202.055 242.212 202.09C241.321 202.125 240.435 201.943 239.631 201.559C239.631 201.559 234.809 174.277 233.903 167.106C233.112 160.846 231.593 146.133 231.593 146.133L227.041 167.113C227.579 169.143 227.877 171.23 227.927 173.329C227.858 177.568 225.878 196.135 225.878 196.135C225.878 196.135 224.117 197.164 220.804 196.677C220.804 196.677 217.615 172.279 217.708 166.591C217.758 163.547 219.089 131.142 219.089 131.142L243.681 127.143Z" fill="black"/>
<g opacity="0.15">
<path opacity="0.15" d="M231.59 146.131L230.317 139.144C230.317 139.144 224.929 138.03 222.483 135.738C224.171 137.71 226.377 139.172 228.853 139.958L230.284 146.071L227.697 164.059L231.59 146.131Z" fill="#263238"/>
</g>
<path d="M232.061 69.9721L232.322 67.0111C232.128 66.9843 231.931 66.9969 231.742 67.0484C231.554 67.0998 231.377 67.1889 231.224 67.3103C231.071 67.4317 230.944 67.5829 230.851 67.7547C230.758 67.9264 230.701 68.1152 230.683 68.3097C230.654 68.7104 230.781 69.1069 231.038 69.4166C231.294 69.7263 231.661 69.9253 232.061 69.9721Z" fill="#263238"/>
<path d="M232.22 70.2717L234.622 68.5144C234.515 68.3514 234.375 68.2119 234.212 68.1042C234.049 67.9966 233.865 67.9231 233.673 67.8883C233.481 67.8534 233.283 67.8579 233.092 67.9014C232.902 67.945 232.722 68.0266 232.564 68.1415C232.243 68.3843 232.028 68.7412 231.964 69.1379C231.9 69.5346 231.992 69.9406 232.22 70.2717Z" fill="#263238"/>
<path d="M234.714 95.5458C234.714 95.5458 240.491 96.046 241.304 96.4106C237.159 100.939 243.463 102.819 243.463 102.819L239.146 118.237C241.736 122.181 243.393 125.236 244.368 129.124C241.456 134.244 225.085 134.959 219.085 131.141C219.607 123.989 220.771 118.87 220.384 116.723C218.34 107.952 218.416 106.101 218.683 104.096C219.207 100.178 223.103 96.7621 225.33 95.3327H227.409L234.714 95.5458Z" fill="#90EA93"/>
<path d="M222.973 74.8019C221.753 75.5214 220.245 78.5827 220.395 85.0002C220.521 90.4387 222.287 91.7802 223.175 92.1697C224.062 92.5592 225.772 92.3212 227.435 92.0452V95.3092C227.435 95.3092 225.136 97.9735 225.281 99.4706C225.426 100.968 228.601 101.321 230.752 99.8587C232.308 98.6553 233.648 97.197 234.715 95.5458L234.677 88.0408C234.677 88.0408 235.656 88.9893 237.316 87.5413C238.686 86.3458 239.147 84.3298 238.078 83.2478C237.801 82.9907 237.467 82.803 237.103 82.7C236.739 82.597 236.356 82.5818 235.985 82.6556C235.614 82.7294 235.266 82.89 234.97 83.1243C234.673 83.3586 234.437 83.6599 234.28 84.0033C233.824 84.9912 232.782 85.0078 232.773 83.8815C232.724 78.0971 232.037 77.7899 231.456 75.419C227.995 74.2906 225.518 74.7057 222.973 74.8019Z" fill="#FFA8A7"/>
<path d="M226.479 83.6303C226.478 83.7645 226.516 83.896 226.589 84.0087C226.662 84.1213 226.766 84.2101 226.89 84.2639C227.013 84.3177 227.149 84.3342 227.281 84.3113C227.414 84.2885 227.537 84.2273 227.635 84.1353C227.732 84.0434 227.801 83.9248 227.832 83.7942C227.863 83.6636 227.855 83.5269 227.808 83.401C227.762 83.2751 227.679 83.1656 227.571 83.0861C227.463 83.0065 227.334 82.9605 227.199 82.9537C227.107 82.9507 227.016 82.9658 226.93 82.9982C226.844 83.0306 226.765 83.0797 226.698 83.1426C226.631 83.2054 226.577 83.2809 226.54 83.3646C226.502 83.4483 226.482 83.5386 226.479 83.6303Z" fill="#263238"/>
<path d="M226.297 88.2442L224.702 88.7506C224.731 88.857 224.781 88.9565 224.849 89.0432C224.917 89.1299 225.002 89.2021 225.099 89.2553C225.195 89.3085 225.302 89.3417 225.412 89.3529C225.521 89.3642 225.632 89.3532 225.738 89.3207C225.953 89.2484 226.131 89.0958 226.235 88.895C226.339 88.6942 226.361 88.4609 226.297 88.2442Z" fill="#F28F8F"/>
<path d="M220.973 81.8191L222.359 80.8602C222.301 80.7669 222.225 80.6864 222.135 80.6236C222.044 80.5607 221.942 80.517 221.834 80.4949C221.727 80.4728 221.615 80.4729 221.508 80.4951C221.4 80.5174 221.298 80.5613 221.208 80.6243C221.023 80.7556 220.895 80.9527 220.852 81.175C220.808 81.3972 220.851 81.6278 220.973 81.8191Z" fill="#263238"/>
<path d="M228.474 82.0391L227.088 81.0795C227.146 80.9863 227.222 80.9059 227.313 80.8431C227.403 80.7803 227.505 80.7366 227.613 80.7145C227.721 80.6924 227.832 80.6925 227.939 80.7147C228.047 80.7369 228.149 80.7808 228.239 80.8436C228.424 80.975 228.552 81.1722 228.596 81.3946C228.639 81.617 228.596 81.8477 228.474 82.0391Z" fill="#263238"/>
<path d="M221.18 83.1391C221.179 83.2732 221.217 83.4047 221.29 83.5173C221.363 83.6298 221.468 83.7185 221.591 83.7722C221.714 83.8259 221.85 83.8423 221.983 83.8193C222.115 83.7964 222.238 83.7351 222.336 83.6432C222.433 83.5512 222.502 83.4326 222.533 83.302C222.564 83.1715 222.555 83.0348 222.509 82.9089C222.462 82.7831 222.38 82.6736 222.272 82.5941C222.163 82.5146 222.034 82.4686 221.9 82.4618C221.808 82.4582 221.716 82.473 221.63 82.5052C221.543 82.5375 221.464 82.5866 221.397 82.6496C221.33 82.7127 221.277 82.7885 221.239 82.8725C221.202 82.9566 221.182 83.0472 221.18 83.1391Z" fill="#263238"/>
<path d="M224.413 82.7476L224.305 86.8647L222.133 86.1936L224.413 82.7476Z" fill="#F28F8F"/>
<path d="M227.435 92.0451C229.188 91.8155 232.794 90.7818 233.356 89.3587C233.131 90.0788 232.689 90.7125 232.092 91.1741C231.014 92.0956 227.435 93.1341 227.435 93.1341V92.0451Z" fill="#F28F8F"/>
<path d="M226.584 70.0358C225.336 70.0357 224.101 70.2809 222.948 70.7573C221.795 71.2338 220.747 71.9322 219.865 72.8126C218.983 73.6931 218.283 74.7384 217.805 75.8888C217.328 77.0392 217.082 78.2722 217.082 79.5174V80.7475H221.731C222.778 80.7475 223.789 80.369 224.577 79.6821C225.366 78.9952 225.878 78.0464 226.019 77.0116L226.189 80.7475C227.05 80.7474 227.88 80.4254 228.514 79.845C229.149 79.2645 229.542 78.4678 229.617 77.6121L229.67 77.0033C229.752 78.0229 230.216 78.9744 230.969 79.6682C231.722 80.3621 232.709 80.7474 233.734 80.7475H234.146L234.622 74.0477L226.584 70.0358Z" fill="#263238"/>
<path d="M237.52 98.9434C236.227 100.847 228.875 116.931 228.875 116.931C228.875 116.931 217.787 116.184 213.094 115.686C211.615 115.529 211.945 113.948 211.352 112.382C210.759 110.817 210.008 111.124 210.008 111.124V113.21C210.057 114.616 207.734 115.368 206.74 115.754C205.1 116.389 203.307 116.795 201.617 117.32C201.022 117.431 200.488 117.754 200.115 118.229C199.99 118.47 199.93 118.739 199.939 119.01C199.948 119.281 200.026 119.546 200.166 119.778C200.57 120.436 201.125 120.99 201.784 121.394C202.444 121.797 203.189 122.04 203.96 122.101C205.848 122.325 207.678 121.784 209.512 121.458C211.467 120.989 213.486 120.851 215.486 121.05C217.548 121.326 220.241 121.894 222.289 122.264C224.909 122.72 227.553 123.026 230.207 123.181C231.688 123.243 232.758 122.956 234.039 121.158C235.32 119.359 242.346 104.881 242.346 104.881C245.281 100.718 243.594 97.2145 241.42 96.4701C240.056 96.0017 238.813 97.0402 237.52 98.9434Z" fill="#FFA8A7"/>
<path d="M192.754 83.447C193.315 83.5242 193.866 83.6584 194.399 83.8476C195.766 84.3125 196.935 85.2267 197.714 86.4406C198.05 87.0409 198.191 87.7307 198.116 88.4144C198.099 88.5921 198.047 88.7646 197.963 88.9222C197.767 89.1963 197.499 89.4116 197.19 89.5448C196.7 89.8782 196.123 90.0605 195.53 90.0693C194.938 90.078 194.356 89.9127 193.856 89.594C192.501 88.8103 191.069 88.1666 189.583 87.6727C188.833 87.4425 188.057 87.3052 187.273 87.2639C186.823 87.2783 186.389 87.4367 186.036 87.7156C185.91 87.4077 185.873 87.0707 185.928 86.7427C185.984 86.4147 186.13 86.1088 186.351 85.8594C187.117 84.8236 188.2 84.0638 189.435 83.694C190.51 83.3702 191.643 83.2859 192.754 83.447Z" fill="#FFA8A7"/>
</g>
<defs>
<clipPath id="clip0_756_4">
<rect width="106" height="151" fill="white" transform="translate(140 67)"/>
</clipPath>
</defs>
</svg>
