<svg width="190" height="127" viewBox="0 0 190 127" fill="none" xmlns="http://www.w3.org/2000/svg">
<path d="M150.926 111.556C147.312 108.111 141.918 104.952 142.277 99.2298C142.278 99.1777 142.263 99.1267 142.232 99.0844C142.202 99.0422 142.158 99.0111 142.109 98.9958C142.059 98.9805 142.005 98.9819 141.956 98.9998C141.908 99.0177 141.866 99.0511 141.838 99.0948C141.818 99.0887 141.797 99.0886 141.778 99.0945C141.758 99.1004 141.741 99.112 141.728 99.1279C141.725 99.1287 141.723 99.1301 141.721 99.1318C141.72 99.1336 141.718 99.1358 141.718 99.1382C141.344 99.8113 141.068 100.534 140.899 101.285C140.899 101.291 140.899 101.296 140.895 101.297C140.103 104.709 141.387 108.481 143.377 111.279C144.933 113.357 146.781 115.201 148.863 116.752C150.011 117.646 151.208 118.478 152.356 119.371C153.44 120.212 154.359 121.212 155.366 122.119C155.407 122.157 155.45 122.202 155.496 122.239C155.506 122.489 155.514 122.736 155.514 122.986C155.513 123.005 155.516 123.024 155.522 123.042C155.528 123.06 155.538 123.077 155.551 123.091C155.564 123.105 155.579 123.116 155.596 123.124C155.613 123.133 155.632 123.137 155.651 123.138C155.67 123.139 155.689 123.137 155.707 123.13C155.725 123.124 155.741 123.114 155.755 123.101C155.77 123.089 155.781 123.073 155.789 123.056C155.797 123.039 155.802 123.02 155.803 123.001C155.806 122.959 155.807 122.912 155.806 122.872C155.806 122.872 155.807 122.871 155.807 122.871C155.807 122.87 155.807 122.87 155.807 122.869C155.807 122.869 155.807 122.868 155.807 122.867C155.807 122.867 155.806 122.866 155.806 122.866C155.809 122.747 155.815 122.632 155.813 122.514C155.859 122.552 155.9 122.59 155.943 122.624C155.969 122.65 156.004 122.666 156.04 122.669C156.077 122.672 156.113 122.662 156.143 122.641C156.173 122.619 156.194 122.588 156.203 122.553C156.212 122.517 156.208 122.479 156.191 122.446C156.077 122.229 155.95 122.019 155.811 121.815C155.803 121.636 155.808 121.48 155.791 121.305C155.79 121.295 155.787 121.287 155.783 121.279C155.522 117.526 153.685 114.186 150.926 111.556Z" fill="#0097A7"/>
<path d="M182.572 87.9721C178.32 91.3435 174.051 94.7298 170.287 98.6551C167.381 101.717 164.783 105.059 162.532 108.631C162.344 108.777 162.161 108.925 161.977 109.078C161.92 109.124 161.858 109.172 161.803 109.222C161.694 109.306 161.593 109.395 161.486 109.482C161.528 109.292 161.56 109.102 161.592 108.91C161.632 108.924 161.675 108.929 161.718 108.925C161.761 108.92 161.802 108.907 161.839 108.886C161.882 108.862 161.914 108.822 161.929 108.776C161.944 108.729 161.941 108.678 161.92 108.633C161.905 108.585 161.882 108.535 161.868 108.487L161.866 108.483C161.808 108.325 161.75 108.177 161.683 108.023C161.712 107.546 161.709 107.067 161.675 106.591C161.666 106.369 161.644 106.149 161.611 105.93C161.613 105.915 161.61 105.9 161.604 105.887C161.224 102.761 159.677 99.717 158.119 96.9709C154.961 91.4283 152.123 85.5931 151.707 79.1219C151.705 79.0726 151.693 79.0242 151.671 78.98C151.65 78.9357 151.619 78.8965 151.581 78.865C151.543 78.8334 151.499 78.8103 151.451 78.7971C151.404 78.7838 151.354 78.7808 151.305 78.7882L151.301 78.7901C151.26 78.7956 151.221 78.8127 151.189 78.8395C151.153 78.8653 151.121 78.8975 151.096 78.9345C149.753 80.9784 148.904 83.3074 148.618 85.7367C148.332 88.1659 148.615 90.6285 149.447 92.9289C150.484 95.6759 152.274 98.0693 154.285 100.177C156.706 102.721 159.724 104.866 161.176 108.144C161.261 108.344 161.341 108.542 161.418 108.747C161.427 108.763 161.439 108.776 161.445 108.788C161.418 109.064 161.376 109.341 161.328 109.617L161.073 109.83C161.04 109.859 161.016 109.898 161.005 109.94C160.993 109.983 160.994 110.028 161.008 110.07C161.021 110.112 161.047 110.149 161.081 110.177C161.116 110.205 161.157 110.222 161.201 110.227C161.109 110.615 160.995 110.999 160.859 111.375C160.85 111.395 160.885 111.402 160.89 111.384C160.892 111.374 160.896 111.365 160.902 111.357C160.905 111.364 160.91 111.37 160.916 111.374C160.923 111.379 160.93 111.381 160.938 111.382C160.945 111.383 160.953 111.381 160.96 111.378C160.967 111.375 160.973 111.37 160.978 111.364C161.103 111.195 161.226 111.032 161.355 110.872C161.359 110.869 161.357 110.866 161.361 110.863L161.367 110.845C161.694 110.411 162.016 109.969 162.335 109.529C162.419 109.417 162.503 109.306 162.585 109.191C163.104 108.773 163.631 108.37 164.165 107.969L164.168 107.967C167.403 105.539 170.834 103.376 173.777 100.593C175.481 98.9912 176.937 97.1449 178.097 95.1148C179.183 93.2048 180.418 91.3835 181.79 89.6677L181.792 89.6616C182.147 89.2127 182.518 88.7653 182.901 88.3218C182.937 88.2852 182.96 88.2381 182.967 88.1873C182.974 88.1365 182.965 88.0848 182.94 88.0397L182.938 88.0359C182.922 88.0039 182.898 87.976 182.869 87.9547C182.84 87.9333 182.807 87.9189 182.771 87.9127C182.736 87.9066 182.699 87.9087 182.665 87.919C182.63 87.9293 182.599 87.9475 182.572 87.9721ZM161.647 110.046C161.645 110.052 161.645 110.052 161.641 110.055L161.64 110.061L161.638 110.067C161.638 110.067 161.638 110.068 161.638 110.068C161.638 110.069 161.638 110.07 161.638 110.07C161.638 110.071 161.638 110.071 161.637 110.072C161.637 110.072 161.636 110.073 161.636 110.073C161.636 110.073 161.636 110.074 161.636 110.074C161.636 110.075 161.636 110.076 161.636 110.076C161.636 110.077 161.636 110.077 161.635 110.078C161.635 110.078 161.634 110.079 161.634 110.079C161.399 110.475 161.165 110.87 160.936 111.267C161.077 110.927 161.199 110.579 161.302 110.224C161.338 110.216 161.371 110.198 161.398 110.174C161.493 110.093 161.588 110.011 161.685 109.934C161.709 109.91 161.734 109.888 161.761 109.868C161.73 109.931 161.692 109.991 161.647 110.046Z" fill="#0097A7"/>
<path d="M167.48 62.6915C167.415 62.7721 167.35 62.8523 167.29 62.9306C165.383 65.3081 163.68 67.5472 162.626 70.4782C161.58 73.3787 161.171 76.471 161.429 79.5438C161.726 82.9088 162.936 86.1263 163.669 89.4081C164.136 91.4394 164.388 93.5142 164.422 95.5983V95.6025C164.431 96.4726 164.396 97.3426 164.317 98.2092C164.816 96.7325 165.322 95.2475 165.815 93.7686L165.819 93.7564C167.187 89.6099 168.423 85.4262 169.049 81.0855C169.909 75.1127 169.344 69.344 167.814 63.5764L167.812 63.5726C167.727 63.2305 167.634 62.8884 167.535 62.549C167.533 62.6013 167.513 62.6514 167.48 62.6915Z" fill="#0097A7"/>
<path d="M181.893 76.6764C174.677 82.4419 168.9 89.8055 165.016 98.1864C165.004 98.1921 164.992 98.1998 164.982 98.2092L164.979 98.2115C164.589 98.4491 164.201 98.6908 163.807 98.9307C163.771 98.9531 163.739 98.9819 163.714 99.0158C163.686 99.0526 163.666 99.095 163.655 99.1402C163.645 99.1854 163.644 99.2322 163.654 99.2777L163.655 99.2819C163.661 99.3321 163.68 99.3801 163.709 99.4214C163.738 99.4627 163.777 99.496 163.822 99.5182C163.868 99.5405 163.918 99.5509 163.969 99.5487C164.019 99.5465 164.068 99.5316 164.111 99.5054C164.336 99.3704 164.559 99.2317 164.782 99.093C168.462 96.8223 172.05 94.376 174.528 90.7441C177.354 86.611 179.639 82.0141 181.981 77.5856C181.981 77.5795 181.987 77.5772 181.989 77.5711C182.087 77.3811 182.19 77.1884 182.288 76.9983C182.294 76.9863 182.299 76.9735 182.303 76.9603C182.324 76.9066 182.326 76.8473 182.309 76.7921C182.292 76.737 182.257 76.6891 182.21 76.6563C182.163 76.6235 182.105 76.6076 182.048 76.6113C181.99 76.6149 181.936 76.6379 181.893 76.6764Z" fill="#0097A7"/>
<path d="M154.346 104.909C151.38 100.093 146.279 96.8128 145.317 90.903C145.289 90.713 145.073 90.7312 144.991 90.8566C144.971 90.8811 144.957 90.9096 144.949 90.9403C144.811 91.7398 144.723 92.547 144.683 93.3573C144.636 94.0933 144.638 94.8315 144.69 95.5672C144.874 98.7361 146.068 101.763 148.098 104.203C151.222 108.025 155.474 110.86 157.94 115.185C158.025 115.587 158.056 115.998 158.032 116.409C158.032 116.409 158.032 116.41 158.032 116.41C158.032 116.411 158.032 116.412 158.032 116.412C158.032 116.413 158.031 116.413 158.031 116.414C158.031 116.414 158.03 116.414 158.03 116.415C158.03 116.416 158.031 116.417 158.031 116.418C158.031 116.419 158.03 116.42 158.03 116.421C158.015 116.765 157.929 117.103 157.779 117.413C157.692 117.597 157.953 117.77 158.054 117.584C158.298 117.131 158.426 116.624 158.426 116.108L158.462 116.176C158.47 116.194 158.481 116.211 158.493 116.226C158.521 116.261 158.559 116.285 158.602 116.296C158.649 116.308 158.698 116.306 158.744 116.292C158.789 116.277 158.83 116.25 158.861 116.213C158.892 116.176 158.913 116.131 158.919 116.084C158.926 116.036 158.92 115.987 158.9 115.943C158.781 115.7 158.66 115.462 158.534 115.233C158.451 115.077 158.361 114.926 158.277 114.777C158.075 113.876 157.718 112.982 157.473 112.182C156.741 109.636 155.69 107.192 154.346 104.909Z" fill="#0097A7"/>
<path d="M180.749 99.7889C180.725 99.7895 180.703 99.7978 180.685 99.8125C175.885 102.942 171.272 106.35 166.87 110.019C164.063 112.358 161.182 114.73 158.753 117.482C158.734 117.503 158.715 117.528 158.697 117.548C158.692 117.55 158.692 117.55 158.69 117.556C158.69 117.557 158.689 117.558 158.689 117.56C158.689 117.561 158.69 117.562 158.69 117.563C158.321 117.974 157.968 118.396 157.626 118.833C157.587 118.854 157.547 118.875 157.505 118.902C157.298 119.359 157.087 119.804 156.881 120.241C157.134 120.031 157.399 119.837 157.677 119.66C157.706 119.638 157.736 119.619 157.768 119.601C158.005 119.449 158.25 119.305 158.501 119.172L158.736 119.046C158.753 119.037 158.771 119.029 158.79 119.023C160.5 118.145 162.451 117.555 164.072 116.746C166.428 115.628 168.606 114.165 170.532 112.406C173.888 109.234 176.131 105.119 179.246 101.742C179.251 101.734 179.258 101.727 179.266 101.722C179.782 101.156 180.328 100.618 180.9 100.109C180.926 100.081 180.943 100.046 180.949 100.008C180.955 99.9704 180.949 99.9319 180.933 99.8974C180.916 99.8629 180.89 99.8342 180.857 99.8148C180.825 99.7955 180.787 99.7864 180.749 99.7889Z" fill="#0097A7"/>
<path d="M154.144 126.658C154.729 125.619 155.337 124.496 155.957 123.292L155.955 123.288C156.081 123.052 156.202 122.809 156.328 122.565C156.669 121.888 157.012 121.19 157.357 120.47C157.43 120.318 157.499 120.169 157.571 120.013C157.638 119.881 157.701 119.74 157.767 119.603C157.782 119.565 157.805 119.527 157.82 119.482L157.824 119.48C157.88 119.363 157.936 119.247 157.989 119.127C158.221 118.62 158.453 118.103 158.691 117.568L158.689 117.564C158.688 117.563 158.687 117.562 158.687 117.561C158.687 117.56 158.688 117.559 158.689 117.558C158.69 117.552 158.69 117.552 158.695 117.55C158.71 117.512 158.729 117.47 158.748 117.43C159.615 115.451 160.501 113.257 161.352 110.873C161.356 110.871 161.354 110.867 161.358 110.865L161.364 110.847C161.455 110.594 161.545 110.341 161.632 110.08C161.633 110.08 161.633 110.08 161.633 110.079C161.634 110.079 161.634 110.078 161.634 110.078C161.635 110.077 161.635 110.077 161.635 110.076C161.634 110.075 161.634 110.075 161.634 110.074C161.634 110.074 161.635 110.074 161.635 110.073C161.636 110.073 161.636 110.072 161.636 110.072C161.636 110.071 161.636 110.07 161.636 110.07C161.636 110.069 161.636 110.069 161.636 110.068L161.638 110.062L161.64 110.056C161.643 110.054 161.643 110.054 161.645 110.048C161.657 110.01 161.672 109.972 161.683 109.936C161.783 109.652 161.879 109.371 161.976 109.08C163.086 105.803 164.022 102.47 164.78 99.0945C164.82 98.9299 164.856 98.7676 164.891 98.6003L164.895 98.5984C164.906 98.5315 164.922 98.4665 164.937 98.3974C164.949 98.3343 164.962 98.2716 164.975 98.2126L164.979 98.2104C165.285 96.766 165.569 95.2836 165.815 93.7697L165.818 93.7575C166.558 89.2751 166.94 84.741 166.961 80.198C166.967 80.1251 166.957 80.052 166.933 79.983C166.909 79.9141 166.871 79.8509 166.821 79.7973C166.771 79.7437 166.711 79.701 166.644 79.6717C166.577 79.6423 166.505 79.6271 166.432 79.6269C166.359 79.6268 166.287 79.6416 166.22 79.6706C166.153 79.6996 166.093 79.742 166.043 79.7954C165.993 79.8487 165.954 79.9117 165.93 79.9805C165.905 80.0493 165.895 80.1224 165.9 80.1953C165.897 81.6103 165.856 83.0079 165.777 84.3882C165.776 84.3906 165.776 84.3931 165.776 84.3955C165.777 84.3979 165.778 84.4002 165.779 84.4022C165.569 88.1602 165.114 91.9004 164.419 95.5995V95.6037C164.201 96.7627 163.965 97.9004 163.71 99.0169C163.694 99.1021 163.67 99.1914 163.65 99.2788L163.652 99.283C163.076 101.792 162.419 104.186 161.718 106.439L161.672 106.591L161.399 107.447C161.32 107.683 161.245 107.917 161.171 108.145C160.323 110.707 159.423 113.08 158.527 115.234C158.497 115.31 158.462 115.391 158.43 115.464C158.405 115.523 158.379 115.582 158.354 115.642C158.243 115.905 158.134 116.162 158.025 116.409C158.025 116.41 158.026 116.41 158.026 116.411C158.026 116.412 158.026 116.412 158.025 116.413C158.025 116.413 158.025 116.414 158.025 116.414C158.024 116.415 158.024 116.415 158.023 116.415C158.023 116.415 158.025 116.42 158.023 116.422C157.685 117.21 157.349 117.965 157.02 118.682C156.81 119.136 156.605 119.577 156.395 120.013C156.185 120.448 155.986 120.869 155.78 121.28C155.666 121.515 155.549 121.75 155.433 121.975C155.408 122.025 155.387 122.072 155.362 122.121C154.521 123.785 153.697 125.303 152.922 126.661L154.144 126.658Z" fill="#22475C"/>
<path d="M175.768 84.8883C172.526 89.8359 168.639 94.3288 164.21 98.2484C164.117 98.3372 164.061 98.4589 164.056 98.5878C164.05 98.7168 164.094 98.8429 164.18 98.9397C164.265 99.0365 164.384 99.0964 164.513 99.1069C164.642 99.1175 164.769 99.0777 164.869 98.996C169.363 95.0189 173.307 90.4604 176.597 85.441C176.664 85.331 176.686 85.1993 176.658 85.0733C176.631 84.9474 176.555 84.8371 176.448 84.7656C176.341 84.6941 176.21 84.6669 176.083 84.6898C175.956 84.7127 175.843 84.7839 175.768 84.8883Z" fill="#22475C"/>
<path d="M173.496 97.6049L160.786 109.782C160.323 110.225 160.981 110.973 161.445 110.529L174.154 98.3525C174.618 97.909 173.96 97.1609 173.496 97.6049Z" fill="#22475C"/>
<path d="M172.502 107.257C167.057 110.937 161.853 114.961 156.922 119.306C156.828 119.395 156.773 119.517 156.767 119.646C156.762 119.775 156.806 119.901 156.891 119.998C156.977 120.095 157.096 120.155 157.225 120.165C157.353 120.176 157.481 120.136 157.581 120.054C162.511 115.709 167.715 111.684 173.161 108.005C173.692 107.646 173.026 106.903 172.502 107.257Z" fill="#22475C"/>
<path d="M161.981 108.983C161.666 105.376 159.737 102.3 157.708 99.4046C155.265 95.9153 153.072 92.5705 152.376 88.2841C152.273 87.6509 151.299 87.8588 151.402 88.4917C152.022 92.3086 153.771 95.5155 155.964 98.649C158.221 101.874 160.652 105.139 161.006 109.192C161.062 109.828 162.036 109.615 161.981 108.983Z" fill="#22475C"/>
<path d="M159.016 116.211C157.862 112.962 156.014 110.065 154.024 107.27C151.804 104.154 149.52 101.08 147.265 97.9891C146.885 97.4703 146.142 98.1339 146.517 98.6482C148.688 101.623 150.878 104.585 153.024 107.577C155.06 110.414 156.952 113.352 158.127 116.661C158.341 117.263 159.229 116.809 159.016 116.211Z" fill="#22475C"/>
<path d="M156.111 122.238C154.629 118.793 152.246 116.144 149.553 113.59C146.861 111.036 144.097 108.446 142.819 104.864C142.603 104.261 141.717 104.715 141.929 105.312C143.127 108.67 145.615 111.221 148.15 113.629C151.003 116.338 153.643 119.015 155.221 122.686C155.475 123.276 156.364 122.825 156.111 122.238Z" fill="#22475C"/>
<path d="M35.0455 116.408C29.4363 115.812 22.4295 116.698 18.8104 111.324C18.7755 111.277 18.7262 111.243 18.6699 111.226C18.6136 111.209 18.5533 111.211 18.4983 111.232C18.4433 111.252 18.3964 111.29 18.3649 111.34C18.3334 111.389 18.3189 111.448 18.3236 111.507C18.3017 111.514 18.2827 111.528 18.2692 111.547C18.2556 111.566 18.2481 111.589 18.2476 111.612C18.2464 111.614 18.2458 111.617 18.2458 111.62C18.2458 111.623 18.2464 111.625 18.2476 111.628C18.3763 112.488 18.6272 113.326 18.9928 114.115C18.9951 114.122 19 114.124 18.9977 114.129C20.637 117.731 24.3838 120.224 28.0934 121.361C30.9054 122.217 33.8485 122.461 36.7756 122.484C38.4195 122.494 40.0649 122.414 41.7084 122.424C43.2588 122.43 44.7701 122.693 46.2969 122.812C46.3611 122.819 46.4299 122.828 46.496 122.83C46.6777 123.047 46.8544 123.262 47.028 123.487C47.0536 123.52 47.091 123.542 47.1324 123.548C47.1737 123.555 47.216 123.545 47.2505 123.522C47.285 123.498 47.3091 123.462 47.3179 123.421C47.3266 123.38 47.3193 123.337 47.2975 123.301C47.2709 123.261 47.2397 123.219 47.2108 123.183C47.2111 123.183 47.2113 123.182 47.2114 123.182C47.2115 123.181 47.2114 123.18 47.2112 123.18C47.2109 123.179 47.2106 123.178 47.2102 123.178C47.2097 123.177 47.2092 123.177 47.2085 123.177C47.1291 123.067 47.0565 122.961 46.9729 122.856C47.0394 122.858 47.1037 122.865 47.1652 122.865C47.2062 122.87 47.2476 122.861 47.2823 122.839C47.3169 122.816 47.3425 122.782 47.3544 122.743C47.3664 122.703 47.364 122.661 47.3477 122.623C47.3313 122.585 47.3021 122.554 47.2652 122.535C47.0123 122.42 46.7533 122.318 46.4892 122.231C46.3581 122.076 46.2547 121.934 46.1195 121.788C46.1123 121.78 46.1035 121.774 46.0936 121.77C43.2733 118.591 39.33 116.864 35.0455 116.408Z" fill="#0097A7"/>
<path d="M47.158 73.4798C45.6707 79.4294 44.1773 85.4041 43.51 91.5134C43.0146 96.2591 42.9882 101.042 43.4313 105.793C43.3629 106.053 43.3018 106.311 43.2413 106.576C43.2212 106.656 43.1992 106.742 43.184 106.824C43.1437 106.975 43.1148 107.124 43.0795 107.276C42.9852 107.076 42.8826 106.883 42.7796 106.691C42.8255 106.675 42.8675 106.65 42.9029 106.617C42.9383 106.583 42.9662 106.543 42.9848 106.498C43.0068 106.447 43.0085 106.39 42.9896 106.338C42.9708 106.285 42.9328 106.242 42.8834 106.217C42.8366 106.184 42.7831 106.154 42.7363 106.121L42.7318 106.119C42.5703 106.018 42.4164 105.925 42.2511 105.833C41.9482 105.386 41.6162 104.959 41.2574 104.555C41.0967 104.363 40.9256 104.181 40.7447 104.008C40.7363 103.993 40.7239 103.982 40.709 103.975C38.2158 101.435 34.7343 99.7748 31.4473 98.3871C24.8011 95.5976 18.24 92.3253 13.414 86.8147C13.3785 86.7718 13.3343 86.7368 13.2843 86.7122C13.2343 86.6875 13.1797 86.6737 13.1241 86.6716C13.0684 86.6695 13.0129 86.6792 12.9612 86.7001C12.9096 86.7209 12.8629 86.7525 12.8242 86.7926L12.822 86.7972C12.7888 86.8305 12.7658 86.8726 12.7555 86.9185C12.7408 86.9667 12.735 87.0172 12.7384 87.0675C13.1803 92.5959 16.1534 97.7983 20.8958 100.741C23.7166 102.487 26.9678 103.398 30.2206 103.901C34.1415 104.511 38.3219 104.355 41.8798 106.291C42.0945 106.412 42.302 106.534 42.5121 106.664C42.5308 106.672 42.5501 106.676 42.5653 106.682C42.7299 106.948 42.8838 107.226 43.0308 107.506L42.9484 107.872C42.9402 107.921 42.9461 107.971 42.9655 108.017C42.9849 108.062 43.0169 108.101 43.0578 108.129C43.0986 108.157 43.1466 108.173 43.1961 108.174C43.2456 108.176 43.2946 108.163 43.3371 108.138C43.5218 108.55 43.6833 108.972 43.8209 109.402C43.8265 109.427 43.8623 109.409 43.8547 109.389C43.8501 109.379 43.8474 109.368 43.8467 109.357C43.8544 109.361 43.8629 109.363 43.8713 109.362C43.8798 109.361 43.888 109.359 43.8951 109.354C43.9023 109.35 43.9081 109.343 43.9121 109.336C43.9162 109.328 43.9182 109.32 43.9181 109.311C43.9139 109.074 43.9124 108.844 43.9181 108.611C43.9204 108.606 43.9158 108.604 43.9181 108.599L43.9105 108.579C43.9044 107.965 43.8889 107.346 43.8725 106.733C43.8725 106.575 43.8702 106.418 43.8642 106.258C44.0409 105.526 44.2362 104.802 44.438 104.075L44.4402 104.07C45.6661 99.6673 47.25 95.3661 47.9693 90.8429C48.3923 88.2343 48.4253 85.5773 48.0673 82.959C47.7252 80.4999 47.5773 78.0177 47.625 75.5353L47.6227 75.5285C47.6311 74.8823 47.6554 74.2255 47.6931 73.5642C47.6998 73.5067 47.6881 73.4486 47.6596 73.3983C47.6311 73.348 47.5873 73.3081 47.5346 73.2844L47.53 73.2825C47.4931 73.2651 47.4526 73.2566 47.4117 73.2576C47.3709 73.2586 47.3309 73.2691 47.2948 73.2882C47.2587 73.3074 47.2275 73.3346 47.2038 73.3679C47.1801 73.4011 47.1644 73.4394 47.158 73.4798ZM43.6107 107.669C43.6134 107.675 43.6134 107.675 43.6107 107.68L43.6134 107.687L43.6157 107.694C43.6169 107.694 43.6179 107.695 43.6183 107.697C43.6188 107.698 43.6188 107.699 43.6183 107.701C43.6189 107.701 43.6195 107.701 43.6199 107.702C43.6204 107.702 43.6207 107.703 43.621 107.703C43.6212 107.704 43.6214 107.705 43.6213 107.705C43.6213 107.706 43.6212 107.706 43.621 107.707C43.6829 108.223 43.7449 108.739 43.8136 109.253C43.7059 108.85 43.5757 108.454 43.4237 108.066C43.4497 108.034 43.4672 107.995 43.4747 107.954C43.5039 107.817 43.5332 107.678 43.567 107.542C43.5721 107.504 43.5798 107.466 43.5902 107.428C43.6058 107.508 43.6127 107.588 43.6107 107.669Z" fill="#0097A7"/>
<path d="M16.2294 61.2297C16.2268 61.3464 16.2241 61.4631 16.2237 61.5748C16.1519 65.0185 16.1667 68.1991 17.2421 71.5493C18.3015 74.8684 20.0643 77.92 22.4101 80.4956C24.9941 83.3057 28.2925 85.3544 31.2087 87.7889C33.0259 89.2871 34.6806 90.9722 36.1456 92.8164L36.1502 92.8183C36.7572 93.5918 37.3249 94.3953 37.8511 95.2258C37.2811 93.5587 36.7111 91.881 36.1357 90.2158L36.1308 90.2021C34.504 85.5471 32.7298 80.9456 30.302 76.6255C26.9599 70.6827 22.4816 65.9037 17.138 61.7911L17.1335 61.7892C16.8207 61.5398 16.5038 61.3004 16.1804 61.0628C16.2147 61.1115 16.232 61.1702 16.2294 61.2297Z" fill="#0097A7"/>
<path d="M38.7707 63.8288C36.2763 73.9644 36.1708 84.5411 38.4625 94.7245C38.4553 94.7383 38.4505 94.7532 38.4481 94.7686V94.7732C38.2622 95.2547 38.0814 95.7386 37.8933 96.2248C37.8766 96.2696 37.8684 96.3172 37.8689 96.365C37.8691 96.4174 37.8805 96.4691 37.9022 96.5168C37.924 96.5644 37.9557 96.6069 37.9951 96.6413L37.9997 96.6432C38.0396 96.6839 38.089 96.7139 38.1435 96.7306C38.198 96.7473 38.2558 96.7501 38.3116 96.7388C38.3674 96.7274 38.4196 96.7023 38.4632 96.6657C38.5069 96.6291 38.5407 96.5822 38.5617 96.5292C38.6707 96.2536 38.7745 95.9758 38.8786 95.6983C40.6122 91.1284 42.1417 86.4654 41.8616 81.504C41.5473 75.8546 40.4282 70.1631 39.4775 64.5817C39.4752 64.5753 39.4775 64.5707 39.4748 64.5639C39.4319 64.3255 39.3912 64.0827 39.3483 63.8444C39.3455 63.8288 39.3411 63.8137 39.335 63.7991C39.3172 63.7358 39.2785 63.6803 39.225 63.642C39.1716 63.6036 39.1067 63.5846 39.041 63.588C38.9753 63.5915 38.9127 63.6172 38.8636 63.6609C38.8145 63.7047 38.7817 63.7639 38.7707 63.8288Z" fill="#0097A7"/>
<path d="M33.5323 108.098C27.5591 105.827 20.732 106.403 15.8004 101.771C15.6446 101.621 15.4633 101.785 15.4762 101.954C15.475 101.989 15.4818 102.025 15.496 102.058C15.9229 102.869 16.3987 103.654 16.9206 104.407C17.3855 105.099 17.896 105.759 18.4486 106.384C20.7954 109.096 23.9494 110.984 27.4478 111.772C32.8783 113.044 38.6391 112.654 43.8258 114.83C44.1791 115.131 44.4903 115.479 44.7511 115.863C44.7523 115.864 44.7532 115.865 44.7537 115.866C44.7542 115.867 44.7542 115.868 44.7537 115.87C44.7543 115.87 44.7549 115.87 44.7553 115.871C44.7558 115.871 44.7561 115.872 44.7563 115.873C44.7566 115.873 44.7566 115.874 44.7566 115.875C44.7565 115.875 44.7563 115.876 44.756 115.876C44.9801 116.195 45.1363 116.556 45.2147 116.938C45.2637 117.162 45.6167 117.138 45.5783 116.902C45.4853 116.327 45.2502 115.784 44.8943 115.323L44.9734 115.361C44.9932 115.371 45.0141 115.379 45.0357 115.384C45.0842 115.396 45.1354 115.392 45.1812 115.372C45.2312 115.351 45.2742 115.315 45.3051 115.271C45.3361 115.226 45.3539 115.173 45.3565 115.119C45.3591 115.065 45.3463 115.011 45.3197 114.963C45.2931 114.916 45.2537 114.877 45.2059 114.851C44.9316 114.714 44.6599 114.585 44.3885 114.467C44.2073 114.384 44.0222 114.311 43.8436 114.235C43.0433 113.567 42.1078 113.012 41.3356 112.464C38.9283 110.686 36.3065 109.219 33.5323 108.098Z" fill="#0097A7"/>
<path d="M53.6598 85.3221C53.6394 85.3388 53.625 85.3618 53.6188 85.3874C51.4729 91.4984 49.6872 97.73 48.2707 104.05C47.3666 108.079 46.4197 112.189 46.1381 116.327C46.1347 116.36 46.1358 116.394 46.1328 116.426C46.1305 116.43 46.1305 116.43 46.1328 116.437C46.1325 116.438 46.1323 116.438 46.1322 116.439C46.1321 116.44 46.1322 116.44 46.1324 116.441C46.1326 116.442 46.133 116.442 46.1334 116.443C46.1339 116.443 46.1344 116.444 46.1351 116.444C46.0872 117.067 46.0617 117.689 46.0568 118.315C46.0359 118.361 46.0146 118.408 45.996 118.461C46.1256 119.013 46.2434 119.555 46.3585 120.089C46.4402 119.727 46.5446 119.37 46.6712 119.021C46.6828 118.982 46.6966 118.944 46.7127 118.907C46.8206 118.609 46.9407 118.31 47.0733 118.017L47.1979 117.743C47.2064 117.723 47.2171 117.703 47.2298 117.685C48.1586 115.72 49.4992 113.846 50.3937 112.007C51.7351 109.381 52.6787 106.571 53.1936 103.667C54.0159 98.5137 53.1936 93.282 53.6575 88.1116C53.6563 88.1007 53.6575 88.0897 53.661 88.0793C53.7344 87.2171 53.8519 86.3593 54.0128 85.5091C54.018 85.4661 54.0101 85.4226 53.9901 85.3842C53.97 85.3458 53.9388 85.3145 53.9006 85.2942C53.8623 85.2739 53.8189 85.2658 53.7759 85.2707C53.7329 85.2757 53.6924 85.2936 53.6598 85.3221Z" fill="#0097A7"/>
<path d="M29.6438 81.8373C29.6449 81.8399 29.6465 81.8422 29.6485 81.8441C29.6505 81.846 29.653 81.8475 29.6556 81.8484C32.0549 85.3598 34.2234 89.0236 36.1475 92.8164L36.1521 92.8183C36.7543 94.0073 37.3259 95.1895 37.867 96.365C37.9111 96.4524 37.951 96.549 37.9932 96.6413L37.9977 96.6432C39.2099 99.2876 40.2694 101.885 41.1932 104.387L41.2562 104.555C41.3729 104.878 41.4873 105.193 41.6013 105.509C41.6932 105.775 41.7871 106.037 41.8783 106.291C42.8823 109.172 43.7118 111.917 44.3909 114.463C44.4167 114.554 44.441 114.649 44.4623 114.737C44.4809 114.807 44.5003 114.877 44.5178 114.947C44.5999 115.26 44.6797 115.565 44.7519 115.862C44.7525 115.862 44.753 115.862 44.7535 115.863C44.7539 115.863 44.7543 115.864 44.7545 115.864C44.7548 115.865 44.7549 115.866 44.7549 115.866C44.7549 115.867 44.7548 115.868 44.7545 115.868C44.7551 115.868 44.7557 115.869 44.7561 115.869C44.7566 115.87 44.7569 115.87 44.7571 115.871C44.7574 115.872 44.7574 115.872 44.7574 115.873C44.7573 115.874 44.7571 115.874 44.7568 115.875C44.9962 116.814 45.2162 117.722 45.4146 118.591C45.5396 119.142 45.6593 119.679 45.7699 120.211C45.8805 120.744 45.9929 121.261 46.091 121.77C46.1495 122.06 46.208 122.35 46.2593 122.632C46.2707 122.693 46.284 122.75 46.2973 122.811C46.5527 124.157 46.7708 125.44 46.9593 126.657H48.1715C48.0152 125.636 47.8364 124.569 47.6353 123.455L47.6307 123.453C47.5813 123.155 47.5224 122.854 47.4654 122.548C47.3051 121.706 47.1317 120.844 46.9452 119.961C46.9072 119.775 46.8658 119.593 46.8225 119.406C46.7913 119.24 46.7507 119.07 46.7149 118.902C46.702 118.857 46.6956 118.809 46.68 118.758L46.6823 118.753C46.6519 118.61 46.6218 118.467 46.5869 118.322C46.4459 117.709 46.2977 117.086 46.1423 116.443L46.1373 116.441C46.1367 116.441 46.1362 116.44 46.1357 116.44C46.1353 116.439 46.1349 116.439 46.1347 116.438C46.1345 116.437 46.1344 116.437 46.1345 116.436C46.1345 116.435 46.1347 116.435 46.1351 116.434C46.1324 116.427 46.1324 116.427 46.1351 116.423C46.1218 116.377 46.1107 116.328 46.1001 116.278C45.5141 113.908 44.7978 111.333 43.9185 108.611C43.9208 108.606 43.9162 108.604 43.9185 108.599L43.9109 108.579C43.8186 108.29 43.7259 108.001 43.624 107.707C43.6245 107.706 43.6246 107.705 43.6241 107.703C43.6236 107.702 43.6226 107.701 43.6214 107.701C43.6216 107.7 43.6217 107.699 43.6217 107.699C43.6217 107.698 43.6216 107.697 43.6214 107.697C43.6211 107.696 43.6208 107.696 43.6203 107.695C43.6198 107.695 43.6193 107.694 43.6187 107.694L43.6164 107.687L43.6138 107.68C43.616 107.676 43.616 107.676 43.6138 107.669C43.5986 107.629 43.5856 107.584 43.5704 107.543C43.4652 107.22 43.3576 106.902 43.2433 106.575C41.9823 102.874 40.5258 99.2434 38.8797 95.6975C38.8037 95.5219 38.7235 95.3513 38.6396 95.1783L38.6418 95.1738C38.6038 95.1065 38.5753 95.0369 38.5408 94.9651C38.5085 94.9001 38.4765 94.8347 38.4492 94.772V94.7675C37.7272 93.2607 36.9634 91.74 36.1388 90.2147L36.1338 90.201C33.7097 85.676 30.93 81.3509 27.821 77.2663C27.7739 77.2017 27.7144 77.1471 27.646 77.1059C27.5775 77.0646 27.5015 77.0374 27.4224 77.0259C27.3433 77.0145 27.2627 77.0189 27.1854 77.039C27.108 77.0592 27.0355 77.0946 26.972 77.1431C26.9085 77.1917 26.8554 77.2525 26.8157 77.3219C26.7761 77.3913 26.7507 77.4679 26.7411 77.5473C26.7314 77.6266 26.7378 77.7071 26.7597 77.784C26.7816 77.8609 26.8187 77.9326 26.8687 77.9949C27.84 79.2657 28.765 80.5465 29.6438 81.8373Z" fill="#22475C"/>
<path d="M38.9375 75.405C39.4405 82.0702 39.0523 88.7728 37.783 95.3353C37.7587 95.4801 37.7919 95.6286 37.8755 95.7493C37.9591 95.87 38.0864 95.9533 38.2305 95.9814C38.3745 96.0095 38.5239 95.9803 38.6467 95.9C38.7695 95.8196 38.8561 95.6945 38.8881 95.5512C40.1754 88.8929 40.5699 82.0926 40.0611 75.3301C40.0456 75.1854 39.9747 75.0523 39.8633 74.9587C39.7518 74.8651 39.6085 74.8182 39.4634 74.8279C39.3182 74.8376 39.1824 74.9031 39.0844 75.0106C38.9863 75.1182 38.9337 75.2595 38.9375 75.405Z" fill="#22475C"/>
<path d="M45.6589 88.3621C44.658 94.9167 43.6573 101.472 42.6569 108.027C42.5475 108.743 43.6525 108.96 43.7619 108.242C44.7629 101.688 45.7635 95.1328 46.7639 88.578C46.873 87.8619 45.7683 87.6448 45.6589 88.3621Z" fill="#22475C"/>
<path d="M51.414 97.6942C49.0692 104.741 47.178 111.931 45.752 119.219C45.7282 119.364 45.7616 119.512 45.8452 119.632C45.9288 119.753 46.0561 119.836 46.1999 119.864C46.3437 119.892 46.4928 119.863 46.6155 119.782C46.7382 119.702 46.8249 119.578 46.8571 119.435C48.2831 112.146 50.1743 104.957 52.5191 97.9101C52.7482 97.2229 51.642 97.0157 51.414 97.6942Z" fill="#22475C"/>
<path d="M43.1775 106.488C40.4111 103.474 36.5655 102.047 32.7537 100.849C28.1621 99.4046 23.8951 97.9196 20.3193 94.5595C19.7911 94.0654 19.0615 94.921 19.5893 95.417C22.7734 98.4088 26.5479 100.077 30.6701 101.374C34.9136 102.708 39.3387 103.958 42.4471 107.345C42.9358 107.878 43.662 107.017 43.1775 106.488Z" fill="#22475C"/>
<path d="M45.499 115.005C42.2275 112.889 38.5765 111.567 34.87 110.433C30.7352 109.17 26.5731 107.991 22.4238 106.776C21.7273 106.572 21.5183 107.679 22.208 107.881C26.2007 109.051 30.2021 110.195 34.1852 111.397C37.9624 112.537 41.68 113.865 45.0103 116.019C45.6179 116.413 46.1001 115.395 45.499 115.005Z" fill="#22475C"/>
<path d="M47.044 122.406C43.3451 120.34 39.3855 119.61 35.2146 119.175C31.0437 118.74 26.7847 118.326 23.1736 115.997C22.5656 115.605 22.0826 116.624 22.6845 117.012C26.0703 119.195 30.0565 119.767 33.9842 120.176C38.4059 120.637 42.6144 121.218 46.5553 123.419C47.1907 123.774 47.6763 122.758 47.044 122.406Z" fill="#22475C"/>
<path d="M79.6321 119.663C80.7842 120.836 82.0006 121.947 83.1528 123.12C84.2415 124.222 85.1204 125.481 86.113 126.648L86.1213 126.658H86.792C86.7491 126.563 86.7062 126.468 86.6594 126.374C86.6773 126.172 86.7054 125.998 86.7134 125.799C86.7138 125.789 86.7117 125.778 86.7073 125.769C86.9756 121.528 85.418 117.512 82.7215 114.153C79.1875 109.754 73.6201 105.408 74.8783 99.0526C74.8873 98.9946 74.8772 98.9352 74.8495 98.8835C74.8217 98.8317 74.7778 98.7905 74.7245 98.7659C74.6711 98.7414 74.6113 98.7349 74.5539 98.7475C74.4966 98.76 74.4449 98.791 74.4067 98.8356C74.3857 98.8258 74.3622 98.8225 74.3393 98.8262C74.3164 98.8298 74.2952 98.8403 74.2783 98.8561C74.2756 98.8568 74.273 98.858 74.2709 98.8597C74.2687 98.8614 74.267 98.8635 74.2657 98.866C73.7465 99.564 73.3296 100.333 73.0277 101.148C73.0246 101.155 73.0277 101.16 73.0216 101.162C71.624 104.864 72.4976 109.28 74.3071 112.713C75.6816 115.309 77.5846 117.571 79.6321 119.663Z" fill="#0097A7"/>
<path d="M121.694 92.4759C116.428 95.6158 111.139 98.7691 106.336 102.602C102.622 105.597 99.2129 108.951 96.1572 112.614C95.9246 112.75 95.6982 112.888 95.469 113.033C95.398 113.075 95.322 113.12 95.2524 113.167C95.1179 113.243 94.9914 113.329 94.8587 113.411C94.9347 113.204 94.9982 112.993 95.0624 112.786C95.1059 112.808 95.1535 112.82 95.202 112.822C95.2504 112.823 95.2987 112.815 95.3436 112.796C95.3952 112.776 95.437 112.736 95.4607 112.686C95.4845 112.636 95.4884 112.578 95.4717 112.526C95.4618 112.469 95.4455 112.412 95.4337 112.354V112.349C95.3919 112.163 95.3489 111.988 95.2976 111.806C95.4011 111.276 95.4697 110.74 95.5028 110.201C95.5255 109.951 95.5345 109.701 95.5298 109.451C95.5346 109.435 95.5346 109.418 95.5298 109.402C95.572 105.843 94.2944 102.203 92.9603 98.8934C90.2528 92.2128 87.9473 85.2525 88.4497 77.9421C88.455 77.8867 88.4486 77.8307 88.4308 77.7779C88.4131 77.7251 88.3844 77.6767 88.3466 77.6357C88.3088 77.5948 88.2629 77.5623 88.2117 77.5403C88.1605 77.5184 88.1052 77.5075 88.0495 77.5084H88.045C87.9979 77.5083 87.9518 77.5215 87.912 77.5464C87.8675 77.5702 87.8277 77.6016 87.7942 77.6392C84.1864 81.8507 82.5942 87.6281 83.852 93.0665C84.6029 96.2973 86.2495 99.2473 88.1867 101.908C90.518 105.12 93.5766 107.975 94.7124 111.864C94.7782 112.101 94.8375 112.335 94.8941 112.575C94.9009 112.594 94.9131 112.613 94.9184 112.626C94.8458 112.93 94.7577 113.234 94.6627 113.538L94.345 113.738C94.3043 113.766 94.2726 113.806 94.2538 113.852C94.2349 113.898 94.2296 113.948 94.2385 113.997C94.2475 114.046 94.2702 114.091 94.3041 114.127C94.338 114.163 94.3816 114.189 94.4297 114.201C94.2681 114.623 94.0829 115.035 93.8749 115.436C93.8612 115.457 93.8989 115.471 93.908 115.451C93.9117 115.441 93.9174 115.431 93.9247 115.423C93.9276 115.431 93.9324 115.438 93.9388 115.444C93.9451 115.449 93.9528 115.453 93.9611 115.455C93.9694 115.457 93.978 115.457 93.9861 115.454C93.9942 115.452 94.0016 115.447 94.0075 115.441C94.1728 115.271 94.3355 115.107 94.5042 114.947C94.5091 114.947 94.5072 114.941 94.5122 114.939L94.5213 114.919C94.9522 114.482 95.3793 114.035 95.8019 113.589C95.9129 113.477 96.0238 113.365 96.1329 113.248C96.7766 112.857 97.4275 112.485 98.0849 112.116L98.0899 112.114C102.076 109.879 106.242 107.971 109.956 105.292C112.103 103.752 114.01 101.903 115.614 99.8026C117.116 97.8254 118.772 95.9699 120.565 94.2532L120.568 94.2467C121.033 93.7967 121.513 93.3517 122.01 92.9118C122.056 92.8763 122.089 92.827 122.105 92.7712C122.12 92.7155 122.118 92.6562 122.097 92.6021V92.5975C122.083 92.5591 122.06 92.5246 122.031 92.4965C122.001 92.4685 121.965 92.4477 121.926 92.4359C121.887 92.4241 121.846 92.4216 121.806 92.4285C121.765 92.4355 121.727 92.4517 121.694 92.4759ZM94.9545 114.065C94.9515 114.072 94.9515 114.072 94.9469 114.074L94.9439 114.08L94.9408 114.087C94.9378 114.093 94.9378 114.093 94.9347 114.1C94.6125 114.508 94.2887 114.916 93.9749 115.327C94.1843 114.966 94.3734 114.595 94.5414 114.213C94.5824 114.209 94.6215 114.194 94.6554 114.171C94.774 114.095 94.8926 114.019 95.013 113.946C95.0437 113.923 95.0758 113.901 95.1092 113.882C95.0648 113.95 95.0129 114.012 94.9545 114.067V114.065Z" fill="#0097A7"/>
<path d="M108.573 61.9013C108.488 61.9819 108.404 62.0621 108.324 62.1408C105.832 64.5179 103.588 66.7707 101.971 69.8947C100.365 72.9869 99.4449 76.3892 99.2732 79.8696C99.1022 83.6831 99.9762 87.4677 100.306 91.2531C100.525 93.5982 100.497 95.96 100.223 98.2993L100.225 98.3039C100.104 99.2799 99.9349 100.249 99.717 101.208C100.498 99.6289 101.286 98.0412 102.06 96.4589L102.066 96.4456C104.218 92.006 106.229 87.5053 107.58 82.7374C109.437 76.1766 109.667 69.6306 108.817 62.9416L108.815 62.9371C108.771 62.5395 108.718 62.1457 108.658 61.7489C108.647 61.8078 108.617 61.8615 108.573 61.9013Z" fill="#0097A7"/>
<path d="M122.623 79.7225C113.679 85.0998 106.106 92.4824 100.503 101.288C100.488 101.293 100.474 101.3 100.461 101.309H100.457C99.9841 101.517 99.5137 101.73 99.0364 101.939C98.9928 101.959 98.9532 101.986 98.9197 102.02C98.8827 102.058 98.8541 102.102 98.8356 102.151C98.8172 102.2 98.8095 102.253 98.8129 102.305L98.8148 102.31C98.8141 102.367 98.8277 102.423 98.8542 102.473C98.8808 102.524 98.9195 102.567 98.9669 102.598C99.0143 102.63 99.0688 102.649 99.1255 102.655C99.1822 102.66 99.2394 102.651 99.2917 102.628C99.5634 102.511 99.834 102.389 100.104 102.267C104.567 100.275 108.951 98.0716 112.27 94.3748C116.054 90.1687 119.3 85.362 122.587 80.7525C122.59 80.7461 122.594 80.7442 122.597 80.7377C122.736 80.5393 122.879 80.339 123.018 80.141C123.027 80.1279 123.035 80.1141 123.041 80.0995C123.071 80.0424 123.082 79.9768 123.071 79.9131C123.06 79.8494 123.027 79.7912 122.979 79.7479C122.931 79.7046 122.87 79.6785 122.806 79.6739C122.741 79.6693 122.677 79.6864 122.623 79.7225Z" fill="#0097A7"/>
<path d="M87.5456 107.22C84.9434 101.382 79.7218 96.9458 79.5276 90.1816C79.5238 89.9653 79.2799 89.9535 79.1693 90.0805C79.1432 90.105 79.1227 90.1348 79.1093 90.1679C78.8352 91.0427 78.6147 91.9334 78.4488 92.8351C78.286 93.6524 78.178 94.4797 78.1254 95.3114C77.8574 98.8882 78.7424 102.457 80.6505 105.494C83.5765 110.242 87.9157 114.054 90.0308 119.267C90.0664 119.731 90.0395 120.196 89.951 120.652C89.949 120.657 89.947 120.661 89.9449 120.665C89.8769 121.049 89.7307 121.414 89.5155 121.739C89.3913 121.932 89.6573 122.165 89.7975 121.972C90.1397 121.501 90.359 120.952 90.4355 120.375L90.4655 120.457C90.4726 120.478 90.4819 120.498 90.4933 120.517C90.519 120.56 90.5581 120.593 90.6046 120.612C90.6551 120.632 90.7103 120.638 90.7639 120.628C90.8174 120.619 90.8672 120.594 90.9076 120.558C90.948 120.521 90.9773 120.474 90.9922 120.422C91.0071 120.369 91.0069 120.314 90.9918 120.262C90.8949 119.971 90.795 119.687 90.6878 119.411C90.6191 119.224 90.5404 119.041 90.4682 118.861C90.3774 117.823 90.1118 116.767 89.9567 115.834C89.5182 112.873 88.7081 109.979 87.5456 107.22Z" fill="#0097A7"/>
<path d="M117.884 105.438C117.857 105.435 117.831 105.441 117.808 105.455C111.963 108.242 106.286 111.368 100.807 114.819C97.3139 117.018 93.7324 119.245 90.5997 121.963C90.5746 121.983 90.551 122.008 90.526 122.028C90.5214 122.03 90.5214 122.03 90.5184 122.037C90.5177 122.037 90.5172 122.037 90.5167 122.038C90.5162 122.038 90.5158 122.039 90.5155 122.039C90.5152 122.04 90.515 122.041 90.515 122.041C90.515 122.042 90.5151 122.043 90.5153 122.043C90.0396 122.448 89.5809 122.869 89.1336 123.307C89.0858 123.324 89.0383 123.342 88.9874 123.366C88.6868 123.848 88.3862 124.313 88.0879 124.773C88.4025 124.575 88.7293 124.397 89.0664 124.24C89.1022 124.221 89.1393 124.203 89.1774 124.188C89.465 124.054 89.761 123.928 90.0624 123.817L90.3447 123.712C90.3652 123.703 90.3867 123.697 90.4086 123.694C92.4564 122.967 94.7291 122.597 96.6645 121.934C99.4717 121.034 102.13 119.722 104.551 118.04C108.785 114.99 111.913 110.717 115.907 107.401C115.913 107.393 115.922 107.386 115.932 107.381C116.595 106.825 117.286 106.304 118.002 105.818C118.036 105.791 118.06 105.755 118.073 105.714C118.085 105.673 118.085 105.629 118.072 105.588C118.059 105.547 118.035 105.511 118.001 105.484C117.967 105.457 117.927 105.441 117.884 105.438Z" fill="#0097A7"/>
<path d="M87.5521 126.658C87.8964 126.148 88.2425 125.632 88.591 125.098C88.6955 124.939 88.7951 124.783 88.898 124.619C88.9934 124.48 89.0854 124.332 89.1789 124.188C89.2017 124.147 89.2313 124.109 89.2571 124.061L89.2617 124.06C89.3419 123.938 89.4217 123.815 89.4996 123.688C89.8355 123.156 90.1726 122.611 90.5184 122.048V122.043C90.5181 122.043 90.518 122.042 90.518 122.041C90.5181 122.041 90.5182 122.04 90.5185 122.039C90.5188 122.039 90.5192 122.038 90.5197 122.038C90.5202 122.037 90.5208 122.037 90.5214 122.037C90.5244 122.03 90.5244 122.03 90.529 122.028C90.5518 121.987 90.5795 121.944 90.6073 121.901C91.8742 119.815 93.1951 117.492 94.5049 114.948C94.5099 114.948 94.508 114.941 94.5129 114.94L94.522 114.92C94.6615 114.65 94.801 114.381 94.937 114.102C94.94 114.095 94.94 114.095 94.9431 114.089L94.9461 114.082L94.9492 114.076C94.9537 114.074 94.9537 114.074 94.9568 114.067C94.975 114.029 94.9978 113.987 95.016 113.947C95.1703 113.643 95.32 113.345 95.472 113.033C97.2068 109.529 98.7543 105.936 100.108 102.269C100.178 102.09 100.243 101.914 100.307 101.732L100.311 101.73C100.333 101.657 100.361 101.587 100.387 101.512C100.411 101.443 100.434 101.374 100.46 101.31H100.464C101.024 99.7365 101.563 98.1218 102.063 96.4615L102.069 96.4482C103.567 91.5378 104.672 86.5162 105.374 81.4306C105.385 81.3523 105.381 81.2724 105.362 81.1957C105.342 81.119 105.307 81.0469 105.26 80.9837C105.212 80.9204 105.152 80.8672 105.084 80.8272C105.016 80.7871 104.94 80.761 104.862 80.7503C104.783 80.7396 104.703 80.7446 104.627 80.7649C104.55 80.7852 104.479 80.8205 104.416 80.8687C104.353 80.9169 104.3 80.977 104.261 81.0457C104.221 81.1144 104.196 81.1902 104.186 81.2687C103.971 82.8535 103.716 84.4126 103.42 85.9462C103.419 85.9487 103.418 85.9515 103.418 85.9544C103.418 85.9572 103.419 85.96 103.42 85.9625C102.622 90.1401 101.553 94.2614 100.221 98.3005L100.223 98.305C99.8052 99.5702 99.3701 100.809 98.9179 102.022C98.8871 102.115 98.8468 102.212 98.8111 102.307L98.813 102.311C97.7927 105.035 96.6983 107.618 95.5762 110.037L95.5002 110.201L95.0673 111.118C94.9435 111.371 94.8241 111.622 94.7082 111.866C93.3741 114.609 92.0133 117.133 90.6859 119.41C90.6403 119.492 90.5902 119.576 90.5423 119.654L90.4325 119.842C90.2691 120.12 90.1087 120.392 89.9495 120.652C89.9475 120.657 89.9454 120.661 89.9434 120.665C89.4464 121.497 88.959 122.291 88.4812 123.047C88.1772 123.524 87.8827 123.987 87.5832 124.442C87.2838 124.896 86.9965 125.339 86.7039 125.769C86.5394 126.015 86.3748 126.261 86.2118 126.496C86.1761 126.547 86.1457 126.596 86.1104 126.648L86.1031 126.658H87.5521Z" fill="#22475C"/>
<path d="M114.534 88.0033C110.163 93.0595 105.138 97.5099 99.5904 101.237C99.4729 101.322 99.3932 101.45 99.3679 101.594C99.3425 101.737 99.3735 101.884 99.4544 102.005C99.5353 102.126 99.6598 102.211 99.8019 102.242C99.9439 102.274 100.093 102.249 100.217 102.173C105.845 98.3912 110.943 93.876 115.379 88.7467C115.467 88.6334 115.508 88.4908 115.494 88.348C115.481 88.2052 115.413 88.0729 115.306 87.9782C115.198 87.8834 115.058 87.8332 114.915 87.8379C114.772 87.8425 114.636 87.9017 114.534 88.0033Z" fill="#22475C"/>
<path d="M110.086 101.906L94.0281 113.642C93.4432 114.069 94.0683 115.006 94.6543 114.578L110.713 102.841C111.298 102.415 110.673 101.478 110.086 101.906Z" fill="#22475C"/>
<path d="M107.529 112.569C100.88 115.874 94.4501 119.602 88.2778 123.73C88.1587 123.815 88.0773 123.943 88.051 124.087C88.0247 124.231 88.0556 124.38 88.137 124.501C88.2185 124.623 88.3441 124.708 88.4873 124.739C88.6305 124.77 88.78 124.743 88.9041 124.665C95.0764 120.538 101.507 116.81 108.156 113.505C108.804 113.182 108.17 112.251 107.529 112.569Z" fill="#22475C"/>
<path d="M95.4872 112.926C95.6741 108.839 93.974 105.105 92.1356 101.557C89.9213 97.2825 87.9662 93.2079 87.8271 88.3028C87.8066 87.5779 86.6841 87.665 86.7046 88.3891C86.8285 92.7571 88.3067 96.6109 90.2945 100.449C92.3408 104.402 94.5744 108.419 94.3647 113.013C94.3316 113.735 95.456 113.643 95.4872 112.926Z" fill="#22475C"/>
<path d="M91.086 120.579C90.2793 116.767 88.6426 113.243 86.8323 109.817C84.8126 105.993 82.7135 102.21 80.6501 98.4096C80.3035 97.7718 79.3714 98.4039 79.7145 99.036C81.7 102.693 83.7102 106.338 85.6668 110.01C87.522 113.493 89.2008 117.067 90.0224 120.947C90.1713 121.656 91.2334 121.28 91.086 120.579Z" fill="#22475C"/>
<path d="M79.3012 116.059C81.9612 119.358 84.4046 122.597 85.6829 126.658H86.8609C85.6969 122.686 83.4629 119.426 80.8804 116.226C78.2463 112.962 75.5388 109.647 74.6431 105.444C74.4911 104.736 73.4302 105.112 73.5791 105.813C74.417 109.753 76.8213 112.983 79.3012 116.059Z" fill="#22475C"/>
<path d="M48.3642 125.098H87.97C90.9929 125.098 92.796 122.646 91.998 119.624L61.8944 5.47528C61.0964 2.45123 57.9998 0.00189209 54.9766 0.00189209H15.3726C12.3497 0.00189209 10.5466 2.45314 11.3446 5.47528L41.4467 119.622C42.2443 122.644 45.3413 125.098 48.3642 125.098Z" fill="#3B474E"/>
<path d="M48.7358 120.507H86.7578C89.7807 120.507 91.5838 118.056 90.7858 115.034L61.8944 5.47528C61.0964 2.45123 57.9998 0.00189209 54.9765 0.00189209H16.9549C13.9316 0.00189209 12.1289 2.45314 12.9269 5.47528L41.8202 115.032C42.6155 118.056 45.714 120.507 48.7358 120.507Z" fill="#667A84"/>
<path d="M17.9102 2.15932H57.1578C58.886 2.15932 60.6568 3.56073 61.1128 5.28979L91.3141 119.808C91.7701 121.537 90.7384 122.938 89.0101 122.938H49.763C48.0347 122.938 46.2639 121.537 45.8079 119.808L15.6063 5.28979C15.1503 3.56035 16.182 2.15932 17.9102 2.15932Z" fill="#EAEDEF"/>
<path d="M40.8622 3.22246C39.3297 3.25058 40.4731 6.50421 42.006 6.47608C43.5389 6.44795 42.3955 3.19433 40.8622 3.22246Z" fill="#3B474E"/>
<path d="M190 124.799H0V127H190V124.799Z" fill="black"/>
<path d="M142.479 46.1653L139.819 53.3533L129.726 51.335L129.262 53.1063L129.121 53.6498L139.903 58.3425C140.389 58.5539 140.923 58.6303 141.448 58.5635C141.974 58.4967 142.472 58.2893 142.89 57.963C143.307 57.6368 143.629 57.2039 143.821 56.7099C144.013 56.216 144.069 55.6793 143.981 55.1565L142.479 46.1653Z" fill="#FFC9B9"/>
<path d="M143.982 55.1565L142.48 46.1653L141.188 49.6546C141.887 51.9702 142.392 54.2918 141.924 56.7742C142.16 56.7396 142.397 56.6982 142.637 56.6427C142.397 56.6982 142.16 56.7396 141.924 56.7742C141.908 56.8571 141.895 56.9395 141.877 57.0228C141.895 56.9395 141.908 56.8571 141.924 56.7742C137.414 57.4348 133.469 54.5997 129.262 53.1063L129.121 53.6498L139.903 58.3425C140.389 58.5541 140.923 58.6306 141.449 58.5639C141.974 58.4972 142.472 58.2898 142.89 57.9636C143.308 57.6373 143.63 57.2043 143.822 56.7102C144.014 56.2162 144.069 55.6794 143.982 55.1565Z" fill="#FDA98F"/>
<path d="M125.561 49.3076L123.607 50.5452L125.561 53.0892L127.171 53.8163L129.12 53.6498L129.726 51.335L125.561 49.3076Z" fill="#FDA98F"/>
<path d="M129.262 53.1063L128.12 52.5996C127.379 52.2073 126.813 51.5497 126.535 50.758L126.314 50.1252L124.11 49.102C124.04 49.0696 123.984 49.0138 123.952 48.9442C123.919 48.8747 123.912 48.796 123.932 48.7219C123.943 48.6798 123.963 48.6404 123.99 48.6061C124.016 48.5717 124.05 48.5431 124.088 48.5218C124.126 48.5005 124.167 48.4871 124.211 48.4823C124.254 48.4775 124.298 48.4814 124.339 48.4938L127.262 48.8933C127.614 48.9414 127.95 49.0691 128.246 49.2667C128.542 49.4642 128.788 49.7265 128.967 50.0336L129.727 51.3354L129.262 53.1063Z" fill="#FFC9B9"/>
<path d="M133.925 20.9866C133.843 22.2903 134.181 23.586 134.89 24.683C135.599 25.7799 136.642 26.6201 137.864 27.08C139.093 27.511 140.569 27.603 141.38 28.6224C142.142 29.5814 141.977 30.9459 141.9 32.1687C141.823 33.3914 142.01 34.8548 143.095 35.4231C144.466 36.1414 146.147 34.8708 147.649 35.2421C149.131 35.6085 149.777 37.3752 149.847 38.9021C149.917 40.4289 149.684 42.0531 150.386 43.4104C151.07 44.7354 152.549 45.5112 154.029 45.6963C155.508 45.8814 157.003 45.5579 158.44 45.1592C160.197 44.6716 161.949 44.0539 163.431 42.9927C164.913 41.9314 166.111 40.3677 166.4 38.5672C166.689 36.7667 165.918 34.7522 164.32 33.8749C163.385 33.3614 162.17 33.1908 161.592 32.2941C160.98 31.3439 161.409 30.0964 161.831 29.0477C162.252 27.999 162.629 26.7151 161.945 25.8169C160.701 24.1825 157.529 25.6744 156.287 24.0396C155.805 23.4052 155.835 22.5374 155.79 21.7423C155.704 20.1313 155.221 18.5667 154.383 17.1879C153.546 15.8091 152.38 14.6592 150.991 13.8405C149.601 13.0219 148.03 12.5601 146.419 12.4962C144.807 12.4324 143.205 12.7686 141.755 13.4748C140.577 14.0255 139.779 15.0032 138.693 15.625C137.65 16.2221 136.623 16.4004 135.717 17.2925C134.703 18.2737 134.068 19.5823 133.925 20.9866Z" fill="#BF360C"/>
<path d="M164.32 33.8738C163.384 33.3603 162.17 33.1896 161.592 32.293C160.98 31.3427 161.409 30.0952 161.831 29.0466C162.253 27.9979 162.629 26.7139 161.943 25.8157C160.699 24.1813 157.527 25.6732 156.285 24.0384C155.803 23.404 155.833 22.5363 155.788 21.7411C155.647 19.819 154.958 17.9777 153.802 16.4357C152.646 14.8938 151.072 13.7159 149.267 13.0419C151.688 14.6074 153.418 17.0397 154.104 19.8403C154.307 20.7811 154.391 21.7437 154.354 22.7054C154.323 24.054 153.471 25.7549 155.198 26.384C156.414 26.8268 157.739 26.6653 158.67 27.7622C159.216 28.4046 159.205 29.1804 158.967 29.9489C158.734 30.6988 158.587 31.348 158.858 32.1155C159.161 32.855 159.606 33.5277 160.168 34.0954C160.648 34.6218 161.127 35.1703 161.149 35.9221C161.13 36.673 160.824 37.388 160.294 37.9203C159.362 38.9085 157.874 39.3821 156.565 39.5798C155.335 39.7653 154.11 39.6311 153.145 38.7854C152.242 37.9948 151.782 36.788 151.356 35.7013C151.174 35.0711 150.842 34.4942 150.389 34.0201C149.934 33.6494 149.396 33.3948 148.821 33.2782C147.491 32.9456 145.948 33.0965 144.713 32.4671C143.608 31.9045 143.413 30.7186 143.464 29.595C143.513 28.5186 143.765 27.2039 142.79 26.4478C142.249 26.0845 141.633 25.8464 140.988 25.7508C140.334 25.609 139.682 25.4535 139.045 25.2471C137.656 24.7975 136.331 24.1011 135.448 22.9042C134.71 21.8367 134.381 20.5389 134.521 19.2484C134.53 19.1181 134.545 18.9866 134.559 18.855C134.208 19.5165 133.991 20.241 133.922 20.9866C133.84 22.2906 134.179 23.5866 134.888 24.6836C135.598 25.7806 136.641 26.6206 137.864 27.0799C139.093 27.511 140.569 27.603 141.379 28.6224C142.142 29.5814 141.977 30.9459 141.9 32.1687C141.823 33.3914 142.01 34.8548 143.095 35.4231C144.466 36.1414 146.147 34.8708 147.649 35.2421C149.131 35.6085 149.777 37.3752 149.847 38.9021C149.917 40.4289 149.684 42.0531 150.385 43.4104C151.069 44.7354 152.549 45.5112 154.028 45.6963C155.508 45.8814 157.003 45.5579 158.44 45.1592C160.197 44.6716 161.949 44.0539 163.431 42.9927C164.913 41.9314 166.111 40.3677 166.4 38.5672C166.689 36.7667 165.918 34.751 164.32 33.8738Z" fill="#92360C"/>
<path d="M157.681 121.428L155.073 121.938L154.014 114.492L158.441 113.846L157.681 121.428Z" fill="#FFC9B9"/>
<path d="M145.947 66.2933L157.204 65.7262L158.012 74.7345L156.596 90.859L159.109 96.1803L158.441 113.843L154.014 114.49L150.613 94.1468L145.947 66.2933Z" fill="#263238"/>
<path d="M157.914 120.735L159.178 124.565L146.418 124.755L146.532 123.907L154.51 120.287L155.587 121.129L157.914 120.735Z" fill="white"/>
<path d="M164.435 121.217L161.661 121.759L160.407 113.843L165 113.444L164.435 121.217Z" fill="#FFC9B9"/>
<path d="M163.198 65.9079C159.685 66.191 156.183 66.5856 152.692 67.0919L156.83 92.4569L160.409 113.843L165.002 113.443L165.57 100.576C165.759 96.7204 164.617 92.9173 162.336 89.8042L165.122 80.5458C165.683 79.5956 166.656 73.8337 166.023 68.2421C165.948 67.562 165.611 66.9379 165.084 66.5021C164.556 66.0663 163.88 65.8532 163.198 65.9079Z" fill="#37474F"/>
<path d="M164.682 120.481L166.025 124.553L152.459 124.754L152.582 123.852L161.064 120.005L162.209 120.899L164.682 120.481Z" fill="white"/>
<path d="M163.02 84.9553L159.876 93.5162C159.702 93.9883 160.437 94.1244 160.608 93.6561C161.657 90.8023 162.705 87.9487 163.753 85.0952C163.925 84.6231 163.191 84.4874 163.02 84.9553Z" fill="#263238"/>
<path d="M162.716 91.2797C162.617 91.2549 162.513 91.2667 162.422 91.3128C162.331 91.3589 162.26 91.4362 162.222 91.5306L161.131 93.8317C161.112 93.8767 161.102 93.9253 161.103 93.9742C161.103 94.0232 161.114 94.0715 161.134 94.1161C161.154 94.1608 161.183 94.2008 161.219 94.2337C161.255 94.2666 161.298 94.2916 161.344 94.3072C161.443 94.3319 161.548 94.3201 161.638 94.2739C161.729 94.2277 161.8 94.1503 161.838 94.0559L162.929 91.7549C162.949 91.7098 162.958 91.6613 162.958 91.6124C162.957 91.5634 162.947 91.5151 162.927 91.4705C162.907 91.4258 162.878 91.3859 162.841 91.353C162.805 91.3202 162.762 91.2952 162.716 91.2797Z" fill="#263238"/>
<path d="M164.233 68.5903C161.85 70.3943 159.105 71.6629 156.187 72.3096C153.269 72.9563 150.246 72.9658 147.323 72.3376C146.849 72.2331 146.618 72.9579 147.098 73.0636C150.146 73.725 153.302 73.7182 156.348 73.0437C159.393 72.3692 162.257 71.043 164.742 69.1562C165.13 68.8582 164.619 68.2945 164.233 68.5903Z" fill="#CFD8DC"/>
<path d="M149.992 50.2229C149.687 49.3215 149.157 48.5126 148.453 47.8724C148.384 47.7995 148.29 47.7559 148.19 47.7505C148.09 47.7451 147.992 47.7784 147.916 47.8435C147.842 47.9114 147.797 48.0056 147.792 48.1059C147.787 48.2062 147.821 48.3047 147.887 48.3802C148.047 48.523 148.198 48.6753 148.339 48.8363C148.41 48.9169 148.478 48.9997 148.544 49.0849C148.576 49.1274 148.608 49.1704 148.64 49.2137C148.654 49.2331 148.667 49.2517 148.681 49.2722L148.685 49.2768L148.696 49.2939C148.811 49.4678 148.916 49.6483 149.011 49.8344C149.059 49.9298 149.104 50.0271 149.147 50.1256C149.168 50.175 149.188 50.2248 149.208 50.2746C149.217 50.2966 149.225 50.319 149.234 50.3415L149.243 50.3643L149.25 50.3844C149.273 50.4815 149.334 50.5658 149.418 50.6197C149.502 50.6737 149.604 50.6933 149.702 50.6744C149.8 50.6519 149.885 50.5921 149.939 50.5078C149.993 50.4234 150.012 50.3211 149.992 50.2229Z" fill="#CFD8DC"/>
<path d="M146.181 33.84C147.423 34.1646 151.148 31.0489 152.457 31.0816C153.765 31.1143 157.199 30.9109 158.187 34.1334C159.023 36.8648 157.441 40.2617 156.595 43.0485C156.147 44.5203 155.596 45.9859 155.47 47.4957C155.28 49.8143 156.133 52.0393 157.414 53.8687C158.695 55.6981 164.325 60.9556 166.366 68.3356C161.831 73.6349 152.266 75.2203 145.947 73.4076C145.558 68.4089 142.852 54.337 142.755 49.2308C142.756 49.1012 142.729 48.9729 142.675 48.855C142.621 48.7371 142.542 48.6326 142.443 48.5489C140.789 47.0665 139.902 44.9106 140.457 42.7608C141.343 39.3331 142.86 37.5064 146.181 33.84Z" fill="white"/>
<path opacity="0.63" d="M142.442 48.5489C142.54 48.6326 142.62 48.7371 142.674 48.855C142.728 48.9729 142.755 49.1012 142.753 49.2308C142.841 51.3425 143.062 53.4466 143.414 55.5305C143.919 55.673 144.44 55.7996 144.967 55.9152C145.731 55.559 146.487 55.1812 147.218 54.7886C148.651 54.0245 149.99 53.0979 151.211 52.0272C152.42 50.9267 153.472 49.6646 154.337 48.2764C154.773 47.6067 155.203 46.932 155.657 46.2759C155.889 45.1908 156.269 44.1212 156.595 43.0485L156.609 43.0025C156.679 42.7604 156.668 42.502 156.577 42.2667C156.487 42.0314 156.322 41.8322 156.108 41.6995C155.893 41.5668 155.641 41.508 155.391 41.532C155.14 41.5559 154.904 41.6614 154.718 41.8322C151.041 45.2025 146.004 47.0517 140.754 46.2387C141.143 47.1216 141.719 47.9097 142.442 48.5489Z" fill="#CFD8DC"/>
<path d="M151.884 33.0106C151.691 33.4904 151.399 33.9237 151.026 34.2817C150.653 34.6396 150.208 34.9141 149.721 35.0867C149.234 35.2593 148.715 35.3261 148.2 35.2827C147.685 35.2393 147.185 35.0867 146.734 34.835C146.712 34.8233 146.688 34.816 146.663 34.8136C146.638 34.8111 146.613 34.8136 146.589 34.8209C146.565 34.8282 146.543 34.8401 146.524 34.8559C146.504 34.8718 146.488 34.8913 146.477 34.9133C146.465 34.9354 146.458 34.9595 146.455 34.9844C146.453 35.0092 146.455 35.0343 146.463 35.0582C146.47 35.0821 146.482 35.1043 146.498 35.1236C146.513 35.1429 146.533 35.1589 146.555 35.1707C147.05 35.4457 147.598 35.6128 148.163 35.661C148.727 35.7093 149.296 35.6376 149.831 35.4507C150.366 35.2637 150.855 34.9658 151.267 34.5764C151.678 34.187 152.003 33.7149 152.219 33.1911C152.313 32.9654 151.978 32.7852 151.884 33.0106Z" fill="#CFD8DC"/>
<path d="M129.726 44.9444L125.275 36.3022L120.65 38.6853L125.101 47.3276L129.726 44.9444Z" fill="#7CB342"/>
<path d="M128.942 44.5559L125.136 37.1669L121.434 39.0745L125.24 46.4635L128.942 44.5559Z" stroke="#F2E0BE" stroke-miterlimit="10"/>
<path d="M124.053 42.3408C123.896 42.0361 123.867 41.6817 123.971 41.3553C124.076 41.0289 124.305 40.7573 124.61 40.6003C124.915 40.4434 125.269 40.4139 125.595 40.5184C125.922 40.6228 126.193 40.8526 126.35 41.1572C126.507 41.4618 126.536 41.8163 126.432 42.1427C126.328 42.4691 126.098 42.7407 125.793 42.8976C125.489 43.0546 125.134 43.084 124.808 42.9796C124.482 42.8752 124.21 42.6454 124.053 42.3408Z" fill="#F2E0BE"/>
<path d="M130.305 43.2135L130.224 43.1755L128.552 42.3898C128.464 42.3481 128.366 42.3267 128.268 42.3275C128.17 42.3282 128.073 42.3509 127.985 42.394C127.897 42.4371 127.819 42.4994 127.758 42.5763C127.697 42.6533 127.655 42.743 127.633 42.8387C127.549 43.2089 127.443 43.5795 127.427 43.6848C127.275 44.7502 127.322 45.8345 127.564 46.8829C127.699 47.4531 127.825 48.208 128.425 48.4687C128.52 48.5101 129.637 48.9659 129.629 48.9925L129.825 48.3064L130.317 46.5804L130.305 43.2135Z" fill="#FFC9B9"/>
<path d="M138.103 47.4406L129.948 46.0988L129.63 48.9921L143.61 53.6494L144.047 50.6877L144.374 48.4721L138.103 47.4406Z" fill="#FFC9B9"/>
<path d="M144.374 48.4721L138.104 47.4406L129.949 46.0988L129.697 48.3878C134.322 49.7523 138.953 51.8979 143.84 52.0975L144.048 50.6877L144.374 48.4721Z" fill="#FFC9B9"/>
<path d="M145.285 52.0956C148.549 48.8541 151.786 45.9069 154.339 41.9368C153.184 41.2188 152.216 40.1271 151.06 39.4125L144.374 48.4721L143.839 52.0975C144.319 52.1169 144.801 52.1146 145.285 52.0956Z" fill="#FFC9B9"/>
<path d="M151.47 38.8561L151.06 39.4125C152.216 40.1271 153.184 41.2188 154.339 41.9368C151.786 45.9069 148.549 48.8545 145.285 52.0956C144.801 52.1146 144.319 52.1169 143.839 52.0956C138.952 51.896 134.943 50.5391 130.318 49.1749L129.63 48.9906L143.61 53.6479C148.17 55.1683 155.856 41.8132 155.856 41.8132L151.47 38.8561Z" fill="#FDA98F"/>
<path d="M156.146 41.5597L151.574 38.5261C151.485 38.4795 151.381 38.4698 151.285 38.4991C151.189 38.5284 151.108 38.5944 151.06 38.6827C151.015 38.7721 151.006 38.8755 151.035 38.9713C151.064 39.0672 151.129 39.148 151.216 39.197L155.788 42.2306C155.877 42.2773 155.981 42.2871 156.077 42.2579C156.173 42.2287 156.254 42.1627 156.302 42.0743C156.347 41.985 156.356 41.8815 156.327 41.7857C156.298 41.6898 156.233 41.6088 156.146 41.5597Z" fill="#CFD8DC"/>
<path d="M141.886 20.648C144.041 21.7103 147.048 23.3907 149.332 21.8665C149.708 21.621 150.023 21.2919 150.251 20.9049C150.533 20.8802 150.814 20.9605 151.04 21.1303C151.393 21.3988 151.654 21.7705 151.787 22.1939C151.919 22.6172 151.917 23.0714 151.78 23.4934C151.476 24.3759 150.768 24.68 149.842 24.8032C150.015 27.3415 150.733 29.2503 151.497 31.8163C151.215 33.125 150.74 33.8821 149.699 34.3763C148.657 34.8704 148.407 34.8541 147.322 34.4641C147.103 33.027 146.782 31.6074 146.361 30.2161C145.253 30.8489 144.018 31.2274 142.745 31.3241C142.415 31.3146 138.917 25.9476 138.879 18.5491C139.766 19.4007 140.781 20.1089 141.886 20.648Z" fill="#FFC9B9"/>
<path d="M144.482 31.0109C145.141 30.8307 145.773 30.5634 146.362 30.2161C146.742 31.4347 147.032 32.6798 147.228 33.9411L147.126 29.3229L144.482 31.0109Z" fill="#FDA98F"/>
<path d="M149.489 22.1687C149.724 21.8719 150.03 21.6399 150.38 21.4944C150.565 21.4184 150.661 21.7426 150.479 21.8236C150.172 21.9615 149.906 22.1768 149.707 22.4485C149.607 22.5829 149.523 22.7286 149.457 22.8826C149.423 23.0144 149.357 23.1357 149.264 23.2349C149.248 23.2457 149.23 23.2524 149.21 23.2545C149.191 23.2566 149.172 23.254 149.154 23.2469C149.136 23.2397 149.12 23.2284 149.107 23.2137C149.095 23.199 149.086 23.1815 149.082 23.1627C148.995 22.8312 149.304 22.4029 149.489 22.1687Z" fill="#FDA98F"/>
<path d="M143.659 23.0319C143.615 22.8916 143.605 22.7429 143.629 22.5979C143.641 22.5499 143.666 22.506 143.7 22.4704C143.735 22.4347 143.777 22.4084 143.825 22.3941C143.872 22.3798 143.923 22.3779 143.971 22.3887C144.019 22.3994 144.064 22.4223 144.101 22.4553C144.201 22.5635 144.273 22.6937 144.313 22.8354C144.363 22.9565 144.402 23.0823 144.427 23.2109C144.453 23.2979 144.444 23.3917 144.401 23.4718C144.358 23.5518 144.285 23.6115 144.198 23.6378C144.112 23.6641 144.018 23.6547 143.938 23.6118C143.858 23.5689 143.798 23.4959 143.772 23.409C143.722 23.2873 143.684 23.161 143.659 23.0319Z" fill="#472C1F"/>
<path d="M139.996 23.4721C139.957 23.3304 139.951 23.1814 139.98 23.0372C139.994 22.9898 140.02 22.9467 140.056 22.9122C140.091 22.8777 140.135 22.8529 140.183 22.8402C140.231 22.8275 140.281 22.8273 140.329 22.8396C140.377 22.852 140.421 22.8765 140.457 22.9107C140.553 23.0217 140.621 23.1539 140.657 23.2965C140.702 23.4196 140.736 23.5469 140.756 23.6766C140.78 23.7643 140.767 23.8578 140.722 23.9363C140.676 24.0149 140.601 24.0721 140.514 24.0954C140.426 24.1188 140.333 24.1063 140.254 24.0607C140.175 24.0152 140.118 23.9403 140.095 23.8526C140.05 23.7293 140.016 23.6018 139.996 23.4721Z" fill="#472C1F"/>
<path d="M142.714 28.11C143.625 27.7889 144.482 27.3303 145.255 26.75C144.645 27.5056 143.811 28.0478 142.873 28.2982C142.824 28.2321 142.771 28.1693 142.714 28.11Z" fill="white"/>
<path d="M145.255 26.75C145.293 26.7208 145.333 26.693 145.371 26.6634C145.384 26.845 145.378 27.0275 145.354 27.2081C145.312 27.6188 145.151 28.0083 144.892 28.3297C144.506 28.7831 143.959 29.0692 143.367 29.1279C143.267 28.9462 143.17 28.7585 143.063 28.5791C143.004 28.4825 142.941 28.3892 142.873 28.2993C143.811 28.0488 144.645 27.5062 145.255 26.75Z" fill="#B51C1C"/>
<path d="M142.473 20.2903C143.395 20.0197 144.386 20.107 145.247 20.5347C145.456 20.6373 145.287 20.9578 145.078 20.8551C144.304 20.4704 143.414 20.3918 142.585 20.6351C142.36 20.6993 142.248 20.3545 142.473 20.2903Z" fill="#BF360C"/>
<path d="M139.27 21.5769C139.45 21.2146 139.766 20.9382 140.149 20.808C140.194 20.7955 140.242 20.8009 140.283 20.8231C140.324 20.8453 140.355 20.8825 140.369 20.927C140.384 20.9715 140.38 21.0198 140.36 21.0619C140.34 21.1039 140.304 21.1365 140.26 21.1527C140.115 21.2025 139.981 21.2806 139.866 21.3824C139.751 21.4843 139.657 21.6079 139.59 21.7461C139.486 21.9544 139.165 21.7856 139.27 21.5769Z" fill="#BF360C"/>
<path d="M142.178 27.0454C141.949 26.9514 141.703 26.9055 141.456 26.9104C141.319 26.8922 141.12 26.8382 141.062 26.6987C141.024 26.6082 141.079 26.5026 141.113 26.4186C141.163 26.2924 141.214 26.1662 141.265 26.0385C141.371 25.7883 141.464 25.5323 141.542 25.2718C141.551 25.2342 141.546 25.1947 141.528 25.1606C141.51 25.1264 141.48 25.0996 141.445 25.0852C141.409 25.0707 141.369 25.0694 141.333 25.0815C141.296 25.0936 141.265 25.1184 141.245 25.1513C141.1 25.4269 140.972 25.7105 140.86 26.0008C140.751 26.262 140.579 26.5562 140.7 26.8424C140.754 26.9486 140.83 27.0414 140.925 27.1138C141.019 27.1862 141.129 27.2364 141.245 27.2605C141.379 27.2895 141.516 27.3064 141.653 27.311C141.784 27.324 141.913 27.3479 142.04 27.3825C142.082 27.3914 142.127 27.3851 142.165 27.3648C142.203 27.3444 142.233 27.3113 142.249 27.2713C142.266 27.2312 142.267 27.1866 142.254 27.1453C142.241 27.1041 142.214 27.0687 142.178 27.0454Z" fill="#472C1F"/>
<path d="M130.101 42.9159C128.762 42.0116 127.267 41.3646 125.691 41.0078C125.593 40.9848 125.49 41.0017 125.404 41.0548C125.318 41.108 125.257 41.193 125.234 41.2912C125.211 41.3894 125.228 41.4927 125.281 41.5784C125.334 41.6641 125.419 41.7252 125.517 41.7482C127.028 42.0925 128.462 42.7161 129.744 43.5868C129.833 43.6335 129.937 43.6433 130.033 43.6139C130.129 43.5846 130.21 43.5186 130.258 43.4302C130.303 43.3408 130.312 43.2374 130.283 43.1416C130.254 43.0458 130.189 42.9649 130.101 42.9159Z" fill="#FFC9B9"/>
<path d="M128.232 43.2177C127.51 42.5712 126.609 42.159 125.648 42.0356C125.55 42.0153 125.448 42.0334 125.364 42.0862C125.279 42.139 125.217 42.2224 125.192 42.3191C125.171 42.4171 125.188 42.5196 125.241 42.6048C125.294 42.6901 125.378 42.7512 125.475 42.7753C125.688 42.8006 125.899 42.8414 126.105 42.8973C126.3 42.9473 126.49 43.0152 126.673 43.1002C127.055 43.2679 127.408 43.4956 127.718 43.7745C127.792 43.8413 127.89 43.8761 127.99 43.8716C128.089 43.867 128.183 43.8233 128.251 43.75C128.319 43.6767 128.355 43.5796 128.352 43.4798C128.349 43.38 128.306 43.2854 128.234 43.2165L128.232 43.2177Z" fill="#FFC9B9"/>
<path d="M127.957 44.288C127.331 43.6933 126.561 43.2713 125.724 43.0634C125.675 43.052 125.625 43.0503 125.575 43.0584C125.526 43.0665 125.479 43.0842 125.437 43.1105C125.351 43.1637 125.29 43.2487 125.267 43.3469C125.244 43.4451 125.261 43.5484 125.314 43.6341C125.367 43.7198 125.452 43.7808 125.55 43.8038C125.645 43.8274 125.74 43.8532 125.833 43.8825C125.876 43.8965 125.92 43.911 125.964 43.9262L126.028 43.9494H126.032C126.214 44.0232 126.391 44.1063 126.564 44.1983C126.645 44.2424 126.724 44.2891 126.802 44.3382C126.84 44.3629 126.878 44.388 126.916 44.4142C126.936 44.4279 126.956 44.4416 126.976 44.4557L126.992 44.4671C127.148 44.5838 127.298 44.7098 127.439 44.8445C127.476 44.8784 127.519 44.9048 127.566 44.9221C127.613 44.9394 127.662 44.9473 127.712 44.9454C127.762 44.9435 127.811 44.9318 127.856 44.9109C127.902 44.89 127.943 44.8604 127.977 44.8238C128.01 44.7872 128.037 44.7442 128.054 44.6974C128.071 44.6505 128.079 44.6008 128.077 44.5509C128.076 44.501 128.064 44.452 128.043 44.4066C128.022 44.3612 127.992 44.3204 127.956 44.2865L127.957 44.288Z" fill="#FFC9B9"/>
<path d="M128.185 45.9909C127.555 45.2276 126.733 44.647 125.803 44.3093C125.705 44.2865 125.602 44.3035 125.517 44.3566C125.431 44.4097 125.37 44.4945 125.347 44.5925C125.328 44.6903 125.346 44.7919 125.398 44.8766C125.451 44.9613 125.534 45.0228 125.63 45.0486L125.648 45.0547L125.653 45.057L125.718 45.0828C125.767 45.1026 125.815 45.1231 125.863 45.1444C125.959 45.187 126.053 45.233 126.146 45.2816C126.337 45.3826 126.522 45.4949 126.699 45.618H126.701L126.705 45.6218L126.776 45.6739C126.817 45.7058 126.859 45.7381 126.899 45.7712C126.981 45.8373 127.06 45.9059 127.138 45.9768C127.214 46.0479 127.29 46.1216 127.363 46.1973C127.399 46.2353 127.435 46.2733 127.47 46.3113L127.517 46.3637C127.519 46.3672 127.593 46.4534 127.545 46.3957C127.601 46.4786 127.686 46.537 127.784 46.5586C127.882 46.5802 127.984 46.5636 128.069 46.512C128.152 46.457 128.211 46.3719 128.232 46.2747C128.254 46.1775 128.237 46.0757 128.185 45.9909Z" fill="#FFC9B9"/>
<path d="M112.779 52.7015L117.624 53.015L120.536 50.7683H121.334L119.588 48.7363L117.303 48.3513L112.779 51.4855L112.779 52.7015Z" fill="#FDA98F"/>
<path d="M112.779 51.4855L114.447 51.1035C115.562 50.848 116.539 50.1812 117.183 49.2365L117.699 48.4813L120.965 47.9111C121.068 47.8931 121.161 47.8392 121.229 47.7591C121.296 47.6789 121.333 47.5776 121.333 47.4729C121.333 47.4135 121.321 47.3548 121.298 47.3001C121.275 47.2455 121.241 47.196 121.199 47.1546C121.156 47.1131 121.106 47.0807 121.05 47.059C120.995 47.0374 120.936 47.027 120.877 47.0285L116.887 46.5245C116.406 46.4636 115.917 46.513 115.459 46.669C115 46.825 114.582 47.0835 114.238 47.425L112.778 48.8716L112.779 51.4855Z" fill="#FFC9B9"/>
<path d="M91.4797 119.482H86.5575L86.5267 117.698H91.518L91.4797 119.482Z" fill="#FFC9B9"/>
<path d="M100.022 123.201L91.6107 119.482H86.1767L85.2856 124.074H100.516L100.022 123.201Z" fill="black"/>
<path d="M85.2842 124.074L85.1436 124.799H100.924L100.515 124.074H85.2842Z" fill="white"/>
<path d="M67.6852 84.3186V64.4711L70.3072 65.478C71.0769 65.7735 71.6985 66.3614 72.0366 67.1136C72.3746 67.8657 72.4017 68.721 72.1118 69.493C71.9097 70.031 71.8836 70.6193 72.0373 71.1731C72.1909 71.7269 72.5164 72.2175 72.9668 72.5744L92.9377 88.4008C93.3875 88.7573 93.7449 89.2169 93.9798 89.7406C94.2147 90.2644 94.3201 90.837 94.2871 91.4101L92.7758 117.698H84.7061L83.8515 95.1582L67.6852 84.3186Z" fill="#263238"/>
<path d="M68.4114 65.7262L68.4795 72.6257L81.1715 86.8413C82.124 87.909 82.6395 89.2963 82.6155 90.727C82.5914 92.1979 82.1354 93.6291 81.3044 94.8428C80.4733 96.0564 79.3039 96.9988 77.9415 97.5528L58.0792 105.628L55.347 96.9614L72.0727 90.5343L63.0952 86.863C59.6857 85.4685 56.7685 83.0903 54.7152 80.0313C52.6619 76.9724 51.5657 73.3713 51.566 69.6868L68.4114 65.7262Z" fill="#37474F"/>
<path d="M77.1202 90.8589C74.2643 90.641 71.4846 89.8335 68.9563 88.4875C68.8665 88.4416 68.7622 88.4332 68.6663 88.4642C68.5704 88.4952 68.4907 88.5631 68.4448 88.6529C68.3989 88.7426 68.3905 88.847 68.4215 88.9429C68.4525 89.0389 68.5203 89.1186 68.6101 89.1645C71.2603 90.5661 74.1727 91.4016 77.1627 91.618C77.6491 91.6541 77.602 90.8947 77.1202 90.8589Z" fill="#263238"/>
<path d="M74.3801 92.1034L72.4755 90.9342C72.4331 90.9077 72.3859 90.8898 72.3366 90.8816C72.2873 90.8734 72.2368 90.875 72.1881 90.8862C72.1394 90.8975 72.0934 90.9183 72.0527 90.9473C72.012 90.9764 71.9774 91.0132 71.9509 91.0556C71.9245 91.0981 71.9066 91.1453 71.8984 91.1946C71.8902 91.244 71.8917 91.2944 71.903 91.3431C71.9143 91.3919 71.935 91.4379 71.9641 91.4786C71.9931 91.5193 72.0299 91.5539 72.0723 91.5804L73.9769 92.7492C74.0626 92.8026 74.166 92.8199 74.2643 92.7971C74.3627 92.7743 74.448 92.7134 74.5015 92.6277C74.555 92.542 74.5722 92.4386 74.5494 92.3402C74.5267 92.2418 74.4657 92.1565 74.3801 92.103V92.1034Z" fill="#263238"/>
<path d="M82.408 44.0695C83.4249 42.3302 84.4493 40.6893 86.1958 41.7509C88.8715 43.3558 91.6989 44.6926 94.6371 45.7419L91.4451 52.7159C88.2433 51.866 84.52 51.3772 81.6096 49.6113C79.8715 48.5531 81.3687 45.8464 82.408 44.0695Z" fill="#6FCF97"/>
<path d="M98.1849 47.7484L94.7804 46.1653C94.0649 48.4451 92.8999 50.5583 91.3544 52.3803L97.8432 54.4066L112.777 52.7015V48.8716L98.1849 47.7484Z" fill="#FFC9B9"/>
<path d="M97.2109 53.1211L112.779 51.6341V48.8716L98.1868 47.7484L95.1133 46.3193C95.0431 48.2466 94.447 50.118 93.3896 51.7307L97.2109 53.1211Z" fill="#FFC9B9"/>
<path d="M97.211 53.1211L93.3878 51.7307C94.4452 50.118 95.0412 48.2466 95.1115 46.3193L94.6372 46.0988L94.4875 46.0346C93.965 48.3038 93.0667 50.5547 91.4008 52.3951L97.8433 54.4066L112.777 52.7015V51.6342L97.211 53.1211Z" fill="#FDA98F"/>
<path d="M94.3745 45.7624C93.6722 48.0937 92.6004 50.2972 91.2 52.2887C90.9184 52.6893 91.5587 53.0991 91.8395 52.6992C93.2778 50.6505 94.3785 48.3845 95.1 45.9875C95.1257 45.8925 95.1136 45.7912 95.0661 45.7049C95.0187 45.6187 94.9397 45.5542 94.8457 45.5251C94.7517 45.4959 94.6501 45.5044 94.5622 45.5486C94.4744 45.5929 94.4071 45.6695 94.3745 45.7624Z" fill="#3C8F7C"/>
<path d="M72.5192 67.6518C72.7651 66.1337 73.1907 64.6503 73.7869 63.2328C76.0593 57.4983 79.3034 51.9314 83.5176 47.409C84.8775 45.9448 86.3736 44.6133 87.9856 43.4324C83.6806 38.999 76.7292 35.0988 69.9291 33.6313C68.5612 33.3386 67.1337 33.5481 65.9075 34.2215C64.6813 34.8949 63.7383 35.9873 63.251 37.2988L58.0788 43.697C54.4575 48.1769 52.0351 53.5046 51.0394 59.1789C50.0437 64.8532 50.5075 70.6876 52.3872 76.1333C61.1124 70.1962 70.5098 69.4147 72.5135 70.0962C72.388 69.2861 72.39 68.4613 72.5192 67.6518Z" fill="#90EA93"/>
<path d="M64.353 65.7973C61.2133 66.1231 58.1449 66.9442 55.2619 68.2299C52.6498 56.472 59.0155 45.8381 66.4043 37.0491C67.4595 35.7948 65.6473 34.1102 64.5107 35.2923C63.9579 35.8675 63.5291 36.5502 63.251 37.2981L58.0788 43.6962C54.4575 48.1761 52.0351 53.5038 51.0394 59.1781C50.0437 64.8524 50.5075 70.6869 52.3872 76.1325C53.162 75.6053 53.9425 75.1203 54.7223 74.6718C54.885 73.7478 55.1954 72.8561 55.6415 72.0309C57.2706 68.5005 61.0329 67.8806 64.5734 66.9824C64.721 66.9436 64.8484 66.8504 64.9301 66.7215C65.0118 66.5925 65.0417 66.4375 65.0138 66.2874C64.9859 66.1374 64.9022 66.0034 64.7797 65.9125C64.6571 65.8216 64.5047 65.7804 64.353 65.7973Z" fill="#3C8F7C"/>
<path d="M71.1136 67.4925C68.7428 67.3757 66.375 67.7751 64.1736 68.6632C63.7207 68.8445 64.0874 69.5112 64.5373 69.3311C66.6182 68.5026 68.8538 68.1348 71.0904 68.2527C71.1912 68.2558 71.289 68.2187 71.3625 68.1496C71.4359 68.0805 71.4789 67.985 71.482 67.8842C71.4851 67.7834 71.448 67.6855 71.3789 67.612C71.3098 67.5386 71.2144 67.4956 71.1136 67.4925Z" fill="#3C8F7C"/>
<path d="M81.41 49.3912C76.2059 55.0304 72.8541 62.1292 71.8059 69.7317C71.7383 70.2159 72.4979 70.2452 72.5659 69.7636C73.3778 64.0286 75.5232 58.5641 78.8298 53.8091C79.7706 52.4562 80.8023 51.1689 81.9177 49.956C82.2464 49.5995 81.741 49.0309 81.41 49.3912Z" fill="#6FCF97"/>
<path d="M57.0296 60.682C57.0296 60.682 59.5479 61.8048 61.2374 62.7189C61.7637 64.6091 60.3656 66.4001 58.808 67.2075C58.1732 67.5356 57.4631 67.6907 56.7493 67.657C56.0356 67.6233 55.3432 67.402 54.7422 67.0154C54.1411 66.6289 53.6525 66.0907 53.3256 65.4551C52.9987 64.8195 52.845 64.109 52.88 63.3951L57.0296 60.682Z" fill="#FFC9B9"/>
<path d="M64.6065 67.8011C64.4348 66.7188 64.0205 65.6893 63.3947 64.7897C62.7689 63.8902 61.9477 63.1439 60.9927 62.6068C60.2042 62.1579 59.489 63.3708 60.2775 63.8193C61.0738 64.2672 61.756 64.8928 62.2711 65.6474C62.7863 66.402 63.1204 67.2654 63.2476 68.1702C63.3863 69.0627 64.7444 68.6898 64.6065 67.8011Z" fill="#FFC9B9"/>
<path d="M63.0017 68.8753C62.8301 67.7929 62.4159 66.7633 61.7901 65.8637C61.1644 64.9641 60.3433 64.2178 59.3883 63.6805C58.5998 63.232 57.8846 64.4449 58.6727 64.8934C59.469 65.3412 60.1513 65.9667 60.6664 66.7213C61.1815 67.4759 61.5157 68.3392 61.6428 69.244C61.7819 70.1369 63.14 69.7636 63.0017 68.8753Z" fill="#FFC9B9"/>
<path d="M60.9664 69.4439C60.7948 68.3615 60.3806 67.3319 59.7548 66.4323C59.1289 65.5326 58.3077 64.7863 57.3526 64.2491C56.5645 63.8006 55.8494 65.0131 56.6375 65.462C57.4337 65.9099 58.116 66.5354 58.6311 67.29C59.1462 68.0445 59.4804 68.9078 59.6076 69.8126C59.7463 70.7055 61.104 70.3322 60.9664 69.4439Z" fill="#FFC9B9"/>
<path d="M58.8472 69.4352C58.6756 68.3527 58.2614 67.3231 57.6355 66.4235C57.0097 65.5239 56.1885 64.7776 55.2334 64.2404C54.4453 63.7919 53.7301 65.0048 54.5182 65.4533C55.3144 65.9012 55.9966 66.5267 56.5118 67.2813C57.0269 68.0359 57.3611 68.8991 57.4883 69.8039C57.627 70.6967 58.9851 70.3235 58.8472 69.4352Z" fill="#FFC9B9"/>
<path d="M57.0296 60.682L51.8955 45.9696L66.6319 40.7216L63.536 34.1349L44.4904 40.4065C44.2119 40.4982 43.9562 40.6483 43.7403 40.8467C43.5243 41.045 43.3531 41.2871 43.238 41.5569C43.123 41.8266 43.0667 42.1178 43.073 42.411C43.0793 42.7042 43.1479 42.9927 43.2744 43.2572L52.8804 63.3978L57.0296 60.682Z" fill="#FFC9B9"/>
<path d="M66.6319 40.7216L63.536 34.1349L58.2084 35.8891C58.0564 37.9879 57.9854 40.0663 58.5725 41.9812C55.8996 43.4636 52.6996 44.5868 49.8367 45.412C50.925 46.1574 51.8784 47.0829 52.6559 48.1487L51.8959 45.9696L66.6319 40.7216Z" fill="#FDA98F"/>
<path d="M49.8366 45.412C52.6995 44.5868 55.8995 43.4632 58.5724 41.9812C57.9853 40.0663 58.0545 37.9879 58.2084 35.8891L44.4904 40.4054C44.2119 40.4971 43.9562 40.6472 43.7403 40.8455C43.5243 41.0439 43.3531 41.286 43.238 41.5557C43.123 41.8255 43.0667 42.1166 43.073 42.4098C43.0793 42.703 43.1479 42.9915 43.2744 43.2561L52.8804 63.3966L57.0308 60.6835L52.657 48.1502C51.8793 47.0838 50.9255 46.1578 49.8366 45.412Z" fill="#FFC9B9"/>
<path d="M56.1507 44.5009C59.4633 43.231 62.8848 42.2659 66.3727 41.6175C68.3867 41.2229 70.0587 39.2309 69.5795 37.0183C69.1296 34.9369 70.7461 33.6659 68.5535 33.4983C62.9983 33.0741 57.4054 35.3132 53.7677 36.6675C54.0046 39.4168 54.8165 42.0856 56.1507 44.5009Z" fill="#6FCF97"/>
<path d="M53.6294 36.8237C53.9018 39.5226 54.753 42.1309 56.1248 44.4709C56.373 44.8939 57.0121 44.483 56.7651 44.0611C55.4596 41.8342 54.6489 39.3522 54.3882 36.7838C54.34 36.2992 53.58 36.3353 53.6294 36.8237Z" fill="#3C8F7C"/>
<path d="M85.196 26.4931C85.8701 26.1704 86.4287 25.648 86.7958 24.9968C87.1629 24.3457 87.3208 23.5973 87.248 22.8533C87.1013 21.4043 86.1327 20.0942 84.8581 19.2401C83.5291 18.4126 82.0269 17.9032 80.4688 17.7516C79.1537 17.5594 77.8147 17.6074 76.5168 17.8934C75.8658 18.0519 75.1906 18.3267 74.8585 18.8683C74.5263 19.41 74.7517 20.2557 75.4083 20.3929C75.138 20.3505 74.8613 20.3908 74.6143 20.5084C74.3673 20.626 74.1615 20.8155 74.024 21.052C73.9094 21.2879 73.878 21.5556 73.9348 21.8117C73.9917 22.0677 74.1335 22.2969 74.3371 22.4622C74.0263 22.4324 73.7135 22.4949 73.4381 22.642C73.1626 22.789 72.9365 23.014 72.7882 23.2889C72.6647 23.562 72.6343 23.8682 72.7016 24.1603C72.769 24.4524 72.9304 24.7143 73.161 24.9058C72.8611 25.0324 72.6176 25.2641 72.4763 25.5575C72.335 25.8508 72.3055 26.1856 72.3934 26.4992C72.6015 27.1153 72.9395 27.6795 73.3844 28.1537C74.3975 29.4447 75.2368 30.8632 75.8807 32.3728C76.8136 32.0411 77.6935 31.5757 78.4928 30.9911" fill="#3F2500"/>
<path d="M85.7902 22.9894C84.9699 22.858 84.134 22.8558 83.313 22.9829C82.6054 23.0665 80.4402 23.5333 80.4402 23.5333C79.9249 25.0396 79.6726 26.0419 78.4581 27.0682C78.3528 27.1782 78.2137 27.2498 78.0629 27.2715C77.8481 27.2323 77.6401 27.1626 77.445 27.0644C77.1722 26.983 76.9062 26.8834 76.641 26.7812C75.8088 26.4592 74.904 26.0069 74.09 26.6139C73.764 26.8845 73.5395 27.2579 73.4534 27.6727C73.3672 28.0876 73.4245 28.5195 73.6158 28.8976C73.8223 29.2677 74.1255 29.5748 74.493 29.786C74.8604 29.9972 75.2783 30.1046 75.702 30.0968C76.0387 32.4956 75.9718 33.3781 75.6085 35.7727C76.0265 36.9104 77.0996 38.3296 78.0952 38.6413C79.0923 38.9883 80.1858 38.9289 81.1394 38.476C81.18 37.306 81.3144 36.1412 81.5414 34.9928C82.3349 35.137 83.1466 35.1499 83.9442 35.0308C84.2463 35.0069 84.5314 34.8809 84.7524 34.6735C84.8875 34.4917 84.9786 34.2811 85.0184 34.0581C85.9135 30.4409 86.1747 26.6958 85.7902 22.9894Z" fill="#FFC9B9"/>
<path d="M81.1395 38.4771C81.1801 37.3072 81.3145 36.1424 81.5415 34.9939C81.9862 35.0696 82.4361 35.1092 82.8871 35.1125C81.8695 34.9274 81.1631 34.5367 80.3328 34.2999C80.4726 35.8279 80.9187 38.5934 81.1395 38.4771Z" fill="#FDA98F"/>
<path d="M75.5337 27.7288C75.2859 27.4922 74.9818 27.3228 74.6502 27.2365C74.4743 27.1902 74.4294 27.4942 74.6023 27.5437C74.895 27.6287 75.1607 27.7882 75.3733 28.0066C75.4798 28.1146 75.5733 28.2346 75.6519 28.3643C75.7248 28.4836 75.7553 28.5844 75.8693 28.6562C75.8848 28.6635 75.9019 28.6669 75.9191 28.6661C75.9363 28.6654 75.953 28.6606 75.9679 28.652C75.9829 28.6434 75.9955 28.6314 76.0048 28.6169C76.014 28.6024 76.0197 28.5859 76.0212 28.5688C76.0596 28.2617 75.7286 27.9154 75.5337 27.7288Z" fill="#FDA98F"/>
<path d="M81.7908 26.5668C81.8127 26.4355 81.8034 26.3008 81.7635 26.1738C81.7462 26.1325 81.7186 26.0963 81.6834 26.0687C81.6481 26.0411 81.6064 26.023 81.5621 26.0162C81.5179 26.0094 81.4726 26.014 81.4307 26.0297C81.3888 26.0454 81.3516 26.0716 81.3227 26.1058C81.2468 26.2149 81.1978 26.3405 81.1798 26.4722C81.1505 26.5871 81.1326 26.7046 81.1262 26.823C81.1176 26.9023 81.1399 26.9819 81.1884 27.0452C81.237 27.1085 81.3081 27.1507 81.3869 27.1629C81.4657 27.1752 81.5463 27.1565 81.6117 27.1109C81.6772 27.0653 81.7225 26.9962 81.7384 26.918C81.7674 26.803 81.785 26.6853 81.7908 26.5668Z" fill="#472C1F"/>
<path d="M85.5912 26.2521C85.5796 26.1195 85.5366 25.9915 85.4658 25.8788C85.4387 25.8432 85.4029 25.8151 85.3618 25.7973C85.3207 25.7794 85.2757 25.7724 85.2312 25.777C85.1866 25.7815 85.144 25.7974 85.1073 25.8232C85.0707 25.8489 85.0413 25.8837 85.0219 25.9241C84.9761 26.0489 84.9605 26.1828 84.9763 26.3148C84.9774 26.4335 84.9901 26.5518 85.0143 26.6679C85.0259 26.7469 85.0676 26.8184 85.1306 26.8675C85.1936 26.9166 85.2731 26.9394 85.3525 26.9313C85.4319 26.9233 85.5052 26.8848 85.557 26.8241C85.6088 26.7633 85.6352 26.6849 85.6307 26.6052C85.6293 26.4865 85.6161 26.3682 85.5912 26.2521Z" fill="#472C1F"/>
<path d="M81.4104 32.621C82.064 32.6763 82.6904 32.9078 83.223 33.2907C83.3667 33.3926 83.1938 33.6051 83.0501 33.5032C82.5554 33.1508 81.9742 32.9395 81.3686 32.892C81.1927 32.8768 81.2356 32.6062 81.4104 32.621Z" fill="#FDA98F"/>
<path d="M84.623 23.7609C85.0938 23.4523 85.9473 23.9213 86.1851 24.3611C86.2006 24.4012 86.2053 24.4447 86.1986 24.4872C86.192 24.5297 86.1744 24.5697 86.1474 24.6033C86.1205 24.6368 86.0852 24.6626 86.0452 24.6782C86.0051 24.6938 85.9616 24.6987 85.9191 24.6922C85.6911 24.6257 85.4947 24.4949 85.2709 24.4162C85.0554 24.3402 84.7814 24.3402 84.6116 24.1772C84.581 24.1514 84.5565 24.119 84.5402 24.0825C84.5238 24.046 84.5158 24.0063 84.5169 23.9663C84.518 23.9263 84.5281 23.8871 84.5465 23.8515C84.5649 23.8159 84.591 23.785 84.623 23.7609Z" fill="#3F2500"/>
<path d="M80.5269 24.2646C80.9802 23.7226 81.9895 23.5747 82.6549 23.6214C82.9714 23.6439 82.9327 24.111 82.6446 24.1581C82.2969 24.2012 81.9529 24.2706 81.6156 24.3657C81.3311 24.4862 81.0349 24.5772 80.7317 24.6371C80.6868 24.6412 80.6416 24.6321 80.6018 24.611C80.5619 24.5898 80.5291 24.5575 80.5073 24.5179C80.4856 24.4784 80.4759 24.4333 80.4793 24.3883C80.4828 24.3433 80.4993 24.3003 80.5269 24.2646Z" fill="#3F2500"/>
<path d="M80.8757 29.5407C81.9815 30.1733 83.1818 30.6239 84.4306 30.8752C84.2893 31.075 84.1713 31.2904 84.0791 31.5172C82.9671 31.3139 81.9131 30.8694 80.9913 30.215C80.9305 29.9946 80.8918 29.7687 80.8757 29.5407Z" fill="#F3F3F3"/>
<path d="M84.0791 31.5172C83.9757 31.7593 83.8891 32.0113 83.796 32.2527C83.0498 32.2835 82.3208 32.0237 81.7622 31.5278C81.3839 31.1739 81.1161 30.7179 80.9912 30.215C81.9131 30.8694 82.9671 31.3139 84.0791 31.5172Z" fill="#B51C1C"/>
<path d="M75.6359 35.5264C75.7242 36.1135 75.9477 36.6721 76.2888 37.158C76.6299 37.6439 77.0793 38.0438 77.6014 38.3261C78.1235 38.6085 78.7041 38.7656 79.2974 38.785C79.8906 38.8044 80.4803 38.6856 81.0197 38.438C81.4225 38.2684 81.5985 38.9264 81.2006 39.094C80.5744 39.3677 79.894 39.4945 79.2113 39.465C78.5286 39.4354 77.8617 39.2501 77.2616 38.9233C76.6614 38.5966 76.1438 38.1369 75.7484 37.5794C75.353 37.022 75.0901 36.3815 74.98 35.707C74.9048 35.2786 75.5599 35.095 75.6359 35.5264Z" fill="#D50000"/>
<path d="M87.501 16.8523C86.5776 17.3426 85.6618 17.852 84.7612 18.3879C84.7118 18.3423 84.6624 18.2967 84.613 18.2473C83.7164 17.3863 82.6224 16.7584 81.4268 16.4184C80.2313 16.0784 78.9706 16.0367 77.7553 16.297C76.5399 16.5574 75.4069 17.1117 74.4553 17.9116C73.5038 18.7114 72.7628 19.7324 72.2972 20.8851C71.465 22.9491 71.4954 25.5983 72.7494 27.3924C72.7038 27.4304 72.662 27.4722 72.6164 27.514C72.5429 27.5831 72.4997 27.6785 72.4965 27.7794C72.4933 27.8802 72.5303 27.9783 72.5993 28.0518C72.6684 28.1254 72.7638 28.1686 72.8646 28.1718C72.9655 28.175 73.0635 28.138 73.137 28.069C75.3718 25.9572 77.7499 24.0027 80.2544 22.2193C81.8922 21.0486 83.5794 19.9564 85.316 18.9428C86.1558 18.4487 87.0032 17.9774 87.8658 17.5213C87.9545 17.4729 88.0204 17.3912 88.0489 17.2943C88.0774 17.1974 88.0662 17.0931 88.0178 17.0044C87.9695 16.9156 87.8878 16.8498 87.7909 16.8213C87.694 16.7928 87.5897 16.8039 87.501 16.8523Z" fill="#3C8F7C"/>
<path d="M85.0922 29.5768L84.1574 26.2403C84.0916 26.0054 83.72 26.0852 83.7861 26.3213C84.0802 27.3716 84.3745 28.4218 84.6689 29.4719L83.8389 29.641C83.7901 29.6522 83.7477 29.6822 83.7209 29.7244C83.6941 29.7667 83.685 29.8179 83.6956 29.8668C83.7063 29.9157 83.7358 29.9584 83.7778 29.9857C83.8198 30.013 83.8709 30.0226 83.9199 30.0124L84.9459 29.8029C84.9951 29.792 85.038 29.7622 85.0654 29.7199C85.0927 29.6775 85.1024 29.6262 85.0922 29.5768Z" fill="#472C1F"/>
<path d="M83.511 18.3119L73.0481 26.3555C72.6597 26.6539 73.17 27.2175 73.5557 26.9214L84.0179 18.8782C84.4074 18.5791 83.8967 18.0154 83.511 18.3119Z" fill="#D50000"/>
<path d="M106.319 55.6556H136.349L135.307 73.6166H107.361L106.319 55.6556Z" fill="#90EA93"/>
<path d="M135.307 73.6166L136.349 78.7825H106.319L107.361 73.6166H135.307Z" fill="#6FCF97"/>
<path d="M125.588 58.1083V54.2519C125.601 53.178 125.214 52.1377 124.504 51.3321C123.794 50.5266 122.811 50.0131 121.744 49.891C121.154 49.8346 120.558 49.902 119.995 50.0892C119.432 50.2763 118.915 50.5789 118.476 50.9777C118.037 51.3764 117.686 51.8625 117.445 52.4048C117.205 52.9471 117.081 53.5336 117.08 54.1268V58.1083C117.08 58.2005 117.043 58.2888 116.978 58.354C116.913 58.4191 116.825 58.4557 116.733 58.4557C116.64 58.4557 116.552 58.4191 116.487 58.354C116.422 58.2889 116.385 58.2005 116.385 58.1083V54.2694C116.371 52.9816 116.85 51.7372 117.724 50.7914C118.598 49.8455 119.8 49.2698 121.085 49.1822C121.755 49.1491 122.424 49.2525 123.053 49.486C123.682 49.7194 124.256 50.0782 124.742 50.5404C125.228 51.0027 125.616 51.5588 125.88 52.1752C126.145 52.7915 126.282 53.4552 126.283 54.1261V58.1076C126.283 58.1997 126.246 58.2881 126.181 58.3532C126.116 58.4184 126.028 58.455 125.935 58.455C125.843 58.455 125.755 58.4185 125.69 58.3535C125.625 58.2885 125.588 58.2003 125.588 58.1083Z" fill="#263238"/>
<path d="M123.254 51.0416C123.194 50.9529 123.172 50.844 123.193 50.7389C123.213 50.6339 123.274 50.5412 123.363 50.4813L124.932 49.422C124.975 49.3923 125.025 49.3715 125.077 49.3609C125.129 49.3502 125.182 49.35 125.234 49.36C125.286 49.3701 125.336 49.3904 125.38 49.4197C125.424 49.449 125.462 49.4867 125.492 49.5307C125.521 49.5746 125.542 49.6239 125.553 49.6759C125.563 49.7278 125.564 49.7814 125.554 49.8334C125.543 49.8855 125.523 49.935 125.494 49.9792C125.465 50.0234 125.427 50.0614 125.383 50.091L123.815 51.1503C123.726 51.2102 123.617 51.2323 123.512 51.212C123.407 51.1916 123.314 51.1303 123.254 51.0416Z" fill="#FFC9B9"/>
<path d="M123.763 51.768C123.734 51.7241 123.713 51.6747 123.702 51.6228C123.692 51.5709 123.691 51.5174 123.701 51.4654C123.711 51.4133 123.732 51.3638 123.761 51.3196C123.79 51.2754 123.828 51.2374 123.872 51.2077L125.44 50.1484C125.529 50.0885 125.638 50.0663 125.743 50.0867C125.848 50.1071 125.941 50.1684 126.001 50.2571C126.061 50.3458 126.083 50.4547 126.062 50.5597C126.042 50.6648 125.981 50.7574 125.892 50.8173L124.323 51.8767C124.28 51.9064 124.23 51.9272 124.178 51.9378C124.126 51.9484 124.073 51.9487 124.021 51.9386C123.969 51.9285 123.919 51.9082 123.875 51.879C123.831 51.8497 123.793 51.812 123.763 51.768Z" fill="#FFC9B9"/>
<path d="M124.442 52.5646C124.382 52.4759 124.36 52.3669 124.38 52.2618C124.401 52.1567 124.462 52.064 124.551 52.004L126.119 50.9447C126.208 50.8848 126.317 50.8626 126.422 50.883C126.527 50.9034 126.62 50.9647 126.68 51.0534C126.709 51.0973 126.73 51.1467 126.741 51.1986C126.751 51.2506 126.752 51.3042 126.741 51.3563C126.731 51.4083 126.711 51.4579 126.682 51.5021C126.653 51.5464 126.615 51.5844 126.571 51.614L125.003 52.6733C124.914 52.7332 124.805 52.7554 124.7 52.735C124.595 52.7146 124.502 52.6533 124.442 52.5646Z" fill="#FFC9B9"/>
<path d="M124.947 53.2427C124.887 53.154 124.865 53.045 124.885 52.9399C124.906 52.8348 124.967 52.7421 125.056 52.6821L126.421 51.76C126.51 51.7001 126.619 51.678 126.724 51.6983C126.829 51.7187 126.922 51.78 126.982 51.8687C127.011 51.9126 127.032 51.9619 127.043 52.0139C127.053 52.0658 127.054 52.1193 127.044 52.1714C127.033 52.2234 127.013 52.273 126.984 52.3172C126.955 52.3614 126.917 52.3994 126.873 52.4289L125.508 53.3514C125.419 53.4113 125.31 53.4335 125.205 53.4131C125.1 53.3927 125.007 53.3314 124.947 53.2427Z" fill="#FFC9B9"/>
<path d="M60.9224 111.511C58.5894 104.312 56.256 97.113 53.922 89.9133C53.6226 88.9892 52.1421 89.3389 52.4446 90.2728C54.7778 97.4723 57.1109 104.672 59.4438 111.871C59.7448 112.795 61.2252 112.446 60.9224 111.511Z" fill="#00CFA1"/>
<path d="M52.8979 86.1123L51.9201 83.3984C51.8674 83.2084 51.7485 83.0436 51.585 82.9335C51.4569 82.8533 51.3078 82.813 51.1567 82.818C51.0056 82.8229 50.8594 82.8728 50.7368 82.9613C50.6143 83.0497 50.5208 83.1727 50.4685 83.3146C50.4162 83.4564 50.4073 83.6107 50.4431 83.7576C50.7689 84.6627 51.0947 85.5675 51.4204 86.4719C51.4736 86.6617 51.5925 86.8265 51.756 86.9367C51.9303 87.0437 52.1398 87.0775 52.3389 87.031C52.5336 86.9813 52.7012 86.8574 52.8057 86.6856C52.9101 86.5139 52.9432 86.3081 52.8979 86.1123Z" fill="#00CFA1"/>
<path d="M45.8938 63.6087C44.9818 60.571 44.0691 57.533 43.1559 54.4948C42.8758 53.5624 41.3957 53.9136 41.6784 54.8543C42.5904 57.8923 43.5031 60.9303 44.4163 63.9683C44.6964 64.9007 46.1765 64.5494 45.8938 63.6087Z" fill="#00CFA1"/>
<path d="M121.877 50.8299C121.932 50.7825 121.976 50.7248 122.009 50.6601C122.041 50.5954 122.06 50.525 122.065 50.4529C122.07 50.3808 122.061 50.3084 122.038 50.2398C122.015 50.1712 121.979 50.1079 121.931 50.0533L120.239 48.1046C120.192 48.05 120.134 48.0053 120.069 47.9731C120.004 47.9408 119.934 47.9216 119.862 47.9166C119.79 47.9115 119.718 47.9207 119.649 47.9436C119.58 47.9666 119.517 48.0028 119.463 48.0502C119.352 48.146 119.285 48.2816 119.275 48.4272C119.264 48.5728 119.312 48.7165 119.408 48.8268L121.101 50.7755C121.148 50.8301 121.206 50.8748 121.27 50.907C121.335 50.9393 121.406 50.9585 121.478 50.9636C121.55 50.9686 121.622 50.9594 121.691 50.9365C121.759 50.9135 121.823 50.8773 121.877 50.8299Z" fill="#FFC9B9"/>
<path d="M120.48 51.5448C120.535 51.4975 120.579 51.4398 120.612 51.3751C120.644 51.3104 120.663 51.24 120.668 51.1679C120.673 51.0958 120.664 51.0234 120.641 50.9548C120.618 50.8863 120.582 50.8229 120.535 50.7683L118.842 48.8199C118.746 48.7098 118.611 48.6421 118.465 48.6319C118.32 48.6216 118.176 48.6695 118.066 48.7652C118.011 48.8126 117.966 48.8703 117.934 48.935C117.902 48.9997 117.883 49.0701 117.878 49.1422C117.873 49.2143 117.882 49.2867 117.905 49.3553C117.928 49.4238 117.964 49.4872 118.011 49.5417L119.704 51.4905C119.751 51.545 119.809 51.5897 119.874 51.622C119.938 51.6543 120.009 51.6735 120.081 51.6785C120.153 51.6836 120.225 51.6744 120.294 51.6514C120.362 51.6285 120.426 51.5923 120.48 51.5448Z" fill="#FFC9B9"/>
<path d="M119.305 52.3544C119.36 52.3071 119.405 52.2494 119.437 52.1847C119.469 52.12 119.488 52.0496 119.493 51.9774C119.498 51.9053 119.489 51.8329 119.466 51.7643C119.443 51.6958 119.407 51.6324 119.36 51.5779L117.667 49.628C117.571 49.5179 117.436 49.4502 117.29 49.4399C117.145 49.4297 117.001 49.4776 116.891 49.5733C116.781 49.6691 116.713 49.8047 116.703 49.9504C116.692 50.0961 116.74 50.2399 116.836 50.3502L118.529 52.2986C118.576 52.3532 118.634 52.3981 118.698 52.4305C118.763 52.4629 118.833 52.4822 118.905 52.4874C118.978 52.4926 119.05 52.4835 119.119 52.4607C119.187 52.4379 119.251 52.4018 119.305 52.3544Z" fill="#FFC9B9"/>
<path d="M118.401 53.0698C118.511 52.974 118.579 52.8384 118.589 52.6928C118.599 52.5472 118.551 52.4035 118.456 52.2932L116.982 50.5965C116.934 50.5419 116.876 50.4972 116.812 50.4649C116.747 50.4326 116.677 50.4134 116.605 50.4083C116.533 50.4033 116.46 50.4125 116.392 50.4355C116.323 50.4584 116.26 50.4947 116.205 50.5421C116.095 50.638 116.028 50.7736 116.017 50.9192C116.007 51.0648 116.055 51.2085 116.151 51.3187L117.624 53.015C117.72 53.1252 117.856 53.1929 118.002 53.2032C118.147 53.2134 118.291 53.1654 118.401 53.0698Z" fill="#FFC9B9"/>
</svg>
