<svg width="248" height="239" viewBox="0 0 248 239" fill="none" xmlns="http://www.w3.org/2000/svg">
<path d="M248 113.284C248 180.509 159.933 215.477 130.717 235.006C101.5 254.535 0 199.59 0 132.365C0 65.1395 93.4996 -11.4559 109.75 1.4313C126 14.3185 248 46.0588 248 113.284Z" fill="#D2F2D3"/>
<path d="M148.282 16.1433L148.287 16.1398C147.877 14.6933 144.938 11.943 142.015 12.0009C141.735 12.0095 141.459 12.0638 141.196 12.1618L84.4329 44.4567C83.6043 44.9365 82.9152 45.6242 82.4339 46.4519C81.9525 47.2796 81.6956 48.2187 81.6885 49.1761V171.962C81.6885 175.089 85.2949 178.074 88.6807 176.638C88.6894 176.635 88.6953 176.626 88.7035 176.623C88.7784 176.6 88.8512 176.57 88.9212 176.535L145.688 144.186C146.521 143.712 147.213 143.025 147.694 142.197C148.176 141.368 148.429 140.427 148.429 139.468V16.7349C148.427 16.5289 148.376 16.3264 148.282 16.1433Z" fill="#455A64"/>
<path d="M89.6055 62.1546C89.6054 61.6751 89.7324 61.2041 89.9734 60.7896C90.2144 60.3751 90.5609 60.0318 90.9777 59.7946L143.684 29.8088C143.89 29.6913 144.124 29.6301 144.362 29.6313C144.599 29.6324 144.832 29.6958 145.038 29.8152C145.243 29.9347 145.413 30.1058 145.532 30.3117C145.65 30.5176 145.713 30.751 145.713 30.9885V129.999C145.712 130.478 145.585 130.949 145.344 131.363C145.103 131.778 144.758 132.121 144.342 132.359L91.6348 162.392C91.4283 162.509 91.1946 162.571 90.957 162.57C90.7194 162.569 90.4862 162.505 90.2808 162.386C90.0753 162.266 89.9049 162.095 89.7864 161.889C89.6678 161.683 89.6055 161.45 89.6055 161.212V62.1546Z" fill="#3C8F7C"/>
<path opacity="0.2" d="M89.6055 62.1546C89.6054 61.6751 89.7324 61.2041 89.9734 60.7896C90.2144 60.3751 90.5609 60.0318 90.9777 59.7946L143.684 29.8088C143.89 29.6913 144.124 29.6301 144.362 29.6313C144.599 29.6324 144.832 29.6958 145.038 29.8152C145.243 29.9347 145.413 30.1058 145.532 30.3117C145.65 30.5176 145.713 30.751 145.713 30.9885V129.999C145.712 130.478 145.585 130.949 145.344 131.363C145.103 131.778 144.758 132.121 144.342 132.359L91.6348 162.392C91.4283 162.509 91.1946 162.571 90.957 162.57C90.7194 162.569 90.4862 162.505 90.2808 162.386C90.0753 162.266 89.9049 162.095 89.7864 161.889C89.6678 161.683 89.6055 161.45 89.6055 161.212V62.1546Z" fill="black"/>
<path opacity="0.1" d="M89.6055 62.1546C89.6054 61.6751 89.7324 61.2041 89.9734 60.7896C90.2144 60.3751 90.5609 60.0318 90.9777 59.7946L143.684 29.8088C143.89 29.6913 144.124 29.6301 144.362 29.6313C144.599 29.6324 144.832 29.6958 145.038 29.8152C145.243 29.9347 145.413 30.1058 145.532 30.3117C145.65 30.5176 145.713 30.751 145.713 30.9885V129.999C145.712 130.478 145.585 130.949 145.344 131.363C145.103 131.778 144.758 132.121 144.342 132.359L91.6348 162.392C91.4283 162.509 91.1946 162.571 90.957 162.57C90.7194 162.569 90.4862 162.505 90.2808 162.386C90.0753 162.266 89.9049 162.095 89.7864 161.889C89.6678 161.683 89.6055 161.45 89.6055 161.212V62.1546Z" fill="white"/>
<path opacity="0.3" d="M81.6865 49.1761V171.962C81.6865 175.089 85.2929 178.074 88.6787 176.638C88.6875 176.635 88.6933 176.626 88.7015 176.623C88.4976 176.697 88.2786 176.721 88.0633 176.693C87.8479 176.665 87.6426 176.585 87.4645 176.461C87.2865 176.337 87.1411 176.171 87.0407 175.979C86.9402 175.786 86.8877 175.572 86.8875 175.355V52.5701C86.8906 51.5019 87.2096 50.4584 87.8045 49.5711L82.2454 46.7945C81.8799 47.5354 81.6887 48.35 81.6865 49.1761Z" fill="black"/>
<path opacity="0.1" d="M142.014 12.0009C141.734 12.0095 141.457 12.0638 141.195 12.1618L84.4331 44.4567C83.4867 44.9995 82.7261 45.8153 82.251 46.7974L87.8101 49.574C88.276 48.8653 88.902 48.276 89.6376 47.8536L146.402 15.5581C146.563 15.4668 146.74 15.4095 146.924 15.3896C147.108 15.3698 147.294 15.3878 147.471 15.4427C147.647 15.4975 147.811 15.588 147.951 15.7085C148.091 15.829 148.205 15.977 148.286 16.1433L148.29 16.1398C147.875 14.6933 144.94 11.943 142.014 12.0009Z" fill="white"/>
<path d="M124.655 35.8308C125.054 35.6008 125.384 35.7793 125.385 36.2374C125.371 36.4891 125.298 36.7338 125.172 36.9521C125.046 37.1704 124.871 37.3561 124.66 37.4944L113.523 43.9242C113.124 44.1542 112.803 43.9605 112.801 43.5029C112.813 43.2539 112.885 43.0115 113.01 42.7956C113.135 42.5797 113.309 42.3966 113.518 42.2612L124.655 35.8308Z" fill="#263238"/>
<path d="M110.658 43.912C111.057 43.682 111.379 43.8651 111.38 44.3216C111.368 44.572 111.296 44.8158 111.172 45.0333C111.047 45.2508 110.873 45.4358 110.663 45.5733C110.264 45.8038 109.934 45.6154 109.933 45.1572C109.947 44.9072 110.021 44.6643 110.147 44.4479C110.273 44.2316 110.448 44.048 110.658 43.912Z" fill="#263238"/>
<path d="M117.789 34.8957C118.586 34.4363 119.229 34.802 119.231 35.7149C119.206 36.2151 119.063 36.7024 118.814 37.137C118.566 37.5716 118.217 37.9412 117.799 38.2159C117.002 38.6759 116.342 38.2996 116.34 37.3844C116.369 36.8848 116.515 36.3992 116.767 35.9668C117.019 35.5344 117.369 35.1674 117.789 34.8957Z" fill="#263238"/>
<path d="M117.788 150.488C119.41 149.551 120.719 150.297 120.725 152.161C120.673 153.179 120.382 154.171 119.875 155.056C119.368 155.94 118.659 156.693 117.807 157.252C116.185 158.189 114.84 157.423 114.835 155.559C114.894 154.541 115.192 153.551 115.705 152.67C116.218 151.789 116.932 151.041 117.788 150.488Z" fill="#263238"/>
<path d="M145.538 28.2575L164.706 44.1688L157.72 48.2065L138.554 32.294L145.538 28.2575Z" fill="#6FCF97"/>
<path d="M131.569 36.3305L150.732 52.2401L143.745 56.2777L124.584 40.3693L131.569 36.3305Z" fill="#6FCF97"/>
<path d="M124.586 40.367L143.747 56.2754L136.761 60.3131L117.602 44.4058L124.586 40.367Z" fill="white"/>
<path d="M138.553 32.294L157.718 48.2041L150.732 52.2418L131.568 36.3328L138.553 32.294Z" fill="white"/>
<path d="M103.631 52.4776L122.786 68.3825L115.8 72.4202L96.6475 56.5165L103.631 52.4776Z" fill="#6FCF97"/>
<path d="M117.601 44.4041L136.76 60.3113L129.773 64.349L110.616 48.4429L117.601 44.4041Z" fill="#6FCF97"/>
<path d="M89.5234 60.6296L96.6444 56.5141L115.797 72.4179L108.658 76.541L89.5234 60.6296Z" fill="white"/>
<path d="M110.616 48.4406L129.773 64.3466L122.787 68.3843L103.632 52.4794L110.616 48.4406Z" fill="white"/>
<path d="M164.706 44.1688L157.72 48.2065C157.719 48.6796 157.843 49.1445 158.08 49.5544C158.316 49.9643 158.656 50.3046 159.066 50.5412C159.476 50.7777 159.941 50.902 160.414 50.9016C160.887 50.9012 161.352 50.7762 161.761 50.539C162.656 50.0218 163.4 49.278 163.917 48.3824C164.434 47.4868 164.706 46.471 164.706 45.4369V44.1688Z" fill="#90EA93"/>
<path d="M157.72 48.2041L150.733 52.2418C150.733 52.715 150.857 53.18 151.093 53.59C151.329 53.9999 151.67 54.3404 152.079 54.5769C152.489 54.8135 152.954 54.9379 153.427 54.9376C153.9 54.9372 154.365 54.8121 154.775 54.5749C155.67 54.0576 156.414 53.3138 156.931 52.4181C157.448 51.5224 157.72 50.5064 157.72 49.4722V48.2041Z" fill="#E0E0E0"/>
<path d="M150.733 52.2395L143.746 56.2771C143.745 56.7504 143.87 57.2154 144.106 57.6254C144.342 58.0353 144.683 58.3757 145.092 58.6123C145.502 58.8488 145.967 58.9731 146.44 58.9726C146.914 58.9722 147.378 58.847 147.788 58.6096C148.683 58.0924 149.427 57.3486 149.944 56.453C150.461 55.5575 150.733 54.5416 150.733 53.5075V52.2395Z" fill="#90EA93"/>
<path d="M143.746 56.2754L136.76 60.3131C136.759 60.7862 136.883 61.2513 137.119 61.6612C137.356 62.0712 137.696 62.4116 138.106 62.6482C138.515 62.8848 138.98 63.0092 139.454 63.0088C139.927 63.0084 140.392 62.8833 140.801 62.6461C141.696 62.1289 142.44 61.385 142.957 60.4893C143.474 59.5936 143.746 58.5776 143.746 57.5435V56.2754Z" fill="#E0E0E0"/>
<path d="M136.76 60.3107L129.773 64.3484C129.773 64.8213 129.898 65.286 130.134 65.6955C130.371 66.1051 130.711 66.4451 131.121 66.6813C131.53 66.9176 131.995 67.0417 132.468 67.0412C132.941 67.0407 133.405 66.9156 133.815 66.6785C134.71 66.1613 135.454 65.4176 135.971 64.522C136.488 63.6264 136.76 62.6105 136.76 61.5765V60.3107Z" fill="#90EA93"/>
<path d="M129.773 64.3466L122.787 68.3843C122.786 68.8575 122.91 69.3225 123.147 69.7325C123.383 70.1424 123.723 70.4828 124.133 70.7194C124.543 70.956 125.008 71.0804 125.481 71.08C125.954 71.0797 126.419 70.9546 126.828 70.7174C127.724 70.2 128.467 69.4562 128.984 68.5605C129.501 67.6648 129.773 66.6489 129.773 65.6147V64.3466Z" fill="#E0E0E0"/>
<path d="M122.788 68.382L115.801 72.4196C115.8 72.8929 115.924 73.3579 116.161 73.7678C116.397 74.1778 116.737 74.5182 117.147 74.7547C117.557 74.9913 118.022 75.1156 118.495 75.1151C118.968 75.1146 119.433 74.9894 119.843 74.7521C120.738 74.2348 121.481 73.491 121.998 72.5955C122.515 71.6999 122.788 70.6841 122.788 69.65V68.382Z" fill="#90EA93"/>
<path opacity="0.2" d="M164.706 44.1688L157.72 48.2065C157.719 48.6796 157.843 49.1445 158.08 49.5544C158.316 49.9643 158.656 50.3046 159.066 50.5412C159.476 50.7777 159.941 50.902 160.414 50.9016C160.887 50.9012 161.352 50.7762 161.761 50.539C162.656 50.0218 163.4 49.278 163.917 48.3824C164.434 47.4868 164.706 46.471 164.706 45.4369V44.1688Z" fill="#3C8F7C"/>
<path opacity="0.2" d="M150.733 52.2395L143.746 56.2771C143.745 56.7504 143.87 57.2154 144.106 57.6254C144.342 58.0353 144.683 58.3757 145.092 58.6123C145.502 58.8488 145.967 58.9731 146.44 58.9726C146.914 58.9722 147.378 58.847 147.788 58.6096C148.683 58.0924 149.427 57.3486 149.944 56.453C150.461 55.5575 150.733 54.5416 150.733 53.5075V52.2395Z" fill="#3C8F7C"/>
<path opacity="0.2" d="M136.76 60.3107L129.773 64.3484C129.773 64.8213 129.898 65.286 130.134 65.6955C130.371 66.1051 130.711 66.4451 131.121 66.6813C131.53 66.9176 131.995 67.0417 132.468 67.0412C132.941 67.0407 133.405 66.9156 133.815 66.6785C134.71 66.1613 135.454 65.4176 135.971 64.522C136.488 63.6264 136.76 62.6105 136.76 61.5765V60.3107Z" fill="#3C8F7C"/>
<path opacity="0.2" d="M122.788 68.382L115.801 72.4196C115.8 72.8929 115.924 73.3579 116.161 73.7678C116.397 74.1778 116.737 74.5182 117.147 74.7547C117.557 74.9913 118.022 75.1156 118.495 75.1151C118.968 75.1146 119.433 74.9894 119.843 74.7521C120.738 74.2348 121.481 73.491 121.998 72.5955C122.515 71.6999 122.788 70.6841 122.788 69.65V68.382Z" fill="#3C8F7C"/>
<path d="M115.798 72.4179L108.659 76.541C108.658 77.0142 108.783 77.4792 109.019 77.8891C109.255 78.2991 109.595 78.6395 110.005 78.8761C110.415 79.1127 110.88 79.2371 111.353 79.2367C111.826 79.2364 112.291 79.1113 112.7 78.8741C113.642 78.3301 114.424 77.5479 114.967 76.6061C115.511 75.6643 115.797 74.596 115.797 73.5086L115.798 72.4179Z" fill="#E0E0E0"/>
<path d="M123.944 93.0188C121.871 93.2648 119.861 93.8854 118.01 94.8504C113.693 97.0706 110.395 100.867 108.802 105.454C108.106 107.421 107.774 109.499 107.821 111.585C108.281 109.614 108.946 107.696 109.806 105.864C111.726 101.754 114.757 98.2632 118.557 95.7866C120.251 94.6783 122.057 93.7507 123.944 93.0188Z" fill="black"/>
<path d="M118.478 123.652C117.342 123.633 116.215 123.437 115.14 123.071C113.944 122.673 112.84 122.04 111.893 121.209C110.945 120.379 110.174 119.367 109.624 118.233C109.12 117.214 108.779 116.123 108.612 114.999C108.49 116.177 108.644 117.367 109.062 118.475C109.533 119.765 110.322 120.916 111.355 121.822C112.387 122.728 113.631 123.36 114.972 123.659C116.126 123.93 117.326 123.927 118.478 123.652Z" fill="black"/>
<path d="M127.55 104.832C127.665 106.398 127.641 107.972 127.48 109.535C127.114 113.04 125.969 116.419 124.129 119.424C123.307 120.763 122.369 122.027 121.325 123.201C122.665 122.301 123.846 121.185 124.822 119.9C127.087 116.935 128.316 113.308 128.319 109.576C128.326 107.963 128.066 106.36 127.55 104.832Z" fill="black"/>
<path d="M109.202 98.3719C107.788 99.733 106.632 101.339 105.79 103.112C103.809 107.226 103.48 111.944 104.87 116.294C105.458 118.167 106.379 119.919 107.591 121.464C106.826 119.719 106.245 117.9 105.858 116.035C104.981 111.858 105.284 107.52 106.732 103.505C107.375 101.713 108.203 99.9927 109.202 98.3719Z" fill="black"/>
<path d="M131.556 99.0607C131.407 97.4626 130.834 95.9332 129.898 94.6298C128.83 93.0938 127.338 91.9017 125.605 91.1987C123.872 90.4957 121.971 90.3121 120.135 90.6705C118.555 90.9538 117.08 91.6526 115.859 92.6952C117.232 92.0202 118.721 91.6112 120.246 91.4897C121.929 91.3336 123.626 91.5836 125.192 92.2189C126.759 92.8542 128.151 93.8561 129.25 95.1406C130.259 96.2902 131.041 97.6203 131.556 99.0607Z" fill="black"/>
<path d="M156.653 80.7402C158.507 80.5515 160.364 81.0704 161.852 82.193C163.34 83.3155 164.349 84.9589 164.676 86.7937L167.395 102.018L184.424 113.924L180.62 118.552L164.42 110.045C163.466 109.544 162.623 108.857 161.94 108.025C161.256 107.193 160.746 106.232 160.44 105.2L155.221 87.5931L156.653 80.7402Z" fill="#FFA8A7"/>
<path d="M162.973 97.0699C164.479 96.2691 165.685 95.0028 166.412 93.46L164.883 86.4836C164.494 84.7117 163.468 83.1445 161.999 82.0805C160.529 81.0166 158.72 80.5301 156.915 80.7138L156.653 80.7402L155.218 87.5931L157.482 97.7031C159.329 98.159 161.278 97.9342 162.973 97.0699Z" fill="#90EA93"/>
<path d="M162.973 97.0699C161.278 97.9342 159.329 98.159 157.482 97.7031L158.04 100.194C160.157 100.662 165.566 100.507 166.977 96.0388L166.412 93.46C165.685 95.0028 164.479 96.2691 162.973 97.0699Z" fill="#455A64"/>
<path opacity="0.2" d="M162.973 97.0699C164.479 96.2691 165.685 95.0028 166.412 93.46L164.883 86.4836C164.494 84.7117 163.468 83.1445 161.999 82.0805C160.529 81.0166 158.72 80.5301 156.915 80.7138L156.653 80.7402L155.218 87.5931L157.482 97.7031C159.329 98.159 161.278 97.9342 162.973 97.0699Z" fill="white"/>
<path opacity="0.5" d="M162.973 97.0699C161.278 97.9342 159.329 98.159 157.482 97.7031L158.04 100.194C160.157 100.662 165.566 100.507 166.977 96.0388L166.412 93.46C165.685 95.0028 164.479 96.2691 162.973 97.0699Z" fill="white"/>
<path d="M160.422 87.2689C160.422 87.2689 159.746 82.0925 156.653 80.7402C156.653 80.7402 149.261 82.9556 143.124 85.284C140.701 86.1641 138.327 87.174 136.012 88.3093C134.617 89.5177 130.623 93.1036 128.744 94.0721C127.826 94.53 126.837 94.8269 125.818 94.9498H125.805C124.52 95.1533 123.285 95.604 122.171 96.277C116.54 99.5282 111.994 107.406 112.012 113.874C112.023 118.113 114.001 120.68 116.944 121.04V121.056H117.065C117.53 121.102 117.999 121.098 118.463 121.041C123.582 120.996 131.793 120.956 135.023 120.032C150.099 115.623 161.943 104.737 160.422 87.2689Z" fill="black"/>
<path d="M146.067 85.1447L148.278 81.1422L157.15 87.1244L153.639 91.8414C152.902 92.2023 152.098 92.4057 151.278 92.4386C150.458 92.4716 149.64 92.3334 148.876 92.0328C148.121 91.6846 147.446 91.1848 146.892 90.5646C146.338 89.9444 145.918 89.217 145.657 88.4275C145.504 87.8807 145.461 87.3086 145.531 86.7449C145.601 86.1811 145.783 85.6371 146.067 85.1447Z" fill="#FFA8A7"/>
<path opacity="0.2" d="M149.109 81.7028C149.109 86.5199 152.942 88.7833 155.283 89.6347L157.151 87.1244L149.109 81.7028Z" fill="black"/>
<path d="M145.099 76.8903C144.769 74.964 144.439 72.9861 144.814 71.0679C145.188 69.1497 146.426 67.2737 148.298 66.7137C148.685 65.8935 149.236 65.162 149.918 64.5648C150.6 63.9676 151.398 63.5176 152.262 63.243C153.956 62.782 155.708 62.5697 157.463 62.6128C159.4 62.4951 161.345 62.6037 163.257 62.9364C165.183 63.2771 166.934 64.2686 168.217 65.7452C168.876 66.6516 169.343 67.6825 169.59 68.7752C169.838 69.868 169.86 70.9996 169.657 72.1013C169.235 74.302 168.421 76.4089 167.253 78.3211C163.529 78.5867 159.737 79.0104 156.013 79.2767C154.117 79.472 152.207 79.4885 150.308 79.3258C148.381 79.0089 146.578 78.1662 145.099 76.8903Z" fill="#263238"/>
<path d="M167.885 67.9659C168.838 73.6929 168.207 79.5718 166.059 84.9657C165.56 86.2115 164.915 87.5012 163.75 88.1666C162.529 88.8641 161.017 88.7184 159.626 88.5083C157.371 88.2535 155.172 87.635 153.114 86.6767C151.043 85.698 149.429 83.9583 148.609 81.8198C147.871 81.9699 147.107 81.9037 146.406 81.6291C145.706 81.3544 145.1 80.8832 144.662 80.272C143.798 79.0025 143.351 77.4956 143.382 75.9605C143.361 74.985 143.561 73.8334 144.436 73.4039C145.25 73.0048 146.229 73.4525 146.934 74.0242C148.095 74.9683 148.942 76.2408 149.367 77.6751C150.011 75.2993 151.015 73.006 151.66 70.6296C151.913 69.6933 152.227 68.6769 153.042 68.1549C154.037 67.5165 155.34 67.8828 156.489 68.1678C160.243 69.0727 164.165 69.0032 167.885 67.9659Z" fill="#FFA8A7"/>
<path d="M160.958 75.1805L163.737 79.8583L160.424 80.4804L160.958 75.1805Z" fill="#F28F8F"/>
<path d="M157.23 82.0925L159.746 83.3161C159.53 83.6019 159.227 83.8096 158.882 83.9076C158.538 84.0056 158.171 83.9886 157.837 83.8591C157.549 83.6789 157.331 83.4051 157.22 83.0834C157.11 82.7618 157.113 82.412 157.23 82.0925Z" fill="#F28F8F"/>
<path opacity="0.3" d="M157.23 82.0925L159.746 83.3161C159.53 83.6019 159.227 83.8096 158.882 83.9076C158.538 84.0056 158.171 83.9886 157.837 83.8591C157.549 83.6789 157.331 83.4051 157.22 83.0834C157.11 82.7618 157.113 82.412 157.23 82.0925Z" fill="black"/>
<path d="M158.713 83.941C158.419 84.0004 158.115 83.9716 157.838 83.8585C157.607 83.7287 157.42 83.5333 157.3 83.2971C157.18 83.0608 157.133 82.7944 157.165 82.5314C157.554 82.525 157.931 82.6673 158.218 82.9293C158.506 83.1913 158.683 83.5531 158.713 83.941Z" fill="#F28F8F"/>
<path d="M156.159 75.3666C156.14 75.5538 156.177 75.7424 156.266 75.9085C156.354 76.0747 156.49 76.2109 156.655 76.3C156.821 76.389 157.01 76.427 157.197 76.4089C157.384 76.3909 157.562 76.3177 157.708 76.1987C157.853 76.0796 157.961 75.92 158.016 75.7401C158.071 75.5601 158.071 75.3679 158.017 75.1877C157.963 75.0075 157.856 74.8474 157.711 74.7277C157.566 74.608 157.388 74.534 157.201 74.5151C157.077 74.5026 156.951 74.5147 156.832 74.5507C156.712 74.5867 156.601 74.6459 156.504 74.725C156.407 74.804 156.327 74.9014 156.268 75.0115C156.208 75.1216 156.172 75.2422 156.159 75.3666Z" fill="#263238"/>
<path d="M164.14 75.861C164.121 76.0483 164.158 76.2369 164.246 76.403C164.335 76.5692 164.47 76.7054 164.636 76.7944C164.802 76.8835 164.99 76.9214 165.177 76.9034C165.365 76.8854 165.542 76.8122 165.688 76.6931C165.834 76.5741 165.941 76.4145 165.996 76.2345C166.051 76.0546 166.052 75.8624 165.997 75.6822C165.943 75.502 165.837 75.3419 165.692 75.2222C165.546 75.1025 165.369 75.0285 165.182 75.0096C165.057 74.9971 164.932 75.0091 164.812 75.0451C164.692 75.0812 164.581 75.1404 164.484 75.2194C164.387 75.2985 164.307 75.3959 164.248 75.5059C164.189 75.616 164.152 75.7367 164.14 75.861Z" fill="#263238"/>
<path d="M165.439 72.1862L167.392 73.8486C167.51 73.598 167.548 73.3174 167.501 73.0445C167.455 72.7715 167.326 72.5194 167.132 72.3219C166.891 72.1435 166.604 72.0362 166.305 72.0122C166.006 71.9882 165.706 72.0485 165.439 72.1862Z" fill="#263238"/>
<path d="M157.659 72.0562L155.413 73.2962C155.348 73.0271 155.367 72.7445 155.467 72.4863C155.567 72.2281 155.744 72.0068 155.973 71.852C156.245 71.7254 156.547 71.6774 156.845 71.7135C157.143 71.7496 157.425 71.8683 157.659 72.0562Z" fill="#263238"/>
<path d="M169.664 69.8929C161.519 71.2004 153.217 71.2065 145.07 69.911C145.453 59.9526 149.927 56.6991 157.651 56.6991C165.376 56.6991 169.722 60.7999 169.664 69.8929Z" fill="#455A64"/>
<path d="M169.664 69.8929C169.688 66.0793 168.929 63.1552 167.479 61.0322L164.252 60.1246C162.737 59.7005 161.147 59.6153 159.595 59.8754L156.512 60.3932C155.462 60.5693 154.498 61.0813 153.765 61.8523C153.031 62.6232 152.567 63.6115 152.443 64.6685L151.741 70.6706C157.725 71.1018 163.739 70.8408 169.664 69.8929Z" fill="#455A64"/>
<path opacity="0.29" d="M169.664 69.8929C169.688 66.0793 168.929 63.1552 167.479 61.0322L164.252 60.1246C162.737 59.7005 161.147 59.6153 159.595 59.8754L156.512 60.3932C155.462 60.5693 154.498 61.0813 153.765 61.8523C153.031 62.6232 152.567 63.6115 152.443 64.6685L151.741 70.6706C157.725 71.1018 163.739 70.8408 169.664 69.8929Z" fill="white"/>
<path d="M170.63 61.5156H169.202C168.741 61.5156 168.282 61.5372 167.825 61.5706C163.638 61.8737 159.67 63.5581 156.544 66.3596L151.734 70.6729C157.72 71.1036 163.735 70.8419 169.661 69.8929L172.792 66.1162C173.132 65.7057 173.348 65.2069 173.415 64.6781C173.482 64.1494 173.397 63.6124 173.171 63.1299C172.944 62.6475 172.585 62.2395 172.135 61.9537C171.685 61.6678 171.163 61.5159 170.63 61.5156Z" fill="#455A64"/>
<path opacity="0.2" d="M170.63 61.5156H169.202C168.741 61.5156 168.282 61.5372 167.825 61.5706C163.638 61.8737 159.67 63.5581 156.544 66.3596L151.734 70.6729C157.72 71.1036 163.735 70.8419 169.661 69.8929L172.792 66.1162C173.132 65.7057 173.348 65.2069 173.415 64.6781C173.482 64.1494 173.397 63.6124 173.171 63.1299C172.944 62.6475 172.585 62.2395 172.135 61.9537C171.685 61.6678 171.163 61.5159 170.63 61.5156Z" fill="black"/>
<path d="M195.363 114.695L173.548 127.372L151.591 114.695L173.405 102.018L195.363 114.695Z" fill="#6FCF97"/>
<g opacity="0.3">
<path opacity="0.3" d="M195.363 114.695L173.548 127.372L151.591 114.695L173.405 102.018L195.363 114.695Z" fill="white"/>
</g>
<path d="M195.362 114.695L195.299 136.887L173.484 149.564L173.547 127.373L195.362 114.695Z" fill="#6FCF97"/>
<g opacity="0.1">
<path opacity="0.1" d="M195.362 114.695L195.299 136.887L173.484 149.564L173.547 127.373L195.362 114.695Z" fill="white"/>
</g>
<path d="M173.547 127.372L173.485 149.564L151.527 136.887L151.591 114.695L173.547 127.372Z" fill="#6FCF97"/>
<path d="M177.349 113.071L184.732 108.557L180.963 106.382L173.548 110.804L177.349 113.071Z" fill="#E0E0E0"/>
<path d="M177.35 113.071L173.546 110.804L166.014 106.312L162.262 108.495L169.747 113.071L173.551 115.394L183.595 121.535L187.621 119.194L177.35 113.071Z" fill="white"/>
<path d="M169.747 113.071L159.433 119.222L163.47 121.555L173.546 115.394L169.747 113.071Z" fill="#E0E0E0"/>
<path d="M187.619 119.195L183.593 121.536L183.625 121.555L183.688 143.636L187.759 141.27L187.696 119.241L187.619 119.195Z" fill="#E0E0E0"/>
<path d="M163.472 121.555L159.434 119.223L159.403 119.241L159.341 141.396L163.412 143.747L163.474 121.555H163.472Z" fill="white"/>
<path opacity="0.2" d="M163.472 121.555L159.434 119.223L159.403 119.241L159.341 141.396L163.412 143.747L163.474 121.555H163.472Z" fill="black"/>
<path d="M173.539 119.777L168.972 122.57L173.539 125.207L178.092 122.561L173.539 119.777Z" fill="white"/>
<path d="M130.353 119.01C130.353 119.01 132.054 94.2254 132.409 92.6958C133.775 86.8019 142.321 87.2221 143.132 93.2177C143.464 95.6626 139.563 119.415 139.563 119.415L153.702 134.372L156.569 137L159.117 136.482L164.936 137.032C165.087 137.046 165.231 137.109 165.344 137.21C165.458 137.312 165.536 137.447 165.567 137.596C165.605 137.777 165.571 137.966 165.473 138.122C165.375 138.279 165.22 138.391 165.04 138.436L161.201 139.372L163.971 141.268C164.361 141.534 164.8 141.717 165.263 141.804L169.614 142.624C169.805 142.66 169.978 142.765 170.098 142.919C170.217 143.073 170.277 143.266 170.265 143.461C170.255 143.616 170.201 143.764 170.109 143.889C170.017 144.014 169.89 144.109 169.745 144.163L167.41 145.036C165.898 145.601 164.282 145.834 162.671 145.719C161.061 145.604 159.494 145.144 158.077 144.371L153.009 141.604C152.275 141.203 151.581 140.733 150.937 140.199L132.874 125.254C131.966 124.506 131.261 123.543 130.82 122.452C130.38 121.362 130.22 120.179 130.353 119.01Z" fill="#FFA8A7"/>
<path d="M142.902 109.513L144.71 96.0704C144.834 95.1477 144.774 94.2094 144.532 93.3101C144.291 92.4108 143.874 91.5684 143.304 90.8316C142.735 90.0948 142.025 89.4783 141.216 89.0179C140.407 88.5575 139.514 88.2624 138.59 88.1495C137.666 88.0367 136.728 88.1084 135.832 88.3606C134.936 88.6127 134.098 89.0403 133.368 89.6185C132.639 90.1966 132.031 90.9139 131.58 91.7288C131.13 92.5436 130.845 93.4397 130.744 94.3653L129.236 108.099C131.287 109.281 133.564 110.018 135.919 110.262C138.273 110.506 140.653 110.25 142.902 109.513Z" fill="#90EA93"/>
<path opacity="0.2" d="M142.902 109.513L144.71 96.0704C144.834 95.1477 144.774 94.2094 144.532 93.3101C144.291 92.4108 143.874 91.5684 143.304 90.8316C142.735 90.0948 142.025 89.4783 141.216 89.0179C140.407 88.5575 139.514 88.2624 138.59 88.1495C137.666 88.0367 136.728 88.1084 135.832 88.3606C134.936 88.6127 134.098 89.0403 133.368 89.6185C132.639 90.1966 132.031 90.9139 131.58 91.7288C131.13 92.5436 130.845 93.4397 130.744 94.3653L129.236 108.099C131.287 109.281 133.564 110.018 135.919 110.262C138.273 110.506 140.653 110.25 142.902 109.513Z" fill="white"/>
<path d="M135.642 110.23C133.386 109.953 131.208 109.228 129.236 108.098L128.889 111.264C134.967 115.934 142.426 113.055 142.426 113.055L142.902 109.512C140.562 110.272 138.085 110.517 135.642 110.23Z" fill="#455A64"/>
<path opacity="0.5" d="M135.642 110.23C133.386 109.953 131.208 109.228 129.236 108.098L128.889 111.264C134.967 115.934 142.426 113.055 142.426 113.055L142.902 109.512C140.562 110.272 138.085 110.517 135.642 110.23Z" fill="white"/>
<path d="M86.2638 174.882L75.4645 175.196L64.6658 174.882C64.2006 182.175 65.6243 189.607 67.5875 193.237H67.5951C68.0591 194.17 68.8076 194.932 69.7328 195.412C72.919 197.252 78.0685 197.252 81.2343 195.412C82.1735 194.924 82.9248 194.139 83.3707 193.18C85.3182 189.53 86.7267 182.138 86.2638 174.882Z" fill="white"/>
<path d="M83.0757 170.459C87.3071 172.901 87.3293 176.862 83.126 179.305C78.9227 181.748 72.085 181.747 67.8531 179.305C63.6212 176.862 63.6001 172.901 67.8039 170.459C72.0078 168.016 78.8449 168.016 83.0757 170.459Z" fill="#EBEBEB"/>
<path d="M81.4017 171.431C84.7032 173.337 84.7201 176.426 81.4409 178.332C78.1616 180.238 72.8272 180.238 69.5262 178.332C66.2253 176.426 66.2077 173.337 69.4876 171.431C72.7675 169.525 78.1013 169.525 81.4017 171.431Z" fill="#E0E0E0"/>
<g opacity="0.15">
<path opacity="0.15" d="M81.4017 171.431C84.7032 173.337 84.7201 176.426 81.4409 178.332C78.1616 180.238 72.8272 180.238 69.5262 178.332C66.2253 176.426 66.2077 173.337 69.4876 171.431C72.7675 169.525 78.1013 169.525 81.4017 171.431Z" fill="black"/>
</g>
<path d="M93.2202 128.8C68.8841 136.769 68.6635 153.05 74.1501 164.644C75.5334 166.99 79.7209 168.251 83.3653 153.831L76.9735 154.651L84.4227 150.875L86.3573 145.091L80.1469 145.552L88.0303 142.236C89.482 137.655 91.2152 133.168 93.2202 128.8Z" fill="#0097A7"/>
<path opacity="0.2" d="M93.2202 128.8C68.8841 136.769 68.6635 153.05 74.1501 164.644C75.5334 166.99 79.7209 168.251 83.3653 153.831L76.9735 154.651L84.4227 150.875L86.3573 145.091L80.1469 145.552L88.0303 142.236C89.482 137.655 91.2152 133.168 93.2202 128.8Z" fill="black"/>
<path opacity="0.2" d="M93.2202 128.8C68.8841 136.769 68.6635 153.05 74.1501 164.644C75.5334 166.99 79.7209 168.251 83.3653 153.831L76.9735 154.651L84.4227 150.875L86.3573 145.091L80.1469 145.552L88.0303 142.236C89.482 137.655 91.2152 133.168 93.2202 128.8Z" fill="white"/>
<path d="M86.3372 132.872C73.5038 142.612 72.3452 153.779 75.9709 165.438C74.6882 155.172 73.302 144.792 86.3372 132.872Z" fill="white"/>
<path d="M52 145.339C75.9884 148.716 78.8991 163.842 75.7157 175.551C74.8169 177.967 71.1268 179.836 65.3366 167.013L71.4259 166.714L63.8614 164.436L61.0982 159.369L66.9593 158.767L59.0659 156.99C56.9531 152.964 54.5933 149.073 52 145.339Z" fill="#0097A7"/>
<path opacity="0.2" d="M52 145.339C75.9884 148.716 78.8991 163.842 75.7157 175.551C74.8169 177.967 71.1268 179.836 65.3366 167.013L71.4259 166.714L63.8614 164.436L61.0982 159.369L66.9593 158.767L59.0659 156.99C56.9531 152.964 54.5933 149.073 52 145.339Z" fill="white"/>
<path opacity="0.1" d="M52 145.339C75.9884 148.716 78.8991 163.842 75.7157 175.551C74.8169 177.967 71.1268 179.836 65.3366 167.013L71.4259 166.714L63.8614 164.436L61.0982 159.369L66.9593 158.767L59.0659 156.99C56.9531 152.964 54.5933 149.073 52 145.339Z" fill="black"/>
<path d="M59.0869 147.987C72.6576 154.926 75.5916 165.132 74.1521 176.593C73.6412 166.82 73.2071 156.923 59.0869 147.987Z" fill="white"/>
<path d="M100.24 151.007C78.2416 151.367 73.9254 164.674 75.4843 175.584C76.0238 177.862 79.1404 179.96 85.7944 169.05L80.3371 168.099L87.4106 166.892L90.4676 162.636L85.2525 161.437L92.5672 160.715C94.9226 157.324 97.4853 154.082 100.24 151.007Z" fill="#0097A7"/>
<path d="M93.5567 152.6C80.549 157.336 76.7624 166.208 76.7764 176.697C78.3312 167.946 79.8298 159.077 93.5567 152.6Z" fill="white"/>
<path opacity="0.2" d="M100.24 151.007C78.2416 151.367 73.9254 164.674 75.4843 175.584C76.0238 177.862 79.1404 179.96 85.7944 169.05L80.3371 168.099L87.4106 166.892L90.4676 162.636L85.2525 161.437L92.5672 160.715C94.9226 157.324 97.4853 154.082 100.24 151.007Z" fill="white"/>
</svg>
