<svg width="281" height="239" viewBox="0 0 281 239" fill="none" xmlns="http://www.w3.org/2000/svg">
<path d="M281 113.284C281 180.509 192.933 215.477 163.717 235.006C134.5 254.535 33 199.59 33 132.365C33 65.1395 126.5 -11.4559 142.75 1.4313C159 14.3185 281 46.0588 281 113.284Z" fill="#D2F2D3"/>
<path d="M1.50067 122C0.667336 135.667 -1.61664 191.526 25.5834 205.926C52.7834 220.326 72.2502 190.593 78.5835 173.926C81.0835 169.259 87.3835 161.326 92.5835 166.926" stroke="black" stroke-width="2" stroke-dasharray="13 5"/>
<circle cx="100.5" cy="172.5" r="7.5" fill="black"/>
<path opacity="0.1" d="M247.702 122.332V122.335C247.985 119.652 246.367 116.916 242.837 114.878L142.061 56.6944C135.529 52.9224 124.838 52.9224 118.305 56.6944L70.8977 84.0639C67.6333 85.951 66 88.4357 66 90.9204V97.6928C66 100.18 67.6333 102.665 70.8995 104.553L171.676 162.735C178.209 166.507 188.9 166.507 195.431 162.735L242.839 135.363C245.844 133.629 247.463 131.385 247.703 129.103C247.745 128.707 247.745 128.307 247.703 127.911L247.702 122.332ZM243.407 128.248C243.223 128.366 243.034 128.481 242.836 128.594C243.034 128.481 243.223 128.366 243.407 128.248ZM245.325 126.758C245.257 126.822 245.188 126.885 245.119 126.949C245.188 126.885 245.257 126.822 245.325 126.758ZM244.9 127.144C244.822 127.211 244.741 127.276 244.661 127.342C244.741 127.277 244.823 127.211 244.9 127.144ZM244.438 127.522C244.348 127.592 244.253 127.661 244.159 127.73C244.253 127.661 244.348 127.592 244.438 127.522ZM243.941 127.89C243.83 127.968 243.714 128.044 243.598 128.121C243.714 128.044 243.83 127.968 243.941 127.89ZM245.538 126.547C245.597 126.487 245.655 126.427 245.712 126.366C245.655 126.427 245.598 126.487 245.538 126.547ZM246.879 124.805C246.866 124.827 246.855 124.849 246.842 124.871C246.855 124.849 246.866 124.827 246.879 124.805ZM246.65 125.178C246.624 125.218 246.598 125.259 246.571 125.299C246.598 125.259 246.626 125.218 246.65 125.178V125.178ZM246.377 125.571C246.339 125.621 246.302 125.672 246.263 125.722C246.302 125.672 246.339 125.621 246.377 125.571ZM246.063 125.967C246.016 126.023 245.969 126.08 245.919 126.135C245.969 126.082 246.016 126.025 246.063 125.97V125.967Z" fill="#0F0F0F"/>
<path d="M242.837 126.259C249.37 122.488 249.37 116.315 242.837 112.543L142.062 54.36C135.529 50.5881 124.838 50.5881 118.305 54.36L70.8996 81.7292C64.3668 85.5006 64.3668 91.6728 70.8996 95.4447L171.676 153.632C178.209 157.403 188.9 157.403 195.432 153.632L242.837 126.259Z" fill="#90EA93"/>
<path d="M66 88.587C66 91.0734 67.6333 93.559 70.8995 95.4474L171.676 153.632C178.209 157.403 188.9 157.403 195.431 153.632L242.839 126.26C245.844 124.525 247.464 122.281 247.703 119.998V125.574C247.745 125.97 247.745 126.37 247.703 126.766C247.463 129.048 245.844 131.292 242.839 133.027L195.431 160.398C188.9 164.171 178.209 164.171 171.676 160.398L70.8995 102.216C67.6333 100.33 66 97.8441 66 95.3581V88.5856V88.587Z" fill="#3C8F7C"/>
<path d="M226.379 106.982L140.527 57.2243L78.502 93.8457L164.729 143.543L226.379 106.982Z" fill="url(#paint0_linear_756_9)"/>
<path d="M215.138 135.683C219.363 133.244 219.363 129.252 215.138 126.812C210.913 124.373 203.998 124.373 199.772 126.812C195.546 129.252 195.546 133.244 199.772 135.683C203.998 138.122 210.913 138.124 215.138 135.683Z" fill="#B5F7B7"/>
<path d="M213.767 134.892C217.238 132.886 217.238 129.608 213.767 127.604C210.296 125.6 204.615 125.601 201.145 127.604C197.676 129.607 197.675 132.886 201.145 134.892C204.616 136.897 210.295 136.897 213.767 134.892Z" fill="#EEE8EC"/>
<path d="M223.897 139.034C224.746 138.544 225.44 138.77 225.44 139.533C225.44 140.295 224.746 141.323 223.897 141.813L217.356 145.59C216.506 146.08 215.812 145.854 215.812 145.091C215.812 144.328 216.506 143.301 217.356 142.812L223.897 139.034Z" fill="black"/>
<path d="M111.629 124.04L85.9426 109.175C84.6414 108.422 85.7927 106.392 87.0992 107.147C95.6601 112.102 104.222 117.057 112.785 122.011C114.087 122.764 112.935 124.795 111.629 124.04V124.04Z" fill="black"/>
<path d="M111.953 63.4598C112.628 63.111 113.376 62.9273 114.135 62.9238C114.895 62.9204 115.644 63.0973 116.322 63.44L116.822 63.7285C118.027 64.4246 118.032 65.572 116.834 66.2792L104.976 73.275C104.301 73.6238 103.553 73.8075 102.794 73.8111C102.034 73.8146 101.285 73.6378 100.607 73.2953L100.106 73.0068C98.9015 72.3111 98.8962 71.1637 100.095 70.4561L111.953 63.4598Z" fill="#E0CEDB"/>
<path d="M97.4454 77.6147C98.5378 76.9832 98.5378 75.9511 97.4454 75.3209C96.8292 75.0099 96.1487 74.8479 95.4585 74.8479C94.7683 74.8479 94.0878 75.0099 93.4716 75.3209C92.3792 75.9511 92.3792 76.9832 93.4716 77.6147C94.0877 77.9259 94.7683 78.088 95.4585 78.088C96.1487 78.088 96.8293 77.9259 97.4454 77.6147Z" fill="#E0CEDB"/>
<path d="M100.269 58.3681V84.5877L133.075 103.529V77.3073L100.269 58.3681Z" fill="#EFBA35"/>
<path d="M100.269 58.3681L113.872 49.9685L133.075 77.3073L100.269 58.3681Z" fill="#FBD558"/>
<path d="M102.964 72.2948V34L130.199 48.7904V87.0847L102.964 72.2948Z" fill="#FEE7B3"/>
<path d="M104.872 43.6451V41.3407L127.365 54.0909V56.3949L104.872 43.6451Z" fill="#F4D79D"/>
<path d="M104.872 52.0244V49.7205L127.365 62.4707V64.7747L104.872 52.0244Z" fill="#F4D79D"/>
<path d="M104.872 60.4047V58.1008L127.365 70.8506V73.1537L104.872 60.4047Z" fill="#F4D79D"/>
<path d="M104.872 68.7845V66.4806L127.365 79.2309V81.5348L104.872 68.7845Z" fill="#F4D79D"/>
<path d="M100.269 84.5877L111.282 76.6318L100.269 58.3681V84.5877Z" fill="#F4C647"/>
<path d="M133.075 77.3073V103.529L119.164 80.9481L133.075 77.3073Z" fill="#F4C647"/>
<path d="M131.637 69.1794C128.654 67.4568 126.215 68.8654 126.215 72.3088C126.215 75.7522 128.654 79.9802 131.637 81.7014C134.619 83.4227 137.058 82.0141 137.058 78.5712C137.058 75.1282 134.617 70.9011 131.637 69.1794Z" fill="#F15268"/>
<path d="M132.154 72.6844V78.1952C132.154 78.4846 131.911 78.5606 131.631 78.39C131.488 78.3035 131.367 78.185 131.278 78.0439C131.189 77.9028 131.134 77.7429 131.117 77.5769V73.0961L130.744 73.122C130.652 73.1301 130.56 73.1103 130.48 73.0653C130.286 72.9638 130.131 72.8003 130.04 72.6009C129.881 72.3027 129.965 72.0336 130.208 72.0151L131.357 71.8858C131.366 71.881 131.385 71.8893 131.395 71.8858C131.413 71.8946 131.422 71.8805 131.441 71.8797C131.46 71.888 131.478 71.8876 131.497 71.8959C131.506 71.8911 131.525 71.8994 131.534 71.9034C131.557 71.906 131.579 71.913 131.599 71.9241L131.628 71.9364L131.637 71.9408L131.702 71.9702C131.713 71.9818 131.725 71.9907 131.74 71.9962C131.761 72.0071 131.78 72.022 131.796 72.0402C131.81 72.0457 131.823 72.0546 131.833 72.0661C131.861 72.0973 131.87 72.1101 131.889 72.1193C131.9 72.1354 131.913 72.1502 131.927 72.1633C131.936 72.1765 131.954 72.1941 131.964 72.2073C131.978 72.2239 131.991 72.242 132.001 72.2614C132.013 72.2769 132.022 72.2938 132.029 72.3115L132.067 72.366L132.076 72.3889C132.076 72.3981 132.085 72.4118 132.085 72.421C132.095 72.4381 132.102 72.4569 132.104 72.4764C132.109 72.4952 132.115 72.5136 132.123 72.5314C132.125 72.5485 132.128 72.5656 132.132 72.5824C132.129 72.6084 132.136 72.6347 132.151 72.6563L132.154 72.6844Z" fill="white"/>
<path opacity="0.3" d="M100.271 96.7544V84.5877L133.078 103.529V115.695L100.271 96.7544Z" fill="white"/>
<path opacity="0.2" d="M138.439 93.6462V81.4791L184.893 108.085V120.252L138.439 93.6462Z" fill="white"/>
<path d="M140.46 91.72C139.349 92.3621 138.438 91.8366 138.438 90.5529V63.0364C138.438 61.7527 139.347 61.2272 140.46 61.8693L182.871 86.3557C183.459 86.74 183.948 87.2571 184.3 87.8653C184.651 88.4735 184.855 89.1558 184.894 89.8571V106.644C184.894 107.928 183.985 108.453 182.871 107.811L149.751 88.6913C149.124 88.3748 148.432 88.2099 147.729 88.2099C147.027 88.2099 146.335 88.3748 145.708 88.6913L140.46 91.72Z" fill="black"/>
<path d="M147.633 70.6339C144.457 68.7996 141.859 70.2997 141.859 73.9665C141.859 77.6333 144.457 82.1352 147.633 83.9682C150.809 85.8011 153.407 84.3015 153.407 80.6351C153.407 76.9688 150.807 72.4677 147.633 70.6339Z" fill="#7AA9ED"/>
<path d="M148.482 78.2173C149.05 78.125 149.431 77.6095 149.431 76.7762C149.391 76.0667 149.185 75.3765 148.83 74.7611C148.474 74.1457 147.98 73.6223 147.385 73.2329C146.26 72.5834 145.339 73.1147 145.339 74.4137C145.385 75.3378 145.718 76.2247 146.291 76.9508C145.332 76.8866 144.658 77.6056 144.658 78.8858L149.886 83.1515C150.044 82.8012 150.121 82.4199 150.111 82.0358C150.033 80.6112 149.456 79.2596 148.482 78.2173Z" fill="white"/>
<path d="M158.354 78.5172V76.2133L180.846 88.9635V91.2675L158.354 78.5172Z" fill="#7AA9ED"/>
<path d="M158.354 84.1177V81.8137L180.846 94.564V96.871L158.354 84.1177Z" fill="#7AA9ED"/>
<path d="M158.354 89.7226V87.4186L173.224 95.718V98.0219L158.354 89.7226Z" fill="#7AA9ED"/>
<path opacity="0.2" d="M185.306 97.1264V84.9597L211.84 99.8147V111.981L185.306 97.1264Z" fill="white"/>
<path d="M206.999 82.7543L190.149 72.2741C187.487 70.7349 185.308 71.9953 185.308 75.0702V84.8221C185.308 87.8969 187.487 91.6711 190.149 93.2081L193.373 95.319L195.572 99.871L197.934 97.9532L206.998 103.686C209.663 105.226 211.841 103.967 211.841 100.892V91.1403C211.842 88.0663 209.664 84.2917 206.999 82.7543Z" fill="#2D2C34"/>
<path d="M193.056 78.7563C190.606 77.3412 188.602 78.4986 188.602 81.3277C188.602 83.6369 189.936 86.3723 191.759 88.0702L193.007 90.6526L194.344 89.5663C196.17 89.9788 197.51 88.7853 197.51 86.473C197.51 83.6439 195.506 80.1715 193.056 78.7563Z" fill="#7AA9ED"/>
<path d="M190.689 81.7103C190.316 81.4948 190.012 81.6711 190.012 82.1003C190.025 82.3352 190.093 82.5637 190.21 82.7674C190.328 82.9711 190.492 83.1444 190.689 83.2732C191.061 83.4878 191.365 83.3119 191.365 82.8827C191.352 82.6479 191.284 82.4195 191.167 82.2158C191.049 82.0122 190.885 81.839 190.689 81.7103Z" fill="white"/>
<path d="M192.817 83.0696C192.445 82.8546 192.141 83.0309 192.141 83.4602C192.154 83.695 192.222 83.9235 192.339 84.1272C192.457 84.3309 192.621 84.5042 192.817 84.633C193.189 84.8476 193.494 84.6717 193.494 84.2421C193.481 84.0073 193.413 83.7789 193.296 83.5752C193.178 83.3716 193.014 83.1984 192.817 83.0696Z" fill="white"/>
<path d="M195.027 84.3371C194.655 84.122 194.351 84.2975 194.351 84.7271C194.364 84.962 194.432 85.1905 194.549 85.3942C194.667 85.598 194.831 85.7712 195.027 85.9C195.399 86.1146 195.704 85.9387 195.704 85.509C195.691 85.2743 195.623 85.046 195.505 84.8424C195.388 84.6388 195.224 84.4657 195.027 84.3371Z" fill="white"/>
<path d="M201.392 86.1611L201.381 92.9261C201.381 93.2819 201.127 93.4354 200.834 93.2938C200.676 93.2059 200.543 93.0781 200.449 92.9231C200.355 92.768 200.303 92.5911 200.298 92.4098L200.303 86.8045L199.911 86.8925C199.819 86.9162 199.722 86.9054 199.637 86.8621C199.424 86.7549 199.259 86.5707 199.176 86.3467C199.009 85.9909 199.098 85.6334 199.352 85.5736L200.559 85.2631C200.569 85.2561 200.588 85.2631 200.598 85.257C200.618 85.2653 200.628 85.2464 200.648 85.2438C200.667 85.2513 200.686 85.2495 200.706 85.257C200.716 85.2499 200.735 85.2592 200.745 85.2618C200.77 85.2637 200.793 85.2701 200.815 85.2807C200.823 85.2851 200.834 85.2895 200.844 85.2939L200.854 85.2974L200.922 85.3273C200.932 85.3402 200.946 85.35 200.961 85.3555C200.984 85.367 201.005 85.3837 201.02 85.4043C201.036 85.4093 201.049 85.4192 201.059 85.4324C201.089 85.4681 201.098 85.483 201.118 85.4918C201.129 85.5105 201.142 85.5277 201.158 85.5428C201.167 85.5595 201.187 85.5793 201.197 85.5947C201.212 85.6139 201.225 85.6349 201.235 85.6572C201.248 85.6754 201.257 85.695 201.265 85.7156C201.275 85.7319 201.294 85.7636 201.304 85.779L201.314 85.8062C201.314 85.8177 201.324 85.8339 201.324 85.8445C201.334 85.8652 201.34 85.8873 201.344 85.91C201.348 85.9328 201.354 85.9551 201.362 85.9769C201.362 85.9993 201.373 86.0261 201.372 86.0376C201.369 86.0682 201.376 86.099 201.391 86.1255L201.392 86.1611Z" fill="white"/>
<path d="M202.628 90.1138C202.584 89.2422 202.82 88.3792 203.301 87.6511C203.491 87.3589 203.783 87.1478 204.121 87.0584C204.458 86.9691 204.816 87.0079 205.126 87.1673C205.96 87.6408 206.599 88.3951 206.929 89.2958C207.357 90.2887 207.574 91.3592 207.568 92.4402C207.615 93.3293 207.381 94.2106 206.9 94.9601C206.707 95.2445 206.413 95.4454 206.078 95.5223C205.742 95.5992 205.39 95.5465 205.092 95.3748C204.263 94.8698 203.627 94.1022 203.284 93.194C202.856 92.2233 202.633 91.1747 202.628 90.1138ZM206.486 91.9239C206.489 91.1269 206.333 90.3374 206.028 89.601C205.869 89.1285 205.548 88.7274 205.121 88.4686C204.957 88.3954 204.772 88.3846 204.6 88.4381C204.429 88.4916 204.283 88.6058 204.189 88.7593C203.846 89.3157 203.681 89.963 203.714 90.6156C203.713 91.3997 203.87 92.1758 204.175 92.8984C204.345 93.3804 204.67 93.793 205.098 94.0726C205.258 94.1491 205.441 94.162 205.609 94.1088C205.778 94.0555 205.921 93.9401 206.008 93.7859C206.351 93.2278 206.518 92.5787 206.486 91.9239Z" fill="white"/>
<defs>
<linearGradient id="paint0_linear_756_9" x1="87.3746" y1="100.384" x2="235.252" y2="100.384" gradientUnits="userSpaceOnUse">
<stop stop-color="white"/>
<stop offset="1" stop-color="#EEF4FA"/>
</linearGradient>
</defs>
</svg>
