<svg width="248" height="239" viewBox="0 0 248 239" fill="none" xmlns="http://www.w3.org/2000/svg">
<path d="M248 113.284C248 180.509 159.933 215.477 130.717 235.006C101.5 254.535 0 199.59 0 132.365C0 65.1395 93.4996 -11.4559 109.75 1.4313C126 14.3185 248 46.0588 248 113.284Z" fill="#D2F2D3"/>
<path d="M92.0734 147.033C92.4088 141.81 92.5814 139.363 93.0462 130.027C93.0878 127.634 93.1684 125.071 93.3202 122.793C93.8239 115.131 94.7452 113.307 95.3601 110.678C95.975 108.05 95.8945 100.936 96.8322 84.4608C97.1299 78.1618 98.0823 71.918 99.6718 65.8451H121.71C123.974 76.1744 124.619 98.5421 124.551 109.188C124.517 114.617 124.462 142.659 124.589 144.901C124.716 146.745 125.47 148.475 126.708 149.763C128.524 151.85 129.827 152.694 132.103 154.514C131.774 155.446 127.006 155.411 125.649 154.702C123.679 153.644 121.778 152.448 119.955 151.122C118.085 149.639 117.647 148.744 117.617 146.485C117.61 146.24 117.616 145.994 117.636 145.749C117.6 144.432 114.054 124.782 113.28 120.344C112.677 116.898 113.338 110.222 113.338 110.222L111.003 93.8064C111.003 93.8064 108.947 106.901 107.539 113.538C106.505 118.415 103.946 126.12 102.271 133.92C100.314 141.849 100.158 142.547 99.0031 148.226C98.4216 151.088 96.9983 160.715 96.3499 162.695C94.258 169.086 89.5221 165.912 89.2541 162.379C89.0738 160.028 92.001 148.159 92.0734 147.033Z" fill="#FFA8A7"/>
<path d="M111 93.8082L112.707 81.9664C112.707 81.9664 119.307 81.1272 121.707 78.6581C121.707 78.6581 118.68 83.2312 114.202 83.9765L112.32 93.7929L113.314 110.084L111 93.8082Z" fill="#AF6152"/>
<path d="M137.149 157.157C137.273 157.505 137.306 157.882 137.246 158.249C137.187 158.615 137.035 158.958 136.808 159.24C136.041 159.965 133.778 161.165 130.769 160.784C127.76 160.402 126.123 159.425 124.91 158.361C123.697 157.297 121.996 155.797 120.635 155.491C119.369 155.208 117.307 154.47 116.899 154.056C116.49 153.642 116.528 151.784 116.528 151.784L137.149 157.157Z" fill="black"/>
<path d="M117.592 145.256C117.474 145.319 117.371 145.409 117.289 145.519C117.206 145.629 117.147 145.757 117.115 145.893C117.028 146.406 117.03 147.062 116.841 147.905C116.545 149.389 116.46 150.913 116.591 152.424C116.766 153.374 119.516 154.154 120.837 154.675C122.392 155.382 123.839 156.337 125.127 157.508C126.995 158.943 129.2 159.793 131.493 159.963C134.484 159.976 136.411 159.083 136.998 157.928C137.723 156.496 137.135 155.678 133.682 154.012C133.029 153.697 130.729 152.275 129.945 151.759C129.114 151.217 128.326 150.603 127.588 149.923C127.217 149.577 126.863 149.21 126.528 148.823C126.181 148.479 125.884 148.082 125.647 147.643C125.607 147.547 125.578 147.433 125.542 147.333C125.443 147.054 125.365 146.766 125.31 146.473C125.251 146.168 125.213 145.723 124.938 145.542C124.549 145.375 124.123 145.326 123.709 145.401C123.264 145.439 122.822 145.511 122.386 145.617C121.881 145.744 120.611 145.657 120.317 146.17C120.122 146.583 120.029 147.043 120.047 147.505C120.041 147.72 120.047 147.937 120.047 148.151C120.047 148.243 120.086 148.408 119.965 148.371C119.845 148.334 119.72 148.018 119.676 147.908C119.578 147.667 119.515 147.411 119.408 147.176C119.315 146.888 119.166 146.624 118.973 146.402C118.396 145.894 117.844 146.001 117.677 145.826C117.676 145.826 117.612 145.438 117.592 145.256Z" fill="#313131"/>
<path d="M134.239 154.285C129.914 154.654 128.579 157.533 128.413 159.306C129.402 159.694 130.441 159.915 131.494 159.962C134.484 159.975 136.536 159.082 137.121 157.927C137.807 156.576 137.32 155.498 134.239 154.285Z" fill="#FAFAFA"/>
<path d="M127.75 154.407C127.701 154.408 127.653 154.39 127.615 154.357C127.572 154.32 127.544 154.265 127.537 154.206C127.531 154.146 127.547 154.086 127.582 154.039C128.081 153.475 128.687 153.032 129.36 152.739C130.032 152.446 130.755 152.311 131.48 152.342C131.508 152.344 131.536 152.352 131.561 152.365C131.587 152.379 131.609 152.398 131.628 152.421C131.646 152.444 131.66 152.471 131.668 152.5C131.677 152.529 131.68 152.56 131.677 152.59C131.674 152.62 131.666 152.649 131.653 152.676C131.639 152.703 131.621 152.726 131.598 152.745C131.576 152.764 131.551 152.778 131.523 152.786C131.496 152.795 131.467 152.797 131.439 152.793C130.784 152.771 130.132 152.896 129.525 153.159C128.918 153.423 128.369 153.819 127.912 154.322C127.893 154.349 127.868 154.37 127.84 154.385C127.812 154.399 127.781 154.407 127.75 154.407Z" fill="#F0F0F0"/>
<path d="M125.874 153.265C125.834 153.266 125.795 153.254 125.761 153.232C125.727 153.209 125.699 153.177 125.682 153.139C125.664 153.1 125.657 153.057 125.661 153.014C125.666 152.972 125.682 152.931 125.707 152.898C126.205 152.333 126.811 151.889 127.483 151.597C128.156 151.304 128.879 151.169 129.604 151.201C129.632 151.203 129.658 151.212 129.683 151.226C129.707 151.24 129.729 151.259 129.747 151.282C129.764 151.305 129.778 151.331 129.786 151.36C129.794 151.388 129.797 151.418 129.794 151.447C129.791 151.477 129.783 151.506 129.77 151.532C129.757 151.558 129.739 151.581 129.718 151.6C129.697 151.619 129.672 151.633 129.645 151.642C129.619 151.651 129.591 151.654 129.563 151.651C128.909 151.629 128.257 151.754 127.65 152.017C127.042 152.281 126.493 152.677 126.037 153.181C126.018 153.207 125.993 153.228 125.965 153.243C125.937 153.257 125.906 153.265 125.874 153.265Z" fill="#F0F0F0"/>
<path d="M124.133 151.957C124.093 151.957 124.054 151.945 124.02 151.923C123.986 151.9 123.959 151.868 123.941 151.83C123.924 151.791 123.917 151.748 123.921 151.706C123.925 151.663 123.941 151.623 123.966 151.589C124.465 151.025 125.071 150.582 125.743 150.289C126.415 149.997 127.138 149.861 127.863 149.892C127.919 149.898 127.97 149.927 128.006 149.973C128.041 150.019 128.058 150.079 128.053 150.139C128.047 150.198 128.02 150.253 127.977 150.291C127.934 150.329 127.878 150.348 127.822 150.342C127.168 150.321 126.516 150.446 125.909 150.709C125.302 150.973 124.752 151.369 124.296 151.872C124.277 151.898 124.252 151.919 124.224 151.934C124.196 151.949 124.165 151.957 124.133 151.957Z" fill="#F0F0F0"/>
<path d="M122.427 150.648C122.388 150.648 122.349 150.637 122.315 150.614C122.281 150.592 122.254 150.56 122.236 150.522C122.218 150.484 122.211 150.441 122.215 150.399C122.219 150.357 122.234 150.316 122.258 150.283C123.076 149.152 124.944 148.392 126.515 148.558C126.57 148.565 126.62 148.595 126.654 148.641C126.688 148.687 126.704 148.746 126.699 148.805C126.694 148.863 126.667 148.917 126.625 148.955C126.583 148.993 126.529 149.012 126.474 149.009C125.058 148.861 123.318 149.558 122.592 150.56C122.572 150.587 122.548 150.609 122.519 150.624C122.491 150.64 122.459 150.648 122.427 150.648Z" fill="#F0F0F0"/>
<path d="M96.9987 163.431C96.6561 165.587 96.1919 166.988 95.3413 168.175C94.4907 169.363 93.0943 169.601 91.7581 169.065C90.4219 168.529 88.7667 167.325 88.5667 165.406C88.3666 163.488 88.2701 162.178 88.7903 160.202L96.9987 163.431Z" fill="black"/>
<path d="M92.0729 147.033C91.5018 147.013 91.3543 149.909 90.7262 152.785C90.0527 155.87 89.5035 157.06 88.9253 159.586C88.2649 162.473 88.5822 163.835 89.3572 165.72C90.1321 167.604 93.3449 169.745 95.2796 167.407C96.8569 165.501 97.1502 163.215 97.3294 160.275C97.5098 157.813 97.89 155.373 98.4655 152.982C98.9478 150.647 99.4679 148.529 99.001 148.228C98.85 149.014 98.6568 149.791 98.4222 150.553C98.3471 150.709 98.0863 151.091 98.0627 150.469C98.0556 150.284 98.1509 149.871 98.1553 149.689C98.1649 149.529 98.1278 149.37 98.0493 149.233C97.9708 149.097 97.8546 148.989 97.7169 148.926C97.0037 148.453 96.1986 148.161 95.3635 148.073C94.2585 147.936 93.3066 147.783 92.6549 148.048C92.263 148.207 92.234 148.587 92.1551 148.952C92.0613 149.386 92.0263 149.656 91.9358 149.558C91.7478 149.357 92.0997 147.353 92.0729 147.033Z" fill="#313131"/>
<path d="M88.5923 161.265C88.327 162.82 88.5366 164.426 89.1903 165.843C89.9647 167.728 93.4504 169.906 95.3834 167.568C96.3459 166.405 96.7235 164.939 96.9953 163.431C96.1973 161.356 90.3456 159.789 88.5923 161.265Z" fill="#FAFAFA"/>
<path d="M96.0926 160.098C96.0687 160.093 96.0459 160.083 96.0252 160.069C94.4454 159.185 92.6686 158.786 90.8903 158.914C90.8621 158.918 90.8332 158.917 90.8054 158.91C90.7776 158.903 90.7515 158.889 90.7287 158.871C90.7058 158.852 90.6867 158.829 90.6725 158.803C90.6583 158.776 90.6492 158.747 90.6459 158.716C90.6426 158.686 90.6451 158.655 90.6533 158.625C90.6614 158.596 90.6751 158.569 90.6934 158.545C90.7116 158.522 90.7342 158.502 90.7597 158.488C90.7851 158.474 90.813 158.466 90.8415 158.464C92.7153 158.315 94.5901 158.738 96.2482 159.685C96.2903 159.713 96.3218 159.756 96.3372 159.807C96.3526 159.857 96.3508 159.912 96.3323 159.961C96.3137 160.011 96.2795 160.051 96.2357 160.077C96.1919 160.102 96.1412 160.109 96.0926 160.098Z" fill="#F0F0F0"/>
<path d="M91.2441 156.746C91.1968 156.735 91.1545 156.707 91.1241 156.667C91.0937 156.626 91.0771 156.576 91.0771 156.525C91.0771 156.473 91.0937 156.423 91.1241 156.382C91.1545 156.342 91.1968 156.314 91.2441 156.304C93.8748 155.684 96.5494 157.4 96.6491 157.472C96.6721 157.489 96.6917 157.51 96.7069 157.535C96.7221 157.56 96.7325 157.587 96.7376 157.617C96.7427 157.646 96.7424 157.676 96.7366 157.705C96.7308 157.734 96.7197 157.761 96.7039 157.785C96.6718 157.834 96.6233 157.867 96.5687 157.878C96.5141 157.889 96.4576 157.877 96.4112 157.844C96.3888 157.828 93.7805 156.164 91.3329 156.743C91.3037 156.751 91.2735 156.751 91.2441 156.746Z" fill="#F0F0F0"/>
<path d="M91.5459 154.698C91.499 154.687 91.457 154.66 91.4267 154.62C91.3963 154.58 91.3795 154.531 91.3789 154.48C91.3783 154.428 91.3941 154.378 91.4235 154.338C91.453 154.298 91.4944 154.269 91.5409 154.257C94.4429 153.518 96.9591 155.345 97.0517 155.421C97.0961 155.457 97.125 155.511 97.1322 155.571C97.1394 155.63 97.1243 155.69 97.0901 155.738C97.056 155.785 97.0056 155.816 96.9501 155.824C96.8946 155.832 96.8385 155.815 96.7942 155.779C96.7739 155.762 94.3399 154.009 91.6396 154.697C91.6088 154.704 91.5768 154.705 91.5459 154.698Z" fill="#F0F0F0"/>
<path d="M91.8938 152.688C91.8471 152.677 91.8052 152.65 91.7749 152.611C91.7445 152.571 91.7275 152.522 91.7266 152.471C91.7257 152.42 91.741 152.37 91.77 152.329C91.7989 152.289 91.8399 152.26 91.8861 152.248C94.61 151.509 97.3268 153.398 97.4276 153.48C97.4715 153.516 97.5005 153.569 97.5084 153.627C97.5163 153.686 97.5024 153.745 97.4698 153.793C97.4371 153.841 97.3883 153.873 97.3338 153.883C97.2793 153.892 97.2235 153.878 97.1783 153.844C97.1547 153.826 94.519 152.001 91.9902 152.687C91.9585 152.695 91.9256 152.695 91.8938 152.688Z" fill="#EBEBEB"/>
<path d="M97.6691 65.8451C97.1051 72.1389 96.83 73.8709 95.9312 88.2198C95.0598 102.134 95.5662 106.374 95.4379 108.05C95.1442 111.896 93.5526 113.223 93.0884 122.295C92.6631 130.609 92.4082 140.864 92.4082 140.864C92.4082 140.864 93.4528 142.402 96.4091 142.683C99.1374 142.945 100.502 141.848 100.502 141.848C100.502 141.848 105.56 122.47 106.969 117.589C108.888 110.967 110.996 97.1418 110.996 97.1418L112.78 110.445C112.47 114.585 112.666 118.751 113.361 122.837C114.792 130.298 116.253 138.404 116.253 138.404C117.567 138.917 118.972 139.104 120.364 138.953C123.557 138.608 124.624 137.812 124.624 137.812C124.624 137.812 125.52 115.276 125.52 107.041C125.52 98.8062 125.223 78.5959 124.565 65.7823L97.6691 65.8451Z" fill="black"/>
<path d="M111.001 97.1441L113.217 82.7406C113.217 82.7406 117.668 81.4823 120.526 78.2802C120.314 80.6653 116.355 83.7248 114.501 84.2008L112.027 96.9639L112.785 110.445L111.001 97.1441Z" fill="#313131"/>
<path d="M105.834 68.0759C105.153 69.2686 104.594 70.5356 104.165 71.8555C103.724 73.167 103.352 74.5043 103.053 75.861C102.759 77.2173 102.516 78.5848 102.348 79.9646C102.163 81.3444 102.077 82.7375 102.091 84.1315C102.402 82.7775 102.69 81.4318 102.978 80.0878C103.265 78.7438 103.546 77.4004 103.85 76.0647C104.138 74.7248 104.453 73.3925 104.773 72.0615C105.092 70.7304 105.445 69.4069 105.834 68.0759Z" fill="#313131"/>
<path d="M104.133 68.5794C103.486 69.2224 102.897 69.9298 102.375 70.6922C101.847 71.4486 101.369 72.2435 100.944 73.0709C100.52 73.9012 100.158 74.7658 99.8604 75.6568C99.5525 76.5476 99.3523 77.477 99.2646 78.4222L100.447 75.9285C100.848 75.1115 101.245 74.2958 101.664 73.4905C102.069 72.6783 102.496 71.8772 102.91 71.0626C103.324 70.248 103.749 69.4363 104.133 68.5794Z" fill="#313131"/>
<path d="M106.959 85.2366C106.398 89.5526 105.894 93.8751 105.386 98.1917C104.865 102.507 104.474 109.471 103.732 113.736C102.971 117.995 98.285 134.705 97.6689 139.011C98.6007 134.767 103.756 118.185 104.538 113.892C105.269 109.59 105.627 102.603 106.018 98.2663C106.421 93.9315 106.713 89.5861 106.959 85.2366Z" fill="#313131"/>
<path d="M121.435 85.2366L122.098 96.5918C122.196 98.484 122.309 100.374 122.39 102.266C122.47 104.157 122.575 106.053 122.546 107.919C122.51 109.798 122.4 127.928 122.638 131.723C123.055 127.498 123.245 111.753 123.365 107.934C123.354 104.096 123.05 100.326 122.733 96.5396C122.405 92.7594 121.98 88.9881 121.435 85.2366Z" fill="#313131"/>
<path d="M115.925 136.581L116.528 140.527C116.528 140.527 118.004 141.536 121.102 141.193C124.201 140.851 124.646 139.777 124.646 139.777V136.065C124.646 136.065 123.904 136.836 121.075 137.18C119.338 137.377 117.582 137.173 115.925 136.581Z" fill="#313131"/>
<path d="M92.4723 138.113L92.1982 142.1C92.1982 142.1 93.4144 143.45 96.5017 143.891C99.5889 144.332 100.256 143.399 100.256 143.399L101.065 139.788C101.065 139.788 100.175 140.354 97.3495 139.98C95.6177 139.739 93.9544 139.102 92.4723 138.113Z" fill="#313131"/>
<path d="M119.354 34.5548C122.221 34.9328 125.239 36.8261 130.463 39.9226C134.687 42.4268 136.062 43.2373 136.062 43.2373C136.062 43.2373 140.753 33.6463 142.475 30.5381C144.972 26.0331 146.962 31.2277 146.311 33.0858C145.095 36.5696 144.696 40.5981 142.668 48.1461C141.621 52.0443 140.892 53.7216 136.335 52.1235C132.583 50.8065 123.121 47.0762 123.121 47.0762L119.354 34.5548Z" fill="#FFA8A7"/>
<path d="M148.194 24.2449C148.462 22.3592 147.119 20.2687 147.119 20.2687L147.122 23.0975L148.194 24.2449Z" fill="#F28F8F"/>
<path d="M119.157 34.1475C122.111 34.5584 123.502 35.0942 125.447 36.3713C127.392 37.6484 134.526 41.9785 134.526 41.9785C134.89 43.5408 134.967 45.1636 134.755 46.7575C134.697 47.6 134.466 48.4183 134.076 49.153C133.687 49.8878 133.15 50.5207 132.504 51.0061L122.167 47.3086L119.157 34.1475Z" fill="#3C8F7C"/>
<path d="M97.669 36.8895C97.669 36.8895 95.4137 41.7936 96.8267 50.7789C97.4723 54.8872 97.9497 58.0799 97.669 63.5351C97.4306 68.1633 96.5521 76.5917 96.5521 76.5917C100.991 80.6324 120.477 80.8238 125.023 74.7559C125.023 74.7559 124.773 64.7934 124.773 56.9343C124.773 51.0712 124.463 46.1536 123.842 43.3847C122.437 37.1266 120.344 35.0948 119.158 34.1475C115.966 33.8612 112.754 33.928 109.575 34.3471C106.044 34.7996 102.542 35.4756 99.0858 36.3713C98.5904 36.4606 98.1119 36.6357 97.669 36.8895Z" fill="#90EA93"/>
<path d="M97.6688 36.8895C93.817 38.3204 93.1149 40.189 90.3746 45.2434C87.8069 50.1044 85.6007 55.1744 83.7764 60.4063C82.711 63.6671 84.3634 67.1662 85.796 67.7918C86.9256 68.2854 87.854 68.7778 89.2434 67.6357C90.4144 66.6074 91.4388 65.4013 92.2841 64.0557C95.0184 59.4779 99.2648 51.5448 99.2648 51.5448C99.2648 51.5448 102.222 40.8188 97.6688 36.8895Z" fill="#FFA8A7"/>
<path d="M90.2023 63.7845C90.9099 59.8817 90.2999 58.5183 89.994 56.0762C89.6942 53.6817 89.3205 49.9403 89.104 47.7042C88.0703 49.7918 87.0712 52.0132 86.1992 54.0826L90.2023 63.7845Z" fill="#F28F8F"/>
<path d="M86.4844 52.7802C86.7146 54.008 89.5081 60.2127 94.1075 61.2967L99.8518 51.2942C99.8518 51.2942 102.121 44.937 99.0845 36.3707C95.636 37.0644 94.1645 37.852 92.0484 41.4479C89.9323 45.0438 86.4844 52.7802 86.4844 52.7802Z" fill="#3C8F7C"/>
<path d="M83.6207 49.8792C83.5933 50.6158 83.7205 51.1358 83.6032 53.5767C83.4859 56.0176 83.3966 56.3762 83.2239 58.9585C83.0337 61.8096 82.5547 63.6407 84.2598 66.5511C86.0048 69.529 87.9795 68.8541 89.7065 67.2196C90.5593 64.3849 90.3094 59.8535 89.2428 56.5663C88.6067 54.6144 88.1837 52.5903 87.9823 50.5342L83.6207 49.8792Z" fill="#FFA8A7"/>
<path d="M81.2992 43.0495C81.1605 42.9292 80.9918 42.8552 80.8141 42.8369C80.6364 42.8187 80.4576 42.8569 80.3001 42.9468C80.0512 43.1575 80.3954 43.8747 80.8662 44.836C81.1775 45.4711 81.8494 47.7623 82.5164 48.7254C83.1757 49.542 83.5743 50.5627 83.6542 51.6387C83.9431 50.1099 83.8796 48.5287 83.4692 47.0321C83.0588 45.5354 82.314 44.1685 81.2992 43.0495Z" fill="#F28F8F"/>
<path d="M104.824 30.6602C102.948 27.7804 101.243 25.9733 99.86 22.7501C99.2999 21.4437 98.3841 18.413 98.9283 16.5713C99.3065 15.2877 99.9505 14.2466 101.2 14.1128C101.026 13.4832 101.012 12.8154 101.16 12.1783C101.308 11.5412 101.611 10.9578 102.04 10.4881C102.354 10.0914 102.767 9.79765 103.23 9.64039C103.693 9.48314 104.188 9.46879 104.659 9.59898C104.674 9.15149 104.807 8.71765 105.042 8.34738C105.277 7.9771 105.605 7.68544 105.988 7.50592C106.371 7.3264 106.794 7.26632 107.208 7.3326C107.621 7.39888 108.009 7.58881 108.326 7.88056C108.506 7.41796 108.812 7.02374 109.203 6.74873C109.594 6.47373 110.054 6.33054 110.522 6.33762C111.014 6.3342 111.496 6.4831 111.912 6.76639C112.327 7.04969 112.656 7.45533 112.861 7.93456C114.598 6.25604 117.516 7.33064 117.619 10.5973C117.815 10.406 118.061 10.2817 118.324 10.2402C118.587 10.1987 118.856 10.2419 119.096 10.3642C119.336 10.4866 119.536 10.6826 119.672 10.9273C119.808 11.1721 119.872 11.4546 119.858 11.7388C119.78 12.1 119.748 12.4706 119.76 12.841C119.793 13.0007 119.868 13.1469 119.976 13.262C120.085 13.3771 120.222 13.456 120.372 13.4894C120.521 13.5228 120.676 13.5092 120.819 13.4501C120.961 13.3911 121.084 13.2892 121.174 13.1567C121.265 13.4407 121.287 13.7445 121.239 14.0402C121.191 14.3359 121.074 14.6139 120.9 14.8485C120.725 15.083 120.498 15.2666 120.239 15.3823C119.98 15.498 119.699 15.5419 119.42 15.5102C119.489 15.7596 119.491 16.025 119.425 16.2755C119.359 16.5259 119.227 16.751 119.046 16.9246C118.747 17.169 118.372 17.2836 117.997 17.2456L104.824 30.6602Z" fill="#263238"/>
<path d="M118.672 26.2257C118.424 28.7 117.531 29.946 116.047 30.6914C115.252 31.0382 114.416 31.2659 113.563 31.368L113.782 34.0091C118.803 39.2647 107.903 39.9954 105.324 35.214L104.447 27.2122C104.447 27.2122 103.601 28.5392 101.848 27.6231C101.133 27.1904 100.58 26.5069 100.282 25.6881C99.9843 24.8693 99.9593 23.9654 100.212 23.1292C100.805 21.2066 102.412 21.0874 103.289 21.8381C104.265 22.6767 104.284 23.5665 104.714 23.4767C104.961 23.4499 105.194 23.3394 105.379 23.1611C105.564 22.9829 105.691 22.7462 105.742 22.4854C105.94 21.6685 105.909 20.8556 105.742 19.1161C106.346 18.6942 106.84 18.114 107.176 17.4305C107.363 16.8293 107.419 16.1898 107.337 15.5619C107.256 14.934 107.04 14.3348 106.706 13.8111C108.46 12.8721 110.564 14.705 112.538 14.7449C114.798 14.7901 114.8 12.7553 116.031 12.7782C117.103 13.5998 117.782 15.7485 117.874 17.1705C118.05 19.9459 119.162 21.3316 118.672 26.2257Z" fill="#FFA8A7"/>
<path d="M113.562 31.3669C110.904 31.5294 108.06 30.9519 106.986 30.017C105.911 29.0821 105.255 26.9593 105.255 26.9593C105.255 26.9593 105.715 29.6872 106.591 30.8017C107.467 31.9162 109.386 32.1985 110.553 32.3499C111.585 32.4488 112.621 32.4919 113.657 32.479L113.562 31.3669Z" fill="#F28F8F"/>
<path d="M116.84 18.0056L115.023 17.3952C115.055 17.2666 115.11 17.146 115.186 17.041C115.262 16.936 115.358 16.8488 115.466 16.7846C115.575 16.7203 115.695 16.6805 115.818 16.6676C115.942 16.6546 116.067 16.6688 116.185 16.7092C116.428 16.7944 116.632 16.9764 116.754 17.2176C116.875 17.4588 116.906 17.7408 116.84 18.0056Z" fill="#263238"/>
<path d="M108.513 19.1706L110.032 17.9C109.96 17.7899 109.867 17.6967 109.76 17.6262C109.653 17.5557 109.534 17.5092 109.409 17.4897C109.285 17.4702 109.158 17.4781 109.037 17.5128C108.915 17.5475 108.802 17.6084 108.703 17.6916C108.5 17.8653 108.368 18.1155 108.333 18.3906C108.297 18.6658 108.362 18.945 108.513 19.1706Z" fill="#263238"/>
<path d="M115.196 19.8367C115.217 20.0616 115.32 20.2688 115.481 20.4146C115.642 20.5605 115.85 20.6338 116.061 20.6191C116.164 20.6129 116.264 20.5847 116.356 20.5361C116.449 20.4876 116.531 20.4197 116.598 20.3365C116.665 20.2533 116.716 20.1565 116.748 20.0518C116.78 19.9471 116.791 19.8366 116.782 19.727C116.761 19.5021 116.659 19.2948 116.497 19.1489C116.336 19.003 116.128 18.9298 115.917 18.9447C115.815 18.9503 115.714 18.9781 115.621 19.0265C115.529 19.0748 115.446 19.1427 115.379 19.226C115.312 19.3093 115.261 19.4064 115.229 19.5113C115.198 19.6163 115.186 19.727 115.196 19.8367Z" fill="#263238"/>
<path d="M109.261 20.6243C109.282 20.8493 109.385 21.0565 109.546 21.2024C109.707 21.3483 109.915 21.4215 110.126 21.4067C110.229 21.4005 110.329 21.3723 110.421 21.3238C110.514 21.2752 110.596 21.2073 110.663 21.1241C110.73 21.0409 110.781 20.9441 110.813 20.8394C110.845 20.7347 110.856 20.6242 110.847 20.5146C110.826 20.2897 110.724 20.0825 110.562 19.9365C110.401 19.7906 110.193 19.7174 109.983 19.7323C109.88 19.7384 109.779 19.7665 109.687 19.815C109.595 19.8635 109.513 19.9314 109.445 20.0146C109.378 20.0978 109.327 20.1947 109.295 20.2994C109.263 20.4042 109.252 20.5147 109.261 20.6243Z" fill="#263238"/>
<path d="M115.911 23.2407L113.39 24.4339L112.394 19.1166C113.307 18.8525 114.909 21.429 115.911 23.2407Z" fill="#F28F8F"/>
<path d="M113.069 26.1429C112.943 25.9411 112.78 25.7692 112.589 25.6379C112.399 25.5067 112.185 25.4189 111.961 25.3799C111.724 25.3235 111.481 25.3038 111.239 25.3212C110.984 25.3223 110.734 25.3891 110.509 25.5161C110.4 25.5859 110.521 25.7802 110.619 25.7732C111.049 25.7042 111.486 25.6965 111.918 25.7503C112.135 25.7968 112.346 25.8708 112.547 25.9709C112.712 26.0513 112.853 26.1687 113.014 26.2521C113.077 26.2855 113.088 26.1822 113.069 26.1429Z" fill="#B16668"/>
<path d="M86.3226 45.9279L147.06 26.9405L147.535 28.4589L86.7973 47.4464L86.3226 45.9279ZM133.17 46.4925C136.418 45.2169 138.748 43.0906 140.162 40.1138C141.58 37.1528 141.701 33.7901 140.524 30.0256C139.753 27.5581 138.588 25.5 137.031 23.8512C135.474 22.2023 133.689 21.076 131.677 20.4722C129.681 19.8634 127.616 19.8928 125.48 20.5603C124.247 20.946 123.172 21.5076 122.257 22.2452C121.341 22.9828 120.58 23.9068 119.972 25.017C119.385 26.1381 118.943 27.4481 118.648 28.9468C118.373 30.4565 118.239 32.1653 118.245 34.0733L118.258 40.1116C118.267 42.4181 118.108 44.4645 117.781 46.2509C117.454 48.0373 116.94 49.587 116.239 50.9C115.559 52.2238 114.679 53.3237 113.598 54.1997C112.534 55.0708 111.25 55.7412 109.748 56.2109C107.217 57.0021 104.76 57.0582 102.378 56.3792C99.9949 55.7003 97.8787 54.3738 96.0288 52.3998C94.179 50.4258 92.7744 47.9045 91.8151 44.836C90.8905 41.8782 90.5961 39.1314 90.9319 36.5956C91.2836 34.0548 92.1662 31.8516 93.5797 29.986C95.014 28.1312 96.8927 26.7539 99.2158 25.8541L99.6905 27.3725C97.6521 28.1834 96.0146 29.4158 94.778 31.0699C93.5414 32.7239 92.7814 34.6805 92.4979 36.9394C92.2194 39.2142 92.4979 41.6882 93.3336 44.3613C94.2038 47.1451 95.4477 49.4301 97.0653 51.2163C98.7036 53.0134 100.573 54.2174 102.674 54.8281C104.78 55.4547 106.979 55.4094 109.273 54.6925C111.013 54.1486 112.42 53.2918 113.496 52.1222C114.587 50.9476 115.384 49.3875 115.887 47.4419C116.39 45.4963 116.635 43.0845 116.621 40.2067L116.608 34.1683C116.619 29.9806 117.316 26.6287 118.699 24.1126C120.088 21.6123 122.19 19.922 125.006 19.0419C127.394 18.2952 129.725 18.2525 131.998 18.9136C134.286 19.5698 136.315 20.8108 138.084 22.6366C139.858 24.4781 141.177 26.7829 142.042 29.5509C142.913 32.3347 143.123 34.9515 142.673 37.4013C142.224 39.8511 141.219 41.997 139.659 43.8389C138.1 45.6808 136.095 47.0715 133.645 48.0109L133.17 46.4925Z" fill="black"/>
<path d="M148.62 25.4122C149.132 24.3558 149.056 24.2384 148.644 23.8059C148.331 23.4574 147.946 23.1937 147.519 23.0367C147.092 22.8796 146.636 22.8337 146.19 22.9027C145.516 22.9599 144.856 23.1416 144.239 23.4397C143.864 23.7255 144.331 24.5835 145.386 24.6721C147.049 24.8118 147.102 25.2819 147.102 25.2819C146.393 25.2187 145.681 25.195 144.97 25.2109C144.182 25.3934 143.409 25.6427 142.659 25.9563C141.995 26.1758 141.986 27.1347 143.181 27.2809L141.965 27.6858C141.113 27.9687 140.883 28.511 141.645 28.9835C141.894 29.1473 142.187 29.2164 142.477 29.1795C142.477 29.1795 141.548 29.3215 141.573 29.6549C141.645 30.6109 142.252 30.77 144.204 31.0634C145.868 31.3146 146.478 31.9261 146.396 32.641L146.313 33.0847C146.313 33.0847 146.97 32.5248 147.551 31.952C147.974 31.5317 148.318 31.0798 148.003 30.3269C148.003 30.3269 149.028 30.1913 148.999 29.5052C148.949 29.006 148.799 28.5242 148.561 28.092C148.729 27.9528 148.857 27.7654 148.931 27.5514C149.004 27.3374 149.018 27.1056 148.973 26.883C148.918 26.4529 148.732 26.0545 148.442 25.7503L148.62 25.4122Z" fill="#FFA8A7"/>
<path d="M143.181 27.2791C143.541 27.1386 143.914 27.0366 144.293 26.9745C144.682 26.9777 145.069 27.0464 145.438 27.1782C146.166 27.3897 146.877 27.6665 147.561 28.0057C146.813 27.9114 146.074 27.7498 145.352 27.5227C145.008 27.3984 144.655 27.3078 144.297 27.2521C143.951 27.2445 143.559 27.2979 143.181 27.2791Z" fill="#F28F8F"/>
<path d="M142.477 29.1777C142.859 28.9948 143.277 28.9167 143.694 28.9506C144.106 28.9807 144.513 29.0524 144.912 29.1648C145.704 29.3757 146.472 29.6749 147.205 30.0575C146.406 29.9187 145.613 29.7364 144.831 29.5111C144.072 29.2442 143.274 29.1311 142.477 29.1777Z" fill="#F28F8F"/>
<path d="M82.103 47.7447C81.1116 47.2165 81.1083 47.0704 81.2031 46.46C81.265 45.9813 81.4325 45.5252 81.6917 45.1296C81.9509 44.734 82.2945 44.4103 82.6938 44.1852C83.2708 43.8071 83.9046 43.539 84.5671 43.3929C85.027 43.3882 85.1202 44.3765 84.315 45.1119C83.0457 46.2704 83.357 46.5615 83.357 46.5615C83.357 46.5615 84.4307 45.6184 84.9464 45.2856C85.6841 44.9384 86.4463 44.654 87.2258 44.4352C87.8835 44.1952 88.4162 44.9634 87.5295 45.8361L88.7352 45.3983C89.5798 45.092 90.0632 45.386 89.7058 46.2475C89.5947 46.5366 89.3956 46.777 89.1408 46.9295C89.1408 46.9295 89.9695 46.46 90.1322 46.7458C90.5986 47.5675 90.1953 48.0763 88.7758 49.5441C87.5667 50.7936 87.4105 51.6669 87.8665 52.1951L88.1784 52.5214C88.1784 52.5214 87.336 52.4692 86.5539 52.3688C85.9806 52.2955 85.4528 52.147 85.2966 51.3383C85.0473 51.4022 84.7875 51.4022 84.5382 51.3383C84.2889 51.2745 84.0571 51.1486 83.8618 50.9709C83.5127 50.6334 83.6212 49.8792 83.6212 49.8792C83.4012 49.8551 83.1908 49.7705 83.0103 49.6338C82.8298 49.4971 82.6853 49.3127 82.5908 49.0987C82.3974 48.7386 82.3407 48.3127 82.4324 47.909L82.103 47.7447Z" fill="#FFA8A7"/>
<path d="M87.5308 45.8361C87.1619 45.9486 86.8044 46.1004 86.4637 46.2892C86.1504 46.5365 85.8754 46.8349 85.6487 47.1737C85.1751 47.8028 84.7519 48.4736 84.3838 49.1791C84.9374 48.6324 85.4471 48.0367 85.9074 47.3984C86.1172 47.0826 86.3535 46.7879 86.6133 46.5181C86.8912 46.2921 87.2359 46.0885 87.5308 45.8361Z" fill="#F28F8F"/>
<path d="M89.1427 46.9295C88.7329 47.0213 88.3511 47.2212 88.0318 47.5111C87.7155 47.7941 87.425 48.1085 87.1642 48.4502C86.6391 49.1186 86.1812 49.8442 85.7979 50.6152C86.369 49.9998 86.9103 49.3533 87.4196 48.6785C87.8873 47.9857 88.4717 47.3926 89.1427 46.9295Z" fill="#F28F8F"/>
</svg>
