<svg width="248" height="239" viewBox="0 0 248 239" fill="none" xmlns="http://www.w3.org/2000/svg">
<path d="M248 113.284C248 180.509 159.933 215.477 130.717 235.006C101.5 254.535 0 199.59 0 132.365C0 65.1395 93.4996 -11.4559 109.75 1.4313C126 14.3185 248 46.0588 248 113.284Z" fill="#D2F2D3"/>
<path d="M184.314 111.629L182.301 112.846L171.546 106.355L173.646 105.069L184.314 111.629Z" fill="#2B1722"/>
<path d="M158.63 94.9876L160.491 96.0922C159.285 97.3089 157.924 98.3455 156.447 99.1724C153.735 100.793 144.335 107.205 142.813 107.004C142.435 107.003 142.063 106.903 141.731 106.713C141.399 106.524 141.118 106.25 140.913 105.917C143.759 104.585 146.53 103.084 149.213 101.42C151.739 99.6592 158.63 94.9876 158.63 94.9876Z" fill="#442E3A"/>
<path d="M158.63 94.9876C158.491 95.1046 158.345 95.212 158.193 95.3091L141.958 105.128C141.687 105.333 141.369 105.46 141.035 105.494C140.702 105.528 140.367 105.468 140.063 105.32C139.693 105.01 139.405 104.607 139.227 104.147C139.048 103.688 138.984 103.189 139.042 102.697V87.8692C139.042 85.3094 140.579 82.2156 142.397 81.1173L158.63 71.305V70.2874C158.48 70.3518 158.334 70.4256 158.193 70.5083L141.958 80.3216C139.866 81.5863 138.165 84.9723 138.165 87.8692V102.691C138.102 103.345 138.203 104.005 138.459 104.605C138.715 105.204 139.117 105.724 139.624 106.111C139.971 106.32 140.365 106.428 140.765 106.425C141.342 106.408 141.905 106.233 142.397 105.917L158.63 96.1048V94.9876Z" fill="#442E3A"/>
<path d="M160.491 71.3909L158.63 70.2874C158.63 70.2874 145.569 78.5281 143.744 79.728C141.919 80.9278 140.272 81.9004 139.414 84.5608C138.556 87.2212 138.689 88.9508 138.604 92.3754C138.519 95.8001 138.404 103.181 138.604 103.856C138.899 104.629 139.24 105.382 139.624 106.111L141.485 107.214C141.029 106.496 140.729 105.683 140.606 104.83C140.416 103.444 140.463 90.0679 140.606 88.1205C140.749 86.1731 141.96 82.9621 144.139 81.8261C146.318 80.6901 160.491 71.3909 160.491 71.3909Z" fill="#442E3A"/>
<path d="M160.491 96.0922C160.352 96.2089 160.206 96.3159 160.054 96.4126L143.819 106.226C143.548 106.433 143.228 106.56 142.894 106.594C142.56 106.628 142.223 106.567 141.919 106.419C141.549 106.109 141.261 105.705 141.082 105.246C140.904 104.787 140.84 104.288 140.898 103.796V88.9738C140.898 86.4129 142.435 83.3201 144.253 82.2218L160.486 72.4096V71.3909C160.336 71.4556 160.19 71.5298 160.049 71.6128L143.814 81.4261C141.722 82.6909 140.021 86.0768 140.021 88.9738V103.796C139.958 104.449 140.059 105.109 140.315 105.709C140.571 106.308 140.973 106.828 141.48 107.214C141.827 107.423 142.221 107.531 142.621 107.528C143.198 107.512 143.761 107.337 144.253 107.022L160.486 97.2093L160.491 96.0922Z" fill="#3A2230"/>
<path d="M180.958 100.02C180.983 99.8881 180.983 99.7518 180.958 99.6194V95.0462L173.653 94.7416L159.636 86.2684C158.972 85.9546 158.246 85.8077 157.518 85.8393C156.79 85.8709 156.078 86.0802 155.441 86.4506L143.787 93.4946L137.407 93.2287V98.2238H137.422C137.444 98.4472 137.521 98.6609 137.645 98.8443C137.768 99.0276 137.935 99.1745 138.129 99.2708L158.752 111.736C159.417 112.051 160.143 112.199 160.873 112.167C161.602 112.135 162.314 111.925 162.952 111.554L179.962 101.272C180.201 101.152 180.414 100.981 180.585 100.77C180.757 100.558 180.884 100.311 180.957 100.045H180.963L180.958 100.02Z" fill="black"/>
<path d="M180.258 93.7386L159.635 81.2733C158.971 80.9596 158.245 80.8126 157.517 80.844C156.789 80.8755 156.078 81.0845 155.44 81.4544L138.429 91.7378C137.193 92.4843 137.058 93.6224 138.129 94.2725L158.752 106.739C159.417 107.054 160.143 107.201 160.873 107.169C161.602 107.138 162.314 106.928 162.952 106.557L179.962 96.2744C181.193 95.5268 181.328 94.3856 180.258 93.7386Z" fill="black"/>
<path d="M160.491 94.0056C160.491 94.3971 160.024 94.7133 159.449 94.7133C158.874 94.7133 158.406 94.3992 158.406 94.0056C158.406 93.6119 158.873 93.2978 159.449 93.2978C160.025 93.2978 160.491 93.6108 160.491 94.0056Z" fill="black"/>
<path d="M151.284 88.5382C151.284 88.5382 153.284 89.7381 154.433 90.5369C155.582 91.3358 156.818 92.2299 156.818 92.2299C156.224 91.3494 155.48 90.5906 154.624 89.9914C153.657 89.1999 152.502 88.6976 151.284 88.5382Z" fill="black"/>
<path d="M162.427 95.8996C162.427 95.8996 164.427 97.0983 165.576 97.8972C166.725 98.696 167.962 99.5912 167.962 99.5912C167.368 98.7097 166.624 97.9502 165.767 97.3507C164.8 96.5596 163.645 96.0581 162.427 95.8996Z" fill="black"/>
<path d="M161.542 92.0299C162.385 91.0133 163.385 90.1519 164.5 89.4816C165.373 89.0342 166.347 88.8445 167.315 88.933C166.393 89.2093 165.498 89.5771 164.643 90.0313C163.642 90.6312 161.542 92.0299 161.542 92.0299Z" fill="black"/>
<path d="M151.164 98.5641C152.007 97.5475 153.007 96.6861 154.122 96.0158C154.996 95.5684 155.969 95.3783 156.938 95.4661C156.016 95.743 155.121 96.1111 154.266 96.5654C153.264 97.1706 151.164 98.5641 151.164 98.5641Z" fill="black"/>
<path d="M178.864 68.6164L158.242 56.15C157.171 55.503 156.295 56.1961 156.295 57.6912V78.2559C156.307 79.0188 156.49 79.7682 156.828 80.4442C157.166 81.1203 157.65 81.7042 158.242 82.1496L178.864 94.6159C179.935 95.263 180.811 94.5699 180.811 93.0748V72.5101C180.799 71.7471 180.616 70.9977 180.278 70.3217C179.94 69.6457 179.456 69.0617 178.864 68.6164Z" fill="#3C8F7C"/>
<path d="M153.013 58.4157L156.813 56.1647L179.937 94.8097L176.151 97.0973L153.013 58.4157Z" fill="#3C8F7C"/>
<path d="M174.858 71.014L154.234 58.5476C153.163 57.9006 152.287 58.5937 152.287 60.0887V80.6535C152.299 81.4166 152.482 82.1661 152.82 82.8423C153.158 83.5185 153.642 84.1027 154.234 84.5482L174.858 97.0136C175.928 97.6606 176.804 96.9675 176.804 95.4735V74.9077C176.792 74.1448 176.609 73.3956 176.271 72.7196C175.933 72.0436 175.449 71.4595 174.858 71.014Z" fill="black"/>
<path d="M165.221 78.1889C165.221 78.7123 164.921 78.949 164.545 78.7239C164.339 78.5695 164.171 78.3668 164.054 78.1321C163.937 77.8973 163.874 77.6371 163.87 77.3722C163.87 76.8488 164.17 76.6121 164.545 76.8383C164.751 76.9923 164.919 77.1948 165.037 77.4294C165.154 77.6639 165.217 77.9241 165.221 78.1889Z" fill="#3C8F7C"/>
<path d="M165.133 69.1776C164.491 70.1996 163.986 71.3093 163.633 72.4755C163.516 73.4753 163.69 74.4886 164.133 75.383C164.107 74.4581 164.181 73.533 164.352 72.6253C164.632 71.2056 165.133 69.1776 165.133 69.1776Z" fill="#3C8F7C"/>
<path d="M164.545 80.1928C163.987 81.3354 163.655 82.5843 163.568 83.8646C163.499 84.9744 163.773 86.078 164.35 87.0118C164.269 85.877 164.269 84.7376 164.35 83.6028C164.489 81.8418 164.545 80.1928 164.545 80.1928Z" fill="#3C8F7C"/>
<path d="M156.473 72.776C157.185 73.8445 158.114 74.7351 159.193 75.384C160.048 75.8233 160.967 76.1066 161.913 76.2216C161.913 76.2216 160.553 75.3976 159.193 74.4983C157.833 73.599 156.473 72.776 156.473 72.776Z" fill="#3C8F7C"/>
<path d="M166.78 79.2191C167.84 80.3283 169.016 81.3086 170.286 82.1412C171.157 82.668 172.143 82.9517 173.149 82.9652C172.054 82.4063 170.99 81.7812 169.964 81.0932C168.957 80.3731 167.891 79.746 166.78 79.2191Z" fill="#3C8F7C"/>
<path d="M147.017 87.9519C148.009 85.0529 148.999 82.9631 152.178 79.1175C152.817 76.4331 153.202 70.0999 154.4 67.0836C155.219 65.1053 156.374 63.2989 157.809 61.7524C158.629 62.5634 159.379 63.448 160.052 64.396C159.958 64.596 160.181 71.2516 158.961 73.3236C157.741 75.3955 156.878 80.0326 155.744 81.5099C154.854 81.7905 150.632 88.8712 148.844 89.0691C147.216 89.4648 147.417 89.0628 147.017 87.9519Z" fill="#FFB8A3"/>
<path d="M142.946 111.383C142.946 111.383 142.397 115.846 142.258 117.008C142.112 117.779 142.126 118.574 142.298 119.339C142.587 120.768 141.093 120.483 140.286 122.21C139.731 123.589 138.714 124.71 137.427 125.361C136.856 125.676 136.229 125.863 135.585 125.91C134.941 125.956 134.295 125.861 133.688 125.632C132.854 125.394 133.469 123.871 133.93 123.276C135.308 121.496 137.256 119.297 137.738 118.55C138.472 117.138 138.886 115.568 138.949 113.962C139.238 111.272 142.946 111.383 142.946 111.383Z" fill="#FFC8B5"/>
<path d="M157.026 83.7829C157.026 83.7829 146.873 87.4159 143.765 88.9686C140.657 90.5212 139.697 92.4236 139.396 94.7657C138.796 99.4373 138.296 106.911 137.565 115.033C139.687 118.156 143.483 116.751 143.483 116.751C143.483 116.751 144.845 109.8 145.673 105.732C146.545 101.444 146.79 99.3923 147.133 97.3182C147.151 97.2135 157.306 95.2368 160.572 91.5023C163.838 87.7677 161.813 84.8278 161.813 84.8278L157.026 83.7829Z" fill="#EEF4FA"/>
<path d="M149.704 116.183C149.704 116.183 149.156 120.645 149.017 121.807C148.878 122.969 149.231 123.896 149.145 124.621C148.974 126.071 147.852 125.282 147.045 127.009C146.49 128.389 145.473 129.509 144.186 130.161C143.615 130.476 142.988 130.662 142.344 130.709C141.7 130.755 141.054 130.661 140.447 130.431C139.613 130.192 140.228 128.669 140.689 128.075C142.067 126.295 144.015 124.097 144.497 123.349C145.23 121.937 145.645 120.367 145.708 118.76C145.997 116.072 149.704 116.183 149.704 116.183Z" fill="#FFC8B5"/>
<path d="M163.513 88.5466C163.513 88.5466 153.36 92.1796 150.251 93.7323C147.142 95.285 146.184 97.1873 145.882 99.5294C145.282 104.201 145.182 111.512 144.457 119.639C146.037 122.518 150.221 121.523 150.221 121.523C150.221 121.523 151.352 114.572 152.16 110.5C153.11 105.706 153.53 102.446 153.536 102.554C153.542 102.662 160.091 102.782 163.357 99.0478C171.857 99.6373 169.527 89.0795 169.527 89.0795L163.513 88.5466Z" fill="white"/>
<path d="M157.732 63.9249C159.826 61.8058 160.732 61.7461 162.724 63.3501C164.971 65.053 167.124 66.8878 169.173 68.8457C170.92 70.8349 170.642 73.4796 170.402 77.968C169.868 81.6451 169.576 85.3563 169.527 89.0754C166.216 90.5254 156.659 89.2157 153.869 84.8613C154.24 83.63 156.027 81.6942 156.769 81.7057C156.398 80.1593 156.197 78.5737 156.169 76.9796C155.702 76.817 155.271 76.5558 154.905 76.2121C154.538 75.8684 154.242 75.4496 154.036 74.9816C153.829 74.5135 153.717 74.0061 153.706 73.4908C153.694 72.9755 153.784 72.4632 153.969 71.9855C154.403 70.904 155.69 69.2456 156.118 67.9683C156.896 65.6566 157.134 64.53 157.732 63.9249Z" fill="#90EA93"/>
<path d="M158.858 64.8588C159.368 64.8431 160.758 64.3353 160.698 61.7451C160.681 61.0206 163.971 59.5464 163.957 59.6511C163.628 61.9409 163.633 64.6096 164.483 65.9424C163.433 66.8187 162.106 68.2458 160.514 69.79C159.269 70.9972 158.083 70.3135 158.014 68.541C157.937 67.2528 158.231 65.97 158.858 64.8588Z" fill="#FFB8A3"/>
<path d="M163.407 77.8318C162.526 78.2634 161.545 78.4184 160.582 78.2779C159.472 78.0428 158.383 77.7051 157.33 77.2686C157.33 77.2686 158.089 79.1081 160.904 79.1175C161.395 79.1798 161.893 79.0915 162.338 78.8633C162.782 78.6351 163.153 78.2768 163.407 77.8318Z" fill="#3C8F7C"/>
<path d="M154.201 86.6013C157.03 86.1826 163.907 85.0811 163.907 85.0811C163.907 85.0811 164.398 79.6599 165.207 77.7334C165.14 76.1054 164.197 75.6625 164.652 73.1089C165.107 70.5553 167.939 67.7233 167.939 67.7233C168.791 68.0152 169.56 68.5247 170.176 69.2058C170.793 69.8869 171.237 70.7181 171.47 71.6243C171.916 73.6481 171.258 75.5515 170.407 77.968C170.574 80.0944 169.136 85.345 167.543 88.5602C166.706 90.2501 166.443 89.6208 165.207 89.8679C163.775 90.135 162.315 90.1938 160.868 90.0428C158.635 89.9322 156.413 89.6565 154.218 89.2177C154.181 89.0921 153.891 86.8589 154.201 86.6013Z" fill="#FFC8B5"/>
<path d="M159.258 52.0323C161.384 51.8396 160.631 55.1617 162.363 56.1982C163.365 56.6506 164.292 57.2666 165.109 58.0231C165.144 58.0549 165.17 58.0959 165.184 58.1417C165.198 58.1875 165.201 58.2366 165.191 58.2838C164.352 61.0614 163.051 63.949 159.838 64.775C157.196 65.4577 156.161 62.3774 155.975 60.385C155.758 58.066 157.789 52.1652 159.258 52.0323Z" fill="#FFC8B5"/>
<path d="M162.416 60.1317C162.416 60.1317 163.135 58.4565 164.107 59.5035C165.079 60.5505 163.307 62.1063 163.307 62.1063L162.416 60.1317Z" fill="#FFC8B5"/>
<path d="M155.412 54.0048C155.717 53.3532 156.143 52.7724 156.667 52.2969C157.19 51.8213 157.799 51.4608 158.458 51.2366C160.783 50.2001 164.273 50.197 164.642 53.0091C166.077 53.5169 167.296 53.7849 167.934 55.2695C169.948 59.9569 165.314 63.3313 163.693 63.6935C162.927 62.1084 163.173 60.2385 162.916 59.1591C161.166 59.1591 159.485 56.6139 159.262 55.4371C158.562 55.6761 157.92 56.0701 157.379 56.5922C156.838 57.1143 156.411 57.7523 156.126 58.4628C155.086 56.6013 154.976 55.1942 155.412 54.0048Z" fill="white"/>
<path d="M150.625 83.6395C150.625 83.6395 150.839 83.1694 148.559 84.9555C147.922 85.2068 147.34 85.5892 146.847 86.08C146.292 86.7081 146.687 87.1018 146.892 87.1018C146.55 87.4693 146.445 87.9635 147.017 88.0504C146.527 89.0052 147.022 89.202 148.193 89.0973C150.066 88.9277 151.761 88.1634 152.231 85.5586C152.419 84.521 152.926 83.7525 150.625 83.6395Z" fill="#FFB8A3"/>
<path d="M155.012 86.4799C153.693 86.7814 149.45 85.4947 147.829 86.3835C147.471 86.5804 147.285 87.0442 147.786 87.2442C147.401 87.663 147.328 88.0912 148.176 88.2734C147.976 88.6419 148.058 89.1183 149.244 89.2837C150.929 89.5182 151.356 90.0721 152.757 90.2647C154.071 90.2214 155.362 89.887 156.544 89.2837C156.544 89.2837 156.74 86.0841 155.012 86.4799Z" fill="#FFC8B5"/>
<path d="M168.701 59.9568C168.701 59.9568 168.884 55.7983 169.001 54.3974C169.118 52.9965 167.873 51.9579 166.385 50.6C164.474 48.8568 163.537 48.9835 161.798 49.62C160.532 50.1184 159.302 50.7133 158.118 51.3999L168.701 59.9568Z" fill="#3C8F7C"/>
<path d="M168.701 59.9568L168.806 57.7446C167.915 56.1152 166.811 54.6244 165.525 53.3159C164.063 51.8754 162.296 50.8168 160.369 50.2262L158.805 51.0146L168.701 59.9568Z" fill="#6FCF97"/>
<path d="M158.805 49.62C159.412 49.4107 160.058 49.3565 160.689 49.462C161.32 49.5675 161.918 49.8295 162.433 50.2262C163.895 51.5946 162.568 52.739 161.802 53.2509C161.036 53.7629 158.927 52.1349 158.002 52.0239C157.077 51.9129 157.426 50.3204 158.805 49.62Z" fill="#90EA93"/>
<path d="M159.029 50.2262C158.925 49.6904 158.669 49.2 158.294 48.8193C157.92 48.4385 157.444 48.1852 156.929 48.0925C155.011 47.5826 153.11 49.2871 154.243 50.6052C155.376 51.9234 158.002 52.0291 158.002 52.0291L159.029 50.2262Z" fill="#90EA93"/>
<path d="M153.686 49.6211C156.992 49.6588 159.271 50.2576 164.808 55.4098C170.584 60.7839 172.246 62.6769 169.948 64.8766C168.848 65.9235 166.605 64.8766 164.721 63.2569C165.54 62.6874 166.281 62.0022 166.921 61.2205C166.921 61.2205 163.386 56.0045 159.537 54.5722C155.688 53.14 155.225 56.0212 155.225 56.0212C153.684 55.3673 152.333 54.3025 151.306 52.9327C150.712 52.0239 150.93 49.5886 153.686 49.6211Z" fill="#0097A7"/>
<path d="M149.07 123.45C149.07 123.45 146.528 126.8 144.87 127.521C144.31 127.723 143.713 127.789 143.125 127.717C142.536 127.644 141.971 127.434 141.47 127.103C141.47 127.103 137.214 131.186 142.251 130.912C145.813 130.718 147.84 126.695 147.84 126.695C148.431 126.416 148.901 125.916 149.16 125.293C149.321 124.685 149.289 124.038 149.07 123.45Z" fill="#442E3A"/>
<path d="M142.249 118.768C142.249 118.768 139.708 122.118 138.049 122.84C137.488 123.041 136.892 123.108 136.304 123.035C135.715 122.963 135.15 122.753 134.649 122.422C134.649 122.422 130.393 126.505 135.43 126.229C138.992 126.036 141.02 122.014 141.02 122.014C141.611 121.734 142.081 121.235 142.339 120.612C142.5 120.003 142.469 119.356 142.249 118.768Z" fill="#442E3A"/>
<path d="M182.458 109.429L184.319 110.532C183.113 111.749 181.753 112.786 180.276 113.613C177.563 115.233 168.163 121.646 166.641 121.444C166.263 121.443 165.891 121.344 165.559 121.154C165.227 120.964 164.946 120.69 164.741 120.357C167.587 119.025 170.358 117.524 173.041 115.861C175.558 114.1 182.458 109.429 182.458 109.429Z" fill="#442E3A"/>
<path d="M182.458 109.429C182.32 109.546 182.174 109.653 182.021 109.749L165.786 119.563C165.515 119.769 165.197 119.896 164.864 119.929C164.53 119.963 164.195 119.903 163.891 119.755C163.521 119.445 163.234 119.042 163.055 118.583C162.876 118.124 162.813 117.624 162.87 117.132V102.31C162.87 99.7493 164.407 96.6565 166.225 95.5582L182.458 85.746L184.319 85.8318L180.819 83.7525L180.796 85.6894L165.786 94.7625C163.695 96.0273 161.993 99.4132 161.993 102.31V117.132C161.93 117.786 162.031 118.446 162.287 119.045C162.543 119.645 162.945 120.165 163.452 120.552C163.799 120.76 164.193 120.868 164.593 120.866C165.17 120.85 165.733 120.675 166.225 120.359L182.458 110.547V109.429Z" fill="#442E3A"/>
<path d="M184.314 85.8318L182.453 84.7273C182.453 84.7273 169.392 92.9691 167.567 94.1679C165.742 95.3667 164.095 96.3414 163.237 99.0018C162.379 101.662 162.512 103.391 162.427 106.816C162.342 110.242 162.227 117.622 162.427 118.297C162.722 119.07 163.063 119.823 163.447 120.552L165.308 121.655C164.853 120.937 164.553 120.123 164.429 119.271C164.239 117.884 164.286 104.509 164.429 102.56C164.572 100.612 165.782 97.403 167.962 96.266C170.142 95.129 184.314 85.8318 184.314 85.8318Z" fill="#442E3A"/>
<path d="M184.314 110.532C184.176 110.649 184.03 110.757 183.877 110.854L167.642 120.667C167.371 120.874 167.051 121.001 166.717 121.035C166.383 121.069 166.046 121.008 165.742 120.859C165.372 120.55 165.084 120.146 164.905 119.687C164.727 119.228 164.663 118.729 164.721 118.237V103.414C164.721 100.854 166.258 97.76 168.076 96.6628L184.309 86.8505V85.8318C184.159 85.8962 184.013 85.97 183.872 86.0527L167.637 95.8671C165.545 97.1318 163.844 100.517 163.844 103.414V118.237C163.781 118.89 163.882 119.55 164.138 120.15C164.394 120.749 164.796 121.268 165.303 121.655C165.65 121.864 166.044 121.972 166.444 121.969C167.021 121.953 167.584 121.778 168.076 121.461L184.309 111.649L184.314 110.532Z" fill="#3A2230"/>
<path d="M184.314 110.524L182.301 111.74L172.461 105.801L174.455 104.574L184.314 110.524Z" fill="#442E3A"/>
<path d="M113.547 137.333C114.414 134.628 118.215 132.592 122.776 132.592C127.337 132.592 131.137 134.628 132.004 137.333H132.191V138.506C132.191 141.773 127.975 144.42 122.776 144.42C117.577 144.42 113.36 141.773 113.36 138.506V137.333H113.547Z" fill="#454450"/>
<path d="M122.776 131.418C127.976 131.418 132.191 134.066 132.191 137.333C132.191 140.599 127.975 143.247 122.776 143.247C117.577 143.247 113.36 140.599 113.36 137.333C113.36 134.066 117.576 131.418 122.776 131.418Z" fill="black"/>
<path d="M122.776 133.009C126.231 133.009 129.033 134.769 129.033 136.939C129.033 139.109 126.233 140.869 122.776 140.869C119.319 140.869 116.518 139.109 116.518 136.939C116.518 134.769 119.32 133.009 122.776 133.009Z" fill="#DBD6D1"/>
<path d="M120.712 103.544L121.482 136.523C121.482 136.972 122.061 137.336 122.776 137.336C123.491 137.336 124.069 136.972 124.069 136.523L124.839 103.544H120.712Z" fill="#2D2C34"/>
<path d="M147.269 98.3149H146.723C144.367 91.364 134.544 86.148 122.776 86.148C111.008 86.148 101.185 91.364 98.828 98.3149H98.282V101.439H98.289C98.289 101.472 98.282 101.502 98.282 101.533C98.282 110.031 109.248 116.924 122.776 116.924C136.304 116.924 147.269 110.036 147.269 101.533C147.269 101.502 147.262 101.472 147.262 101.439H147.269V98.3149Z" fill="#6FCF97"/>
<path d="M122.776 83.8897C136.303 83.8897 147.269 90.7777 147.269 99.2802C147.269 107.783 136.303 114.655 122.776 114.655C109.249 114.655 98.282 107.767 98.282 99.2698C98.282 90.7725 109.248 83.8897 122.776 83.8897Z" fill="#0097A7"/>
<path d="M108.607 92.0739C111.964 92.0739 114.686 93.7825 114.686 95.8922C114.686 98.0019 111.964 99.7095 108.607 99.7095C105.25 99.7095 102.528 98.0008 102.528 95.8922C102.528 93.7836 105.25 92.0739 108.607 92.0739Z" fill="#F2ECEB"/>
<path d="M108.607 91.787C111.964 91.787 114.686 93.4967 114.686 95.6053C114.686 97.714 111.964 99.4237 108.607 99.4237C105.25 99.4237 102.528 97.714 102.528 95.6053C102.528 93.4967 105.25 91.787 108.607 91.787Z" fill="white"/>
<path d="M108.607 92.0739C111.707 92.0739 114.23 93.6548 114.23 95.6053C114.23 97.5558 111.712 99.1378 108.607 99.1378C105.502 99.1378 102.984 97.5569 102.984 95.6053C102.984 93.6537 105.501 92.0739 108.607 92.0739Z" fill="#F2ECEB"/>
<path d="M108.607 94.3815C110.107 94.3815 111.321 95.1447 111.321 96.087C111.321 97.0292 110.106 97.7914 108.607 97.7914C107.108 97.7914 105.893 97.0282 105.893 96.087C105.893 95.1458 107.108 94.3815 108.607 94.3815Z" fill="#DEC9C5"/>
<path d="M110.699 90.2134C110.699 90.2134 112.893 89.6355 113.326 91.0112C113.535 91.6681 113.529 92.3792 113.309 93.0322C113.089 93.6851 112.667 94.2427 112.111 94.617C111.899 94.755 111.655 94.8282 111.405 94.8282C111.155 94.8282 110.911 94.755 110.699 94.617V90.2134Z" fill="#DEC9C5"/>
<path d="M108.646 94.7206C109.666 94.7206 110.493 95.2441 110.493 95.8807C110.493 96.5173 109.666 97.0407 108.646 97.0407C107.626 97.0407 106.8 96.5173 106.8 95.8807C106.8 95.2441 107.626 94.7206 108.646 94.7206Z" fill="#F9F7F7"/>
<path d="M104.399 92.1001C104.399 93.2794 104.846 94.4103 105.643 95.2442C106.439 96.0781 107.52 96.5466 108.646 96.5466C109.772 96.5466 110.853 96.0781 111.649 95.2442C112.445 94.4103 112.893 93.2794 112.893 92.1001H104.399Z" fill="#EADEDC"/>
<path d="M108.646 89.3664C110.992 89.3664 112.893 90.561 112.893 92.0341C112.893 93.5072 110.993 94.7018 108.646 94.7018C106.299 94.7018 104.399 93.5072 104.399 92.0341C104.399 90.561 106.301 89.3664 108.646 89.3664Z" fill="white"/>
<path d="M108.646 90.7662C110.485 90.7662 112.016 91.5389 112.458 92.5817C112.545 92.3921 112.592 92.1856 112.598 91.9755C112.598 90.6364 110.829 89.5517 108.646 89.5517C106.463 89.5517 104.695 90.6364 104.695 91.9755C104.701 92.1856 104.748 92.3921 104.835 92.5817C105.276 91.5389 106.808 90.7662 108.646 90.7662Z" fill="#F2ECEB"/>
<path d="M108.646 94.3982C110.485 94.3982 112.016 93.6245 112.458 92.5817C112.016 91.5347 110.485 90.7662 108.646 90.7662C106.807 90.7662 105.276 91.5389 104.835 92.5817C105.276 93.6245 106.808 94.3982 108.646 94.3982Z" fill="#442E3A"/>
<path d="M124.044 84.633C127.401 84.633 130.122 86.3417 130.122 88.4513C130.122 90.561 127.401 92.2686 124.044 92.2686C120.687 92.2686 117.965 90.56 117.965 88.4513C117.965 86.3427 120.686 84.633 124.044 84.633Z" fill="#F2ECEB"/>
<path d="M124.044 84.3461C127.401 84.3461 130.122 86.0559 130.122 88.1645C130.122 90.2731 127.401 91.9828 124.044 91.9828C120.687 91.9828 117.965 90.2731 117.965 88.1645C117.965 86.0559 120.686 84.3461 124.044 84.3461Z" fill="white"/>
<path d="M124.044 84.633C127.144 84.633 129.667 86.2139 129.667 88.1645C129.667 90.115 127.149 91.697 124.044 91.697C120.939 91.697 118.421 90.115 118.421 88.1645C118.421 86.2139 120.938 84.633 124.044 84.633Z" fill="#F2ECEB"/>
<path d="M124.044 86.9406C125.544 86.9406 126.758 87.7038 126.758 88.645C126.758 89.5862 125.543 90.3505 124.044 90.3505C122.545 90.3505 121.329 89.5873 121.329 88.645C121.329 87.7027 122.545 86.9406 124.044 86.9406Z" fill="#DEC9C5"/>
<path d="M126.136 82.7726C126.136 82.7726 128.33 82.1946 128.762 83.5704C128.971 84.2273 128.965 84.9384 128.745 85.5913C128.525 86.2443 128.103 86.8019 127.547 87.1761C127.335 87.3141 127.091 87.3873 126.841 87.3873C126.592 87.3873 126.348 87.3141 126.136 87.1761V82.7726Z" fill="#DEC9C5"/>
<path d="M124.083 87.2798C125.103 87.2798 125.929 87.8033 125.929 88.4398C125.929 89.0764 125.103 89.5988 124.083 89.5988C123.063 89.5988 122.237 89.0753 122.237 88.4398C122.237 87.8043 123.058 87.2798 124.083 87.2798Z" fill="#F9F7F7"/>
<path d="M119.836 84.6582C119.836 85.8374 120.283 86.9684 121.08 87.8023C121.876 88.6362 122.957 89.1046 124.083 89.1046C125.209 89.1046 126.29 88.6362 127.086 87.8023C127.882 86.9684 128.33 85.8374 128.33 84.6582H119.836Z" fill="#EADEDC"/>
<path d="M124.083 81.9255C126.428 81.9255 128.33 83.1201 128.33 84.5932C128.33 86.0663 126.43 87.2609 124.083 87.2609C121.736 87.2609 119.836 86.0663 119.836 84.5932C119.836 83.1201 121.737 81.9255 124.083 81.9255Z" fill="white"/>
<path d="M124.083 83.3243C125.921 83.3243 127.453 84.098 127.894 85.1408C127.981 84.9514 128.029 84.7448 128.034 84.5346C128.034 83.1955 126.265 82.1108 124.083 82.1108C121.901 82.1108 120.132 83.1955 120.132 84.5346C120.137 84.7448 120.185 84.9514 120.272 85.1408C120.713 84.098 122.245 83.3243 124.083 83.3243Z" fill="#F2ECEB"/>
<path d="M124.083 86.9573C125.921 86.9573 127.453 86.1836 127.894 85.1408C127.453 84.0938 125.921 83.3243 124.083 83.3243C122.245 83.3243 120.713 84.098 120.272 85.1408C120.713 86.1836 122.245 86.9573 124.083 86.9573Z" fill="#442E3A"/>
<path d="M135.066 95.1562C135.066 95.1562 132.817 91.8132 132.144 90.6469C131.834 90.1087 132.876 89.4334 133.252 89.9297C134.066 91.006 136.272 94.5689 136.272 94.5689L135.066 95.1562Z" fill="#803401"/>
<path d="M133.252 89.9297C133.076 90.1139 132.92 90.3179 132.787 90.538C132.65 90.7748 132.57 91.0428 132.553 91.319L132.797 91.7054C132.844 91.385 132.94 91.0748 133.083 90.7872C133.185 90.5847 133.321 90.4026 133.483 90.249L133.252 89.9297Z" fill="#FFE5CF"/>
<path d="M133.899 90.8563C133.701 91.0329 133.527 91.2377 133.383 91.4646C133.246 91.7012 133.165 91.9692 133.148 92.2456L133.393 92.6319C133.44 92.3116 133.536 92.0014 133.679 91.7137C133.787 91.5081 133.937 91.3296 134.118 91.1903L133.899 90.8563Z" fill="#FFE5CF"/>
<path d="M134.477 91.7441C134.279 91.9208 134.105 92.1255 133.961 92.3524C133.824 92.5896 133.744 92.8579 133.727 93.1345L133.971 93.5198C134.018 93.1994 134.114 92.8892 134.257 92.6016C134.366 92.396 134.515 92.2174 134.696 92.0781L134.477 91.7441Z" fill="#FFE5CF"/>
<path d="M135.137 92.7554C134.938 92.932 134.764 93.1368 134.62 93.3638C134.483 93.6006 134.403 93.8686 134.386 94.1448L134.631 94.5312C134.678 94.2108 134.774 93.9006 134.917 93.6129C135.022 93.4089 135.167 93.2305 135.343 93.0894L135.137 92.7554Z" fill="#FFE5CF"/>
<path d="M136.093 94.2799C136.093 94.2799 135.536 90.2323 135.442 88.8733C135.398 88.2451 136.62 88.1404 136.742 88.7602C137.002 90.1066 137.425 94.328 137.425 94.328L136.093 94.2799Z" fill="#803401"/>
<path d="M136.739 88.7602C136.503 88.8412 136.276 88.949 136.062 89.0816C135.837 89.228 135.649 89.4287 135.514 89.6669L135.565 90.1276C135.746 89.8642 135.966 89.6336 136.218 89.4449C136.397 89.3127 136.597 89.2145 136.808 89.1549L136.739 88.7602Z" fill="#FFE5CF"/>
<path d="M136.915 89.893C136.662 89.9563 136.418 90.0564 136.191 90.1904C135.966 90.3365 135.779 90.5373 135.644 90.7756L135.695 91.2363C135.875 90.9726 136.096 90.742 136.348 90.5537C136.534 90.4198 136.746 90.3301 136.968 90.2909L136.915 89.893Z" fill="#FFE5CF"/>
<path d="M137.046 90.9589C136.793 91.0227 136.549 91.1227 136.322 91.2562C136.097 91.4024 135.91 91.6031 135.775 91.8415L135.826 92.3021C136.006 92.0389 136.227 91.8083 136.478 91.6195C136.664 91.4857 136.876 91.396 137.099 91.3567L137.046 90.9589Z" fill="#FFE5CF"/>
<path d="M137.196 92.1734C136.943 92.2365 136.699 92.3366 136.472 92.4707C136.247 92.6169 136.06 92.8176 135.925 93.0559L135.976 93.5166C136.156 93.2534 136.377 93.0228 136.628 92.834C136.81 92.7011 137.018 92.6104 137.236 92.5681L137.196 92.1734Z" fill="#FFE5CF"/>
<path d="M140.797 101.875C140.797 103.299 138.897 104.452 136.546 104.452C134.195 104.452 132.295 103.301 132.295 101.875C132.295 100.449 134.195 99.2959 136.546 99.2959C138.897 99.2959 140.797 100.45 140.797 101.875Z" fill="#FFE5CF"/>
<path d="M131.316 97.1077L132.316 102.127L136.437 102.673L140.777 102.127L141.777 97.1077H131.316Z" fill="#F7729F"/>
<path d="M142.077 97.1999C142.077 99.052 139.601 100.55 136.546 100.55C133.491 100.55 131.016 99.0478 131.016 97.1999C131.016 95.352 133.492 93.8496 136.546 93.8496C139.6 93.8496 142.077 95.3467 142.077 97.1999Z" fill="#FFA4C2"/>
<path d="M141.776 97.1078C141.776 98.8007 139.435 100.172 136.546 100.172C133.657 100.172 131.316 98.8007 131.316 97.1078C131.316 95.4148 133.658 94.0433 136.546 94.0433C139.434 94.0433 141.776 95.4148 141.776 97.1078Z" fill="#F7729F"/>
<path d="M134.517 99.9336C135.853 100.252 137.24 100.252 138.576 99.9336C137.257 99.4854 135.836 99.4854 134.517 99.9336Z" fill="#E26091"/>
<path d="M142.697 95.0766C142.697 95.7378 142.51 96.3841 142.159 96.9339C141.808 97.4836 141.309 97.9121 140.726 98.1651C140.142 98.4181 139.5 98.4844 138.881 98.3554C138.262 98.2264 137.693 97.908 137.246 97.4405C136.8 96.9729 136.496 96.3773 136.372 95.7288C136.249 95.0803 136.312 94.4082 136.554 93.7973C136.796 93.1865 137.205 92.6644 137.73 92.297C138.255 91.9297 138.873 91.7336 139.504 91.7336C139.923 91.7335 140.339 91.8199 140.726 91.9878C141.114 92.1558 141.466 92.402 141.762 92.7125C142.059 93.0229 142.294 93.3915 142.454 93.7971C142.615 94.2028 142.697 94.6376 142.697 95.0766Z" fill="#326CFC"/>
<path d="M142.002 92.9973C142.201 93.7401 142.148 94.532 141.852 95.2385C141.556 95.9451 141.036 96.5226 140.38 96.8729C139.723 97.2233 138.971 97.3248 138.251 97.1604C137.532 96.9959 136.888 96.5755 136.431 95.9707C136.557 96.4482 136.783 96.8902 137.093 97.2649C137.403 97.6396 137.788 97.9375 138.221 98.137C138.654 98.3366 139.124 98.4328 139.597 98.4187C140.07 98.4046 140.534 98.2806 140.956 98.0556C141.377 97.8306 141.746 97.5103 142.034 97.1178C142.323 96.7254 142.525 96.2706 142.625 95.7864C142.725 95.3022 142.721 94.8008 142.613 94.3184C142.506 93.8361 142.297 93.3848 142.002 92.9973Z" fill="#185EEA"/>
<path d="M139.836 92.7932C140.04 93.0283 140.169 93.3246 140.203 93.6404C140.238 93.9561 140.177 94.2753 140.029 94.5527C139.881 94.8302 139.653 95.0519 139.378 95.1866C139.103 95.3212 138.795 95.362 138.497 95.3032C138.198 95.2443 137.925 95.0888 137.716 94.8586C137.507 94.6284 137.372 94.3351 137.33 94.0203C137.289 93.7054 137.343 93.3849 137.485 93.1041C137.627 92.8232 137.85 92.5961 138.122 92.455C138.394 92.2688 138.724 92.2 139.044 92.263C139.363 92.326 139.647 92.516 139.836 92.7932Z" fill="#508AFF"/>
<path d="M140.532 92.8455C140.362 93.1083 140.313 93.3062 140.797 93.7731C141.281 94.2401 141.628 94.0956 141.351 93.4412C141.074 92.7869 140.702 92.5817 140.532 92.8455Z" fill="#185EEA"/>
<path d="M139.303 92.9973C138.823 92.9073 139.096 93.481 139.564 93.9333C140.032 94.3856 140.336 95.4274 139.945 95.3635C139.554 95.2996 139.289 94.6955 138.991 94.6536C138.576 94.594 138.705 95.798 139.226 95.9529C139.747 96.1079 140.339 96.7905 140.412 95.7551C140.44 95.3635 140.712 95.398 140.797 95.3635C140.931 95.3101 140.947 94.6536 140.797 94.2233C140.696 93.8844 140.499 93.5856 140.232 93.3666C139.966 93.1477 139.641 93.0188 139.303 92.9973Z" fill="#185EEA"/>
<path d="M141.177 94.7458C140.867 94.8641 141.41 95.3739 141.415 95.9885C141.42 96.6031 141.731 96.5989 141.776 95.9529C141.821 95.3069 141.663 94.5615 141.177 94.7458Z" fill="#185EEA"/>
<path d="M137.967 93.9868C137.539 94.081 137.672 94.7039 137.828 95.0337C137.984 95.3635 138.349 95.1039 138.228 94.7531C138.107 94.4024 138.297 93.9135 137.967 93.9868Z" fill="#185EEA"/>
<path d="M139.216 92.2142C138.825 92.456 139.016 92.6476 139.268 92.5408C139.52 92.434 139.981 92.6162 140.44 92.456C140.899 92.2959 140.674 92.2247 140.292 92.0791C140.116 92.005 139.926 91.9785 139.737 92.0021C139.549 92.0257 139.37 92.0986 139.216 92.2142Z" fill="#185EEA"/>
<path d="M141.576 94.1249C141.453 94.2935 141.663 94.4767 141.876 94.6673C142.089 94.8578 142.376 95.6315 142.498 95.3635C142.62 95.0955 142.464 94.817 142.171 94.5835C141.878 94.35 141.666 94.0024 141.576 94.1249Z" fill="#185EEA"/>
<path d="M137.709 96.3016C137.709 96.9628 137.522 97.6092 137.171 98.159C136.82 98.7087 136.321 99.1372 135.738 99.3902C135.154 99.6432 134.512 99.7093 133.893 99.5803C133.273 99.4512 132.704 99.1327 132.258 98.6651C131.811 98.1974 131.507 97.6017 131.384 96.9531C131.261 96.3046 131.325 95.6324 131.566 95.0216C131.808 94.4107 132.218 93.8887 132.743 93.5215C133.268 93.1543 133.885 92.9584 134.517 92.9586C134.936 92.9586 135.351 93.0451 135.739 93.2131C136.126 93.3811 136.478 93.6274 136.774 93.9378C137.071 94.2482 137.306 94.6168 137.466 95.0224C137.627 95.428 137.709 95.8626 137.709 96.3016Z" fill="#EC234F"/>
<path d="M137.014 94.2234C137.213 94.9661 137.16 95.7581 136.864 96.4646C136.568 97.1711 136.048 97.7486 135.392 98.0989C134.735 98.4493 133.983 98.5508 133.263 98.3864C132.544 98.2219 131.9 97.8016 131.443 97.1968C131.569 97.6742 131.795 98.1162 132.105 98.4909C132.414 98.8656 132.8 99.1635 133.233 99.363C133.666 99.5626 134.136 99.6588 134.609 99.6447C135.082 99.6307 135.546 99.5066 135.968 99.2817C136.389 99.0567 136.758 98.7363 137.046 98.3439C137.335 97.9514 137.537 97.4966 137.637 97.0124C137.737 96.5283 137.733 96.0268 137.625 95.5444C137.518 95.0621 137.309 94.6108 137.014 94.2234Z" fill="#DD194C"/>
<path d="M134.849 94.0192C135.053 94.2544 135.182 94.5509 135.217 94.8669C135.252 95.1829 135.191 95.5023 135.042 95.78C134.894 96.0576 134.667 96.2796 134.391 96.4144C134.116 96.5492 133.808 96.59 133.509 96.5312C133.211 96.4723 132.937 96.3167 132.728 96.0863C132.518 95.856 132.383 95.5625 132.342 95.2474C132.3 94.9324 132.355 94.6116 132.497 94.3305C132.639 94.0494 132.862 93.8222 133.134 93.681C133.406 93.4947 133.737 93.4259 134.056 93.4889C134.376 93.5519 134.66 93.7419 134.849 94.0192Z" fill="#F93568"/>
<path d="M134.54 95.2002C134.254 94.9814 134.079 95.4756 133.773 95.8462C133.467 96.2168 133.361 96.0964 132.981 96.3424C132.601 96.5885 132.471 97.1454 132.581 97.1454C132.691 97.1454 132.826 97.0627 132.981 97.1454C133.136 97.2282 132.898 97.7925 133.19 97.8909C133.482 97.9893 133.49 97.4334 133.565 97.1454C133.64 96.8575 134.178 96.8439 134.54 96.3351C134.902 95.8263 134.313 96.0451 134.214 95.9467C134.115 95.8483 134.758 95.3646 134.54 95.2002Z" fill="#C90E3F"/>
<path d="M132.888 95.7781C132.672 95.8692 132.088 96.3089 132.088 96.69C132.088 97.0711 132.266 96.8544 132.296 96.69C132.326 96.5256 132.566 96.3131 132.889 96.1204C133.212 95.9278 133.123 95.6776 132.888 95.7781Z" fill="#C90E3F"/>
<path d="M136.272 95.0013C135.921 95.106 135.948 95.4546 135.699 95.7551C135.45 96.0556 135.511 96.3686 135.775 96.1205C136.039 95.8723 136.405 95.4923 136.594 95.3279C136.808 95.1457 136.504 94.929 136.272 95.0013Z" fill="#C90E3F"/>
<path d="M135.925 93.2968C135.538 93.3218 135.168 93.4714 134.865 93.725C134.386 94.1438 134.689 94.4327 134.93 94.3238C135.171 94.215 135.48 94.2935 135.343 94.527C135.206 94.7604 135.492 95.1248 135.643 94.8704C135.706 94.7391 135.795 94.623 135.903 94.5289C136.011 94.4349 136.136 94.3651 136.271 94.3238C136.523 94.2882 136.419 94.5657 136.714 94.6631C136.803 94.6896 136.898 94.6928 136.988 94.6724C137.079 94.6519 137.164 94.6085 137.235 94.5458C136.923 94.0053 136.468 93.5713 135.925 93.2968Z" fill="#C90E3F"/>
<path d="M134.611 93.4412C134.263 93.3145 133.87 93.8663 134.043 94.0432C134.216 94.2202 134.104 94.0883 134.386 93.8454C134.668 93.6025 134.867 93.5344 134.611 93.4412Z" fill="#C90E3F"/>
<path d="M132.593 94.2233C132.246 94.2422 132.161 94.6589 132.087 95.0755C132.013 95.4922 131.631 95.9665 131.701 96.3016C131.771 96.6366 131.961 96.2953 131.926 96.1204C131.891 95.9456 132.326 95.7592 132.707 95.2619C133.088 94.7646 133.401 94.2327 133.245 94.1814C133.089 94.1301 132.777 94.7834 132.586 94.8012C132.395 94.819 132.858 94.2076 132.593 94.2233Z" fill="#C90E3F"/>
<path d="M132.707 97.9035C132.407 97.7202 132.568 98.2542 132.707 98.563C132.846 98.8719 133.032 99.1713 133.286 99.0761C133.54 98.9808 133.861 98.6185 133.727 98.4542C133.593 98.2898 133.57 98.5986 133.286 98.5589C133.002 98.5191 132.968 98.0595 132.707 97.9035Z" fill="#C90E3F"/>
<path d="M134.195 99.8466C134.164 99.6649 134.15 99.4805 134.152 99.2959C134.155 98.4282 134.481 97.5959 135.06 96.9749C135.639 96.3539 136.425 95.9929 137.254 95.9681C138.082 95.9434 138.888 96.2569 139.499 96.8423C140.111 97.4277 140.481 98.2393 140.532 99.1054C140.358 99.2959 138.045 100.819 134.195 99.8466Z" fill="#803401"/>
<g opacity="0.7">
<path opacity="0.7" d="M139.842 97.2177C140.058 98.0188 139.978 98.8755 139.62 99.6184C139.944 99.4896 140.251 99.3171 140.532 99.1054C140.495 98.4165 140.253 97.7568 139.842 97.2177Z" fill="#662900"/>
</g>
<path d="M137.676 97.0135C137.88 97.2486 138.009 97.545 138.044 97.8607C138.078 98.1765 138.017 98.4956 137.869 98.7731C137.721 99.0506 137.493 99.2723 137.219 99.407C136.944 99.5416 136.635 99.5824 136.337 99.5236C136.039 99.4647 135.765 99.3092 135.556 99.079C135.347 98.8487 135.212 98.5555 135.171 98.2407C135.129 97.9258 135.183 97.6053 135.325 97.3244C135.467 97.0435 135.69 96.8165 135.962 96.6754C136.234 96.4889 136.565 96.4199 136.884 96.483C137.204 96.546 137.487 96.7362 137.676 97.0135Z" fill="#933F06"/>
<path d="M140.44 99.1881C140.002 98.519 139.389 97.9968 138.674 97.6847C139.193 97.7014 139.702 97.8092 140.219 97.8239C140.274 97.8239 140.305 97.7328 140.249 97.7077C139.553 97.4314 138.805 97.3327 138.065 97.4198C137.957 97.3789 137.85 97.3391 137.745 97.3025C137.444 97.1989 137.137 97.1146 136.826 97.0502C137.63 96.6935 138.515 96.5846 139.376 96.7361C139.53 96.7591 139.438 96.5728 139.276 96.5267C138.792 96.3999 138.289 96.3749 137.795 96.4531C137.302 96.5313 136.829 96.7111 136.402 96.9821C136.048 96.8836 135.675 96.8972 135.329 97.0214C134.983 97.1455 134.68 97.3746 134.458 97.6794C134.455 97.6844 134.454 97.6901 134.455 97.6958C134.456 97.7014 134.458 97.7066 134.462 97.7106C134.466 97.7147 134.471 97.7173 134.476 97.7181C134.482 97.7188 134.487 97.7178 134.492 97.715C134.969 97.4094 135.512 97.2354 136.071 97.2093H136.089C135.742 97.4983 135.438 97.8407 135.189 98.2249C135.042 98.309 134.902 98.4061 134.77 98.5149C134.568 98.6605 134.403 98.8571 134.292 99.0865C134.181 99.3159 134.127 99.5708 134.135 99.8278C134.175 99.8456 134.275 99.8592 134.329 99.8843C134.346 99.6694 134.405 99.4603 134.501 99.2698C134.597 99.0792 134.73 98.9111 134.89 98.7756C134.729 99.1503 134.649 99.5574 134.656 99.9681C134.718 99.9681 134.779 99.9932 134.862 99.9932C134.919 99.4345 135.099 98.8971 135.387 98.4228C135.847 98.1792 136.336 98 136.841 97.8899C137.236 97.794 137.637 97.7321 138.041 97.7045C138.889 98.0508 139.649 98.5963 140.264 99.2991C140.331 99.2959 140.388 99.2279 140.44 99.1881ZM136.392 97.7412C136.163 97.8092 135.928 97.8867 135.699 97.9809C135.827 97.8197 135.969 97.6702 136.121 97.5339C136.241 97.4291 136.366 97.3326 136.498 97.2449C136.835 97.2961 137.167 97.3785 137.49 97.491C137.119 97.5504 136.753 97.634 136.392 97.7412Z" fill="#56250A"/>
<path d="M138.399 98.9504C138.269 98.7967 138.11 98.6723 137.933 98.5848C137.756 98.4973 137.563 98.4486 137.367 98.4416C137.11 98.4062 136.849 98.414 136.594 98.4646C136.494 98.4866 136.431 98.6437 136.594 98.6342C137.191 98.6402 137.78 98.7884 138.314 99.0677C138.368 99.1002 138.435 99.0154 138.399 98.9504Z" fill="#56250A"/>
<path d="M141.03 100.858C140.154 101.063 139.325 101.445 138.589 101.982C137.147 103 135.775 102.674 134.365 101.71C133.67 101.248 132.883 100.957 132.065 100.858L132.318 102.128C133.345 102.706 134.482 103.039 135.646 103.103C137.389 103 139.113 102.672 140.779 102.128L141.03 100.858Z" fill="#FFE5CF"/>
<path d="M117.239 98.919C117.239 98.919 114.99 95.575 114.317 94.4086C114.007 93.8726 115.049 93.1962 115.425 93.6925C116.239 94.7688 118.445 98.3316 118.445 98.3316L117.239 98.919Z" fill="#803401"/>
<path d="M115.425 93.6925C115.249 93.8768 115.093 94.0808 114.96 94.3008C114.823 94.5377 114.743 94.8056 114.726 95.0818L114.971 95.4681C115.018 95.1478 115.114 94.8376 115.257 94.55C115.359 94.3474 115.494 94.1652 115.657 94.0118L115.425 93.6925Z" fill="#FFE5CF"/>
<path d="M116.072 94.6191C115.874 94.7957 115.7 95.0005 115.556 95.2274C115.419 95.4643 115.339 95.7322 115.322 96.0084L115.566 96.3947C115.613 96.0744 115.709 95.7642 115.852 95.4765C115.961 95.2709 116.11 95.0924 116.291 94.9531L116.072 94.6191Z" fill="#FFE5CF"/>
<path d="M116.651 95.5069C116.452 95.6835 116.278 95.8882 116.134 96.1152C115.997 96.3524 115.917 96.6207 115.9 96.8973L116.145 97.2836C116.192 96.9632 116.288 96.653 116.431 96.3654C116.539 96.1595 116.689 95.9808 116.87 95.8419L116.651 95.5069Z" fill="#FFE5CF"/>
<path d="M117.31 96.5183C117.112 96.695 116.938 96.8997 116.794 97.1266C116.657 97.3636 116.576 97.632 116.559 97.9087L116.804 98.294C116.851 97.9736 116.947 97.6635 117.09 97.3758C117.195 97.172 117.341 96.9937 117.516 96.8523L117.31 96.5183Z" fill="#FFE5CF"/>
<path d="M118.266 98.0427C118.266 98.0427 117.709 93.9951 117.615 92.6361C117.571 92.0079 118.793 91.9032 118.915 92.523C119.174 93.8694 119.597 98.0908 119.597 98.0908L118.266 98.0427Z" fill="#803401"/>
<path d="M118.913 92.523C118.676 92.604 118.449 92.7117 118.235 92.8445C118.01 92.9906 117.823 93.1914 117.688 93.4297L117.739 93.8904C117.919 93.6272 118.14 93.3966 118.391 93.2078C118.57 93.076 118.77 92.9779 118.981 92.9177L118.913 92.523Z" fill="#FFE5CF"/>
<path d="M119.088 93.6558C118.835 93.7195 118.592 93.8196 118.365 93.9532C118.14 94.0995 117.952 94.3003 117.817 94.5384L117.868 94.9991C118.049 94.7357 118.269 94.5051 118.521 94.3165C118.707 94.1826 118.918 94.0929 119.141 94.0537L119.088 93.6558Z" fill="#FFE5CF"/>
<path d="M119.219 94.7227C118.966 94.7859 118.723 94.8856 118.496 95.019C118.271 95.1654 118.083 95.3661 117.948 95.6043L117.999 96.065C118.18 95.8016 118.4 95.571 118.652 95.3823C118.838 95.2484 119.049 95.1587 119.272 95.1195L119.219 94.7227Z" fill="#FFE5CF"/>
<path d="M119.369 95.9362C119.116 96 118.872 96.1 118.645 96.2335C118.42 96.3797 118.233 96.5805 118.098 96.8188L118.149 97.2795C118.33 97.0161 118.55 96.7855 118.802 96.5968C118.984 96.464 119.191 96.3734 119.409 96.3309L119.369 95.9362Z" fill="#FFE5CF"/>
<path d="M122.971 105.637C122.971 107.061 121.071 108.215 118.72 108.215C116.369 108.215 114.469 107.063 114.469 105.637C114.469 104.211 116.369 103.059 118.72 103.059C121.071 103.059 122.971 104.213 122.971 105.637Z" fill="#FFE5CF"/>
<path d="M113.49 100.871L114.49 105.89L118.611 106.436L122.951 105.89L123.951 100.871H113.49Z" fill="#F7729F"/>
<path d="M124.25 100.963C124.25 102.816 121.774 104.313 118.72 104.313C115.666 104.313 113.189 102.812 113.189 100.963C113.189 99.1138 115.665 97.6124 118.72 97.6124C121.775 97.6124 124.25 99.1096 124.25 100.963Z" fill="#FFA4C2"/>
<path d="M123.95 100.871C123.95 102.564 121.608 103.935 118.72 103.935C115.832 103.935 113.49 102.564 113.49 100.871C113.49 99.1776 115.831 97.8061 118.72 97.8061C121.609 97.8061 123.95 99.1776 123.95 100.871Z" fill="#F7729F"/>
<path d="M116.69 103.696C118.026 104.015 119.413 104.015 120.749 103.696C119.43 103.25 118.009 103.25 116.69 103.696Z" fill="#E26091"/>
<path d="M124.87 98.8384C124.87 99.4996 124.683 100.146 124.332 100.696C123.981 101.246 123.482 101.674 122.899 101.927C122.315 102.18 121.673 102.246 121.054 102.117C120.434 101.988 119.865 101.67 119.419 101.202C118.972 100.734 118.668 100.138 118.545 99.4899C118.422 98.8414 118.486 98.1692 118.727 97.5583C118.969 96.9475 119.379 96.4255 119.904 96.0583C120.429 95.6911 121.046 95.4952 121.678 95.4954C122.525 95.4957 123.337 95.848 123.935 96.4749C124.534 97.1018 124.87 97.9519 124.87 98.8384Z" fill="#326CFC"/>
<path d="M124.175 96.7601C124.373 97.5026 124.32 98.2941 124.024 99.0002C123.728 99.7062 123.208 100.283 122.552 100.634C121.896 100.984 121.145 101.085 120.425 100.921C119.706 100.757 119.063 100.338 118.605 99.7336C118.732 100.21 118.958 100.652 119.267 101.026C119.577 101.4 119.962 101.698 120.395 101.897C120.828 102.096 121.297 102.192 121.77 102.178C122.243 102.164 122.706 102.04 123.128 101.815C123.549 101.59 123.917 101.27 124.205 100.878C124.494 100.486 124.696 100.031 124.796 99.5475C124.896 99.0637 124.893 98.5627 124.785 98.0806C124.678 97.5986 124.469 97.1475 124.175 96.7601Z" fill="#185EEA"/>
<path d="M122.01 96.556C122.215 96.7911 122.344 97.0875 122.378 97.4035C122.413 97.7195 122.353 98.0389 122.205 98.3167C122.057 98.5945 121.829 98.8166 121.554 98.9515C121.279 99.0865 120.97 99.1276 120.672 99.0689C120.373 99.0102 120.1 98.8547 119.89 98.6245C119.68 98.3942 119.545 98.1008 119.504 97.7858C119.462 97.4707 119.516 97.1499 119.658 96.8687C119.8 96.5876 120.023 96.3602 120.295 96.2189C120.567 96.0325 120.898 95.9635 121.217 96.0263C121.537 96.0891 121.821 96.2789 122.01 96.556Z" fill="#508AFF"/>
<path d="M122.705 96.6084C122.535 96.8711 122.487 97.069 122.971 97.537C123.455 98.005 123.802 97.8584 123.524 97.2041C123.246 96.5497 122.875 96.3445 122.705 96.6084Z" fill="#185EEA"/>
<path d="M121.477 96.7601C120.997 96.6701 121.27 97.2439 121.737 97.6961C122.204 98.1484 122.51 99.1902 122.119 99.1263C121.728 99.0624 121.463 98.4583 121.164 98.4164C120.749 98.3578 120.879 99.5608 121.399 99.7158C121.919 99.8707 122.512 100.553 122.586 99.5179C122.613 99.1263 122.886 99.1619 122.971 99.1263C123.104 99.0729 123.12 98.4165 122.971 97.9861C122.87 97.6473 122.673 97.3486 122.406 97.1297C122.139 96.9107 121.815 96.7818 121.477 96.7601Z" fill="#185EEA"/>
<path d="M123.35 98.5086C123.04 98.6269 123.583 99.1368 123.588 99.7514C123.593 100.366 123.904 100.362 123.95 99.7158C123.996 99.0698 123.836 98.3223 123.35 98.5086Z" fill="#185EEA"/>
<path d="M120.14 97.7496C119.712 97.8438 119.846 98.4667 120.002 98.7965C120.158 99.1263 120.522 98.8667 120.402 98.5159C120.282 98.1652 120.47 97.6763 120.14 97.7496Z" fill="#185EEA"/>
<path d="M121.39 95.977C120.998 96.2189 121.195 96.4105 121.442 96.3037C121.689 96.1969 122.154 96.3791 122.613 96.2199C123.072 96.0608 122.847 95.9875 122.466 95.8419C122.29 95.7678 122.1 95.7413 121.911 95.7649C121.723 95.7885 121.544 95.8615 121.39 95.977Z" fill="#185EEA"/>
<path d="M123.75 97.8877C123.626 98.0563 123.836 98.2395 124.045 98.4301C124.254 98.6206 124.545 99.3944 124.666 99.1263C124.787 98.8583 124.632 98.5798 124.339 98.3463C124.046 98.1128 123.839 97.7652 123.75 97.8877Z" fill="#185EEA"/>
<path d="M119.883 100.064C119.883 100.726 119.696 101.372 119.345 101.922C118.994 102.471 118.495 102.9 117.912 103.153C117.328 103.406 116.686 103.472 116.067 103.343C115.448 103.214 114.879 102.896 114.432 102.428C113.986 101.961 113.682 101.365 113.558 100.717C113.435 100.068 113.498 99.3959 113.74 98.7851C113.982 98.1742 114.391 97.6521 114.916 97.2848C115.441 96.9175 116.058 96.7214 116.69 96.7214C117.537 96.7214 118.349 97.0736 118.948 97.7005C119.547 98.3275 119.883 99.1778 119.883 100.064Z" fill="#EC234F"/>
<path d="M119.188 97.9862C119.387 98.7289 119.334 99.5209 119.038 100.227C118.742 100.934 118.222 101.511 117.566 101.862C116.909 102.212 116.157 102.314 115.437 102.149C114.718 101.985 114.074 101.564 113.617 100.96C113.743 101.437 113.969 101.879 114.279 102.254C114.588 102.628 114.974 102.926 115.407 103.126C115.84 103.325 116.31 103.422 116.783 103.408C117.256 103.393 117.72 103.269 118.142 103.044C118.563 102.819 118.932 102.499 119.22 102.107C119.509 101.714 119.711 101.259 119.811 100.775C119.911 100.291 119.907 99.7896 119.799 99.3073C119.692 98.8249 119.483 98.3736 119.188 97.9862Z" fill="#DD194C"/>
<path d="M117.022 97.782C117.226 98.017 117.355 98.3133 117.39 98.6289C117.425 98.9446 117.364 99.2638 117.216 99.5413C117.068 99.8188 116.84 100.041 116.566 100.175C116.291 100.31 115.982 100.351 115.684 100.293C115.386 100.234 115.113 100.079 114.903 99.8486C114.694 99.6186 114.559 99.3255 114.517 99.0107C114.475 98.696 114.529 98.3755 114.671 98.0945C114.813 97.8135 115.035 97.5863 115.307 97.4449C115.579 97.2582 115.91 97.1891 116.229 97.2519C116.549 97.3148 116.833 97.5047 117.022 97.782Z" fill="#F93568"/>
<path d="M116.714 98.963C116.427 98.7442 116.252 99.2384 115.946 99.61C115.64 99.9817 115.534 99.8592 115.154 100.105C114.774 100.351 114.644 100.908 114.754 100.908C114.864 100.908 114.999 100.826 115.154 100.908C115.309 100.991 115.072 101.555 115.364 101.654C115.656 101.752 115.664 101.196 115.738 100.908C115.812 100.62 116.351 100.607 116.714 100.099C117.077 99.5912 116.486 99.8079 116.388 99.7095C116.29 99.6111 116.93 99.1274 116.714 98.963Z" fill="#C90E3F"/>
<path d="M115.058 99.5409C114.843 99.632 114.258 100.072 114.258 100.454C114.258 100.836 114.436 100.617 114.467 100.454C114.498 100.291 114.737 100.077 115.059 99.8833C115.381 99.6896 115.297 99.4404 115.058 99.5409Z" fill="#C90E3F"/>
<path d="M118.445 98.764C118.095 98.8687 118.122 99.2174 117.872 99.5179C117.622 99.8184 117.685 100.131 117.948 99.8833C118.211 99.6352 118.578 99.2551 118.768 99.0907C118.981 98.9085 118.678 98.6918 118.445 98.764Z" fill="#C90E3F"/>
<path d="M118.098 97.0658C117.711 97.0909 117.341 97.2405 117.038 97.4941C116.559 97.9129 116.862 98.2018 117.103 98.093C117.344 97.9841 117.654 98.0626 117.516 98.2961C117.378 98.5296 117.666 98.895 117.816 98.6395C117.88 98.5084 117.968 98.3923 118.076 98.2983C118.184 98.2043 118.309 98.1344 118.444 98.093C118.697 98.0574 118.593 98.3348 118.888 98.4322C118.977 98.4587 119.071 98.4619 119.162 98.4415C119.253 98.421 119.337 98.3776 119.408 98.3149C119.096 97.7744 118.641 97.3404 118.098 97.0658Z" fill="#C90E3F"/>
<path d="M116.785 97.2041C116.437 97.0774 116.043 97.6291 116.217 97.8061C116.391 97.983 116.277 97.8511 116.559 97.6082C116.841 97.3653 117.04 97.2972 116.785 97.2041Z" fill="#C90E3F"/>
<path d="M114.766 97.9861C114.42 98.005 114.334 98.4217 114.26 98.8384C114.186 99.2551 113.805 99.7294 113.874 100.064C113.943 100.399 114.135 100.058 114.1 99.8833C114.065 99.7084 114.5 99.5221 114.881 99.0248C115.262 98.5274 115.575 97.9956 115.418 97.9443C115.261 97.893 114.95 98.5463 114.759 98.5641C114.568 98.5819 115.033 97.9704 114.766 97.9861Z" fill="#C90E3F"/>
<path d="M114.881 101.665C114.581 101.482 114.742 102.016 114.881 102.325C115.02 102.634 115.206 102.933 115.46 102.838C115.714 102.743 116.035 102.38 115.9 102.216C115.765 102.052 115.744 102.361 115.46 102.321C115.176 102.28 115.141 101.822 114.881 101.665Z" fill="#C90E3F"/>
<path d="M116.368 103.609C116.337 103.428 116.323 103.243 116.325 103.059C116.328 102.191 116.654 101.359 117.233 100.738C117.812 100.117 118.598 99.7557 119.427 99.731C120.255 99.7062 121.061 100.02 121.672 100.605C122.284 101.191 122.654 102.002 122.705 102.868C122.532 103.059 120.218 104.582 116.368 103.609Z" fill="#803401"/>
<g opacity="0.7">
<path opacity="0.7" d="M122.015 100.981C122.232 101.781 122.153 102.639 121.793 103.381C122.117 103.253 122.424 103.08 122.705 102.868C122.668 102.179 122.427 101.519 122.015 100.981Z" fill="#662900"/>
</g>
<path d="M119.85 100.776C120.054 101.012 120.183 101.308 120.218 101.624C120.253 101.94 120.192 102.259 120.044 102.537C119.895 102.815 119.668 103.037 119.393 103.172C119.117 103.306 118.809 103.347 118.51 103.288C118.212 103.229 117.938 103.074 117.729 102.843C117.519 102.613 117.384 102.32 117.343 102.005C117.301 101.69 117.356 101.369 117.498 101.088C117.64 100.807 117.863 100.579 118.135 100.438C118.407 100.252 118.738 100.183 119.057 100.246C119.377 100.309 119.661 100.499 119.85 100.776Z" fill="#933F06"/>
<path d="M122.613 102.951C122.175 102.282 121.562 101.76 120.847 101.447C121.366 101.464 121.875 101.572 122.392 101.587C122.448 101.587 122.478 101.496 122.422 101.471C121.726 101.195 120.978 101.096 120.238 101.183C120.131 101.142 120.023 101.102 119.918 101.065C119.617 100.962 119.311 100.878 119 100.813C119.804 100.457 120.688 100.348 121.549 100.499C121.703 100.522 121.611 100.336 121.449 100.29C120.965 100.163 120.462 100.138 119.969 100.216C119.475 100.294 119.002 100.474 118.575 100.745C118.221 100.646 117.848 100.66 117.502 100.784C117.156 100.908 116.853 101.137 116.631 101.442C116.628 101.447 116.627 101.453 116.628 101.459C116.629 101.464 116.631 101.469 116.635 101.473C116.639 101.477 116.644 101.48 116.649 101.481C116.655 101.482 116.66 101.481 116.665 101.478C117.142 101.172 117.685 100.999 118.244 100.972H118.263C117.916 101.262 117.613 101.604 117.363 101.988C117.216 102.072 117.076 102.169 116.945 102.278C116.743 102.423 116.579 102.62 116.468 102.849C116.357 103.079 116.302 103.334 116.31 103.591C116.349 103.608 116.449 103.622 116.504 103.647C116.521 103.432 116.579 103.223 116.675 103.033C116.771 102.842 116.904 102.674 117.064 102.538C116.903 102.913 116.823 103.321 116.831 103.732C116.892 103.732 116.954 103.756 117.036 103.756C117.093 103.195 117.273 102.656 117.562 102.18C118.022 101.937 118.51 101.758 119.015 101.647C119.412 101.551 119.815 101.489 120.221 101.462C121.069 101.809 121.829 102.355 122.443 103.058C122.505 103.059 122.558 102.991 122.613 102.951ZM118.565 101.504C118.336 101.572 118.101 101.651 117.872 101.744C118.1 101.457 118.37 101.209 118.672 101.011C119.009 101.062 119.341 101.144 119.664 101.257C119.293 101.315 118.926 101.398 118.565 101.504Z" fill="#56250A"/>
<path d="M120.573 102.72C120.443 102.566 120.285 102.441 120.107 102.353C119.93 102.266 119.737 102.217 119.541 102.21C119.283 102.174 119.022 102.182 118.767 102.234C118.672 102.255 118.605 102.412 118.767 102.402C119.364 102.408 119.952 102.556 120.486 102.836C120.541 102.864 120.609 102.778 120.573 102.72Z" fill="#56250A"/>
<path d="M123.203 104.621C122.327 104.826 121.498 105.208 120.762 105.745C119.32 106.763 117.948 106.437 116.538 105.473C115.843 105.011 115.056 104.719 114.238 104.621L114.491 105.891C115.518 106.469 116.655 106.802 117.819 106.867C119.562 106.763 121.286 106.435 122.952 105.891L123.203 104.621Z" fill="#FFE5CF"/>
<path d="M116.942 143.238C118.372 143.83 118.78 144.369 118.395 145.332C118.077 145.997 117.615 146.576 117.045 147.021C116.476 147.466 115.815 147.766 115.115 147.897C113.191 148.315 111.751 151.096 109.697 148.881C109.438 148.474 109.26 148.018 109.173 147.538C109.086 147.058 109.092 146.565 109.19 146.087C108.72 145.125 108.432 144.077 108.339 143C110.366 143.809 111.415 142.327 111.961 142.699C111.879 143.213 112.422 143.768 112.774 144.128C113.323 144.683 115.985 142.839 116.942 143.238Z" fill="#FFB8A3"/>
<path d="M109.108 145.855C109.888 146.092 110.643 146.413 111.359 146.815C112.07 147.224 114.402 146.835 115.823 145.393C116.923 144.274 115.23 143.509 115.23 143.509C115.23 143.509 116.23 142.995 117.04 142.64C117.435 142.412 117.885 142.31 118.334 142.348C118.784 142.385 119.213 142.559 119.569 142.849C119.771 143.047 119.933 143.285 120.045 143.549C120.157 143.814 120.217 144.1 120.221 144.389C120.225 144.679 120.173 144.966 120.069 145.234C119.964 145.502 119.809 145.745 119.612 145.948C118.975 146.83 118.061 147.447 117.031 147.689C115.995 147.965 114.99 148.354 114.031 148.848C112.914 149.554 110.719 150.649 109.444 149.36C108.169 148.071 109.108 145.855 109.108 145.855Z" fill="black"/>
<path d="M95.5911 123.641C97.3911 123.61 104.765 120.701 105.98 123.241C107.98 127.422 111.28 141.093 112.08 143.267C111.838 143.961 110.26 145.026 108.335 144.259C105.214 140.322 100.735 133.289 101.323 128.935C101.296 128.894 95.6211 123.681 95.5911 123.641Z" fill="black"/>
<path d="M121.011 146.523C122.441 147.116 122.849 147.655 122.464 148.617C122.146 149.282 121.683 149.861 121.114 150.306C120.544 150.752 119.883 151.052 119.183 151.182C117.26 151.601 115.819 154.381 113.766 152.165C113.507 151.759 113.329 151.302 113.242 150.822C113.155 150.343 113.161 149.849 113.259 149.372C112.789 148.41 112.5 147.362 112.408 146.285C114.435 147.094 115.484 145.612 116.029 145.985C115.947 146.498 116.491 147.053 116.842 147.412C117.392 147.97 120.058 146.125 121.011 146.523Z" fill="#FFB8A3"/>
<path d="M113.177 149.143C113.957 149.378 114.712 149.7 115.428 150.102C116.139 150.511 118.47 150.121 119.891 148.681C120.991 147.561 119.298 146.79 119.298 146.79C119.298 146.79 120.298 146.276 121.109 145.921C121.504 145.693 121.954 145.592 122.403 145.629C122.853 145.666 123.282 145.841 123.638 146.13C123.84 146.328 124.002 146.566 124.114 146.831C124.226 147.095 124.286 147.381 124.29 147.671C124.294 147.96 124.242 148.247 124.137 148.515C124.032 148.783 123.877 149.026 123.68 149.229C123.044 150.112 122.13 150.729 121.1 150.972C120.064 151.247 119.059 151.635 118.1 152.13C116.983 152.836 114.788 153.93 113.512 152.642C112.236 151.353 113.177 149.143 113.177 149.143Z" fill="black"/>
<path d="M99.658 126.928C101.458 126.896 108.833 123.988 110.047 126.528C112.047 130.708 115.352 144.381 116.147 146.553C115.905 147.249 114.327 148.313 112.402 147.546C109.281 143.608 104.802 136.576 105.39 132.221C105.365 132.18 99.69 126.968 99.658 126.928Z" fill="black"/>
<path d="M89.638 115.271C89.638 115.271 91.39 114.87 91.938 117.399C92.486 119.929 92.089 130.426 92.165 132.894C92.2774 134.165 92.108 135.446 91.67 136.637C91.2321 137.828 90.5373 138.897 89.64 139.761C87.64 141.5 73.44 149.435 73.44 149.435L71.478 148.533C71.478 148.533 84.478 141.763 86.898 139.506C89.318 137.249 90.349 136.846 90.349 131.506C90.349 126.167 90.349 119.291 90.274 117.948C90.1944 117.027 89.9799 116.124 89.638 115.271Z" fill="#442E3A"/>
<path d="M70.205 148.883C70.349 148.825 72.051 147.746 72.205 147.656L86.883 138.861C87.6775 138.346 88.3318 137.624 88.783 136.767C89.4307 135.593 89.7818 134.266 89.803 132.91V118.084C89.803 115.523 89.02 113.962 87.203 115.061L64.012 128.918V127.9C64.157 127.789 70.507 123.964 70.654 123.875L86.889 114.061C88.98 112.797 90.682 114.125 90.682 117.022V131.845C90.6818 133.566 90.3242 135.265 89.634 136.826C88.9172 138.255 87.8078 139.426 86.449 140.189L71.149 149.439L70.205 148.883Z" fill="#442E3A"/>
<path d="M90.883 115.671L91.264 115.014L89.433 113.894L86.849 114.69L64.001 127.9L65.812 129.007L88.095 116.189C88.565 115.808 89.0846 115.498 89.638 115.271C89.8606 115.246 90.0856 115.269 90.2995 115.338C90.5134 115.406 90.7119 115.52 90.883 115.671Z" fill="#442E3A"/>
<path d="M72.017 149.99C72.1677 149.932 72.3139 149.862 72.454 149.78L88.689 139.966C89.4819 139.45 90.1345 138.729 90.584 137.872C91.2325 136.698 91.584 135.37 91.6051 134.015V119.19C91.6051 116.63 90.822 115.069 89.005 116.167L65.812 130.025V129.007C65.958 128.896 72.312 125.069 72.454 124.981L88.689 115.167C90.7811 113.903 92.4821 115.232 92.4821 118.129V132.951C92.4818 134.671 92.1245 136.371 91.435 137.933C90.7179 139.361 89.6086 140.533 88.25 141.295L72.017 151.108V149.99Z" fill="#3A2230"/>
<path d="M110.801 142.905C110.825 142.772 110.825 142.636 110.801 142.504V137.932L103.496 137.627L89.478 129.154C88.8138 128.84 88.0886 128.693 87.3605 128.724C86.6323 128.756 85.9213 128.965 85.284 129.335L73.63 136.38L67.25 136.114V141.109H67.265C67.2868 141.333 67.3633 141.546 67.4872 141.73C67.611 141.913 67.778 142.06 67.972 142.156L88.595 154.622C89.2601 154.937 89.9864 155.084 90.7156 155.053C91.4449 155.021 92.157 154.811 92.795 154.44L109.805 144.158C110.044 144.039 110.257 143.867 110.428 143.656C110.6 143.444 110.727 143.197 110.8 142.93H110.806L110.801 142.905Z" fill="black"/>
<path d="M110.101 136.624L89.478 124.157C88.8137 123.844 88.0886 123.697 87.3604 123.728C86.6322 123.76 85.9212 123.969 85.284 124.34L68.273 134.622C67.037 135.37 66.901 136.507 67.973 137.158L88.595 149.624C89.2602 149.939 89.9864 150.086 90.7156 150.054C91.4448 150.023 92.1569 149.813 92.795 149.442L109.805 139.159C111.037 138.412 111.172 137.27 110.101 136.624Z" fill="#454450"/>
<path d="M90.335 136.891C90.335 137.281 89.869 137.599 89.293 137.599C88.717 137.599 88.25 137.284 88.25 136.891C88.25 136.497 88.717 136.183 89.293 136.183C89.869 136.183 90.335 136.5 90.335 136.891Z" fill="black"/>
<path d="M81.1281 131.424C81.1281 131.424 83.128 132.622 84.277 133.422C85.426 134.222 86.658 135.115 86.658 135.115C86.0634 134.234 85.3194 133.475 84.463 132.876C83.4969 132.085 82.3445 131.583 81.1281 131.424Z" fill="black"/>
<path d="M92.271 138.784C92.271 138.784 94.271 139.983 95.42 140.782C96.569 141.582 97.806 142.475 97.806 142.475C97.2115 141.595 96.4675 140.835 95.611 140.236C94.6433 139.445 93.4891 138.943 92.271 138.784Z" fill="black"/>
<path d="M91.386 134.914C92.2291 133.898 93.2289 133.037 94.344 132.367C95.2171 131.919 96.1904 131.729 97.1591 131.817C96.2369 132.094 95.3422 132.462 94.487 132.916C93.485 133.515 91.386 134.914 91.386 134.914Z" fill="black"/>
<path d="M81.0081 141.448C81.8513 140.432 82.8515 139.571 83.967 138.901C84.8401 138.453 85.8134 138.263 86.782 138.351C85.8599 138.628 84.9651 138.996 84.11 139.451C83.107 140.05 81.0081 141.448 81.0081 141.448Z" fill="black"/>
<path d="M92.837 108.098C92.837 108.098 97.325 105.873 99.648 104.44C100.802 103.122 101.475 102.21 101.88 101.685C103.27 99.8886 103.347 101.266 102.748 102.04C102.075 102.907 102.888 103.428 103.838 103.122C104.788 102.815 105.838 101.736 107.392 101.911C108.486 102.034 107.971 102.622 107.971 102.622C107.971 102.622 108.778 102.45 108.413 103.137C109.86 103.708 106.45 105.606 105.561 105.964C104.672 106.322 101.721 106.584 101.22 106.74C100.719 106.896 97.803 110.915 95.934 111.408C94.065 111.902 92.837 108.098 92.837 108.098Z" fill="#FFB8A3"/>
<path d="M102.142 130.709C99.236 131.665 95.783 135.692 91.463 137.051C89.952 137.526 88.401 139.559 85.805 139.913C85.613 139.94 85.418 139.957 85.22 139.965C80.534 140.157 78.507 135.21 79.509 130.414C80.283 126.705 81.489 125.808 82.283 123.598C84.503 123.325 95.948 124.041 101.811 123.598C102.396 125.918 102.509 128.341 102.142 130.709Z" fill="#2B1722"/>
<path d="M83.443 137.227C82.402 134.223 81.043 131.144 84.507 126.684C88.664 125.527 89.851 128.882 94.078 128.219C95.678 127.967 103.934 125.536 106.078 126.317C106.265 128.903 108.578 131.213 108.478 133.094C103.805 135.961 102.22 136.45 100.361 137.479C97.479 139.074 94.391 141.06 90.961 141.637C88.558 142.041 84.558 140.459 83.443 137.227Z" fill="black"/>
<path d="M97.537 107.572C95.097 105.966 93.797 105.314 91.921 104.238C89.309 102.738 85.772 100.364 83.683 103.812C82.764 105.33 82.403 108.565 82.737 111.217C83.1065 113.699 83.1065 116.226 82.737 118.708C82.483 120.167 81.675 124.599 80.283 127.169C81.5734 128.982 83.4025 130.294 85.483 130.901C90.344 132.221 92.763 131.768 95.392 130.256C95.0036 127.218 95.2594 124.128 96.141 121.206C96.775 118.843 99.1411 116.599 99.1981 114.005C99.2371 112.02 98.7461 109.143 97.537 107.572Z" fill="#3C8F7C"/>
<path d="M93.5 101.329L93.535 105.384C91.1357 105.468 88.7844 104.667 86.8911 103.122C87.304 102.052 87.4853 100.9 87.4221 99.7482C86.0071 98.3222 86.2101 96.3979 87.0081 94.0391C87.5106 92.8156 88.397 91.8084 89.5205 91.1839C90.6441 90.5595 91.9376 90.3553 93.187 90.605C93.6912 90.6064 94.1858 90.7489 94.6197 91.0176C95.0536 91.2864 95.411 91.6717 95.655 92.1336C96.593 93.5449 97.095 97.5276 96.307 99.766C95.809 101.18 94.058 101.271 93.5 101.329Z" fill="#FFC8B5"/>
<path d="M85.481 94.5793C85.457 90.8196 88.139 88.7592 91.4 88.6555C92.2779 88.658 93.1444 88.8637 93.9374 89.258C94.7304 89.6522 95.4304 90.2252 95.9871 90.9359C95.8404 91.7909 95.504 92.598 95.005 93.2921C94.506 93.9863 93.8583 94.548 93.114 94.9322C93.069 95.4755 93.34 96.0744 93.345 96.6345C93.3496 97.4095 93.1724 98.1739 92.8291 98.8604C92.7187 99.0761 92.5948 99.2839 92.458 99.4823C91.1489 100.543 89.7855 101.528 88.374 102.434C88.374 102.434 85.506 98.339 85.481 94.5793Z" fill="#442E3A"/>
<path d="M93.698 95.7446C93.5933 95.6134 93.4575 95.5134 93.3043 95.4545C93.151 95.3956 92.9856 95.38 92.8247 95.4091C92.6639 95.4383 92.5131 95.5113 92.3877 95.6207C92.2623 95.7301 92.1665 95.8721 92.11 96.0325C91.4101 97.2983 93.681 98.806 93.681 98.806L93.698 95.7446Z" fill="#FFC8B5"/>
<path d="M85.809 90.8636C85.809 90.8636 88.166 89.2439 89.349 92.5388C90.532 95.8336 86.41 96.7099 86.41 96.7099L85.809 90.8636Z" fill="#3C8F7C"/>
<path d="M78.844 101.908C81.279 100.571 81.337 99.2729 80.66 97.7203C79.9659 96.4702 79.5013 95.0953 79.29 93.6664C79.2251 92.627 79.4795 91.5932 80.0161 90.7161C80.5526 89.839 81.3431 89.1646 82.272 88.7916C85.672 87.4745 88.172 90.8186 88.502 93.9145C88.7361 96.1178 88.2727 98.3406 87.183 100.241C85.928 102.642 81.299 104.408 78.844 101.908Z" fill="#2B1722"/>
<path d="M103.305 121.418C102.168 116.874 101.463 113.781 99.352 109.613C99.1861 109.208 98.9447 108.842 98.6419 108.536C98.3391 108.23 97.981 107.99 97.5886 107.831C97.1962 107.672 96.7774 107.596 96.3568 107.609C95.9361 107.622 95.5221 107.722 95.139 107.904C93.264 108.907 92.739 111.279 92.761 113.25C92.787 116.057 94.454 118.459 95.938 120.885C96.8955 122.428 97.9865 123.876 99.197 125.211C100.31 126.216 101.572 126.927 102.603 125.559C103.428 124.464 103.389 121.754 103.305 121.418Z" fill="#FFB8A3"/>
<path d="M85.809 102.739C85.809 102.739 85.809 101.78 87.365 101.274C89.5045 101.99 91.5682 102.934 93.524 104.091C94.0515 104.597 94.5065 105.18 94.875 105.822C93.2324 106.112 91.5467 105.975 89.967 105.421C88.4512 104.769 87.0468 103.864 85.809 102.739Z" fill="#90EA93"/>
<path d="M99.426 121.713C99.426 121.713 102.526 120.289 104.276 119.506C106.026 118.723 109.36 118.08 110.311 115.994C111.262 113.909 111.421 112.114 112.211 112.265C113.001 112.416 112.369 113.895 112.211 114.732C112.053 115.568 112.686 116.754 114.272 115.581C115.858 114.407 117.918 114.089 118.235 114.58C118.552 115.071 117.442 115.581 117.442 115.581C117.574 116.028 117.6 116.503 117.518 116.964C117.435 117.425 117.246 117.857 116.967 118.224C116.015 119.884 112.528 119.625 111.735 119.506C110.942 119.386 107.296 122.861 105.235 124.361C103.174 125.86 101.641 127.408 99.735 125.86C97.531 124.059 99.426 121.713 99.426 121.713Z" fill="#FFB8A3"/>
<path d="M93.758 121.984L73.135 109.518C72.065 108.871 71.189 109.564 71.189 111.059V131.623C71.2014 132.386 71.3838 133.136 71.7216 133.812C72.0595 134.488 72.5434 135.072 73.135 135.518L93.758 147.981C94.829 148.628 95.705 147.935 95.705 146.441V125.876C95.6923 125.113 95.5096 124.364 95.1716 123.688C94.8336 123.013 94.3495 122.429 93.758 121.984Z" fill="black"/>
<path d="M67.903 111.782L71.703 109.531L94.827 148.176L91.042 150.465L67.903 111.782Z" fill="black"/>
<path d="M89.747 124.379L69.124 111.913C68.054 111.266 67.178 111.96 67.178 113.454V134.024C67.1903 134.787 67.3727 135.537 67.7105 136.213C68.0484 136.889 68.5324 137.473 69.124 137.919L89.747 150.385C90.818 151.032 91.694 150.338 91.694 148.844V128.274C91.6817 127.511 91.4992 126.762 91.1612 126.085C90.8231 125.409 90.3389 124.825 89.747 124.379Z" fill="#6FCF97"/>
<path d="M114.158 147.935C114.587 148.04 114.042 129.287 114.318 129.412C114.759 129.762 115.127 130.203 115.4 130.707C115.672 131.211 115.844 131.768 115.903 132.344C116.287 136.655 115.96 148.886 115.96 148.886C115.827 150.324 115.362 151.707 114.606 152.916C113.519 154.538 111.434 155.712 110.114 156.5C107.402 158.12 97.474 164.479 95.952 164.277C94.43 164.075 94.584 163.244 94.584 163.244C97.4303 161.913 100.201 160.412 102.884 158.749C104.892 157.346 109.675 154.095 111.536 152.831C112.012 152.506 113.44 151.047 114.158 147.935Z" fill="#442E3A"/>
<path d="M96.475 162.222L94.463 163.439L70.205 148.886L72.199 147.659L96.475 162.222Z" fill="#442E3A"/>
<path d="M94.14 163.168C94.2907 163.11 94.4369 163.04 94.577 162.958L110.812 153.145C111.607 152.628 112.261 151.905 112.712 151.046C113.36 149.872 113.711 148.544 113.732 147.189V132.368C113.732 129.808 112.949 128.246 111.132 129.345L87.942 143.203V142.184C88.087 142.08 94.437 138.248 94.583 138.16L110.818 128.345C112.91 127.082 114.612 128.41 114.612 131.307V146.129C114.611 147.85 114.254 149.549 113.564 151.111C112.847 152.539 111.737 153.71 110.379 154.473L94.14 164.282V163.168Z" fill="#442E3A"/>
<path d="M114.818 129.956L115.198 129.298L113.368 128.178L110.784 128.974L87.936 142.184L89.747 143.291L112.03 130.474C112.5 130.092 113.019 129.782 113.573 129.555C113.796 129.53 114.021 129.554 114.234 129.622C114.448 129.691 114.647 129.805 114.818 129.956Z" fill="#442E3A"/>
<path d="M95.952 164.274C96.1027 164.217 96.2488 164.147 96.389 164.065L112.624 154.252C113.417 153.734 114.07 153.011 114.519 152.153C115.167 150.979 115.518 149.651 115.54 148.296V133.474C115.54 130.914 114.756 129.353 112.94 130.452L89.749 144.31V143.291C89.894 143.181 96.249 139.354 96.391 139.266L112.626 129.452C114.717 128.188 116.419 129.517 116.419 132.414V147.236C116.419 148.956 116.061 150.655 115.372 152.216C114.655 153.645 113.546 154.817 112.187 155.579L95.954 165.392L95.952 164.274Z" fill="#3A2230"/>
<path d="M95.952 165.392V164.273L70.205 148.883V149.988L95.952 165.392Z" fill="#2B1722"/>
<path d="M91.458 142.244L89.747 143.291L64 127.9L65.856 126.89L91.458 142.244Z" fill="#442E3A"/>
<path d="M89.7471 144.31V143.291L64 127.9V128.919L89.7471 144.31Z" fill="#2B1722"/>
</svg>
