<svg width="310" height="239" viewBox="0 0 310 239" fill="none" xmlns="http://www.w3.org/2000/svg">
<path d="M310 113.284C310 180.509 221.933 215.477 192.717 235.006C163.5 254.535 62 199.59 62 132.365C62 65.1395 155.5 -11.4559 171.75 1.4313C188 14.3185 310 46.0588 310 113.284Z" fill="#D2F2D3"/>
<path d="M1.47167 108C0.560406 121.667 -1.93716 177.526 27.8065 191.926C57.5502 206.326 78.8375 176.593 85.7631 159.926C88.4969 155.259 95.3861 147.326 101.072 152.926" stroke="black" stroke-width="2" stroke-dasharray="13 5"/>
<ellipse cx="109.731" cy="158.5" rx="8.20138" ry="7.5" fill="black"/>
<path d="M208.811 52.985C208.811 52.985 204.967 52.2062 201.314 56.5564C197.856 60.6651 194.753 65.0237 192.034 69.591C190.203 72.8821 188.71 76.3278 187.576 79.8817L195.962 81.3937C197.222 78.1085 198.895 74.974 200.946 72.0561C202.882 69.6387 204.958 67.3217 207.165 65.1152L208.811 52.985Z" fill="black"/>
<path d="M199.726 140.504C199.726 140.504 198.234 142.017 196.243 143.829C194.398 145.506 193.827 145.988 192.115 147.545C191.116 148.456 191.94 149.292 193.844 149.224C196.428 148.984 198.973 148.47 201.431 147.692C203.404 146.918 205.305 145.991 207.113 144.922C207.921 144.479 208.522 143.77 208.798 142.935V140.137L199.726 140.504Z" fill="#535353"/>
<path d="M223.441 143.987C223.441 143.987 223.091 146.855 222.883 150.457C222.676 154.059 223.217 157.24 224.396 157.636C225.575 158.032 228.938 157.981 230.86 152.981C232.002 149.81 232.268 146.421 231.632 143.128L223.441 143.987Z" fill="#535353"/>
<path d="M227.265 94.7003C227.963 84.4357 221.903 79.041 221.903 79.041C222.387 75.582 205.185 80.4226 205.185 80.4226C205.185 80.4226 201.502 99.0164 199.944 108.807C198.176 119.935 198.95 139.8 198.95 139.8C198.95 139.8 199.173 142.219 203.618 142.203C205.95 142.024 208.146 141.104 209.839 139.596L210.188 116.406L214.14 98.1154C214.14 98.1154 214.816 115.182 217.319 120.111C221.898 129.12 221.898 144.997 221.898 144.997C221.898 144.997 227.663 146.918 231.618 145.075C235.573 143.233 234.792 141.175 234.792 141.175C234.005 133.278 231.957 125.534 228.716 118.202C228.297 110.115 226.941 99.4139 227.265 94.7003Z" fill="#352C4F"/>
<path d="M200.051 97.0921C203.653 104.633 213.408 106.184 221.502 104.664C225.275 104.028 228.842 102.598 231.935 100.484C230.595 94.1186 229.237 82.109 228.715 79.6976C227.548 74.3094 230.93 68.4749 230.451 62.2134C228.715 56.8807 221.608 51.9488 221.608 51.9488L212.524 51.7858C212.524 51.7858 206.859 52.2241 205.7 53.4656C200.189 59.3703 202.806 72.9278 202.044 78.72C201.887 79.942 201.027 90.9724 200.051 97.0921Z" fill="#6FCF97"/>
<path d="M213.548 50.5915L212.732 55.0298C212.785 56.0029 213.066 56.9535 213.555 57.8143C215.242 57.3818 216.877 56.7911 218.436 56.0514C219.744 55.3878 220.917 54.5166 221.904 53.477L220.447 45.9186L213.548 50.5915Z" fill="#DB947B"/>
<path d="M221.253 37.6092C220.557 36.7983 219.66 36.1576 218.639 35.7426C217.618 35.3275 216.504 35.1505 215.393 35.2269C214.282 35.3032 213.208 35.6306 212.263 36.1808C211.318 36.731 210.531 37.4874 209.97 38.3847C206.114 43.706 209.758 52.4066 213.135 51.908C216.346 51.3139 219.204 49.6259 221.152 47.1732C222.066 45.7272 222.557 44.0825 222.575 42.4038C222.593 40.7252 222.137 39.0717 221.253 37.6092Z" fill="#FFC0A4"/>
<path d="M209.975 39.3623C210.718 40.5664 210.866 42.7529 214.033 43.025C215.607 43.1549 217.194 43.009 218.71 42.5949L218.313 45.0274C218.636 45.0454 218.959 45.0157 219.271 44.9395C219.664 43.7224 220.843 43.8397 221.208 44.524C221.428 45.3948 221.408 46.3031 221.152 47.1651C222.116 46.5882 222.914 45.8012 223.478 44.872C224.042 43.9429 224.355 42.8996 224.389 41.8324C224.479 39.5236 222.522 34.4451 218.01 33.7575C213.497 33.0699 209.642 38.8165 209.975 39.3623Z" fill="#352C4F"/>
<path d="M208.689 39.9407C208.689 39.9407 209.98 42.515 215.438 43.0641C218.712 43.2198 221.939 42.2874 224.545 40.4328L224.391 30.2219H209.06L208.689 39.9407Z" fill="#3C8F7C"/>
<path d="M224.545 40.4327C224.545 42.6144 220.979 44.3822 216.582 44.3822C212.185 44.3822 208.621 42.6144 208.621 40.4327C208.621 38.2511 212.185 36.4833 216.582 36.4833C220.979 36.4833 224.545 38.2511 224.545 40.4327Z" fill="#3C8F7C"/>
<path d="M208.809 37.4853L208.635 40.2975L224.543 40.6511L224.557 37.4853H208.809Z" fill="#3C8F7C"/>
<path d="M224.543 37.4853C224.543 39.5757 221.018 41.2719 216.672 41.2719C212.325 41.2719 208.809 39.5757 208.809 37.4853C208.809 35.3949 212.334 33.7004 216.68 33.7004C221.027 33.7004 224.543 35.3949 224.543 37.4853Z" fill="#6FCF97"/>
<path d="M212.233 51.8233C212.023 53.053 211.989 54.3032 212.13 55.5414C212.447 56.3774 212.929 57.151 213.55 57.8224C215.715 57.5021 217.811 56.8618 219.759 55.9259C222.079 54.598 222.238 53.5145 222.238 53.5145L221.899 50.8587C221.899 50.8587 217.069 52.6591 216.014 53.9968C215.117 55.2281 214.294 56.5053 213.55 57.8224L212.937 53.0224L212.233 51.8233Z" fill="black"/>
<path d="M213.553 57.8143C213.827 56.0822 214.643 54.4641 215.899 53.1626C217.71 51.88 219.675 50.7969 221.753 49.9349L221.901 50.8506C220.04 51.717 218.232 52.6798 216.486 53.7345C215.291 54.9474 214.302 56.3231 213.553 57.8143Z" fill="#352C4F"/>
<path d="M212.232 51.8233C212.232 51.8233 212.57 53.2685 212.73 54.3194C212.837 55.0232 213.553 57.8143 213.553 57.8143C213.55 55.8365 213.41 53.8609 213.134 51.8999C212.831 51.9091 212.528 51.8834 212.232 51.8233Z" fill="#352C4F"/>
<path d="M208.397 56.5565C206.949 59.8488 206.076 63.3363 205.812 66.8863C205.665 69.4329 205.653 78.2915 204.861 85.2584C203.939 93.3806 202.627 100.675 202.627 100.675C203.915 101.842 205.398 102.807 207.017 103.531C209.19 104.433 211.507 104.993 213.876 105.19C213.876 105.19 214.623 96.4518 215.432 87.7659C216.03 81.3562 216.377 74.7021 216.576 72.1979C216.948 67.9747 217.983 63.8255 219.649 59.8835L208.397 56.5565Z" fill="black"/>
<path d="M210.558 60.3186C210.508 60.4224 210.427 60.5108 210.325 60.5733C210.222 60.6357 210.103 60.6696 209.981 60.671C209.859 60.6725 209.739 60.6413 209.635 60.5812C209.531 60.5212 209.448 60.4347 209.395 60.332C209.342 60.2293 209.322 60.1146 209.337 60.0015C209.351 59.8884 209.4 59.7816 209.478 59.6935C209.555 59.6055 209.658 59.54 209.774 59.5046C209.891 59.4693 210.015 59.4656 210.133 59.4941C210.306 59.552 210.447 59.671 210.527 59.8252C210.606 59.9795 210.617 60.1567 210.558 60.3186Z" fill="#352C4F"/>
<path d="M216.671 62.0896C216.621 62.1935 216.54 62.2819 216.438 62.3443C216.336 62.4067 216.217 62.4407 216.094 62.4421C215.972 62.4435 215.852 62.4123 215.748 62.3523C215.645 62.2922 215.561 62.2057 215.509 62.103C215.456 62.0003 215.435 61.8857 215.45 61.7726C215.465 61.6595 215.514 61.5526 215.591 61.4646C215.669 61.3766 215.772 61.311 215.888 61.2757C216.004 61.2404 216.128 61.2367 216.247 61.2652C216.419 61.3231 216.561 61.442 216.64 61.5963C216.719 61.7505 216.731 61.9277 216.671 62.0896Z" fill="#352C4F"/>
<path d="M208.7 69.7392C208.649 69.8429 208.568 69.931 208.466 69.9932C208.364 70.0554 208.245 70.0891 208.123 70.0903C208 70.0915 207.881 70.0602 207.777 70C207.673 69.9399 207.59 69.8534 207.538 69.7508C207.485 69.6481 207.465 69.5336 207.479 69.4206C207.494 69.3076 207.543 69.2008 207.62 69.1128C207.698 69.0249 207.8 68.9593 207.916 68.924C208.032 68.8886 208.157 68.8848 208.275 68.9131C208.448 68.9711 208.59 69.0903 208.669 69.2449C208.749 69.3995 208.76 69.5771 208.7 69.7392Z" fill="#352C4F"/>
<path d="M214.808 71.5086C214.758 71.6125 214.677 71.7009 214.575 71.7634C214.472 71.8258 214.353 71.8597 214.231 71.8611C214.109 71.8625 213.989 71.8314 213.885 71.7713C213.781 71.7113 213.698 71.6248 213.645 71.5221C213.592 71.4194 213.572 71.3047 213.587 71.1916C213.601 71.0785 213.65 70.9716 213.728 70.8836C213.805 70.7956 213.908 70.73 214.024 70.6947C214.14 70.6594 214.265 70.6557 214.383 70.6842C214.556 70.7421 214.697 70.8611 214.777 71.0153C214.856 71.1696 214.867 71.3468 214.808 71.5086Z" fill="#352C4F"/>
<path d="M208.151 79.3424C208.1 79.4461 208.019 79.5342 207.917 79.5964C207.815 79.6586 207.696 79.6922 207.574 79.6934C207.452 79.6947 207.332 79.6634 207.228 79.6032C207.125 79.5431 207.041 79.4566 206.989 79.354C206.936 79.2513 206.916 79.1368 206.93 79.0237C206.945 78.9107 206.994 78.804 207.071 78.716C207.149 78.628 207.252 78.5625 207.368 78.5271C207.484 78.4918 207.608 78.488 207.726 78.5163C207.899 78.5742 208.041 78.6934 208.12 78.8481C208.2 79.0027 208.211 79.1803 208.151 79.3424Z" fill="#352C4F"/>
<path d="M214.263 81.1053C214.213 81.2092 214.132 81.2976 214.03 81.36C213.928 81.4224 213.808 81.4564 213.686 81.4578C213.564 81.4592 213.444 81.428 213.34 81.368C213.236 81.3079 213.153 81.2214 213.1 81.1187C213.047 81.016 213.027 80.9014 213.042 80.7883C213.056 80.6752 213.105 80.5683 213.183 80.4803C213.26 80.3923 213.363 80.3267 213.479 80.2914C213.596 80.2561 213.72 80.2524 213.838 80.2809C214.011 80.3388 214.152 80.4577 214.232 80.612C214.311 80.7662 214.322 80.9434 214.263 81.1053Z" fill="#352C4F"/>
<path d="M206.364 89.8727C206.314 89.9763 206.233 90.0644 206.131 90.1267C206.028 90.1889 205.909 90.2227 205.787 90.224C205.665 90.2254 205.546 90.1942 205.442 90.1343C205.338 90.0743 205.255 89.988 205.202 89.8854C205.149 89.7829 205.129 89.6684 205.143 89.5555C205.158 89.4425 205.206 89.3357 205.284 89.2476C205.361 89.1595 205.463 89.0938 205.579 89.0582C205.695 89.0226 205.819 89.0186 205.938 89.0466C206.111 89.1042 206.253 89.2232 206.333 89.3779C206.413 89.5326 206.424 89.7104 206.364 89.8727Z" fill="#352C4F"/>
<path d="M212.481 91.6437C212.431 91.7474 212.349 91.8355 212.247 91.8977C212.145 91.9599 212.026 91.9936 211.904 91.9948C211.782 91.996 211.662 91.9647 211.558 91.9045C211.455 91.8444 211.372 91.7579 211.319 91.6553C211.266 91.5526 211.246 91.4381 211.26 91.3251C211.275 91.2121 211.324 91.1053 211.402 91.0173C211.479 90.9294 211.582 90.8638 211.698 90.8285C211.814 90.7931 211.938 90.7893 212.056 90.8176C212.229 90.8756 212.371 90.9948 212.451 91.1494C212.53 91.304 212.541 91.4816 212.481 91.6437Z" fill="#352C4F"/>
<path d="M227.397 60.5776C224.602 60.2322 223.538 65.705 222.836 68.8545C222.134 72.004 221.264 80.6589 221.264 80.6589L209.68 87.3488L212.234 96.0152C217.816 93.1991 223.234 90.1088 228.465 86.7574C229.96 85.7081 231.871 79.7856 232.577 74.3323C233.4 67.9616 232.507 61.2081 227.397 60.5776Z" fill="black"/>
<path d="M224.087 29.5278C222.821 25.5995 216.708 26.0541 213.237 26.4532C211.665 26.6357 211.076 27.3885 209.956 28.617C208.941 29.7298 209.104 31.4683 208.939 33.4381C209.706 33.8095 210.568 33.9753 211.429 33.9171C211.604 33.9171 211.822 33.8911 212.044 33.8634C212.681 36.7261 217.285 38.2202 220.068 37.9448C221.247 37.8435 222.344 37.3402 223.15 36.5312C223.956 35.7222 224.413 34.6644 224.435 33.5603C224.524 32.2076 224.406 30.8499 224.087 29.5278Z" fill="#3C8F7C"/>
<path d="M226.786 31.7583C227.548 31.1347 228.034 30.2679 228.147 29.3279C228.26 28.3878 227.993 27.4422 227.397 26.6765C225.414 24.1657 221.438 24.151 218.325 25.474C217.84 24.5793 217.049 23.8608 216.077 23.4324C215.105 23.0039 214.008 22.8899 212.958 23.1083C210.941 23.2402 210.542 25.0765 211.197 26.9958C208.995 26.3327 206.306 26.7628 206.103 29.2589C205.82 32.8532 209.478 33.2833 212.466 32.7848C212.797 33.6719 213.425 34.4362 214.258 34.9648C215.724 36.0774 217.57 36.6625 219.459 36.6136C222.191 36.4409 223.714 34.6291 222.832 32.7978C223.532 32.8799 224.243 32.8302 224.922 32.6516C225.601 32.4731 226.235 32.1693 226.786 31.7583Z" fill="#90EA93"/>
<path d="M262.977 122.886L221.871 145.085V193.231L262.977 171.003V122.886Z" fill="#3C8F7C"/>
<path d="M220.616 144.407L123.004 91.792V139.932L221.882 193.225V145.084L220.616 144.407Z" fill="#6FCF97"/>
<path d="M221.943 145.304L123 91.7757V89.5891L221.943 143.115V145.304Z" fill="#352C4F"/>
<path d="M221.941 143.117L262.976 121.009V123.195L221.941 145.304V143.117Z" fill="#1C172B"/>
<path d="M123 89.5891L164.019 67.4484L262.977 121.002L221.943 143.11L123 89.5891Z" fill="#90EA93"/>
<path d="M123 115.839V117.121L221.878 170.39V169.165L123 115.839Z" fill="#9C8BAF"/>
<path d="M263 146.983L221.871 169.166V170.392L263 148.233V146.983Z" fill="#564866"/>
<path d="M199.461 107.634L172.473 93.0938L190.073 83.533L217.085 98.1382L199.461 107.634Z" fill="#FE9380"/>
<path d="M172.473 93.0938V94.1007L199.461 108.639V107.632L172.473 93.0938Z" fill="#E86D64"/>
<path d="M199.461 107.634V108.641L217.083 99.1467V98.1398L199.461 107.634Z" fill="#C94A3D"/>
<path d="M196.808 94.2229C194.434 94.1675 189.646 94.3125 190.344 96.284C190.797 97.5874 194.053 97.8123 197.573 97.7716C201.05 97.7308 206.437 98.2913 206.832 96.372C207.348 93.9427 204.65 94.4054 196.808 94.2229Z" fill="#AFAF00"/>
<path d="M208.054 89.1346C207.184 89.9812 206.162 90.6788 205.033 91.1957C203.967 91.7864 203.07 92.6081 202.416 93.5911C201.763 94.5742 201.374 95.6896 201.281 96.8429C201.176 98.1919 202.186 99.194 204.509 99.2526C206.833 99.3113 209.264 96.7467 210.143 95.6095C211.13 94.6331 212.28 93.8117 213.548 93.1769L208.054 89.1346Z" fill="#FFC0A4"/>
<path d="M212.712 90.3517C212.098 88.8363 211.107 87.4791 209.819 86.3924C207.747 86.8722 205.89 87.9472 204.51 89.4653C206.918 92.1129 209.116 94.9211 211.085 97.8677C211.965 96.8195 212.57 95.5942 212.853 94.2893C213.135 92.9844 213.087 91.6361 212.712 90.3517Z" fill="#F4C6DC"/>
<path d="M213.878 91.0995C213.441 89.0702 212.203 87.2677 210.41 86.0486L209.812 86.3941C211.1 87.4808 212.092 88.838 212.705 90.3533C213.081 91.6377 213.129 92.986 212.847 94.2909C212.564 95.5958 211.959 96.8212 211.079 97.8693L211.516 98.4266C211.516 98.4266 215.004 94.6188 213.878 91.0995Z" fill="#352C4F"/>
<path d="M184.35 82.9546C184.35 82.9546 183.731 85.0955 189.433 85.5354C194.65 85.9395 196.082 84.944 196.357 83.7969C196.631 82.6499 187.844 79.5233 184.35 82.9546Z" fill="#D6A3C0"/>
<path d="M192.076 91.0832L198.176 98.7068L197.893 98.8388C197.893 98.8388 191.821 92.5447 191.473 91.792C191.125 91.0392 192.076 91.0832 192.076 91.0832Z" fill="#F4C6DC"/>
<path d="M191.47 90.8111L190.584 91.968C191.55 93.5495 192.682 95.0374 193.964 96.4095C194.997 97.5542 196.361 98.3976 197.893 98.8388L191.47 90.8111Z" fill="white"/>
<path d="M187.285 83.5102C187.285 83.5102 187.663 83.3081 187.904 83.533C188.99 84.8401 189.891 86.2721 190.585 87.7937C191.684 89.7032 192.458 91.1533 192.458 91.1533L192.025 91.3032L188.973 87.7659L187.285 83.5102Z" fill="#282828"/>
<path d="M186.825 84.1179C186.702 84.5303 186.673 84.9622 186.741 85.3855C186.935 86.6564 187.433 87.8704 188.198 88.9374C188.984 90.1942 189.849 91.4064 190.789 92.5675L192.026 91.3032C192.026 91.3032 190.016 88.3395 188.881 86.0992C187.745 83.8589 187.436 82.7069 186.825 84.1179Z" fill="#352C4F"/>
<path d="M188.587 81.6479C187.945 83.49 187.438 85.3707 187.069 87.2771C186.888 88.0195 186.999 88.7978 187.382 89.4702C187.765 90.1425 188.394 90.6641 189.155 90.9398C190.934 91.7968 192.892 88.5822 193.306 87.2348C193.72 85.8873 194.595 82.7265 194.595 82.7265L188.587 81.6479Z" fill="#FFC0A4"/>
<path d="M189.455 78.601C188.339 78.7915 187.311 79.2913 186.504 80.0351C185.698 80.7789 185.15 81.7321 184.934 82.7705C189.284 81.5338 196.35 83.7969 196.35 83.7969L197.19 80.2972C194.921 78.8692 192.169 78.2659 189.455 78.601Z" fill="#F4C6DC"/>
<path d="M188.945 77.8434C187.759 78.2354 186.707 78.9159 185.898 79.8146C185.089 80.7133 184.552 81.7974 184.344 82.9546C184.531 82.8829 184.733 82.8275 184.934 82.7705C185.151 81.7321 185.698 80.7789 186.505 80.0351C187.311 79.2913 188.34 78.7915 189.455 78.601C192.169 78.2659 194.921 78.8693 197.191 80.2972L197.378 79.5232C196.222 78.6298 194.851 78.0104 193.383 77.7179C191.914 77.4254 190.392 77.4685 188.945 77.8434Z" fill="#352C4F"/>
<path d="M201.27 102.979C201.27 103.593 200.267 104.09 199.031 104.09C197.794 104.09 196.791 103.593 196.791 102.979C196.791 102.365 197.794 101.869 199.031 101.869C200.267 101.869 201.27 102.366 201.27 102.979Z" fill="#AFAF00"/>
<path d="M201.27 102.278H196.791V102.979H201.27V102.278Z" fill="#AFAF00"/>
<path d="M201.27 102.278C201.27 102.892 200.267 103.389 199.031 103.389C197.794 103.389 196.791 102.901 196.791 102.278C196.791 101.656 197.801 101.175 199.024 101.175C200.246 101.175 201.27 101.664 201.27 102.278Z" fill="#CEC919"/>
<path d="M199.001 102.066C199.001 102.066 198.069 101.514 198.69 101.34C199.31 101.165 199.001 102.066 199.001 102.066Z" fill="#EDE43E"/>
<path d="M198.574 102.35C198.315 102.369 197.922 102.443 197.782 102.7C197.643 102.958 198.691 103.099 198.574 102.35Z" fill="#EDE43E"/>
<path d="M199.865 102.278C200.017 102.274 200.168 102.303 200.306 102.364C200.443 102.425 200.564 102.516 200.656 102.629C200.794 102.888 199.748 103.026 199.865 102.278Z" fill="#EDE43E"/>
<path d="M199.024 102.278C198.945 102.481 198.945 102.704 199.024 102.907C199.049 102.958 199.09 102.999 199.143 103.026C199.195 103.052 199.255 103.062 199.314 103.054C199.373 103.046 199.428 103.021 199.47 102.981C199.512 102.942 199.539 102.891 199.548 102.835C199.548 102.479 199.024 102.278 199.024 102.278Z" fill="#EDE43E"/>
<path d="M198.343 102.066C198.343 102.066 197.03 102.449 197.374 101.869C197.648 101.405 198.343 102.066 198.343 102.066Z" fill="#EDE43E"/>
<path d="M199.459 101.947C199.459 101.947 199.768 101.387 200.144 101.553C200.519 101.719 200.257 101.899 199.459 101.947Z" fill="#EDE43E"/>
<path d="M206.749 101.519C206.749 102.132 205.746 102.629 204.509 102.629C203.272 102.629 202.27 102.14 202.27 101.519C202.27 100.898 203.272 100.408 204.509 100.408C205.746 100.408 206.749 100.905 206.749 101.519Z" fill="#AFAF00"/>
<path d="M206.749 100.817H202.27V101.517H206.749V100.817Z" fill="#AFAF00"/>
<path d="M204.509 101.928C205.746 101.928 206.749 101.43 206.749 100.817C206.749 100.203 205.746 99.7056 204.509 99.7056C203.272 99.7056 202.27 100.203 202.27 100.817C202.27 101.43 203.272 101.928 204.509 101.928Z" fill="#CEC919"/>
<path d="M204.48 100.605C204.48 100.605 203.547 100.053 204.169 99.8783C204.791 99.704 204.48 100.605 204.48 100.605Z" fill="#EDE43E"/>
<path d="M204.052 100.888C203.793 100.908 203.399 100.981 203.261 101.239C203.123 101.496 204.169 101.638 204.052 100.888Z" fill="#EDE43E"/>
<path d="M205.343 100.817C205.603 100.835 205.997 100.91 206.135 101.167C206.273 101.424 205.226 101.565 205.343 100.817Z" fill="#EDE43E"/>
<path d="M204.509 100.817C204.429 101.02 204.429 101.243 204.509 101.446C204.533 101.497 204.574 101.54 204.627 101.568C204.68 101.595 204.74 101.605 204.8 101.597C204.86 101.589 204.915 101.563 204.957 101.522C204.999 101.482 205.026 101.43 205.033 101.374C205.029 101.012 204.509 100.817 204.509 100.817Z" fill="#EDE43E"/>
<path d="M203.822 100.605C203.822 100.605 202.508 100.989 202.852 100.408C203.127 99.9434 203.822 100.605 203.822 100.605Z" fill="#EDE43E"/>
<path d="M204.938 100.486C204.938 100.486 205.247 99.9255 205.622 100.092C205.998 100.258 205.736 100.437 204.938 100.486Z" fill="#EDE43E"/>
<path d="M194.569 99.9516C194.569 100.564 193.566 101.063 192.329 101.063C191.093 101.063 190.09 100.564 190.09 99.9516C190.09 99.339 191.093 98.8404 192.329 98.8404C193.566 98.8404 194.569 99.3373 194.569 99.9516Z" fill="#AFAF00"/>
<path d="M194.569 99.2494H190.09V99.95H194.569V99.2494Z" fill="#AFAF00"/>
<path d="M194.569 99.251C194.569 99.8636 193.566 100.361 192.329 100.361C191.093 100.361 190.09 99.8636 190.09 99.251C190.09 98.6383 191.093 98.1398 192.329 98.1398C193.566 98.1398 194.569 98.6367 194.569 99.251Z" fill="#CEC919"/>
<path d="M192.299 99.0376C192.299 99.0376 191.368 98.4868 191.988 98.3109C192.609 98.1349 192.299 99.0376 192.299 99.0376Z" fill="#EDE43E"/>
<path d="M191.865 99.3227C191.713 99.3177 191.561 99.3469 191.424 99.4079C191.286 99.4689 191.166 99.5598 191.074 99.673C190.944 99.9304 191.991 100.071 191.865 99.3227Z" fill="#EDE43E"/>
<path d="M193.163 99.251C193.316 99.246 193.467 99.2753 193.605 99.3362C193.743 99.3972 193.863 99.4881 193.955 99.6013C194.093 99.8587 193.046 99.9988 193.163 99.251Z" fill="#EDE43E"/>
<path d="M192.328 99.251C192.25 99.4537 192.25 99.6756 192.328 99.8783C192.353 99.9288 192.395 99.9704 192.447 99.997C192.5 100.023 192.56 100.033 192.619 100.025C192.678 100.017 192.733 99.9916 192.775 99.9522C192.817 99.9127 192.844 99.8617 192.852 99.8066C192.849 99.4465 192.328 99.251 192.328 99.251Z" fill="#EDE43E"/>
<path d="M191.642 99.0375C191.642 99.0375 190.329 99.4221 190.673 98.8404C190.947 98.3776 191.642 99.0375 191.642 99.0375Z" fill="#EDE43E"/>
<path d="M192.758 98.9186C192.758 98.9186 193.067 98.3581 193.443 98.5243C193.818 98.6905 193.556 98.8713 192.758 98.9186Z" fill="#EDE43E"/>
<path d="M226.326 131.177C236.702 131.177 245.114 127.004 245.114 121.856C245.114 116.708 236.702 112.535 226.326 112.535C215.949 112.535 207.537 116.708 207.537 121.856C207.537 127.004 215.949 131.177 226.326 131.177Z" fill="#564866"/>
<path d="M208.368 116.026C208.368 118.93 203.623 121.284 197.771 121.284C191.919 121.284 187.174 118.93 187.174 116.026C187.174 113.123 191.919 110.769 197.771 110.769C203.623 110.769 208.368 113.123 208.368 116.026Z" fill="#FFB89F"/>
<path d="M208.368 114.881C208.368 117.784 203.623 120.139 197.771 120.139C191.919 120.139 187.174 117.784 187.174 114.881C187.174 111.978 191.919 109.623 197.771 109.623C203.623 109.623 208.368 111.978 208.368 114.881Z" fill="#FE9380"/>
<path d="M208.368 113.874C208.368 116.778 203.623 119.132 197.771 119.132C191.919 119.132 187.174 116.778 187.174 113.874C187.174 110.971 191.919 108.618 197.771 108.618C203.623 108.618 208.368 110.971 208.368 113.874Z" fill="#FFB89F"/>
<path d="M208.368 112.47C208.368 115.373 203.623 117.727 197.771 117.727C191.919 117.727 187.174 115.373 187.174 112.47C187.174 109.566 191.919 107.213 197.771 107.213C203.623 107.213 208.368 109.566 208.368 112.47Z" fill="#FE9380"/>
<path d="M208.368 111.246C208.368 114.149 203.623 116.502 197.771 116.502C191.919 116.502 187.174 114.149 187.174 111.246C187.174 108.343 191.919 105.988 197.771 105.988C203.623 105.988 208.368 108.344 208.368 111.246Z" fill="#FFB89F"/>
<path d="M197.724 116.033C192.263 116.033 187.822 113.892 187.822 111.259C187.822 108.626 192.263 106.482 197.724 106.482C203.185 106.482 207.626 108.624 207.626 111.259C207.626 113.894 203.183 116.033 197.724 116.033ZM197.724 106.889C192.506 106.889 188.259 108.844 188.259 111.259C188.259 113.674 192.506 115.626 197.724 115.626C202.942 115.626 207.189 113.67 207.189 111.259C207.189 108.848 202.942 106.889 197.724 106.889Z" fill="white"/>
<path d="M197.746 108.813C200.908 108.813 203.476 110.013 203.78 111.541C203.809 111.444 203.829 111.346 203.839 111.246C203.839 109.576 201.11 108.222 197.746 108.222C194.381 108.222 191.652 109.576 191.652 111.246C191.663 111.346 191.683 111.444 191.712 111.541C192.016 110.013 194.584 108.813 197.746 108.813Z" fill="#E86D64"/>
<path d="M197.745 114.268C200.907 114.268 203.475 113.069 203.779 111.541C203.475 110.013 200.907 108.813 197.745 108.813C194.583 108.813 192.015 110.013 191.711 111.541C192.015 113.069 194.583 114.268 197.745 114.268Z" fill="#FE9380"/>
<path d="M167.588 81.6479C167.588 81.6479 173.224 78.8927 174.565 78.1742C176.138 77.3367 177.025 76.8919 176.758 76.1685C176.491 75.445 167.324 80.9587 167.324 80.9587L167.588 81.6479Z" fill="#282828"/>
<path d="M167.318 80.0186C167.318 80.0186 171.925 77.4247 173.957 76.3054C175.989 75.186 177.975 75.8524 175.81 77.0158C173.178 78.4251 168.602 80.6524 168.602 80.6524L167.318 80.0186Z" fill="#352C4F"/>
<path d="M169.003 80.8919V81.3937C167.096 82.8177 164.958 83.9481 162.668 84.742C159.632 85.599 158.402 84.6149 158.402 84.6149L169.003 80.8919Z" fill="#F4C6DC"/>
<path d="M167.32 80.0186L158.41 84.6149C158.41 84.6149 160.783 85.6267 165.021 83.3961C166.417 82.6577 167.751 81.8205 169.011 80.8919L167.32 80.0186Z" fill="white"/>
<path d="M220.01 121.341L216.766 119.386H220.708L220.01 121.341Z" fill="#4C4C4C"/>
<path d="M209.646 121.91L206.068 121.96V128.803L209.646 130.733V121.91Z" fill="#352C4F"/>
<path d="M222.515 116.98L209.669 123.903L206.072 121.957L218.913 115.039L222.515 116.98Z" fill="#9C8BAF"/>
<path d="M209.648 123.907V130.728L212.854 129.017V123.622L222.494 118.443V116.98L209.648 123.907Z" fill="#352C4F"/>
<path d="M222.49 118.047V119.989L220.01 121.341V119.098L222.49 118.047Z" fill="#352C4F"/>
<path d="M162.105 89.7293C162.105 92.9879 156.775 95.6339 150.201 95.6339C143.627 95.6339 138.299 92.9895 138.299 89.7293C138.299 86.469 143.627 83.823 150.201 83.823C156.775 83.823 162.105 86.4674 162.105 89.7293Z" fill="#352C4F"/>
<path d="M162.105 78.6939H138.299V89.7293H162.105V78.6939Z" fill="#352C4F"/>
<path d="M142.566 87.5721C139.517 87.5721 137.131 86.2686 137.131 84.5986C137.131 82.9285 139.517 81.6235 142.566 81.6235C145.614 81.6235 148 82.9269 148 84.5953C148 86.2637 145.612 87.5721 142.566 87.5721ZM142.566 82.8063C140.108 82.8063 138.396 83.7513 138.396 84.5986C138.396 85.4458 140.108 86.3908 142.566 86.3908C145.024 86.3908 146.734 85.4474 146.734 84.5986C146.734 83.7497 145.022 82.8063 142.566 82.8063Z" fill="white"/>
<path d="M157.56 79.9257C154.513 79.9257 152.125 78.6222 152.125 76.9538C152.125 75.2854 154.513 73.9803 157.56 73.9803C160.607 73.9803 162.995 75.2838 162.995 76.9538C162.995 78.6239 160.608 79.9257 157.56 79.9257ZM157.56 75.1616C155.104 75.1616 153.392 76.105 153.392 76.9538C153.392 77.8027 155.104 78.7461 157.56 78.7461C160.016 78.7461 161.73 77.8011 161.73 76.9538C161.73 76.1066 160.018 75.1616 157.56 75.1616Z" fill="white"/>
<path d="M150.203 86.6727C156.777 86.6727 162.106 84.0291 162.106 80.768C162.106 77.507 156.777 74.8634 150.203 74.8634C143.628 74.8634 138.299 77.507 138.299 80.768C138.299 84.0291 143.628 86.6727 150.203 86.6727Z" fill="#352C4F"/>
<path d="M145.163 80.3884C145.431 80.4713 145.688 80.584 145.928 80.724C146.512 80.1974 147.249 79.8414 148.047 79.6999C148.845 79.5584 149.67 79.6374 150.421 79.9273C151.276 80.1428 152.031 80.616 152.568 81.2731C153.105 81.9302 153.395 82.7344 153.391 83.5607C154.015 82.4556 154.745 81.4053 155.571 80.4226C157.463 78.1269 158.785 76.3868 159.814 75.2251C156.945 73.5249 153.591 72.6757 150.194 72.7893C147 72.704 143.842 73.4366 141.062 74.9074C141.936 76.0267 142.801 77.2683 143.578 78.254C144.158 78.9807 144.696 79.6992 145.163 80.3884Z" fill="#757575"/>
<path d="M140.972 80.944L140.938 80.9C140.009 79.6275 139.192 78.5538 138.503 77.6267C138.371 77.9692 138.302 78.33 138.299 78.6939C138.332 79.2809 138.5 79.8543 138.792 80.3754C139.083 80.8966 139.491 81.3533 139.988 81.7147C140.276 81.4167 140.607 81.1574 140.972 80.944Z" fill="#757575"/>
<path d="M159.098 81.9411C158.81 82.3191 158.522 82.6857 158.225 83.0442C160.599 81.9639 162.098 80.4177 162.098 78.6939C162.094 78.5349 162.078 78.3764 162.049 78.2198C161.118 79.4825 159.959 80.8088 159.098 81.9411Z" fill="#757575"/>
<path d="M153.123 71.1958C151.332 70.8895 150.081 72.8659 149.575 77.0109C149.325 79.2805 149.274 81.5653 149.423 83.8426C149.57 83.8523 149.711 83.9034 149.826 83.9892C149.939 84.0134 150.043 84.0632 150.13 84.1342C151.39 82.5478 152.4 80.8014 153.13 78.9481C155.179 73.5372 155.817 71.6569 153.123 71.1958Z" fill="#FF7D43"/>
<path d="M152.1 73.5322C152.537 73.4245 153.001 73.4631 153.412 73.6414C153.788 73.8174 154.087 74.11 154.257 74.4691C153.502 74.2341 152.778 73.9198 152.1 73.5322Z" fill="#EA642F"/>
<path d="M150.012 78.1872C150.182 78.0571 150.39 77.9759 150.609 77.9534C150.828 77.9308 151.05 77.9679 151.247 78.0601C151.664 78.2201 152.047 78.4498 152.375 78.7379C152.375 78.7379 151.827 78.6125 150.92 78.4007L150.012 78.1872Z" fill="#EA642F"/>
<path d="M150.779 74.4935C150.95 74.3635 151.157 74.2822 151.376 74.2594C151.594 74.2366 151.816 74.2732 152.013 74.3648C152.431 74.5255 152.813 74.7557 153.143 75.0442L151.686 74.707L150.779 74.4935Z" fill="#EA642F"/>
<path d="M151.305 75.7155C151.7 75.6664 152.102 75.7409 152.447 75.9273C152.806 76.1036 153.092 76.3846 153.263 76.7273C152.568 76.4673 151.91 76.1274 151.305 75.7155Z" fill="#EA642F"/>
<path d="M150.115 79.3717C150.511 79.3227 150.912 79.3972 151.258 79.5835C151.617 79.7596 151.904 80.0406 152.075 80.3835C151.379 80.1236 150.721 79.7837 150.115 79.3717Z" fill="#EA642F"/>
<path d="M150.353 77.1184C149.978 76.9554 151.243 76.6524 151.983 77.0043C152.724 77.3563 152.829 77.6723 152.829 77.6723C151.975 77.6268 151.136 77.4392 150.353 77.1184Z" fill="#EA642F"/>
<path d="M144.325 70.0553C142.578 70.5539 142.453 72.8463 144.055 76.7355C145.104 79.1799 146.39 81.5299 147.898 83.7562C148.389 81.5077 148.483 79.1994 148.174 76.9229C147.3 71.2431 146.942 69.2977 144.325 70.0553Z" fill="#FF7D43"/>
<path d="M144.574 72.5612C144.91 72.2756 145.343 72.1095 145.797 72.0919C146.218 72.0868 146.628 72.2181 146.957 72.4634C146.169 72.5797 145.37 72.6125 144.574 72.5612Z" fill="#EA642F"/>
<path d="M145.025 77.5893C145.111 77.3993 145.254 77.2366 145.437 77.1209C145.62 77.0052 145.835 76.9415 146.056 76.9375C146.506 76.9008 146.959 76.94 147.394 77.0532C147.394 77.0532 146.846 77.1787 145.936 77.3791L145.025 77.5893Z" fill="#EA642F"/>
<path d="M143.875 73.9836C143.961 73.7933 144.104 73.6305 144.288 73.5148C144.471 73.3991 144.686 73.3356 144.907 73.3319C145.357 73.294 145.81 73.3332 146.244 73.4475C146.244 73.4475 145.697 73.573 144.787 73.7734L143.875 73.9836Z" fill="#EA642F"/>
<path d="M144.949 74.8406C145.276 74.6268 145.669 74.5202 146.067 74.5375C146.473 74.5389 146.866 74.6649 147.187 74.896C146.442 74.9641 145.69 74.9455 144.949 74.8406Z" fill="#EA642F"/>
<path d="M145.701 78.5978C146.028 78.3839 146.421 78.2768 146.819 78.2931C147.225 78.2949 147.618 78.4208 147.939 78.6516C147.194 78.7205 146.442 78.7024 145.701 78.5978Z" fill="#EA642F"/>
<path d="M144.801 76.4943C144.389 76.5155 145.358 75.6976 146.19 75.6911C147.022 75.6846 147.271 75.9192 147.271 75.9192C146.492 76.2473 145.655 76.4421 144.801 76.4943Z" fill="#EA642F"/>
<path d="M158.097 69.6724C157.912 69.5779 157.716 69.504 157.512 69.4524C156.931 69.7975 156.498 70.3216 156.289 70.9335C155.814 72.2989 153.202 80.1913 153 81.0972C152.762 82.1709 152.558 83.2527 152.4 84.1489C152.596 84.2719 152.829 84.3335 153.064 84.3248C154.53 84.3118 155.741 81.4817 156.754 78.3371C157.751 75.2316 159.94 70.6076 158.097 69.6724Z" fill="#AFAF00"/>
<path d="M156.288 70.9335C156.497 70.3216 156.93 69.7975 157.511 69.4525C155.691 68.9979 155.2 71.6569 152.894 77.951C152.219 79.7905 151.147 83.3277 152.397 84.1424C152.555 83.2462 152.759 82.1644 152.997 81.0906C153.201 80.1913 155.813 72.2989 156.288 70.9335Z" fill="#CEC919"/>
<path d="M145.919 80.724C145.68 80.584 145.423 80.4713 145.154 80.3884C145.319 80.6279 145.479 80.8674 145.622 81.0972C145.709 80.9647 145.809 80.8398 145.919 80.724Z" fill="#FF0029"/>
<path d="M140.972 80.944C140.607 81.1573 140.276 81.4167 139.988 81.7147C140.889 82.4318 141.915 83.0005 143.021 83.3961C142.279 82.6231 141.594 81.8038 140.972 80.944Z" fill="#FF0029"/>
<path d="M145.395 81.5224C145.456 81.3743 145.532 81.2319 145.622 81.0972C145.479 80.8674 145.318 80.6279 145.154 80.3884C144.171 80.0935 143.112 80.1021 142.135 80.4129C141.722 80.5431 141.328 80.7216 140.963 80.944C141.586 81.801 142.27 82.6175 143.012 83.388C143.985 83.7487 144.992 84.0241 146.02 84.2108C145.681 83.8484 145.446 83.4118 145.337 82.9417C145.227 82.4716 145.247 81.9833 145.395 81.5224Z" fill="#FF0029"/>
<path d="M143.744 81.1346C143.823 81.3595 143.615 81.6234 143.28 81.7277C143.148 81.7872 142.996 81.7973 142.856 81.7557C142.716 81.7142 142.599 81.6243 142.528 81.5045C142.45 81.2796 142.658 81.0157 142.993 80.9114C143.125 80.8519 143.277 80.8419 143.416 80.8834C143.556 80.9249 143.673 81.0148 143.744 81.1346Z" fill="#FF88A4"/>
<path d="M153.103 84.4145C153.17 84.3103 153.229 84.2014 153.278 84.0886C153.339 83.9163 153.379 83.7381 153.398 83.5574C153.245 83.8388 153.112 84.1289 152.998 84.4259L153.103 84.4145Z" fill="#FF0029"/>
<path d="M150.42 79.9273C149.67 79.6374 148.845 79.5584 148.046 79.6999C147.248 79.8415 146.512 80.1974 145.927 80.7241C145.816 80.8398 145.717 80.9647 145.63 81.0972C145.54 81.2319 145.464 81.3743 145.403 81.5224C145.254 81.9845 145.233 82.4743 145.342 82.946C145.452 83.4177 145.688 83.8557 146.029 84.2189C146.226 84.2548 146.422 84.2955 146.624 84.3264L146.775 84.3476C147.908 84.5159 149.053 84.5998 150.2 84.5985C151.135 84.5998 152.068 84.5454 152.996 84.4356C153.109 84.1386 153.243 83.8486 153.396 83.5672C153.401 82.7392 153.111 81.933 152.573 81.2745C152.035 80.6159 151.278 80.1422 150.42 79.9273Z" fill="#FF0029"/>
<path d="M151.218 81.41C151.145 81.5285 151.025 81.6162 150.885 81.655C150.744 81.6938 150.593 81.6808 150.462 81.6186C150.13 81.5094 149.927 81.2405 150.011 81.0157C150.085 80.8976 150.204 80.8103 150.344 80.7718C150.485 80.7333 150.636 80.7465 150.766 80.8088C151.099 80.9163 151.302 81.1868 151.218 81.41Z" fill="#FF88A4"/>
<path d="M161.216 74.7379C160.168 76.0609 155.891 81.1737 155.238 82.1953C154.879 82.8372 154.594 83.5128 154.389 84.2108C155.718 83.9752 157.009 83.5832 158.232 83.0442C158.522 82.6857 158.81 82.3191 159.105 81.9411C159.967 80.8104 161.127 79.4825 162.063 78.2198C163.317 76.5286 164.172 74.9611 163.356 74.1335C163.166 73.9314 162.936 73.7654 162.678 73.6447C162.09 73.8739 161.584 74.2528 161.216 74.7379Z" fill="#AFAF00"/>
<path d="M159.818 75.2251C158.789 76.3868 157.467 78.1269 155.575 80.4226C154.749 81.4053 154.019 82.4556 153.395 83.5607C153.376 83.7414 153.336 83.9196 153.274 84.0919C153.225 84.2046 153.167 84.3136 153.1 84.4177C153.542 84.3639 153.973 84.2923 154.389 84.214C154.594 83.5161 154.879 82.8404 155.238 82.1986C155.891 81.177 160.161 76.0642 161.216 74.7412C161.581 74.2587 162.084 73.8811 162.668 73.6512C161.852 73.2895 161.05 73.832 159.818 75.2251Z" fill="#CEC919"/>
<path d="M136.891 72.0887C135.095 72.9033 135.935 74.2068 138.501 77.6283C139.2 78.5554 140.007 79.6291 140.937 80.9016L140.97 80.9456C141.335 80.7232 141.729 80.5448 142.142 80.4145C142.808 80.2119 143.512 80.1425 144.209 80.2108C142.685 78.0927 141.022 75.8117 139.986 74.4707C139.301 73.3508 138.2 72.5036 136.891 72.0887Z" fill="#AFAF00"/>
<path d="M143.585 78.2556C142.808 77.278 141.945 76.0284 141.07 74.909C139.628 73.0614 138.152 71.5429 136.964 72.048C136.935 72.061 136.921 72.0773 136.893 72.0887C138.201 72.5032 139.302 73.3498 139.988 74.4691C141.024 75.8035 142.687 78.0894 144.211 80.2092C144.534 80.235 144.854 80.2951 145.163 80.3884C144.696 79.6992 144.158 78.9807 143.585 78.2556Z" fill="#CEC919"/>
<path d="M153.08 93.8954V93.915C153.08 98.6123 157.825 102.42 163.677 102.42C169.53 102.42 174.274 98.6123 174.274 93.915V93.8954H153.08Z" fill="#FE9380"/>
<path d="M174.265 93.6299C174.265 90.7264 169.521 88.3737 163.667 88.3737C157.813 88.3737 153.07 90.7264 153.07 93.6299C153.07 95.6144 155.285 97.3382 158.554 98.2343C159.911 96.97 161.75 96.2598 163.668 96.2598C165.586 96.2598 167.426 96.97 168.783 98.2343C172.049 97.3382 174.265 95.6144 174.265 93.6299Z" fill="white"/>
<path d="M163.666 96.2596C162.704 96.1603 161.731 96.2892 160.838 96.6345C159.944 96.9797 159.158 97.53 158.553 98.2343C161.898 99.1054 165.436 99.1054 168.781 98.2343C168.176 97.5299 167.39 96.9795 166.496 96.6343C165.601 96.289 164.628 96.1602 163.666 96.2596Z" fill="#FFB89F"/>
<path d="M169.152 95.4596C169.556 95.9484 169.089 96.9097 168.104 97.6168C167.119 98.3239 166.008 98.5032 165.604 98.0176C165.201 97.5321 165.667 96.5675 166.652 95.8604C167.638 95.1532 168.757 94.974 169.152 95.4596Z" fill="#AFAF00"/>
<path d="M168.699 94.907L165.16 97.4636L165.62 98.0171L169.158 95.4604L168.699 94.907Z" fill="#AFAF00"/>
<path d="M168.699 94.9056C169.101 95.3944 168.636 96.3557 167.651 97.0628C166.666 97.7699 165.555 97.9492 165.151 97.4636C164.747 96.9781 165.214 96.0119 166.199 95.3064C167.184 94.6009 168.296 94.4201 168.699 94.9056Z" fill="#CEC919"/>
<path d="M166.765 96.0331C166.765 96.0331 165.666 96.1308 166.044 95.6372C166.421 95.1435 166.765 96.0331 166.765 96.0331Z" fill="#EDE43E"/>
<path d="M166.614 96.5023C166.422 96.6653 166.16 96.9488 166.22 97.2307C166.279 97.5125 167.2 97.027 166.614 96.5023Z" fill="#EDE43E"/>
<path d="M167.59 95.7072C167.707 95.6164 167.846 95.5531 167.995 95.5228C168.144 95.4924 168.299 95.4959 168.446 95.5329C168.724 95.6584 167.988 96.3655 167.59 95.7072Z" fill="#EDE43E"/>
<path d="M166.928 96.1846C167 96.3901 167.146 96.5658 167.342 96.6815C167.62 96.7972 167.843 96.4942 167.705 96.328C167.469 96.0412 166.928 96.1846 166.928 96.1846Z" fill="#EDE43E"/>
<path d="M166.245 96.4078C166.245 96.4078 165.459 97.462 165.349 96.8054C165.262 96.2873 166.245 96.4078 166.245 96.4078Z" fill="#EDE43E"/>
<path d="M167.056 95.6779C167.056 95.6779 166.934 95.0588 167.339 94.974C167.745 94.8893 167.65 95.1842 167.056 95.6779Z" fill="#EDE43E"/>
<path d="M164.247 97.2942C164.247 97.9068 163.244 98.4054 162.007 98.4054C160.771 98.4054 159.77 97.9068 159.77 97.2942C159.77 96.6816 160.772 96.183 162.007 96.183C163.243 96.183 164.247 96.6799 164.247 97.2942Z" fill="#EA642F"/>
<path d="M164.249 96.5936H159.77V97.2942H164.249V96.5936Z" fill="#EA642F"/>
<path d="M164.247 96.5936C164.247 97.2062 163.244 97.7032 162.007 97.7032C160.771 97.7032 159.77 97.2062 159.77 96.5936C159.77 95.981 160.772 95.4824 162.007 95.4824C163.243 95.4824 164.247 95.9793 164.247 96.5936Z" fill="#FF7D43"/>
<path d="M161.118 95.8457C161.118 95.8457 161.277 96.1015 161.118 96.2742C160.865 96.427 160.582 96.5317 160.285 96.5822C160.663 96.6213 161.036 96.6872 161.403 96.7793C161.657 96.8787 162.008 97.4441 162.008 97.4441C162.008 97.4441 161.894 96.8038 162.317 96.8038C162.738 96.843 163.154 96.9255 163.556 97.0498C163.556 97.0498 162.682 96.5251 162.976 96.3378C163.119 96.2427 163.252 96.1334 163.37 96.0119C163.37 96.0119 162.572 96.1357 162.237 96.1748C161.839 96.1591 161.453 96.0456 161.118 95.8457Z" fill="#FFB3A9"/>
<path d="M160.406 96.5447C160.119 97.097 158.984 97.1377 157.871 96.6343C156.758 96.1308 156.087 95.2771 156.375 94.7248C156.664 94.1724 157.796 94.1317 158.91 94.6352C160.025 95.1386 160.692 95.9923 160.406 96.5447Z" fill="#EA642F"/>
<path d="M160.733 95.9135L156.701 94.0926L156.374 94.7231L160.405 96.544L160.733 95.9135Z" fill="#EA642F"/>
<path d="M160.735 95.9142C160.447 96.4665 159.313 96.5072 158.2 96.0038C157.087 95.5003 156.416 94.6449 156.703 94.0942C156.989 93.5435 158.125 93.5011 159.238 94.0046C160.351 94.508 161.021 95.3618 160.735 95.9142Z" fill="#FF7D43"/>
<path d="M158.267 93.9687C158.267 93.9687 158.288 94.2653 158.066 94.3549C157.767 94.3896 157.463 94.3691 157.172 94.2946C157.493 94.4827 157.799 94.6935 158.086 94.9251C158.225 95.1883 158.305 95.4757 158.32 95.7691C158.32 95.7691 158.515 95.1484 158.896 95.3194C159.257 95.5261 159.593 95.7692 159.897 96.0445C159.897 96.0445 159.357 95.2184 159.707 95.1663C159.88 95.1406 160.05 95.098 160.213 95.0392C160.213 95.0392 159.436 94.8257 159.114 94.728C158.685 94.596 158.267 93.9687 158.267 93.9687Z" fill="#FFB3A9"/>
<path d="M163.711 95.4139C163.537 96.007 162.438 96.2498 161.243 95.9565C160.048 95.6632 159.211 94.9447 159.379 94.3516C159.547 93.7586 160.652 93.5142 161.847 93.8091C163.042 94.104 163.877 94.8209 163.711 95.4139Z" fill="#AFAF00"/>
<path d="M159.57 93.674L159.379 94.3516L163.711 95.4141L163.902 94.7365L159.57 93.674Z" fill="#AFAF00"/>
<path d="M163.901 94.7362C163.726 95.3292 162.629 95.572 161.433 95.2787C160.236 94.9854 159.403 94.2669 159.57 93.6738C159.738 93.0808 160.842 92.8364 162.039 93.1313C163.235 93.4262 164.069 94.1431 163.901 94.7362Z" fill="#CEC919"/>
<path d="M161.764 93.9932C161.764 93.9932 161.013 93.2388 161.663 93.216C162.313 93.1932 161.764 93.9932 161.764 93.9932Z" fill="#EDE43E"/>
<path d="M161.274 94.1691C161.128 94.1284 160.974 94.1208 160.824 94.1472C160.674 94.1736 160.533 94.233 160.413 94.3207C160.208 94.5341 161.183 94.917 161.274 94.1691Z" fill="#EDE43E"/>
<path d="M162.542 94.4021C162.788 94.482 163.148 94.6465 163.213 94.93C163.277 95.2135 162.226 95.0979 162.542 94.4021Z" fill="#EDE43E"/>
<path d="M161.737 94.205C161.604 94.3822 161.542 94.5973 161.562 94.8127C161.574 94.8667 161.603 94.9159 161.646 94.9531C161.69 94.9904 161.745 95.0137 161.803 95.0197C161.862 95.0257 161.921 95.0141 161.972 94.9865C162.023 94.9589 162.063 94.9169 162.086 94.8665C162.188 94.5178 161.737 94.205 161.737 94.205Z" fill="#EDE43E"/>
<path d="M161.131 93.8433C161.131 93.8433 159.757 93.9035 160.249 93.4229C160.64 93.0287 161.131 93.8433 161.131 93.8433Z" fill="#EDE43E"/>
<path d="M162.24 93.985C162.24 93.985 162.693 93.5174 163.011 93.7667C163.329 94.016 163.025 94.1284 162.24 93.985Z" fill="#EDE43E"/>
<path d="M181.364 94.1301C181.364 94.7443 180.361 95.2412 179.126 95.2412C177.891 95.2412 176.887 94.7443 176.887 94.1301C176.887 93.5158 177.889 93.0189 179.126 93.0189C180.363 93.0189 181.364 93.5174 181.364 94.1301Z" fill="#EA642F"/>
<path d="M181.366 93.4294H176.887V94.1301H181.366V93.4294Z" fill="#EA642F"/>
<path d="M179.126 94.5406C180.363 94.5406 181.366 94.0431 181.366 93.4295C181.366 92.8158 180.363 92.3183 179.126 92.3183C177.889 92.3183 176.887 92.8158 176.887 93.4295C176.887 94.0431 177.889 94.5406 179.126 94.5406Z" fill="#FF7D43"/>
<path d="M178.24 92.6816C178.24 92.6816 178.399 92.939 178.24 93.1117C177.986 93.2638 177.703 93.3684 177.406 93.4197C177.784 93.458 178.158 93.5239 178.524 93.6168C178.778 93.7146 179.13 94.2799 179.13 94.2799C179.13 94.2799 179.015 93.6413 179.438 93.6413C179.859 93.6805 180.275 93.763 180.677 93.8873C180.677 93.8873 179.803 93.3626 180.097 93.1736C180.24 93.078 180.373 92.9688 180.493 92.8478C180.493 92.8478 179.693 92.9716 179.358 93.0107C178.96 92.9958 178.574 92.8822 178.24 92.6816Z" fill="#FFB3A9"/>
<path d="M182.695 92.2645C183.932 92.2645 184.934 91.767 184.934 91.1533C184.934 90.5396 183.932 90.0421 182.695 90.0421C181.458 90.0421 180.455 90.5396 180.455 91.1533C180.455 91.767 181.458 92.2645 182.695 92.2645Z" fill="#EA642F"/>
<path d="M184.934 90.4527H180.455V91.1533H184.934V90.4527Z" fill="#EA642F"/>
<path d="M184.934 90.4511C184.934 91.0653 183.932 91.5623 182.695 91.5623C181.458 91.5623 180.455 91.0653 180.455 90.4511C180.455 89.8368 181.458 89.3415 182.695 89.3415C183.932 89.3415 184.934 89.8385 184.934 90.4511Z" fill="#FF7D43"/>
<path d="M181.808 89.7032C181.808 89.7032 181.967 89.9606 181.808 90.1334C181.554 90.2854 181.271 90.39 180.975 90.4413C181.352 90.4805 181.726 90.5464 182.093 90.6384C182.346 90.7362 182.697 91.3032 182.697 91.3032C182.697 91.3032 182.584 90.6629 183.006 90.6629C183.428 90.7021 183.843 90.7846 184.245 90.9089C184.245 90.9089 183.371 90.3843 183.665 90.1953C183.809 90.1005 183.941 89.9912 184.06 89.8694C184.06 89.8694 183.261 89.9932 182.926 90.0323C182.529 90.0168 182.143 89.9032 181.808 89.7032Z" fill="#FFB3A9"/>
<path d="M184.408 111.077C184.408 112.1 182.738 112.929 180.675 112.929C178.611 112.929 176.941 112.1 176.941 111.077C176.941 110.053 178.613 109.224 180.675 109.224C182.736 109.224 184.408 110.053 184.408 111.077Z" fill="#FFC249"/>
<path d="M184.408 99.3911H176.941V111.075H184.408V99.3911Z" fill="#FFC249"/>
<path d="M184.408 99.383C184.408 100.406 182.738 101.235 180.675 101.235C178.611 101.235 176.941 100.406 176.941 99.383C176.941 98.3598 178.613 97.5321 180.675 97.5321C182.736 97.5321 184.408 98.3695 184.408 99.383Z" fill="#FFD892"/>
<path d="M182.784 99.2102C182.784 99.787 181.84 100.256 180.675 100.256C179.51 100.256 178.566 99.787 178.566 99.2102C178.566 98.6335 179.512 98.1642 180.675 98.1642C181.839 98.1642 182.784 98.6318 182.784 99.2102Z" fill="#FFC249"/>
<path d="M182.784 98.2636H178.566V99.2102H182.784V98.2636Z" fill="#FFC249"/>
<path d="M182.784 98.2636C182.784 98.8404 181.84 99.3097 180.675 99.3097C179.51 99.3097 178.566 98.8404 178.566 98.2636C178.566 97.6868 179.512 97.2176 180.675 97.2176C181.839 97.2176 182.784 97.6852 182.784 98.2636Z" fill="#FFE5C5"/>
<path d="M181.733 98.2636C181.733 98.552 181.26 98.7866 180.685 98.7866C180.11 98.7866 179.637 98.552 179.637 98.2636C179.637 97.9752 180.108 97.7406 180.685 97.7406C181.261 97.7406 181.733 97.9736 181.733 98.2636Z" fill="#FFC249"/>
<path d="M179.619 98.2636L180.143 96.719H181.191L181.716 98.2636H179.619Z" fill="#FFC249"/>
<path d="M181.21 96.719C181.21 96.864 180.974 96.9813 180.686 96.9813C180.398 96.9813 180.162 96.864 180.162 96.719C180.162 96.574 180.4 96.4583 180.686 96.4583C180.973 96.4583 181.21 96.574 181.21 96.719Z" fill="#FFE5C5"/>
</svg>
