<svg width="288" height="254" viewBox="0 0 288 254" fill="none" xmlns="http://www.w3.org/2000/svg">
<path d="M288 113.284C288 180.509 199.933 215.477 170.717 235.006C141.5 254.535 40 199.59 40 132.365C40 65.1395 133.5 -11.4559 149.75 1.4313C166 14.3185 288 46.0588 288 113.284Z" fill="#D2F2D3"/>
<path d="M1.08246 250.426C0.249122 264.093 5.38309 191.526 32.5831 205.926C59.7831 220.326 79.2499 190.593 85.5832 173.926C88.0832 169.259 94.3832 161.326 99.5832 166.926" stroke="black" stroke-width="2" stroke-dasharray="13 5"/>
<g clip-path="url(#clip0_756_3)">
<path d="M144.272 64.7317C144.242 64.7923 143.285 69.8884 141.821 70.154C140.357 70.4196 138.447 68.5103 138.447 68.2486C140.319 66.9655 142.264 65.7913 144.272 64.7317Z" fill="#FED8A7"/>
<path d="M174.025 79.8989C174.146 82.8254 170.185 83.827 169.479 86.4737C169.236 87.1563 169.168 87.889 169.281 88.6048C169.603 89.4775 170.234 89.6877 170.806 89.2996C170.806 89.2996 170.515 90.1595 171.177 90.2988C171.367 90.3239 171.561 90.2842 171.726 90.186C171.891 90.0877 172.019 89.9367 172.087 89.7573C172.049 90.0346 172.099 90.3172 172.231 90.5643C172.311 90.6735 172.416 90.7621 172.537 90.8229C172.659 90.8837 172.792 90.915 172.928 90.9141C173.064 90.9132 173.197 90.8802 173.318 90.8179C173.438 90.7555 173.542 90.6655 173.621 90.5553C173.844 91.6305 174.934 91.3597 175.282 90.6326C175.669 89.8166 175.213 88.7453 175.743 87.9963C176.375 87.1145 176.985 87.4045 177.123 86.1914C177.233 85.2142 177.082 84.1842 177.141 83.207C177.229 83.1696 177.319 83.1451 177.399 83.1038C177.322 83.2985 177.308 83.5847 177.221 83.7716L174.025 79.8989Z" fill="#FED8A7"/>
<path d="M205.379 58.3528V78.6884L222.999 68.5193V48.1851L205.379 58.3528Z" fill="#CC9439"/>
<path d="M136.25 64.0278C135.888 63.8177 135.297 64.1567 134.931 64.7872C134.564 65.4176 134.562 66.0982 134.922 66.3071C135.282 66.5159 135.871 66.1782 136.237 65.5465C136.604 64.9148 136.609 64.2367 136.25 64.0278Z" fill="#000405"/>
<path d="M136.244 64.0193L134.924 66.3032L145.278 72.2813L146.598 69.9973L136.244 64.0193Z" fill="#000405"/>
<path d="M207.965 89.8385L212.193 92.2093L196.407 118.996L192.314 116.71L207.965 89.8385Z" fill="#0A2B38"/>
<path d="M207.965 89.8385C203.708 87.3633 196.762 91.3752 192.438 98.7919C188.115 106.209 188.066 114.238 192.316 116.711C196.566 119.185 203.516 115.175 207.842 107.752C212.169 100.329 212.215 92.3073 207.965 89.8385Z" fill="#0A2B38"/>
<path d="M212.056 92.1204C207.8 89.6464 200.855 93.6571 196.531 101.078C192.207 108.498 192.157 116.519 196.402 118.997C200.647 121.475 207.605 117.462 211.93 110.041C216.255 102.621 216.308 94.593 212.056 92.1204Z" fill="#000405"/>
<path d="M209.027 97.1288C206.358 95.5818 201.997 98.0931 199.287 102.746C196.577 107.398 196.544 112.43 199.208 113.981C201.872 115.532 206.234 113.017 208.947 108.364C211.659 103.711 211.689 98.6797 209.027 97.1288Z" fill="#7B8A8E"/>
<path d="M206.59 101.312C205.244 100.53 203.049 101.796 201.688 104.148C200.327 106.501 200.305 109.028 201.649 109.808C202.994 110.588 205.188 109.322 206.551 106.978C207.914 104.634 207.933 102.092 206.59 101.312Z" fill="#3F4A4C"/>
<path d="M152.648 115.122C153.927 114.06 177.765 108.071 176.485 100.825C175.205 93.5784 167.327 86.515 169.455 85.668C171.583 84.821 193.091 75.9553 198.886 76.5019C207.825 77.3476 219.118 81.7876 220.117 91.1058C220.267 92.5058 202.166 104.94 199.167 107.465C198.532 108.002 196.255 108.515 195.926 109.373C194.846 112.194 196.667 116.479 193.623 118.443C183.101 125.237 170.256 131.826 165.83 132.299C157.901 133.143 154.972 122.535 152.617 114.226L152.648 115.122Z" fill="#3C8F7C"/>
<path d="M199.316 111.138C199.316 111.138 196.958 109.774 195.926 109.373L163.378 128.117C160.486 128.676 160.436 132.99 161.98 132.348C163.524 131.706 199.316 111.138 199.316 111.138Z" fill="black"/>
<path d="M181.526 102.872C181.526 102.872 179.168 101.508 178.136 101.107L145.589 119.851C142.695 120.41 142.647 124.722 144.191 124.08C145.735 123.438 181.526 102.872 181.526 102.872Z" fill="#E699FF"/>
<path d="M176.316 91.1058C173.513 89.7619 170.637 88.5732 167.703 87.5451C169.192 87.7165 172.605 93.5475 173.17 100.437C173.847 108.622 157.109 113.54 152.648 115.123C149.165 119.31 150.393 116.244 150.474 116.445V117.814C150.843 119.118 153.37 116.884 153.784 118.249C154.795 120.877 155.966 123.44 157.293 125.924C157.927 126.322 170.016 121.774 179.699 115.306C189.383 108.838 184.092 95.565 176.316 91.1058Z" fill="black"/>
<path d="M199.166 107.465C200.788 107.83 202.483 107.667 204.006 107.001C209.75 103.95 218.036 94.6987 218.782 93.3928C219.734 91.7285 219.239 86.3925 209.426 83.5679C201.184 81.1933 180.61 83.1425 199.166 107.465Z" fill="#2B1722"/>
<path d="M202.029 107.603C203.029 108.913 218.195 96.8813 219.136 95.235C220.076 93.5887 222.534 87.8055 212.838 85.0118C204.69 82.6642 183.687 83.5628 202.029 107.603Z" fill="black"/>
<path d="M205.379 38.0134L222.999 48.1838L205.379 58.3515L187.757 48.1838L205.379 38.0134Z" fill="#E0A44C"/>
<path d="M205.379 58.3528V78.6884L187.757 68.5193V48.1851L205.379 58.3528Z" fill="#B07D2C"/>
<path d="M166.355 82.3612C166.165 83.5721 166.159 84.8047 166.337 86.0174C166.724 88.4668 172.887 90.8222 174.453 91.8393C175.254 92.2485 176.169 92.3783 177.052 92.208C182.147 91.0271 197.965 81.8095 201.124 78.2217C201.736 77.6663 202.112 76.8988 202.176 76.0756C202.241 75.2525 201.989 74.4358 201.471 73.7921C200.629 72.5119 193.697 68.2911 190.249 68.2911C188.02 68.2885 167.969 78.5517 166.355 82.3612Z" fill="#93651C"/>
<path d="M169.75 37.8316C166.643 44.2621 161.169 55.1376 157.496 54.6696C156.556 54.5485 154.539 50.5275 155.607 48.497C158.1 43.7438 160.399 37.2812 162.337 33.2602C165.445 26.8311 167.574 26.4611 169.845 27.5556C172.115 28.6501 172.855 31.4025 169.75 37.8316Z" fill="#6FCF97"/>
<path d="M159.364 54.6813C154.786 59.294 145.149 66.445 143.586 64.8336C143.002 64.2302 140.817 62.5349 142.029 60.8539C143.937 58.2136 151.816 53.5236 155.604 48.4971C155.873 48.1494 156.214 47.8641 156.603 47.6607C156.993 47.4574 157.422 47.3409 157.861 47.3192C158.3 47.2975 158.739 47.3711 159.146 47.5351C159.554 47.6991 159.922 47.9494 160.223 48.2689C161.785 49.8816 162.602 51.4209 159.364 54.6813Z" fill="#6FCF97"/>
<path d="M158.616 107.5C159.39 107.659 159.811 108.684 160.137 109.291C160.42 109.762 160.54 110.313 160.478 110.859C160.417 111.405 160.176 111.916 159.795 112.312C158.824 113.433 156.842 113.428 156.08 114.192C154.218 115.589 152.239 116.823 150.166 117.882C149.049 118.484 146.586 118.551 145.82 117.577C145.585 117.092 145.474 116.557 145.497 116.02C145.519 115.482 145.675 114.958 145.949 114.495C147.019 113.496 148.017 112.423 148.935 111.283C149.516 110.761 150.042 110.182 150.504 109.553C150.826 109.127 152.02 107.057 152.739 107.576L158.616 107.5Z" fill="#1E160D"/>
<path d="M178.91 79.2672C175.524 80.3463 172.574 82.3123 169.284 83.644C165.38 85.2258 161.472 88.3173 157.131 88.5068C156.141 88.5326 155.162 88.2842 154.304 87.7892C153.445 87.2941 152.741 86.5717 152.267 85.7015C151.718 84.46 150.673 81.7205 151.583 81.4472C152.534 81.1572 153.691 79.6424 154.478 79.2556C155.942 78.5453 164.432 73.8346 167.119 72.2296C169.312 70.9211 170.731 70.1991 173.222 68.8609C173.222 68.8609 177.545 65.7875 179.756 71.5785C181.967 77.3695 179.399 79.1138 178.91 79.2672Z" fill="#313131"/>
<path d="M189.588 85.3264C186.202 86.4067 183.253 88.3701 179.961 89.7096C176.059 91.2901 172.152 94.3816 167.81 94.5724C166.82 94.5973 165.842 94.3483 164.984 93.8528C164.126 93.3573 163.422 92.6347 162.949 91.7645C162.398 90.5244 161.353 87.7848 162.264 87.5102C163.212 87.2228 164.37 85.7054 165.157 85.3186C166.622 84.6083 175.111 79.8951 177.798 78.2913C179.991 76.9815 181.41 76.2622 183.9 74.9227C183.9 74.9227 192.876 70.0393 195.089 75.8251C197.303 81.611 190.078 85.1678 189.588 85.3264Z" fill="#313131"/>
<path d="M161.246 85.209C161.057 83.0308 161.021 80.842 161.138 78.6587C161.107 76.8113 151.334 78.8083 151.158 83.2791C151.158 83.2791 152.964 100.702 151.685 106.211L151.519 107.13C151.439 107.377 151.43 107.641 151.494 107.892C151.558 108.143 151.692 108.37 151.88 108.548C152.529 109.066 153.279 109.442 154.082 109.653C154.968 109.917 155.906 109.959 156.812 109.776C157.719 109.593 158.566 109.19 159.28 108.603C162.222 105.453 162.393 92.7727 161.246 85.209Z" fill="#313131"/>
<path d="M171.912 114.898C172.686 115.051 173.107 116.081 173.433 116.686C173.74 117.15 173.873 117.706 173.811 118.259C173.748 118.811 173.494 119.324 173.091 119.708C172.69 120.094 170.143 120.825 169.376 121.588C167.829 122.86 166.191 124.017 164.475 125.05C163.702 125.565 162.835 125.923 161.925 126.103C161.305 126.196 160.673 126.144 160.077 125.951C159.481 125.757 158.939 125.428 158.492 124.989C157.939 124.283 157.903 123.482 158.363 123.084C159.572 121.857 160.696 120.551 161.73 119.174C162.479 118.492 163.169 117.748 163.794 116.95C164.116 116.522 165.308 114.453 166.029 114.974L171.912 114.898Z" fill="white"/>
<path d="M171.946 92.5174C171.579 90.3624 171.364 88.1844 171.301 85.9993C171.119 84.1597 161.24 85.0969 161.418 89.5678C161.418 89.5678 164.965 108.636 164.143 114.234L164.048 115.159C163.988 115.413 164.001 115.678 164.086 115.924C164.171 116.17 164.323 116.387 164.527 116.55C165.216 117.009 165.993 117.321 166.808 117.468C167.714 117.658 168.652 117.624 169.541 117.367C170.43 117.11 171.242 116.64 171.906 115.996C174.583 112.614 173.709 99.9612 171.946 92.5174Z" fill="#313131"/>
<path d="M179.204 30.1314C182.626 31.6209 185.755 33.7085 188.444 36.2962C190.4 38.5136 190.636 43.758 190.617 44.449C190.537 46.6883 194.676 65.2719 194.676 67.3217C194.676 69.2232 195.262 74.9008 195.089 75.82C194.513 78.8689 186.55 78.2616 185.02 78.1714C180.093 77.8788 173.903 74.1543 174.413 71.7474C175.883 64.8336 167.539 49.1803 166.905 46.7231C166.27 44.2659 161.468 31.6397 165.26 28.2878C166.444 27.4052 167.882 26.929 169.36 26.9303C173.557 27.1327 178.5 29.9844 179.204 30.1314Z" fill="#90EA93"/>
<path d="M176.094 28.0132C175.992 28.1422 171.551 27.9088 168.86 30.9681C166.17 34.0273 166.907 33.5541 166.907 33.5541L168.802 32.9366C169.273 34.8155 169.962 36.6327 170.856 38.3512L177.963 36.9112L178.537 40.392C178.537 40.392 184.387 33.9267 183.61 32.2598C181.741 28.2479 177.095 26.7576 176.094 28.0132Z" fill="#3C8F7C"/>
<path d="M173.822 28.9892C173.822 28.9892 170.994 31.1098 170.845 31.7996C170.716 32.3913 170.856 38.3486 170.856 38.3486C170.874 38.0315 174.906 37.6795 178.616 34.9362C179.021 34.6371 183.094 31.6113 178.616 29.5358L173.822 28.9892Z" fill="#FCCB95"/>
<path d="M178.537 34.9967C176.89 35.1349 175.231 34.9599 173.649 34.4811C173.025 34.2458 172.455 33.8871 171.973 33.4263C171.492 32.9655 171.108 32.4122 170.846 31.7996V31.8099C170.1 33.9266 170.105 36.2354 170.861 38.3486C170.861 38.3486 170.855 38.3589 170.861 38.3486C173.66 37.889 176.299 36.7367 178.537 34.9967Z" fill="#FCCB95"/>
<path d="M179.793 22.8475C179.636 24.6276 179.617 26.4171 179.735 28.2002C179.944 29.1172 180.088 30.0477 180.166 30.9848C180.166 32.7897 178.209 33.5567 177.216 34.0672C176.313 34.5378 172.58 33.2937 172.796 32.0149C172.81 30.8277 172.915 29.6434 173.11 28.4722C173.505 27.3493 174.564 26.7395 174.564 25.5638L179.793 22.8475Z" fill="#FCCB95"/>
<path d="M169.387 15.418C169.278 16.4999 169.038 17.5647 168.674 18.5893C168.567 18.8473 168.515 19.1242 168.52 19.4032C168.525 19.6821 168.587 19.957 168.702 20.2111C169.053 21.1552 169.063 22.1923 168.729 23.1427C168.533 24.3822 168.662 25.6514 169.104 26.8259C169.362 27.7619 169.491 28.868 170.338 29.4442C172.432 30.8817 174.814 29.3862 176.959 28.6707C179.079 27.9604 178.777 24.8986 179.458 23.1543C180.685 20.0074 179.863 15.5688 176.391 14.1494C174.573 13.4158 172.567 13.2826 170.668 13.7691C170.109 13.9754 168.997 15.1872 169.507 15.7957L169.387 15.418Z" fill="#FED8A7"/>
<path d="M181.111 10.7008C179.07 8.84313 174.941 9.41941 171.565 10.9587C171.017 11.2972 170.547 11.748 170.186 12.2813C169.824 12.8145 169.58 13.4183 169.469 14.0527C169.091 14.6973 170.906 16.069 171.375 16.3165C172.331 16.7742 173.374 17.0204 174.434 17.0385C175.095 17.0792 175.758 17.0714 176.418 17.0153C176.897 16.922 177.382 16.866 177.869 16.8477C178.878 16.956 178.884 18.2954 179.06 19.0934C179.254 19.7255 179.397 20.3722 179.487 21.0272C179.51 21.3546 178.923 24.9875 179.435 25.0829C180.143 25.2119 182.982 21.8832 183.176 20.0178C183.309 18.784 184.719 13.9844 181.111 10.7008Z" fill="url(#paint0_linear_756_3)"/>
<path d="M181.147 22.8797C180.673 24.04 179.881 24.8135 179.368 24.6124C178.998 24.3294 178.738 23.9269 178.632 23.4735C178.526 23.0202 178.581 22.5442 178.787 22.1269C179.257 20.9666 180.564 20.1931 181.073 20.4032C181.583 20.6134 181.616 21.7182 181.147 22.8797Z" fill="#FED8A7"/>
<path d="M190.288 46.4485C189.412 53.539 187.439 68.1235 184.936 67.8141C183.997 67.6994 181.085 61.4469 181.445 59.1766C182.281 53.8755 181.251 48.9186 181.798 44.4903C182.677 37.3998 184.575 36.3684 187.076 36.6804C189.578 36.9924 191.164 39.3619 190.288 46.4485Z" fill="#6FCF97"/>
<path d="M169.58 13.1941C169.58 13.1941 170.612 9.94668 172.577 9.14352C174.911 8.18823 178.422 7.66868 179.551 8.23334C180.366 8.53718 181.108 9.00792 181.73 9.61535C182.352 10.2228 182.84 10.9535 183.163 11.7606C183.683 13.1644 183.819 14.6813 183.559 16.1554C183.566 16.2182 183.557 16.2818 183.535 16.3409C183.513 16.4001 183.477 16.4531 183.43 16.4957C182.537 17.2692 179.302 19.6349 176.913 19.0651C175.774 18.7958 174.62 18.5935 173.458 18.4591L169.58 13.1941Z" fill="#3C8F7C"/>
<path d="M169.744 13.1941C169.744 13.1941 170.186 12.6062 173.007 14.13C174.813 15.1021 178.047 18.5597 177.348 19.2868C176.187 20.5115 173.116 20.6366 171.475 19.9546C169.488 19.1269 168.614 15.6113 165.478 16.0097C163.217 16.2985 167.462 13.6299 169.58 13.1915L169.744 13.1941Z" fill="white"/>
<path d="M146.599 69.9929C146.239 69.7814 145.65 70.1218 145.282 70.7522C144.914 71.3826 144.912 72.062 145.272 72.2721C145.631 72.4823 146.221 72.1432 146.589 71.5115C146.956 70.8798 146.964 70.2017 146.599 69.9929Z" fill="#000405"/>
<path d="M148.539 68.0307C147.327 67.3243 145.345 68.4691 144.113 70.582C142.881 72.695 142.866 74.9833 144.079 75.6885C145.291 76.3936 147.271 75.2501 148.504 73.1359C149.737 71.0216 149.75 68.7346 148.539 68.0307Z" fill="black"/>
<path d="M138.117 82.3716C139.306 80.2418 154.241 84.3737 157.861 88.2103C161.482 92.0469 162.995 103.401 161.487 107.309C155.728 122.233 162.629 129.844 166.604 129.598L199.316 111.138C198.075 112.823 196.958 114.596 195.977 116.443C194.279 119.816 158.504 142.387 149.872 141.301C146.085 140.826 126.266 135.249 123.893 123.502C120.325 105.815 137.398 83.6504 138.117 82.3716Z" fill="#3C8F7C"/>
<path d="M136.476 131.11L140.702 133.482L124.916 160.268L120.822 157.982L136.476 131.11Z" fill="#0A2B38"/>
<path d="M136.476 131.112C132.219 128.636 125.272 132.647 120.948 140.068C116.624 147.488 116.574 155.509 120.819 157.987C125.064 160.465 132.021 156.452 136.348 149.029C140.676 141.606 140.726 133.583 136.476 131.112Z" fill="#0A2B38"/>
<path d="M136.945 133.065C135.123 133.252 132.085 135.112 129.352 136.819C127.665 138.455 126.214 140.318 125.041 142.353C120.722 149.776 120.668 157.796 124.912 160.273C129.156 162.749 136.113 158.736 140.44 151.316C142.76 147.611 143.876 143.279 143.634 138.915C141.919 136.948 139.447 132.813 136.945 133.065Z" fill="#000405"/>
<path d="M137.651 138.406C134.984 136.859 130.624 139.37 127.914 144.023C125.204 148.675 125.17 153.707 127.835 155.261C130.5 156.814 134.861 154.296 137.572 149.644C140.284 144.991 140.316 139.959 137.651 138.406Z" fill="#7B8A8E"/>
<path d="M135.216 142.588C133.873 141.807 131.675 143.074 130.314 145.424C128.953 147.774 128.932 150.304 130.277 151.085C131.621 151.866 133.816 150.601 135.178 148.249C136.54 145.896 136.557 143.368 135.216 142.588Z" fill="#3F4A4C"/>
<path d="M116.006 134.721C116.13 135.627 116.455 136.493 116.956 137.257C117.457 138.021 118.123 138.664 118.904 139.138C119.685 139.613 120.563 139.907 121.472 140C122.382 140.092 123.3 139.981 124.161 139.674C126.433 139.085 133.667 133.397 136.948 133.065C140.23 132.732 143.463 139.954 145.009 139.917C145.783 139.894 141.023 137.453 138.66 126.123C138.66 126.123 132.17 119.229 128.083 120.017C122.558 121.082 115.814 127.096 116.006 134.721Z" fill="black"/>
<path d="M146.506 83.4893C146.506 83.4893 136.838 94.1418 135.114 104.413C135.114 104.413 133.953 108.39 137.215 109.373C137.684 109.564 138.192 109.639 138.696 109.592C139.2 109.545 139.685 109.377 140.11 109.103C140.536 108.829 140.889 108.456 141.139 108.017C141.39 107.577 141.531 107.084 141.55 106.579C144.423 97.3106 151.763 86.8076 152.957 85.4978L146.506 83.4893Z" fill="black"/>
<path d="M140.467 79.9969C140.467 80.1374 140.243 88.365 146.029 87.4741C151.816 86.5833 163.848 87.3452 164.293 85.8872C164.738 84.4291 164.493 76.5793 164.493 76.5793C164.939 75.9115 152.606 68.0062 151.723 68.451C150.839 68.8958 139.847 74.3812 140.471 79.2685L140.467 79.9969Z" fill="black"/>
<path d="M143.461 75.6343C142.151 75.6332 140.862 75.9702 139.72 76.6128C141.814 75.5698 145.113 77.5243 147.181 81.0772C149.265 84.6573 149.322 88.5197 147.335 89.7934C148.48 89.1321 149.43 88.1812 150.091 87.0364C150.752 85.8916 151.1 84.5931 151.1 83.2714C151.1 82.2687 150.902 81.2757 150.519 80.3492C150.135 79.4227 149.572 78.5809 148.863 77.8717C148.154 77.1625 147.311 76.5999 146.385 76.216C145.458 75.8321 144.464 75.6345 143.461 75.6343Z" fill="#595959"/>
<path d="M139.575 76.6889C141.657 75.477 145.063 77.4417 147.186 81.0721C149.309 84.7024 149.33 88.6357 147.248 89.8475C145.166 91.0594 141.76 89.096 139.637 85.4643C137.514 81.8327 137.492 77.8994 139.575 76.6889Z" fill="#7B8A8E"/>
<path d="M140.37 77.9677C142.047 76.9905 144.793 78.5736 146.498 81.5027C148.203 84.4317 148.225 87.5979 146.549 88.5738C144.872 89.5497 142.124 87.9679 140.419 85.0376C138.714 82.1073 138.693 78.9449 140.37 77.9677Z" fill="#FFFAF4"/>
<path d="M167.302 79.0932C166.09 78.3906 164.108 79.5315 162.877 81.6458C161.645 83.76 161.629 86.047 162.842 86.7509C164.054 87.4548 166.033 86.3139 167.267 84.1996C168.502 82.0854 168.512 79.801 167.302 79.0932Z" fill="black"/>
<path d="M164.493 76.5806C164.745 77.1818 165.128 77.7193 165.614 78.154C166.1 78.5886 166.676 78.9095 167.302 79.0932C169.22 79.4503 162.842 86.7509 162.842 86.7509C162.842 86.7509 160.558 85.2658 159.013 86.0754L164.493 76.5806Z" fill="black"/>
<path d="M176.734 87.1145C176.374 86.9018 175.783 87.2434 175.417 87.8725C175.05 88.5016 175.046 89.1823 175.406 89.3912C175.766 89.6 176.356 89.2623 176.723 88.6331C177.091 88.004 177.095 87.3233 176.734 87.1145Z" fill="#000405"/>
<path d="M166.383 81.1481C166.024 80.9393 165.433 81.2771 165.068 81.9075C164.703 82.5379 164.695 83.2173 165.056 83.4261C165.417 83.635 166.006 83.2972 166.372 82.6681C166.738 82.039 166.743 81.357 166.383 81.1481Z" fill="#000405"/>
<path d="M166.383 81.1389L165.062 83.4223L175.41 89.4037L176.732 87.1204L166.383 81.1389Z" fill="#000405"/>
<path d="M151.716 68.4523C150.638 68.595 149.542 68.4495 148.539 68.0307C146.656 67.0445 146.31 73.0585 146.31 73.0585L151.716 68.4523Z" fill="black"/>
<path d="M147.792 69.5881C147.711 69.5877 147.632 69.555 147.574 69.497C147.517 69.439 147.484 69.3605 147.484 69.2786L147.478 66.7248L140.306 50.454C140.273 50.379 140.272 50.294 140.302 50.2179C140.332 50.1417 140.391 50.0806 140.466 50.0479C140.541 50.0153 140.626 50.0138 140.702 50.0437C140.778 50.0737 140.839 50.1327 140.872 50.2078L148.096 66.5946L148.103 69.2774C148.104 69.3588 148.072 69.437 148.015 69.4952C147.958 69.5533 147.88 69.5867 147.799 69.5881H147.792Z" fill="#231F20"/>
<path d="M164.907 79.4812C164.825 79.4812 164.746 79.4488 164.688 79.391C164.63 79.3333 164.598 79.2549 164.597 79.1731V76.1861L171.805 70.2558C171.836 70.2299 171.872 70.2103 171.91 70.1983C171.949 70.1863 171.99 70.1821 172.03 70.186C172.07 70.1898 172.109 70.2016 172.145 70.2207C172.18 70.2398 172.212 70.2658 172.237 70.2971C172.263 70.3282 172.283 70.3642 172.295 70.4029C172.307 70.4416 172.311 70.4823 172.307 70.5226C172.304 70.563 172.292 70.6022 172.273 70.6381C172.254 70.6739 172.228 70.7057 172.197 70.7315L165.215 76.4826V79.1783C165.213 79.259 165.18 79.3358 165.123 79.3924C165.065 79.449 164.988 79.4809 164.907 79.4812Z" fill="#231F20"/>
<path d="M136.744 45.3876C138.309 44.4787 140.872 45.9548 142.456 48.684C144.04 51.4132 144.066 54.3641 142.502 55.273C140.939 56.1819 138.382 54.7096 136.789 51.9804C135.196 49.2512 135.181 46.2977 136.744 45.3876Z" fill="#7B8A8E"/>
<path d="M143.086 61.8323C141.742 61.2213 140.919 62.7464 140.345 62.9152C139.056 63.302 138.124 63.1228 136.979 64.0265C136.548 64.4294 136.166 64.8811 135.84 65.3724C135.544 65.9057 135.31 66.471 135.143 67.0574C135.009 67.407 134.934 67.7764 134.921 68.1506C134.977 68.3413 135.09 68.5105 135.245 68.6356C135.4 68.7606 135.589 68.8356 135.787 68.8506C135.897 68.8571 136.139 68.7088 136.202 68.7295C136.26 69.0492 136.169 69.6203 137.105 69.7853C137.951 69.3289 137.634 70.0264 138.038 70.3203C138.393 70.5781 138.719 70.0264 139.048 70.1385C139.482 70.2842 139.764 71.0758 140.287 70.8231C140.879 70.5369 140.576 69.8704 140.717 69.2026C140.865 68.6734 141.137 68.187 141.511 67.7835C141.884 67.3801 142.348 67.0711 142.865 66.8821C143.639 66.5482 143.744 66.5739 144.13 65.745C144.592 65.0293 144.794 64.177 144.703 63.3304C144.41 62.4241 143.086 61.8323 143.086 61.8323Z" fill="#FED8A7"/>
<path d="M185.975 67.818C183.119 73.6541 176.015 84.3672 174.016 83.341C173.269 82.9543 170.689 81.9229 171.3 79.944C172.253 76.8294 177.331 68.4368 180.116 62.3055C180.722 60.9634 182.941 55.915 184.936 56.9425C186.932 57.9699 187.992 63.6913 185.975 67.818Z" fill="#6FCF97"/>
<path d="M171.482 65.2152C173.046 64.3037 175.609 65.7798 177.195 68.509C178.78 71.2382 178.804 74.1891 177.24 75.0993C175.675 76.0095 173.112 74.5346 171.527 71.8041C169.941 69.0737 169.925 66.1176 171.482 65.2152Z" fill="#7B8A8E"/>
<path d="M171.488 79.6694C170.103 80.8026 167.137 83.0342 166.524 84.5825C165.879 85.775 165.741 86.3397 166.117 86.6671C166.585 87.0771 166.842 86.8295 167.101 87.0771C167.279 87.2524 167.289 87.6469 167.66 87.8983C168.166 88.2412 168.458 87.9408 168.749 88.1832C169.342 88.6782 168.922 89.4337 170.128 89.1526C170.128 89.1526 170.644 89.0637 170.674 89.1643C170.834 89.1643 170.989 89.6928 171.229 89.7495C172.041 89.9326 172.707 88.5261 172.584 87.9911C173.435 87.1248 174.172 86.1535 174.777 85.1007C175.207 83.9285 175.269 82.6531 174.955 81.4446C174.868 81.0854 174.705 80.7492 174.476 80.4589C174.247 80.1686 173.958 79.9311 173.629 79.7626C173.3 79.5941 172.938 79.4986 172.569 79.4825C172.199 79.4664 171.831 79.5302 171.488 79.6694Z" fill="#FED8A7"/>
</g>
<circle cx="107.5" cy="172.5" r="7.5" fill="black"/>
<defs>
<linearGradient id="paint0_linear_756_3" x1="-2771.58" y1="-1204.23" x2="-2756.54" y2="-1204.23" gradientUnits="userSpaceOnUse">
<stop stop-color="#231F20"/>
<stop offset="0.09" stop-color="#231F20"/>
<stop offset="1" stop-color="#231F20"/>
</linearGradient>
<clipPath id="clip0_756_3">
<rect width="107" height="153" fill="white" transform="translate(116 8)"/>
</clipPath>
</defs>
</svg>
