<svg width="281" height="249" viewBox="0 0 281 249" fill="none" xmlns="http://www.w3.org/2000/svg">
<path d="M281 123.284C281 190.509 192.933 225.477 163.717 245.006C134.5 264.535 33 209.59 33 142.365C33 75.1395 126.5 -1.45586 142.75 11.4313C159 24.3185 281 56.0588 281 123.284Z" fill="#D2F2D3"/>
<path d="M1.50067 132C0.667336 145.667 -1.61664 201.526 25.5834 215.926C52.7834 230.326 72.2502 200.593 78.5835 183.926C81.0835 179.259 87.3835 171.326 92.5835 176.926" stroke="black" stroke-width="2" stroke-dasharray="13 5"/>
<circle cx="100.5" cy="182.5" r="7.5" fill="black"/>
<g clip-path="url(#clip0_756_8)">
<path d="M153.465 190C137.153 190 123.929 182.349 123.929 172.91C123.929 163.472 137.153 155.82 153.465 155.82C169.777 155.82 183 163.472 183 172.91C183 182.349 169.777 190 153.465 190Z" fill="black"/>
<path d="M144.833 167.378L142.512 166.352L143.301 164.731L144.822 166.083L144.833 167.378Z" fill="black"/>
<path d="M147.473 162.898C147.473 162.898 147.443 164.603 147.469 165.092C147.495 165.581 145.363 167.123 144.835 167.378L144.824 166.081C144.343 166.649 143.935 167.276 143.611 167.947C143.204 168.648 142.689 169.973 141.561 170.883C139.887 172.235 137.266 172.937 134.587 173.057C131.908 173.177 130.369 172.552 129.605 171.994C129.281 171.815 129.024 171.534 128.874 171.194C128.724 170.855 128.69 170.475 128.776 170.114C128.958 169.45 147.473 162.898 147.473 162.898Z" fill="#263238"/>
<path d="M140.261 157.666L140.222 156.766C139.728 156.756 139.679 158.061 138.968 159.213C137.933 160.942 136.678 162.53 135.237 163.937C132.54 166.371 130.129 167.905 128.925 169C127.315 170.466 130.185 172.744 134.556 172.464C136.726 172.325 140.572 171.228 141.645 169.97C142.717 168.712 143.367 166.763 144.228 165.848C145.088 164.934 146.942 164.003 147.473 162.898C147.765 162.291 147.597 160.883 147.409 159.684C147.238 158.586 147.189 156.9 146.55 157.044L146.51 157.61C146.254 158.094 145.656 158.894 143.909 159.197C143.038 159.35 140.432 159.451 140.261 157.666Z" fill="white"/>
<path opacity="0.15" d="M142.506 159.256C141.67 159.194 140.768 158.934 140.412 158.204C140.408 158.196 140.401 158.19 140.397 158.181C140.448 158.494 140.425 158.814 140.329 159.116C140.234 159.417 140.069 159.692 139.847 159.919C139.073 160.816 134.185 167.136 134.185 167.136C134.185 167.136 138.74 161.917 139.613 160.934C140.905 159.481 141.317 159.309 142.51 159.258L142.506 159.256Z" fill="black"/>
<path opacity="0.15" d="M141.429 160.929C141.433 160.963 141.444 160.997 141.462 161.027C141.479 161.057 141.502 161.084 141.53 161.105C141.557 161.127 141.589 161.142 141.623 161.151C141.656 161.16 141.691 161.163 141.726 161.158C141.795 161.151 141.858 161.117 141.902 161.063C141.946 161.009 141.967 160.94 141.96 160.871C141.951 160.801 141.914 160.738 141.858 160.695C141.803 160.652 141.732 160.633 141.662 160.642C141.594 160.649 141.53 160.683 141.486 160.737C141.443 160.791 141.422 160.86 141.429 160.929Z" fill="black"/>
<path opacity="0.15" d="M140.15 162.328C140.16 162.398 140.196 162.461 140.252 162.503C140.308 162.546 140.378 162.564 140.448 162.555C140.517 162.548 140.58 162.514 140.624 162.46C140.667 162.406 140.688 162.337 140.681 162.268C140.672 162.199 140.635 162.136 140.579 162.094C140.524 162.051 140.453 162.033 140.384 162.042C140.315 162.048 140.252 162.083 140.208 162.136C140.164 162.19 140.143 162.259 140.15 162.328Z" fill="black"/>
<path opacity="0.15" d="M138.871 163.728C138.88 163.797 138.917 163.86 138.973 163.902C139.028 163.945 139.098 163.963 139.168 163.954C139.237 163.947 139.3 163.913 139.344 163.86C139.388 163.806 139.409 163.737 139.402 163.667C139.392 163.598 139.356 163.535 139.3 163.493C139.244 163.451 139.174 163.432 139.105 163.441C139.036 163.448 138.972 163.482 138.928 163.536C138.885 163.589 138.864 163.659 138.871 163.728Z" fill="black"/>
<path opacity="0.15" d="M137.592 165.127C137.602 165.196 137.639 165.259 137.694 165.301C137.75 165.344 137.82 165.363 137.889 165.354C137.959 165.347 138.022 165.313 138.066 165.259C138.11 165.205 138.131 165.136 138.124 165.067C138.115 164.997 138.078 164.933 138.022 164.89C137.966 164.847 137.896 164.828 137.826 164.837C137.792 164.841 137.758 164.851 137.728 164.867C137.697 164.884 137.671 164.906 137.649 164.933C137.627 164.96 137.611 164.991 137.601 165.024C137.592 165.058 137.588 165.093 137.592 165.127Z" fill="black"/>
<path opacity="0.15" d="M136.314 166.526C136.323 166.596 136.359 166.66 136.415 166.703C136.471 166.746 136.541 166.765 136.611 166.756C136.68 166.749 136.743 166.714 136.787 166.661C136.831 166.607 136.851 166.538 136.844 166.469C136.84 166.434 136.829 166.401 136.811 166.37C136.794 166.34 136.771 166.314 136.743 166.292C136.716 166.271 136.684 166.255 136.651 166.246C136.617 166.237 136.582 166.235 136.547 166.239C136.478 166.246 136.415 166.281 136.371 166.334C136.327 166.388 136.307 166.457 136.314 166.526Z" fill="black"/>
<path d="M141.703 161C141.729 160.998 141.753 160.987 141.771 160.968C141.781 160.959 141.789 160.947 141.794 160.935C141.8 160.922 141.803 160.908 141.803 160.895C141.803 160.881 141.8 160.867 141.794 160.854C141.789 160.842 141.781 160.83 141.771 160.821C140.937 160.074 139.854 159.669 138.736 159.686C138.722 159.686 138.707 159.689 138.694 159.695C138.681 159.701 138.669 159.71 138.66 159.72C138.65 159.731 138.643 159.743 138.638 159.757C138.633 159.771 138.632 159.785 138.633 159.799C138.634 159.814 138.638 159.828 138.645 159.84C138.651 159.853 138.661 159.864 138.672 159.873C138.683 159.882 138.696 159.889 138.71 159.893C138.724 159.896 138.738 159.897 138.753 159.895C139.808 159.889 140.829 160.272 141.622 160.972C141.633 160.982 141.645 160.989 141.659 160.994C141.673 160.999 141.688 161.001 141.703 161Z" fill="#263238"/>
<path d="M140.424 162.397C140.45 162.394 140.474 162.383 140.492 162.365C140.502 162.356 140.51 162.344 140.515 162.331C140.521 162.319 140.523 162.305 140.523 162.291C140.523 162.277 140.521 162.264 140.515 162.251C140.51 162.238 140.502 162.227 140.492 162.217C139.658 161.471 138.574 161.066 137.457 161.082C137.429 161.084 137.403 161.097 137.385 161.118C137.367 161.139 137.357 161.166 137.359 161.194C137.361 161.222 137.375 161.248 137.396 161.266C137.417 161.284 137.445 161.293 137.473 161.291C138.529 161.286 139.55 161.669 140.343 162.368C140.354 162.378 140.367 162.386 140.381 162.391C140.395 162.396 140.409 162.398 140.424 162.397Z" fill="#263238"/>
<path d="M139.145 163.801C139.17 163.799 139.195 163.787 139.213 163.769C139.223 163.759 139.23 163.748 139.236 163.735C139.241 163.722 139.243 163.708 139.243 163.694C139.243 163.681 139.24 163.667 139.234 163.654C139.228 163.642 139.22 163.63 139.21 163.621C138.376 162.874 137.293 162.469 136.175 162.486C136.161 162.486 136.146 162.49 136.133 162.495C136.12 162.501 136.108 162.51 136.099 162.521C136.089 162.531 136.082 162.544 136.077 162.557C136.072 162.571 136.07 162.585 136.072 162.6C136.073 162.614 136.077 162.628 136.084 162.641C136.09 162.653 136.1 162.665 136.111 162.674C136.122 162.682 136.135 162.689 136.149 162.693C136.163 162.697 136.177 162.697 136.191 162.695C137.247 162.69 138.268 163.073 139.061 163.772C139.072 163.782 139.085 163.79 139.1 163.795C139.114 163.8 139.13 163.802 139.145 163.801Z" fill="#263238"/>
<path d="M137.866 165.2C137.892 165.198 137.916 165.187 137.934 165.168C137.944 165.159 137.952 165.147 137.958 165.135C137.963 165.122 137.966 165.108 137.966 165.095C137.966 165.081 137.963 165.067 137.958 165.054C137.952 165.042 137.944 165.03 137.934 165.021C137.101 164.274 136.017 163.869 134.899 163.886C134.871 163.887 134.846 163.9 134.827 163.921C134.809 163.942 134.8 163.969 134.801 163.997C134.804 164.025 134.817 164.051 134.838 164.069C134.86 164.087 134.888 164.097 134.916 164.094C135.971 164.09 136.992 164.473 137.785 165.171C137.796 165.181 137.809 165.189 137.823 165.194C137.837 165.199 137.851 165.201 137.866 165.2Z" fill="#263238"/>
<path d="M136.587 166.599C136.613 166.597 136.637 166.586 136.655 166.568C136.665 166.558 136.673 166.546 136.678 166.534C136.684 166.521 136.687 166.507 136.687 166.493C136.687 166.48 136.684 166.466 136.678 166.453C136.673 166.441 136.665 166.429 136.655 166.419C135.821 165.673 134.738 165.268 133.62 165.285C133.606 165.285 133.591 165.288 133.578 165.294C133.565 165.3 133.553 165.308 133.544 165.319C133.534 165.33 133.527 165.342 133.522 165.356C133.517 165.369 133.516 165.384 133.517 165.398C133.518 165.412 133.522 165.426 133.529 165.439C133.535 165.452 133.545 165.463 133.556 165.472C133.567 165.481 133.58 165.488 133.594 165.491C133.608 165.495 133.622 165.496 133.637 165.494C134.692 165.489 135.713 165.872 136.506 166.57C136.517 166.58 136.53 166.588 136.544 166.593C136.557 166.598 136.572 166.6 136.587 166.599Z" fill="#263238"/>
<path d="M164.454 174.937C164.711 176.988 165.128 178.333 165.957 179.495C166.785 180.657 168.382 180.872 169.585 180.7C170.551 180.571 171.458 180.164 172.199 179.53C172.939 178.896 173.481 178.06 173.758 177.124C174.223 175.747 174.05 174.127 173.6 172.239L164.454 174.937Z" fill="#263238"/>
<path d="M169.989 159.614C170.583 159.625 170.937 162.377 171.457 165.124C172.015 168.067 173.056 169.671 173.489 171.652C174.09 174.398 173.973 175.657 173.081 177.395C172.19 179.134 167.957 181.077 166.055 178.773C164.505 176.896 164.305 174.725 164.255 171.943C164.267 169.583 164.158 167.225 163.927 164.876C163.677 162.804 163.399 160.797 163.897 160.535C163.954 160.838 164.02 161.224 164.081 161.521C164.128 161.751 164.261 162.871 164.592 162.863C164.602 162.601 164.588 162.338 164.548 162.079C164.496 161.845 164.539 161.601 164.667 161.399C164.838 161.224 165.062 161.11 165.303 161.075C165.877 160.923 166.458 160.8 167.044 160.708C167.336 160.665 167.631 160.634 167.926 160.619C168.443 160.57 168.962 160.561 169.479 160.591C169.551 160.609 169.618 160.641 169.676 160.686C169.735 160.732 169.783 160.789 169.817 160.854C169.854 160.955 169.871 161.062 169.869 161.17C169.882 161.362 169.919 161.552 169.98 161.736C170.007 161.816 170.072 161.913 170.155 161.888C170.223 161.868 170.244 161.783 170.24 161.716C170.221 161.38 170.161 161.142 170.12 160.75C170.101 160.571 170.055 160.327 170.041 160.146C170.026 159.965 170.013 159.791 169.989 159.614Z" fill="white"/>
<path opacity="0.15" d="M171.368 172.465C171.372 172.492 171.371 172.519 171.364 172.545C171.358 172.57 171.346 172.595 171.33 172.616C171.314 172.638 171.294 172.656 171.271 172.669C171.248 172.683 171.222 172.691 171.196 172.695C171.142 172.704 171.087 172.692 171.043 172.661C170.998 172.629 170.968 172.582 170.958 172.528C170.954 172.502 170.955 172.475 170.962 172.449C170.968 172.423 170.98 172.399 170.996 172.378C171.012 172.356 171.032 172.338 171.055 172.325C171.078 172.311 171.103 172.302 171.13 172.299C171.183 172.29 171.238 172.302 171.283 172.333C171.327 172.364 171.358 172.412 171.368 172.465Z" fill="black"/>
<path opacity="0.15" d="M171.045 170.56C171.049 170.587 171.047 170.614 171.041 170.64C171.034 170.665 171.023 170.69 171.007 170.711C170.991 170.733 170.971 170.75 170.948 170.764C170.925 170.778 170.899 170.786 170.873 170.79C170.819 170.799 170.764 170.787 170.72 170.755C170.675 170.724 170.645 170.677 170.635 170.623C170.631 170.597 170.632 170.57 170.638 170.544C170.645 170.518 170.657 170.494 170.673 170.473C170.689 170.451 170.709 170.433 170.732 170.42C170.755 170.406 170.78 170.397 170.806 170.394C170.86 170.385 170.915 170.397 170.96 170.428C171.004 170.459 171.035 170.507 171.045 170.56Z" fill="black"/>
<path opacity="0.15" d="M170.74 168.763C170.744 168.789 170.743 168.816 170.736 168.842C170.73 168.868 170.718 168.892 170.702 168.914C170.686 168.935 170.666 168.953 170.643 168.966C170.62 168.98 170.595 168.989 170.568 168.992C170.515 169.001 170.46 168.989 170.415 168.958C170.371 168.927 170.34 168.879 170.33 168.826C170.327 168.8 170.328 168.773 170.334 168.747C170.341 168.721 170.352 168.696 170.368 168.675C170.384 168.654 170.405 168.636 170.427 168.622C170.45 168.609 170.476 168.6 170.502 168.596C170.556 168.587 170.611 168.6 170.655 168.631C170.7 168.662 170.73 168.709 170.74 168.763Z" fill="black"/>
<path opacity="0.15" d="M170.44 166.99C170.444 167.016 170.443 167.043 170.436 167.069C170.43 167.095 170.418 167.119 170.402 167.141C170.386 167.162 170.366 167.18 170.343 167.194C170.32 167.207 170.295 167.216 170.268 167.22C170.215 167.229 170.16 167.216 170.115 167.185C170.071 167.154 170.04 167.107 170.031 167.053C170.027 167.027 170.028 167 170.034 166.974C170.041 166.948 170.052 166.924 170.068 166.902C170.084 166.881 170.105 166.863 170.128 166.849C170.151 166.836 170.176 166.827 170.202 166.824C170.256 166.815 170.311 166.827 170.355 166.858C170.4 166.889 170.43 166.937 170.44 166.99Z" fill="black"/>
<path opacity="0.15" d="M165.782 167.548C165.786 167.575 165.785 167.602 165.778 167.628C165.772 167.654 165.76 167.678 165.744 167.699C165.728 167.721 165.708 167.739 165.685 167.752C165.662 167.766 165.637 167.774 165.61 167.778C165.557 167.787 165.502 167.774 165.457 167.743C165.413 167.712 165.382 167.664 165.372 167.611C165.369 167.585 165.37 167.558 165.376 167.532C165.383 167.506 165.394 167.481 165.41 167.46C165.426 167.439 165.447 167.421 165.469 167.407C165.492 167.394 165.518 167.385 165.544 167.381C165.598 167.372 165.653 167.385 165.697 167.416C165.742 167.447 165.772 167.495 165.782 167.548Z" fill="black"/>
<path opacity="0.15" d="M166.085 169.333C166.089 169.36 166.087 169.387 166.081 169.413C166.074 169.439 166.063 169.463 166.047 169.484C166.031 169.506 166.011 169.524 165.988 169.537C165.965 169.551 165.939 169.559 165.913 169.563C165.859 169.572 165.804 169.56 165.76 169.528C165.716 169.497 165.685 169.45 165.675 169.396C165.671 169.37 165.673 169.343 165.679 169.317C165.686 169.291 165.697 169.267 165.713 169.246C165.729 169.224 165.749 169.206 165.772 169.193C165.795 169.179 165.821 169.17 165.847 169.167C165.9 169.158 165.955 169.17 166 169.201C166.044 169.232 166.075 169.28 166.085 169.333Z" fill="black"/>
<path opacity="0.15" d="M166.389 171.131C166.393 171.158 166.392 171.185 166.385 171.211C166.379 171.236 166.367 171.261 166.351 171.282C166.335 171.303 166.315 171.321 166.292 171.335C166.269 171.348 166.244 171.357 166.218 171.361C166.164 171.37 166.109 171.358 166.065 171.326C166.02 171.295 165.99 171.248 165.98 171.194C165.976 171.168 165.977 171.141 165.984 171.115C165.99 171.089 166.002 171.065 166.018 171.043C166.034 171.022 166.054 171.004 166.077 170.99C166.1 170.977 166.125 170.968 166.152 170.964C166.205 170.955 166.26 170.968 166.305 170.999C166.349 171.03 166.38 171.078 166.389 171.131Z" fill="black"/>
<path opacity="0.15" d="M166.715 173.037C166.719 173.064 166.717 173.091 166.711 173.117C166.704 173.142 166.692 173.167 166.676 173.188C166.661 173.209 166.64 173.227 166.618 173.241C166.595 173.255 166.569 173.263 166.543 173.267C166.489 173.276 166.434 173.264 166.39 173.232C166.345 173.201 166.315 173.154 166.305 173.1C166.301 173.074 166.302 173.047 166.308 173.021C166.315 172.995 166.327 172.971 166.343 172.949C166.359 172.928 166.379 172.91 166.402 172.896C166.425 172.883 166.45 172.874 166.476 172.87C166.53 172.861 166.585 172.874 166.63 172.905C166.674 172.936 166.705 172.984 166.715 173.037Z" fill="black"/>
<path opacity="0.15" d="M168.51 173.839L166.052 160.557L166.814 160.5L168.51 173.839Z" fill="black"/>
<path d="M171.181 172.599C171.171 172.6 171.16 172.6 171.149 172.599C169.765 172.385 167.444 172.656 166.56 173.146C166.536 173.16 166.507 173.163 166.48 173.156C166.454 173.149 166.431 173.131 166.417 173.107C166.41 173.095 166.405 173.082 166.404 173.069C166.402 173.056 166.403 173.042 166.407 173.029C166.41 173.016 166.416 173.004 166.425 172.993C166.433 172.983 166.444 172.974 166.456 172.968C167.393 172.451 169.734 172.173 171.182 172.398C171.209 172.401 171.233 172.415 171.249 172.437C171.266 172.458 171.273 172.485 171.27 172.512C171.266 172.534 171.256 172.554 171.24 172.57C171.224 172.586 171.203 172.596 171.181 172.599Z" fill="#263238"/>
<path d="M170.857 170.693C170.838 170.696 170.82 170.694 170.802 170.687C169.729 170.269 167.245 170.684 166.235 171.24C166.21 171.254 166.182 171.257 166.155 171.25C166.128 171.243 166.106 171.225 166.091 171.201C166.085 171.19 166.08 171.177 166.079 171.163C166.077 171.15 166.078 171.136 166.082 171.124C166.085 171.111 166.092 171.098 166.1 171.088C166.109 171.077 166.119 171.069 166.131 171.063C167.185 170.481 169.749 170.056 170.88 170.498C170.892 170.503 170.904 170.51 170.913 170.519C170.923 170.528 170.931 170.54 170.936 170.552C170.941 170.564 170.944 170.578 170.944 170.591C170.944 170.605 170.942 170.618 170.937 170.63C170.93 170.647 170.919 170.661 170.905 170.672C170.891 170.683 170.874 170.691 170.857 170.693Z" fill="#263238"/>
<path d="M170.552 168.896C170.532 168.899 170.513 168.897 170.494 168.89C169.421 168.472 166.938 168.886 165.927 169.442C165.916 169.449 165.902 169.454 165.889 169.456C165.875 169.457 165.861 169.456 165.848 169.453C165.835 169.449 165.822 169.443 165.811 169.435C165.8 169.426 165.791 169.416 165.784 169.404C165.777 169.392 165.773 169.379 165.771 169.366C165.769 169.353 165.77 169.339 165.774 169.326C165.778 169.313 165.784 169.301 165.792 169.29C165.801 169.28 165.811 169.271 165.823 169.265C166.876 168.683 169.44 168.258 170.572 168.7C170.584 168.705 170.596 168.712 170.606 168.722C170.615 168.731 170.623 168.742 170.628 168.754C170.634 168.767 170.637 168.78 170.637 168.794C170.637 168.807 170.634 168.82 170.629 168.833C170.623 168.849 170.612 168.863 170.599 168.874C170.585 168.886 170.569 168.893 170.552 168.896Z" fill="#263238"/>
<path d="M170.252 167.123C170.234 167.126 170.215 167.124 170.198 167.117C169.125 166.698 166.641 167.113 165.63 167.67C165.606 167.684 165.577 167.687 165.551 167.68C165.524 167.673 165.501 167.655 165.487 167.631C165.48 167.619 165.476 167.607 165.474 167.593C165.472 167.58 165.473 167.566 165.477 167.553C165.481 167.54 165.487 167.528 165.495 167.518C165.504 167.507 165.514 167.498 165.526 167.492C166.58 166.911 169.143 166.485 170.275 166.927C170.288 166.932 170.299 166.939 170.309 166.949C170.318 166.958 170.326 166.969 170.332 166.982C170.337 166.994 170.34 167.007 170.34 167.021C170.34 167.034 170.337 167.047 170.332 167.06C170.325 167.076 170.315 167.091 170.3 167.102C170.286 167.113 170.27 167.12 170.252 167.123Z" fill="#263238"/>
<path d="M165.491 91.926C167.087 108.815 168.234 131.824 168.234 131.824C168.375 133.107 169.717 138.568 170.438 144.893C171.2 151.566 171.913 164.072 171.913 164.072C171.913 164.072 167.139 166.654 163.229 165.445C163.229 165.445 158.774 144.426 156.673 136.58C154.683 129.154 151.541 115.072 151.541 115.072L149.712 129.075C149.712 129.075 150.043 133.891 149.941 137.264C149.822 141.188 147.498 160.072 147.498 160.072C147.498 160.072 142.31 163.139 138.226 160.187C138.226 160.187 137.641 134.338 137.522 129.62C137.281 120.13 137.053 103.728 137.241 91.7757L165.491 91.926Z" fill="#263238"/>
<path d="M158.679 111.483C159.096 115.531 159.555 119.573 160.054 123.612C160.299 125.631 160.553 127.65 160.817 129.667L161.211 132.693L161.415 134.205C161.479 134.71 161.591 135.207 161.677 135.708C162.416 139.71 163.567 146.981 164.368 150.975C165.17 154.969 166.018 158.949 166.922 162.921C166.327 158.894 165.679 154.878 164.978 150.873C164.281 146.867 163.175 139.592 162.415 135.596C162.326 135.095 162.211 134.599 162.144 134.095L161.933 132.586L161.5 129.567C161.211 127.555 160.914 125.544 160.608 123.535C160.006 119.512 159.363 115.495 158.679 111.483Z" fill="black"/>
<path d="M140.314 110.606C139.928 114.394 139.748 118.197 139.631 121.997C139.53 125.792 139.412 129.613 139.609 133.408C139.752 137.207 139.94 143.576 140.137 147.373C140.324 151.17 140.56 154.965 140.845 158.759C140.856 154.955 140.817 151.154 140.73 147.356C140.654 143.557 140.501 137.189 140.368 133.392L140.257 130.545L140.229 129.834V129.127L140.226 127.703L140.223 122.005L140.242 116.307C140.24 114.406 140.277 112.508 140.314 110.606Z" fill="black"/>
<path d="M151.539 115.072L149.718 105.835C149.718 105.835 144.989 105.233 142.542 103.154C142.542 103.154 144.14 105.925 148.605 106.957L150.402 115.114L149.71 129.075L151.539 115.072Z" fill="black"/>
<path d="M142.54 58.6288C140.911 58.8854 138.749 59.4409 135.59 62.1751C131.544 65.6761 125.511 70.8162 125.511 70.8162L111.601 65.691L111.257 73.4179C111.257 73.4179 121.152 78.6653 124.486 79.9607C126.978 80.9289 128.043 79.9607 130.765 78.2682C135.008 75.6281 140.375 71.8516 140.375 71.8516L142.54 58.6288Z" fill="#6FCF97"/>
<path d="M110.18 55.6025L110.166 55.5996L110.997 55.2392V55.2478C111.116 55.2131 111.241 55.2073 111.362 55.2307C111.483 55.2542 111.597 55.3063 111.695 55.3827L129.338 66.7035C129.659 66.9338 129.926 67.2309 130.121 67.5744C130.316 67.9178 130.434 68.2996 130.468 68.6933L130.978 85.0389C131.002 85.1788 130.984 85.3227 130.925 85.4519C130.866 85.5812 130.77 85.6896 130.649 85.7632L130.654 85.7666L129.795 86.1379V86.1299C129.675 86.1666 129.549 86.1737 129.426 86.1506C129.303 86.1275 129.188 86.0749 129.09 85.9973L111.444 74.6782C111.123 74.4478 110.856 74.1507 110.661 73.8073C110.466 73.4638 110.348 73.0821 110.314 72.6884C110.214 69.4744 109.903 59.5546 109.804 56.3423C109.797 55.9388 109.944 55.684 110.18 55.6025Z" fill="#455A64"/>
<path d="M129.147 67.7147C129.427 68.1099 129.594 68.5732 129.633 69.056L130.145 85.397C130.167 85.5329 130.15 85.6721 130.097 85.7988C130.043 85.9256 129.956 86.0349 129.844 86.1144L130.649 85.77L130.644 85.7614C130.86 85.665 130.988 85.4171 130.976 85.0394L130.466 68.6916C130.431 68.2396 130.279 67.8045 130.026 67.4289L129.147 67.7147Z" fill="#263238"/>
<path d="M130.145 85.3987L129.635 69.0537C129.601 68.66 129.482 68.2783 129.287 67.9348C129.092 67.5914 128.826 67.2942 128.505 67.0639L110.858 55.7414C110.257 55.3563 109.787 55.6266 109.809 56.3382C109.908 59.5523 110.219 69.4715 110.318 72.6838C110.352 73.0776 110.471 73.4593 110.666 73.8029C110.861 74.1464 111.128 74.4437 111.448 74.6742L129.095 85.9933C129.696 86.3807 130.167 86.1132 130.145 85.3987Z" fill="#37474F"/>
<path d="M128.662 72.1443L128.567 69.0847C128.56 69.011 128.538 68.9397 128.501 68.8754C128.465 68.8111 128.415 68.7555 128.355 68.7122L127.14 67.9357C127.025 67.864 126.939 67.9139 126.943 68.0505C126.962 68.652 127.02 70.5086 127.038 71.1101C127.045 71.1836 127.067 71.2549 127.104 71.319C127.14 71.3832 127.19 71.4388 127.25 71.482L128.466 72.2585C128.578 72.328 128.666 72.2781 128.662 72.1443Z" fill="#455A64"/>
<path d="M128.295 69.7247C128.275 69.5401 128.217 69.3618 128.123 69.202C128.028 69.0422 127.901 68.9047 127.749 68.7989C127.458 68.6124 127.23 68.726 127.241 69.0514C127.26 69.236 127.319 69.4143 127.413 69.5741C127.507 69.734 127.635 69.8716 127.787 69.9778C128.078 70.1631 128.305 70.0501 128.295 69.7247Z" fill="#263238"/>
<path d="M128.326 71.2628C128.307 71.0781 128.248 70.8998 128.154 70.7399C128.06 70.58 127.932 70.4424 127.78 70.3364C127.489 70.1511 127.261 70.2641 127.272 70.5896C127.291 70.7741 127.35 70.9524 127.444 71.1122C127.538 71.272 127.666 71.4095 127.818 71.5153C128.109 71.7013 128.336 71.5882 128.326 71.2628Z" fill="#263238"/>
<path d="M108.771 65.7387C108.33 64.6591 108.42 64.5506 108.889 64.165C109.248 63.8539 109.675 63.6327 110.136 63.5199C110.596 63.407 111.077 63.4056 111.538 63.5158C112.239 63.6361 112.913 63.8769 113.532 64.2275C113.898 64.5426 113.334 65.3381 112.222 65.3237C110.469 65.3013 110.372 65.7565 110.372 65.7565C111.119 65.7624 111.866 65.8072 112.609 65.8908C113.417 66.1444 114.204 66.4622 114.962 66.8412C115.637 67.119 115.56 68.0579 114.297 68.0866L115.534 68.5986C116.4 68.9573 116.592 69.5094 115.753 69.8991C115.478 70.0362 115.165 70.0767 114.865 70.0139C114.865 70.0139 115.824 70.2435 115.768 70.5649C115.608 71.4935 114.958 71.5922 112.887 71.6944C110.912 71.7913 110.296 72.6964 110.5 73.4735C110.5 73.4735 109.858 72.8623 109.304 72.2465C108.899 71.7954 108.577 71.3202 108.976 70.6136C108.976 70.6136 107.916 70.3841 108.006 69.7143C108.105 69.2308 108.305 68.7739 108.594 68.3742C108.43 68.222 108.312 68.0264 108.255 67.81C108.198 67.5936 108.203 67.3653 108.27 67.1517C108.366 66.7363 108.597 66.3646 108.926 66.0945L108.771 65.7387Z" fill="#FFA8A7"/>
<path d="M114.297 68.0866C113.932 67.9154 113.551 67.7808 113.16 67.6849C112.752 67.6508 112.342 67.681 111.944 67.7744C111.163 67.9115 110.395 68.1144 109.648 68.3811C110.439 68.3603 111.227 68.2729 112.003 68.1199C112.374 68.0311 112.751 67.9761 113.131 67.9558C113.494 67.9793 113.901 68.0688 114.297 68.0866Z" fill="#F28F8F"/>
<path d="M114.865 70.0116C114.482 69.7955 114.051 69.6789 113.611 69.6724C113.178 69.6628 112.745 69.6941 112.317 69.7659C111.471 69.8966 110.64 70.1159 109.838 70.4202C110.688 70.3612 111.533 70.2585 112.372 70.1126C113.189 69.9238 114.035 69.8895 114.865 70.0116Z" fill="#F28F8F"/>
<path d="M165.162 60.218C165.162 60.218 167.715 62.6205 166.854 68.9315C166.105 74.4217 165.705 79.0327 165.582 81.17C165.392 84.4443 165.919 95.4362 165.919 95.4362C161.046 101.397 139.66 100.19 137.046 94.8387C137.046 94.8387 136.969 87.0086 137.172 79.6869C137.321 74.3247 137.349 69.2379 138.106 66.0974C139.121 61.8905 140.963 59.8352 142.54 58.6277L149.535 56.8984L155.905 56.7561L165.162 60.218Z" fill="#90EA93"/>
<path d="M157.128 53.9725C157.52 51.8679 159.648 49.6996 160.621 47.8745C161.559 46.1148 162.123 44.7471 162.047 43.0776C162.054 42.5727 161.954 42.072 161.756 41.6081C161.557 41.1441 161.263 40.7273 160.893 40.3847C161.04 36.7724 157.4 34.949 154.953 34.3165C152.108 33.5807 149.781 33.4229 146.858 34.6856C146.058 34.9979 145.328 35.4669 144.71 36.0653C144.093 36.6636 143.601 37.3793 143.263 38.1705C142.859 39.281 142.715 40.4694 142.841 41.6445C142.906 41.8755 143.009 42.0935 143.148 42.289C143.232 42.3739 143.219 42.6678 143.242 42.7843C143.289 43.121 143.408 43.4436 143.59 43.7301C143.891 44.192 144.3 44.5735 144.781 44.8418C146.324 45.6092 148.039 45.8784 149.706 46.2526L151.687 46.6968C151.801 46.7226 152.401 46.7691 152.471 46.873L157.128 53.9725Z" fill="#263238"/>
<path d="M159.642 51.306C159.273 51.5635 158.83 51.6918 158.381 51.671C157.933 51.6503 157.503 51.4816 157.16 51.1912L157.618 57.536C156.41 60.3965 152.954 59.2136 149.076 64.208C149.076 64.208 147.795 62.151 148.782 58.0359L148.567 55.9049C147.731 55.8986 146.896 55.848 146.065 55.7534C144.295 55.5015 143.384 53.9444 142.814 51.6136C142.309 49.524 142.257 47.35 142.662 45.2384C142.781 44.6678 142.82 44.0831 142.776 43.5017C142.676 42.2342 142.872 40.9607 143.349 39.7826C145.189 38.3444 149.399 37.9128 153.279 40.3623C152.79 42.6919 153.666 44.5583 155.348 45.4754C155.259 46.1068 155.155 47.6983 156.19 47.6851C156.935 47.6759 157.001 46.7392 157.779 45.926C158.573 45.0955 160.348 44.9193 161.02 46.1475C161.456 47.028 161.557 48.038 161.303 48.9878C161.05 49.9376 160.459 50.7619 159.642 51.306Z" fill="#FFA8A7"/>
<path d="M147.546 43.8713L144.143 47.9852L147.029 48.9035L147.546 43.8713Z" fill="#F28F8F"/>
<path d="M149.752 43.1723L151.324 44.0532C151.438 43.8373 151.464 43.5855 151.397 43.3508C151.33 43.116 151.175 42.9163 150.964 42.7935C150.86 42.736 150.746 42.7001 150.628 42.6881C150.51 42.6761 150.391 42.6881 150.278 42.7235C150.164 42.7589 150.059 42.8169 149.969 42.894C149.879 42.9712 149.805 43.0658 149.752 43.1723Z" fill="#263238"/>
<path d="M143.353 43.3387L144.998 42.5691C144.953 42.4593 144.887 42.3598 144.803 42.2767C144.718 42.1936 144.618 42.1285 144.508 42.0856C144.397 42.0426 144.28 42.0226 144.161 42.0268C144.043 42.031 143.927 42.0593 143.82 42.1099C143.6 42.216 143.429 42.4025 143.342 42.6311C143.255 42.8597 143.259 43.1129 143.353 43.3387Z" fill="#263238"/>
<path d="M148.567 55.9067C151.191 55.6392 153.266 55.3632 154.661 53.483C155.311 52.5153 155.856 51.481 156.288 50.3975C156.102 51.7462 155.702 53.0565 155.103 54.279C154.425 55.4842 152.77 56.5632 148.658 56.8519L148.567 55.9067Z" fill="#F28F8F"/>
<path d="M149.394 45.3561C149.381 45.5005 149.412 45.6453 149.481 45.7727C149.55 45.9 149.655 46.0042 149.782 46.0722C149.91 46.1403 150.055 46.1692 150.199 46.1555C150.343 46.1417 150.479 46.0859 150.592 45.9949C150.704 45.9038 150.788 45.7817 150.832 45.6436C150.875 45.5055 150.878 45.3575 150.838 45.218C150.799 45.0786 150.719 44.9539 150.61 44.8593C150.5 44.7648 150.365 44.7046 150.222 44.6863C150.124 44.6754 150.024 44.6841 149.929 44.7119C149.834 44.7398 149.746 44.7861 149.669 44.8484C149.592 44.9107 149.528 44.9876 149.481 45.0747C149.433 45.1618 149.404 45.2575 149.394 45.3561Z" fill="#263238"/>
<path d="M149.648 50.1054L146.675 50.7367C146.77 51.1379 147.016 51.4868 147.361 51.7104C147.707 51.934 148.125 52.0152 148.529 51.9368C148.725 51.8941 148.91 51.8121 149.073 51.6959C149.236 51.5796 149.374 51.4315 149.479 51.2604C149.583 51.0893 149.652 50.8988 149.681 50.7003C149.711 50.5018 149.699 50.2994 149.648 50.1054Z" fill="#B16668"/>
<path d="M147.692 51.8708C147.802 51.4421 148.067 51.0694 148.435 50.8238C148.802 50.5781 149.247 50.4768 149.685 50.5392C149.676 50.8682 149.558 51.1848 149.348 51.4382C149.138 51.6915 148.85 51.8669 148.529 51.9362C148.249 51.9937 147.959 51.971 147.692 51.8708Z" fill="#F28F8F"/>
<path d="M144.609 44.148C144.457 44.1359 144.304 44.1699 144.171 44.2455C144.038 44.3212 143.93 44.435 143.862 44.5724C143.794 44.7097 143.769 44.8643 143.789 45.0163C143.809 45.1683 143.875 45.3108 143.977 45.4253C144.078 45.5398 144.212 45.6212 144.36 45.6589C144.509 45.6967 144.665 45.6891 144.809 45.6371C144.953 45.5852 145.078 45.4913 145.168 45.3674C145.258 45.2436 145.31 45.0955 145.315 44.9423C145.326 44.7433 145.258 44.5483 145.125 44.3995C144.993 44.2508 144.808 44.1604 144.609 44.148Z" fill="#263238"/>
<path d="M149.076 64.2097C149.589 63.8511 150.063 63.4401 150.491 62.9832C151.121 62.2882 151.421 61.9691 151.672 62.2004C152.327 63.0823 152.891 64.0284 153.356 65.0241C153.643 65.6503 153.589 65.6486 154.448 65.0632C155.957 64.0271 157.269 62.73 158.324 61.2327C158.987 60.2714 159.5 59.2143 159.845 58.0979C159.845 58.0979 158.845 56.744 158.55 56.2263C157.98 55.2248 157.998 54.8093 157.428 54.9034L157.441 55.6145C157.352 56.4938 156.097 57.2984 154.883 58.3723C153.67 59.4461 151.701 60.4774 151.239 60.9354C150.901 61.2666 149.076 64.2097 149.076 64.2097Z" fill="#3C8F7C"/>
<path d="M145.558 63.6174C145.7 63.9727 146.804 61.1587 147.363 61.2109C147.632 61.2299 148.153 62.609 148.436 63.125C148.72 63.6409 148.888 63.8837 149.076 64.2097C148.729 63.3712 148.608 61.1989 148.534 60.6358C148.502 59.7626 148.585 58.8889 148.782 58.0377L148.568 55.9066C148.42 55.9164 148.249 55.9067 148.062 55.9124C147.783 56.2124 147.526 56.5317 147.292 56.868C146.756 57.7685 145.771 59.4048 145.604 60.4774C145.412 61.5141 145.397 62.5756 145.558 63.6174Z" fill="#3C8F7C"/>
<path d="M147.243 71.7219C145.665 70.4311 144.864 69.9238 144.114 69.6747C143.363 69.4256 140.743 68.1951 139.731 67.8955C139.089 67.705 138.78 68.7266 139.576 69.4738C140.188 70.0478 141.809 70.8403 142.519 71.2702C143.228 71.7001 144.575 73.4971 144.575 73.4971L147.243 71.7219Z" fill="#F28F8F"/>
<path d="M171.634 66.436C170.815 62.7095 169.094 61.2172 165.2 60.5894C162.344 63.8688 163.178 71.7133 163.178 71.7133L163.995 80.386C163.995 80.386 154.495 78.5741 153.423 77.8188C152.351 77.0635 149.529 73.7439 148.579 72.7464C147.285 71.3873 146.606 71.5314 145.915 71.6048C143.65 71.8424 143.148 72.0106 142.659 72.2935C142.514 72.3848 142.394 72.5113 142.311 72.6611C142.227 72.811 142.183 72.9795 142.182 73.151C141.581 73.1992 140.688 73.1412 140.529 74.1186C140.468 74.3756 140.445 74.64 140.459 74.9038C140.306 74.9231 140.165 74.9961 140.061 75.1098C139.538 75.6642 140.302 77.6977 140.823 78.2091C141.05 78.385 141.313 78.5084 141.593 78.5706C141.874 78.6329 142.164 78.6323 142.444 78.5689C143.053 78.5115 142.799 77.8848 142.799 77.8848L143.644 77.9726C145.419 79.3546 145.394 81.9373 147.788 82.6128C148.784 82.7583 149.764 82.9944 150.717 83.3182C155.848 85.3 164.151 90.9882 168.774 91.5937C173.286 92.1843 173.263 89.7629 173.457 86.9879C173.629 84.5108 172.657 71.0912 171.634 66.436Z" fill="#FFA8A7"/>
<path d="M164.732 60.0585C168.354 61.0428 169.269 60.9285 170.927 63.6794C172.585 66.4303 172.759 70.007 173.275 74.7236C173.79 79.4401 174.248 85.172 174.134 87.8092C174.019 90.4464 172.645 91.7068 171.617 91.9932C169.847 92.3524 168.01 92.1725 166.342 91.4766C164.126 90.6157 156.344 86.0403 156.344 86.0403C157.113 84.9289 157.604 83.6481 157.775 82.3064C157.985 81.1548 157.886 79.9682 157.489 78.8674L163.723 79.843C163.723 79.843 163.028 73.8931 162.806 70.2486C162.585 66.6042 162.539 63.8659 164.732 60.0585Z" fill="#6FCF97"/>
<path d="M163.616 78.915L163.721 79.8419C166.584 80.1713 168.827 82.2748 169.272 83.4255C168.967 81.6188 167.853 79.6691 163.616 78.915Z" fill="#263238"/>
<path d="M142.182 73.1493L144.878 72.728L142.255 72.7814C142.209 72.8988 142.184 73.0233 142.182 73.1493Z" fill="#F28F8F"/>
<path d="M140.459 74.9021L143.552 74.6392L140.471 74.5451C140.454 74.6633 140.45 74.783 140.459 74.9021Z" fill="#F28F8F"/>
<path d="M140.804 76.2766C140.898 76.4381 141.036 76.5692 141.202 76.6543C141.364 76.7454 141.537 76.8138 141.718 76.8574L141.678 76.8265C141.753 76.9906 141.833 77.153 141.915 77.3137L141.983 77.2345C141.898 77.2156 141.81 77.2145 141.725 77.2314C141.64 77.2483 141.559 77.2828 141.488 77.3327C141.355 77.4306 141.255 77.5667 141.202 77.7229C141.283 77.5908 141.396 77.4805 141.529 77.4015C141.658 77.3336 141.807 77.3133 141.949 77.3441L142.066 77.3734L142.017 77.2649C141.941 77.1002 141.863 76.9372 141.78 76.7765L141.767 76.7513L141.74 76.7455C141.567 76.7056 141.399 76.6505 141.236 76.5808C141.071 76.5139 140.923 76.4098 140.804 76.2766Z" fill="#F28F8F"/>
<path d="M141.604 76.7088C141.971 76.773 142.342 76.8158 142.714 76.8368C142.77 77.0705 142.894 77.2823 143.07 77.4452C143.25 77.6319 143.441 77.8073 143.643 77.9703L142.798 77.8825C142.689 77.727 142.548 77.5961 142.385 77.4984C142.222 77.4006 142.041 77.3381 141.852 77.3149L141.604 76.7088Z" fill="#F28F8F"/>
<path d="M138.539 12.8624C138.535 15.8749 139.676 18.776 141.73 20.9755L142.711 21.9116C144.974 23.8449 147.88 24.8538 150.851 24.7376C153.823 24.6213 156.641 23.3885 158.747 21.2843C160.853 19.1801 162.091 16.3586 162.216 13.381C162.341 10.4034 161.343 7.48788 159.42 5.21417L158.485 4.22988C156.803 2.64409 154.695 1.58617 152.42 1.18645C150.145 0.786733 147.803 1.06268 145.683 1.9803C143.563 2.89791 141.757 4.41711 140.487 6.3507C139.218 8.2843 138.541 10.5478 138.539 12.8624Z" fill="white"/>
<path d="M150.403 0C153.625 0.00530878 156.728 1.22346 159.096 3.41307C161.464 5.60268 162.925 8.60395 163.189 11.8221C163.453 15.0403 162.502 18.2406 160.523 20.7887C158.544 23.3369 155.682 25.047 152.504 25.5801L151.056 29.3107C151.003 29.4524 150.908 29.5745 150.783 29.6606C150.659 29.7468 150.511 29.7929 150.36 29.7929C150.209 29.7929 150.061 29.7468 149.937 29.6606C149.812 29.5745 149.717 29.4524 149.664 29.3107L148.226 25.5767C145.049 25.0349 142.192 23.3167 140.22 20.7625C138.247 18.2084 137.305 15.0049 137.579 11.787C137.852 8.56915 139.323 5.57185 141.698 3.3893C144.073 1.20674 147.18 -0.00173079 150.402 0.0034417L150.403 0ZM138.539 12.8624C138.535 15.8749 139.676 18.776 141.73 20.9755L142.71 21.9116C144.973 23.8449 147.879 24.8538 150.851 24.7376C153.822 24.6213 156.641 23.3885 158.747 21.2843C160.853 19.1801 162.091 16.3586 162.216 13.381C162.341 10.4034 161.342 7.48788 159.42 5.21417L158.485 4.22987C156.803 2.64417 154.695 1.58632 152.42 1.18664C150.145 0.786958 147.803 1.06291 145.683 1.9805C143.563 2.8981 141.757 4.41724 140.487 6.35079C139.218 8.28434 138.541 10.5478 138.539 12.8624Z" fill="black"/>
<path d="M138.539 12.8624C138.535 15.8749 139.676 18.776 141.73 20.9755L142.711 21.9116C144.974 23.8449 147.88 24.8538 150.851 24.7376C153.823 24.6213 156.641 23.3885 158.747 21.2843C160.853 19.1801 162.091 16.3586 162.216 13.381C162.341 10.4034 161.343 7.48788 159.42 5.21417L158.486 4.22987C156.803 2.64417 154.695 1.58632 152.42 1.18664C150.146 0.78696 147.804 1.06291 145.684 1.98051C143.563 2.8981 141.757 4.41725 140.488 6.35079C139.218 8.28434 138.541 10.5478 138.539 12.8624Z" fill="white"/>
<path d="M154.95 18.1862C154.057 19.0156 152.917 19.5289 151.705 19.6474V21.7394H149.447V19.7226C148.541 19.6658 147.645 19.5044 146.776 19.2416C146.036 19.0309 145.333 18.7102 144.688 18.29L145.911 15.538C146.546 15.9489 147.236 16.2663 147.961 16.4804C148.704 16.7139 149.478 16.8346 150.256 16.8386C151.685 16.8386 152.4 16.4804 152.4 15.7642C152.399 15.5778 152.339 15.3966 152.229 15.2461C152.12 15.0956 151.966 14.9833 151.789 14.9251C151.153 14.6744 150.495 14.4823 149.824 14.3512C148.981 14.1785 148.152 13.9484 147.341 13.6624C146.68 13.4204 146.091 13.0151 145.629 12.4842C145.127 11.8701 144.872 11.0902 144.914 10.2975C144.907 9.77857 145.007 9.26384 145.208 8.78542C145.409 8.307 145.706 7.87513 146.08 7.51678C147.011 6.67714 148.197 6.17667 149.447 6.0963V4.02039H151.704V6.05612C152.401 6.11551 153.092 6.24178 153.765 6.43319C154.38 6.60335 154.97 6.85036 155.523 7.1684L154.377 9.93934C153.265 9.29927 152.011 8.94919 150.728 8.92119C150.168 8.88073 149.608 8.9955 149.109 9.25292C148.956 9.33798 148.829 9.46218 148.739 9.61283C148.65 9.76348 148.602 9.93518 148.601 10.1104C148.605 10.2891 148.666 10.4619 148.774 10.6041C148.882 10.7463 149.033 10.8507 149.203 10.9024C149.831 11.1444 150.479 11.3273 151.14 11.4488C151.986 11.6188 152.819 11.849 153.632 12.1375C154.289 12.3816 154.877 12.783 155.344 13.3066C155.853 13.9137 156.112 14.692 156.069 15.4835C156.074 15.9863 155.977 16.485 155.785 16.9494C155.593 17.4139 155.309 17.8346 154.95 18.1862Z" fill="#3C8F7C"/>
</g>
<defs>
<clipPath id="clip0_756_8">
<rect width="75" height="190" fill="white" transform="matrix(-1 0 0 1 183 0)"/>
</clipPath>
</defs>
</svg>
