<svg width="248" height="239" viewBox="0 0 248 239" fill="none" xmlns="http://www.w3.org/2000/svg">
<path d="M248 113.284C248 180.509 159.933 215.477 130.717 235.006C101.5 254.535 0 199.59 0 132.365C0 65.1395 93.4996 -11.4559 109.75 1.4313C126 14.3185 248 46.0588 248 113.284Z" fill="#D2F2D3"/>
<path d="M94.4694 132.255C106.415 125.358 125.72 125.358 137.588 132.255C148.078 138.35 149.24 147.787 141.131 154.66C147.674 154.254 154.455 155.502 159.452 158.405C168.223 163.503 168.176 171.766 159.349 176.863C150.522 181.959 136.255 181.96 127.481 176.863C120.503 172.808 119.113 166.75 123.28 161.875C113.224 163.329 102.157 161.783 94.3258 157.232C82.4597 150.333 82.5237 139.152 94.4694 132.255Z" fill="#5A5A5A"/>
<path d="M131.976 108.329C136.05 111.158 140.638 113.115 144.041 116.907C150.397 123.992 150.544 135.39 145.552 143.494C140.56 151.597 131.281 156.467 121.828 157.578C111.912 158.747 101.505 156.007 93.7257 149.748C85.9459 143.489 80.996 133.711 81 123.727C81.004 113.744 86.1179 103.799 94.4795 98.3449C102.11 93.3669 113.073 91.9491 120.729 97.6431C124.6 100.522 127.18 104.771 131.041 107.658C131.349 107.887 131.661 108.111 131.976 108.329Z" fill="#6FCF97"/>
<path opacity="0.2" d="M131.976 108.329C136.05 111.158 140.638 113.115 144.041 116.907C150.397 123.992 150.544 135.39 145.552 143.494C140.56 151.597 131.281 156.467 121.828 157.578C111.912 158.747 101.505 156.007 93.7257 149.748C85.9459 143.489 80.996 133.711 81 123.727C81.004 113.744 86.1179 103.799 94.4795 98.3449C102.11 93.3669 113.073 91.9491 120.729 97.6431C124.6 100.522 127.18 104.771 131.041 107.658C131.349 107.887 131.661 108.111 131.976 108.329Z" fill="black"/>
<path opacity="0.1" d="M131.976 108.329C136.05 111.158 140.638 113.115 144.041 116.907C150.397 123.992 150.544 135.39 145.552 143.494C140.56 151.597 131.281 156.467 121.828 157.578C111.912 158.747 101.505 156.007 93.7257 149.748C85.9459 143.489 80.996 133.711 81 123.727C81.004 113.744 86.1179 103.799 94.4795 98.3449C102.11 93.3669 113.073 91.9491 120.729 97.6431C124.6 100.522 127.18 104.771 131.041 107.658C131.349 107.887 131.661 108.111 131.976 108.329Z" fill="white"/>
<path opacity="0.1" d="M130.317 149.838L130.289 149.635C129.952 147.426 128.933 145.378 127.375 143.776C125.817 142.174 123.798 141.099 121.599 140.702C117.666 139.949 113.898 138.506 110.468 136.438C108.036 134.968 105.738 133.165 103.009 132.367C100.353 131.605 97.5177 131.769 94.9685 132.834C97.2623 130.426 101.191 129.367 104.335 130.455C102.16 127.127 100.246 123.541 99.4975 119.636C98.7491 115.732 99.2797 111.447 101.635 108.243C102.639 106.878 103.933 105.751 105.425 104.946C106.916 104.14 108.568 103.675 110.26 103.585C111.953 103.494 113.644 103.78 115.213 104.422C116.782 105.064 118.189 106.046 119.333 107.297C121.664 109.847 122.977 113.437 124.51 116.535C125.61 118.761 126.748 121.038 128.561 122.734C131.297 125.292 135.231 126.215 138.067 128.663C141.283 131.438 142.67 135.876 142.685 140.124C142.632 142.99 142.214 145.838 141.441 148.598C138.116 151.772 134.149 154.197 129.809 155.71C130.44 153.82 130.614 151.808 130.317 149.838Z" fill="black"/>
<path d="M86.3233 122.358C86.4485 115.462 89.0153 108.835 93.5673 103.654C98.1192 98.4732 104.361 95.0749 111.183 94.0634C112.13 94.1563 113.069 94.3138 113.994 94.535C106.822 94.9154 100.06 97.9981 95.0684 103.163C90.0771 108.328 87.2271 115.191 87.0918 122.372C86.9091 131.666 91.4572 141.137 99.2512 147.711C105.362 152.862 113.478 156.278 122.399 157.507C122.209 157.533 122.019 157.559 121.828 157.582C121.028 157.676 120.221 157.743 119.414 157.786C111.488 156.249 104.31 152.982 98.7561 148.299C90.7843 141.578 86.1366 131.879 86.3233 122.358Z" fill="white"/>
<path d="M140.703 146.733C140.411 148.263 140.245 149.814 140.206 151.37L139.103 150.956C138.581 150.759 138.014 150.721 137.47 150.845C136.927 150.968 136.431 151.249 136.046 151.652L135.992 151.709C135.795 151.915 135.526 152.037 135.241 152.05C134.957 152.063 134.678 151.965 134.463 151.778C134.348 151.678 134.256 151.555 134.191 151.417C134.125 151.28 134.089 151.13 134.084 150.978L133.937 146.296L140.703 146.733Z" fill="#FFA8A7"/>
<path d="M136.455 164.135C138.738 166.577 142.941 168.713 145.995 166.628L145.652 167.405C142.599 169.488 138.395 167.353 136.113 164.912C133.83 162.47 135.313 160.778 133.257 158.612C132.481 157.87 131.875 156.97 131.479 155.973C131.57 155.74 131.657 155.436 131.765 155.087C132.208 156.104 132.828 157.035 133.597 157.835C135.654 160.001 134.173 161.692 136.455 164.135Z" fill="white"/>
<path d="M132.892 152.536C133.244 152.036 133.488 151.469 133.61 150.871C133.631 150.731 133.682 150.599 133.76 150.481C133.839 150.364 133.941 150.265 134.062 150.192L134.086 150.977C134.093 151.196 134.165 151.407 134.291 151.584C134.418 151.762 134.594 151.899 134.798 151.977C135.001 152.055 135.224 152.071 135.436 152.023C135.649 151.975 135.843 151.865 135.994 151.708L136.048 151.651C136.434 151.249 136.928 150.968 137.471 150.845C138.014 150.721 138.582 150.76 139.103 150.956L140.221 151.377C140.387 151.44 140.53 151.552 140.63 151.7C140.73 151.847 140.781 152.022 140.777 152.2C140.705 155.402 142.199 159.655 143.769 161.991C145.382 162.658 146.775 164.857 146.064 166.468L145.993 166.629C142.939 168.712 138.736 166.577 136.453 164.136C134.17 161.694 135.653 160.002 133.597 157.835C132.828 157.036 132.208 156.105 131.765 155.088C132.02 154.189 132.399 153.33 132.892 152.536Z" fill="black"/>
<path d="M137.358 157.159C137.266 157.201 137.162 157.207 137.067 157.175C136.971 157.142 136.892 157.074 136.846 156.985C136.799 156.895 136.789 156.791 136.818 156.695C136.847 156.598 136.911 156.516 136.999 156.466C137.668 156.089 138.424 155.891 139.192 155.893C139.961 155.894 140.716 156.094 141.384 156.473C141.452 156.725 141.525 156.976 141.602 157.226C140.961 156.848 140.233 156.643 139.489 156.631C138.745 156.62 138.01 156.801 137.358 157.159Z" fill="white"/>
<path d="M136.796 155.427C136.704 155.471 136.6 155.477 136.504 155.445C136.408 155.413 136.328 155.345 136.281 155.255C136.234 155.165 136.225 155.06 136.254 154.963C136.283 154.866 136.348 154.784 136.437 154.735C137.137 154.351 137.924 154.153 138.723 154.16C139.521 154.166 140.305 154.377 140.999 154.771C141.044 155.032 141.099 155.294 141.158 155.556C139.826 154.854 138.484 154.574 136.796 155.427Z" fill="white"/>
<path d="M137.975 158.881C137.884 158.924 137.779 158.931 137.683 158.899C137.587 158.867 137.507 158.798 137.46 158.708C137.414 158.618 137.404 158.514 137.433 158.417C137.462 158.32 137.527 158.238 137.616 158.188C138.269 157.82 139.006 157.622 139.756 157.615C140.506 157.607 141.246 157.789 141.908 158.144C142.004 158.415 142.107 158.681 142.212 158.944C141.571 158.568 140.844 158.364 140.102 158.353C139.359 158.342 138.626 158.524 137.975 158.881Z" fill="white"/>
<path d="M143.77 161.99C145.383 162.657 146.776 164.856 146.065 166.467L145.994 166.628C142.985 168.68 138.865 166.638 136.56 164.242C138.483 160.473 142.501 161.412 143.77 161.99Z" fill="white"/>
<path d="M138.65 160.563C138.558 160.608 138.453 160.616 138.356 160.584C138.259 160.553 138.178 160.484 138.131 160.393C138.084 160.303 138.074 160.197 138.104 160.099C138.134 160.002 138.201 159.92 138.291 159.871C138.946 159.502 139.684 159.305 140.436 159.298C141.188 159.291 141.929 159.475 142.591 159.832C142.728 160.131 142.868 160.418 143.011 160.692C141.681 159.99 140.338 159.712 138.65 160.563Z" fill="white"/>
<path d="M145.5 156.042C145.85 157.559 146.324 159.046 146.917 160.486L145.744 160.551C145.187 160.582 144.652 160.775 144.205 161.108C143.757 161.44 143.418 161.897 143.228 162.421L143.201 162.495C143.104 162.763 142.907 162.983 142.652 163.11C142.397 163.237 142.102 163.26 141.83 163.176C141.685 163.13 141.551 163.056 141.435 162.956C141.32 162.857 141.227 162.735 141.161 162.598L139.136 158.375L145.5 156.042Z" fill="#FFA8A7"/>
<path d="M148.639 173.678C151.713 174.99 156.42 175.247 158.372 172.108V172.956C156.417 176.095 151.712 175.838 148.639 174.525C145.566 173.212 146.239 171.067 143.483 169.914C142.475 169.548 141.558 168.969 140.793 168.217C140.783 167.967 140.74 167.653 140.697 167.29C141.513 168.042 142.457 168.643 143.483 169.065C146.237 170.219 145.565 172.364 148.639 173.678Z" fill="white"/>
<path d="M140.697 164.504C140.817 163.905 140.812 163.287 140.682 162.691C140.645 162.555 140.639 162.412 140.663 162.273C140.687 162.134 140.741 162.002 140.821 161.887L141.161 162.598C141.256 162.795 141.406 162.959 141.594 163.071C141.781 163.182 141.997 163.236 142.215 163.225C142.433 163.214 142.643 163.139 142.818 163.009C142.994 162.88 143.127 162.701 143.201 162.496L143.228 162.422C143.418 161.898 143.758 161.441 144.205 161.109C144.652 160.776 145.188 160.583 145.744 160.552L146.937 160.486C147.114 160.476 147.291 160.521 147.441 160.616C147.592 160.711 147.71 160.85 147.778 161.014C149.004 163.973 152.089 167.26 154.467 168.765C156.212 168.725 158.374 170.174 158.374 171.935V172.111C156.418 175.249 151.713 174.992 148.64 173.68C145.567 172.367 146.24 170.221 143.485 169.069C142.458 168.647 141.515 168.046 140.699 167.294C140.568 166.368 140.568 165.429 140.697 164.504Z" fill="black"/>
<path d="M146.649 166.93C146.583 167.008 146.489 167.057 146.388 167.066C146.287 167.076 146.186 167.046 146.107 166.982C146.027 166.918 145.976 166.826 145.964 166.725C145.951 166.624 145.979 166.522 146.041 166.441C146.501 165.826 147.113 165.341 147.816 165.032C148.52 164.722 149.291 164.601 150.056 164.678C150.22 164.881 150.388 165.081 150.559 165.279C149.82 165.192 149.071 165.299 148.386 165.588C147.7 165.878 147.102 166.34 146.649 166.93Z" fill="white"/>
<path d="M145.436 165.573C145.37 165.651 145.277 165.7 145.176 165.709C145.074 165.719 144.973 165.689 144.894 165.625C144.815 165.561 144.763 165.469 144.751 165.368C144.739 165.267 144.766 165.165 144.828 165.085C145.314 164.451 145.954 163.952 146.688 163.635C147.421 163.319 148.223 163.195 149.018 163.276C149.165 163.496 149.32 163.714 149.479 163.931C147.977 163.826 146.636 164.112 145.436 165.573Z" fill="white"/>
<path d="M147.909 168.258C147.842 168.333 147.749 168.381 147.649 168.39C147.548 168.399 147.448 168.368 147.37 168.305C147.291 168.242 147.24 168.151 147.228 168.051C147.215 167.951 147.241 167.85 147.301 167.769C147.751 167.168 148.345 166.69 149.028 166.381C149.711 166.071 150.462 165.939 151.21 165.997C151.408 166.207 151.61 166.409 151.811 166.606C151.073 166.52 150.326 166.627 149.642 166.917C148.958 167.206 148.361 167.668 147.909 168.258Z" fill="white"/>
<path d="M154.467 168.763C156.212 168.722 158.374 170.172 158.374 171.933V172.108C156.449 175.2 151.855 174.995 148.779 173.733C149.014 169.509 153.072 168.747 154.467 168.763Z" fill="white"/>
<path d="M149.205 169.524C149.14 169.602 149.046 169.651 148.945 169.66C148.844 169.67 148.743 169.64 148.663 169.576C148.584 169.512 148.533 169.42 148.52 169.319C148.508 169.218 148.536 169.116 148.597 169.035C149.048 168.433 149.644 167.955 150.329 167.646C151.014 167.336 151.767 167.205 152.516 167.265C152.762 167.483 153.006 167.689 153.248 167.882C151.746 167.777 150.406 168.062 149.205 169.524Z" fill="white"/>
<path d="M127.44 116.054L142.828 124.627C144.223 125.404 145.338 126.599 146.018 128.044C146.697 129.489 146.905 131.111 146.614 132.68L143.627 148.765L146.742 158.28C143.771 161.99 138.09 161.446 138.09 161.446C135.384 156.019 134.421 151.791 132.884 147.244C131.346 142.696 130.322 139.558 130.322 139.558L117.542 136.066C114.62 135.272 112.002 133.62 110.028 131.323C108.054 129.027 106.814 126.191 106.469 123.182C106.251 121.25 106.241 119.93 106.241 119.93L127.44 116.054Z" fill="#455A64"/>
<path opacity="0.2" d="M127.325 120.377C127.323 122.094 126.713 123.756 125.604 125.067L136.463 131.864C138.056 132.861 139.236 134.4 139.785 136.197L143.629 148.765L140.162 134.769C139.763 133.159 138.75 131.769 137.339 130.897L127.313 124.7C128.337 122.138 127.325 120.377 127.325 120.377Z" fill="black"/>
<path d="M136.906 101.383C135.337 105.584 130.009 104.511 130.009 104.511C129.736 98.8551 136.906 101.383 136.906 101.383Z" fill="#263238"/>
<path d="M125.774 89.6148L126.171 89.6188C128.83 89.649 132.193 91.4575 133.836 96.0972L140.222 108.466L132.933 111.698L128.944 100.021L125.774 89.6148Z" fill="#FFA8A7"/>
<path opacity="0.2" d="M130.894 97.8231C131.403 99.2836 131.435 100.86 131.516 102.405C131.598 103.949 131.776 105.815 132.483 107.19C133.262 106.651 134.195 106.379 135.142 106.413C136.089 106.448 136.999 106.787 137.737 107.382C138.266 107.826 138.673 108.398 138.919 109.043L132.933 111.698L128.944 100.021L126.983 93.5834C127.884 93.9948 128.694 94.5817 129.365 95.3096C130.037 96.0376 130.556 96.892 130.894 97.8231Z" fill="black"/>
<path d="M132.864 109.466C133.141 108.777 133.589 108.17 134.166 107.704C134.744 107.237 135.43 106.926 136.162 106.799C136.923 106.721 137.692 106.832 138.401 107.122C139.109 107.413 139.734 107.874 140.222 108.465C141.017 109.426 140.892 110.725 140.39 111.867C139.971 112.754 139.257 113.468 138.37 113.888C137.484 114.308 136.479 114.408 135.527 114.171C133.643 113.645 132.155 111.288 132.864 109.466Z" fill="#FFA8A7"/>
<path d="M125.774 89.6148C128.95 89.2624 132.951 90.726 136.906 101.383C131.755 101.51 130.009 104.511 130.009 104.511C127.682 98.5822 125.063 90.3624 125.063 90.3624L125.774 89.6148Z" fill="#455A64"/>
<path opacity="0.2" d="M125.774 89.6148C128.95 89.2624 132.951 90.726 136.906 101.383C131.755 101.51 130.009 104.511 130.009 104.511C127.682 98.5822 125.063 90.3624 125.063 90.3624L125.774 89.6148Z" fill="#3C8F7C"/>
<path d="M105.995 121.13C108.725 123.752 121.836 124.234 128.526 117.865C127.884 113.369 128.098 108.553 128.526 103.789C128.954 99.0262 131.737 90.6953 126.421 89.7268C119.321 88.3406 115.734 89.6148 109.938 91.1238C104.871 99.5618 105.567 112.192 105.995 121.13Z" fill="#90EA93"/>
<path opacity="0.2" d="M105.995 121.13C108.725 123.752 121.836 124.234 128.526 117.865C127.884 113.369 128.098 108.553 128.526 103.789C128.954 99.0262 131.737 90.6953 126.421 89.7268C119.321 88.3406 115.734 89.6148 109.938 91.1238C104.871 99.5618 105.567 112.192 105.995 121.13Z" fill="white"/>
<path d="M116.457 86.6725C115.947 86.4444 115.492 86.1091 115.123 85.6894C114.754 85.2696 114.48 84.7752 114.319 84.24C114.005 83.1684 113.849 82.0569 113.855 80.9403L113.525 73.2197C113.481 72.1805 113.45 71.0809 113.955 70.172C114.154 69.8136 114.429 69.5025 114.759 69.2603C115.09 69.018 115.47 68.8504 115.871 68.7689C116.273 68.6873 116.688 68.6939 117.087 68.788C117.486 68.8822 117.86 69.0617 118.183 69.3142C119.22 67.2524 121.638 65.8088 123.921 66.1475C125.263 66.3461 126.478 67.027 127.658 67.6955L131.523 69.8836C132.329 70.34 133.17 70.8294 133.651 71.621C134.058 72.358 134.199 73.2123 134.051 74.041C133.901 74.8622 133.657 75.6634 133.324 76.4291C133.004 77.35 132.581 78.2315 132.062 79.0567C131.536 79.8867 130.743 80.5127 129.813 80.8314C126.762 81.7372 124.403 84.2218 121.645 85.8125C120.903 86.2799 120.109 86.6585 119.279 86.9405C118.332 87.1322 117.35 87.039 116.457 86.6725Z" fill="#263238"/>
<path d="M123.325 87.2974L123.05 90.3762C123.036 90.6151 123.097 90.8522 123.224 91.0553C123.394 91.3769 123.46 91.744 123.411 92.1048C123.362 92.4656 123.202 92.8021 122.952 93.0669C122.555 93.3657 122.073 93.5292 121.577 93.5331C120.638 93.5837 119.699 93.435 118.822 93.0967C117.945 92.7584 117.15 92.2383 116.488 91.5704C116.354 91.4304 116.249 91.265 116.18 91.084C116.111 90.9029 116.079 90.7099 116.085 90.5162L116.287 82.7079L123.325 87.2974Z" fill="#FFA8A7"/>
<path opacity="0.3" d="M116.287 82.7084L123.325 87.2974L123.081 90.0281C121.589 89.6783 120.088 89.2477 118.907 88.2876C117.405 87.0663 116.085 85.856 116.287 82.7084Z" fill="black"/>
<path d="M131.328 76.1535C131.174 79.752 130.317 83.2855 128.803 86.5538C128.495 87.2786 128.087 87.9564 127.59 88.5677C127.087 89.1819 126.394 89.61 125.619 89.7837C124.668 89.9615 123.705 89.6259 122.795 89.2948C121.132 88.6917 119.427 88.0641 118.095 86.9005C116.762 85.7369 115.866 83.8995 116.314 82.1893C115.844 82.3772 115.335 82.4444 114.832 82.3846C114.33 82.3248 113.85 82.14 113.437 81.847C113.039 81.5285 112.726 81.1158 112.527 80.6462C112.328 80.1766 112.249 79.6649 112.297 79.1572C112.401 78.1732 113.153 77.1882 114.142 77.1633C114.445 77.1725 114.743 77.2466 115.015 77.3806C115.287 77.5145 115.527 77.7052 115.718 77.9398C116.099 78.4114 116.409 78.9353 116.64 79.4954C116.745 79.7646 116.904 80.0092 117.108 80.2137C117.212 80.3143 117.345 80.3806 117.488 80.4039C117.631 80.4272 117.778 80.4062 117.908 80.3439C118.029 80.2426 118.125 80.1159 118.191 79.9727C118.256 79.8296 118.289 79.6737 118.287 79.5163L118.572 77.2971C118.595 77.1269 118.667 76.9671 118.78 76.8369C118.892 76.7068 119.039 76.6117 119.204 76.5633C119.702 76.3951 120.122 76.0538 120.389 75.6015C120.623 75.2043 120.795 74.7741 120.9 74.3255C120.921 74.2417 120.962 74.1641 121.019 74.099C121.076 74.0339 121.147 73.9832 121.227 73.9509C121.308 73.9186 121.394 73.9056 121.48 73.9131C121.567 73.9206 121.65 73.9483 121.723 73.9939C124.468 75.7038 128.143 76.4024 131.328 76.1535Z" fill="#FFA8A7"/>
<path d="M125.547 80.6425L126.943 84.3222L124.504 84.3515L125.547 80.6425Z" fill="#F28F8F"/>
<path d="M122.03 85.1027L123.671 86.2894C123.481 86.4659 123.239 86.5759 122.982 86.6027C122.724 86.6295 122.465 86.5716 122.243 86.4378C122.06 86.2734 121.939 86.051 121.9 85.808C121.861 85.5649 121.907 85.3159 122.03 85.1027Z" fill="#F28F8F"/>
<path opacity="0.3" d="M122.03 85.1027L123.671 86.2894C123.481 86.4659 123.239 86.5759 122.982 86.6027C122.724 86.6295 122.465 86.5716 122.243 86.4378C122.06 86.2734 121.939 86.051 121.9 85.808C121.861 85.5649 121.907 85.3159 122.03 85.1027Z" fill="black"/>
<path d="M122.855 86.6054C122.639 86.6111 122.426 86.5528 122.243 86.4378C122.095 86.3163 121.986 86.1537 121.93 85.9705C121.874 85.7872 121.874 85.5915 121.929 85.408C122.207 85.452 122.457 85.6004 122.63 85.8229C122.802 86.0454 122.883 86.3253 122.855 86.6054Z" fill="#F28F8F"/>
<path d="M122.107 80.1772C122.071 80.3083 122.073 80.4474 122.116 80.5768C122.158 80.7063 122.237 80.8204 122.344 80.9046C122.452 80.9888 122.581 81.0394 122.717 81.0499C122.853 81.0605 122.988 81.0306 123.107 80.9639C123.226 80.8973 123.322 80.7969 123.384 80.6755C123.446 80.5541 123.47 80.4172 123.454 80.2819C123.438 80.1467 123.382 80.0193 123.293 79.9159C123.205 79.8124 123.088 79.7376 122.956 79.7007C122.869 79.6762 122.778 79.669 122.689 79.6797C122.599 79.6903 122.512 79.7186 122.433 79.7629C122.354 79.8071 122.285 79.8665 122.229 79.9376C122.173 80.0087 122.132 80.0901 122.107 80.1772Z" fill="#263238"/>
<path d="M127.731 81.5261C127.694 81.6572 127.697 81.7963 127.739 81.9258C127.781 82.0552 127.861 82.1693 127.968 82.2535C128.075 82.3377 128.204 82.3883 128.34 82.3989C128.476 82.4094 128.612 82.3795 128.73 82.3129C128.849 82.2462 128.945 82.1458 129.007 82.0244C129.069 81.903 129.093 81.7661 129.077 81.6309C129.061 81.4957 129.005 81.3683 128.916 81.2648C128.828 81.1614 128.711 81.0865 128.579 81.0497C128.404 81.0004 128.216 81.0229 128.056 81.1123C127.897 81.2016 127.78 81.3504 127.731 81.5261Z" fill="#263238"/>
<path d="M128.444 79.703L130.008 80.6999C130.067 80.5088 130.067 80.3042 130.006 80.1136C129.946 79.923 129.829 79.7553 129.67 79.6332C129.48 79.5293 129.264 79.4808 129.047 79.4932C128.831 79.5055 128.622 79.5782 128.444 79.703Z" fill="#263238"/>
<path d="M123.691 78.3758L121.849 78.598C121.879 78.4 121.968 78.2157 122.105 78.0698C122.242 77.924 122.421 77.8235 122.617 77.782C122.833 77.7709 123.049 77.8206 123.239 77.9255C123.428 78.0305 123.585 78.1865 123.691 78.3758Z" fill="#263238"/>
<path d="M131.573 75.5357C131.507 76.0561 131.293 76.5467 130.959 76.9506C130.624 77.3544 130.181 77.6548 129.682 77.8167L130.226 76.6864C129.277 77.3884 128.142 77.7952 126.962 77.8563C127.468 77.52 127.873 77.0541 128.137 76.5073C126.875 77.3875 125.411 77.9351 123.88 78.0994C124.8 77.7413 125.62 77.1662 126.269 76.4229C125.14 77.2134 123.767 77.5768 122.396 77.4482L123.457 76.2038C122.394 76.7538 121.191 76.9733 120.003 76.834L121.27 75.5984L119.372 75.9326C119.755 74.9785 120.036 73.987 120.212 72.9743C122.129 72.8183 124.058 72.9835 125.92 73.4632C127.805 73.949 129.754 74.8451 131.573 75.5357Z" fill="#263238"/>
<path d="M125.343 120.837C125.343 120.847 125.344 120.857 125.347 120.867C125.351 120.88 125.357 120.891 125.365 120.901L126.02 121.65C126.01 121.639 126.013 121.617 126.009 121.6C126.033 121.716 126.203 121.712 126.486 121.553L131.972 118.467C132.397 118.222 132.757 117.88 133.024 117.469L137.796 108.585C137.874 108.439 137.871 108.351 137.816 108.31C137.821 108.314 137.835 108.31 137.838 108.314L137.184 107.565C137.173 107.554 137.16 107.545 137.146 107.54C137.132 107.534 137.117 107.531 137.101 107.531C137.088 107.53 137.076 107.53 137.063 107.531C137.052 107.532 137.041 107.533 137.03 107.535H137.022H137.019L136.999 107.54L136.97 107.548L136.94 107.558L136.911 107.568L136.882 107.58C136.873 107.583 136.863 107.588 136.853 107.592C136.843 107.597 136.834 107.601 136.824 107.606L136.794 107.621L136.763 107.636L136.731 107.654L136.718 107.661L131.232 110.747L131.213 110.758L131.182 110.776L131.152 110.794L131.124 110.812L131.097 110.829L131.074 110.844L131.051 110.86L131.033 110.872L131.017 110.883L131 110.895L130.984 110.907L130.972 110.916L130.96 110.924L130.948 110.933L130.936 110.942L130.924 110.951L130.914 110.959L130.904 110.967L130.895 110.974L130.885 110.982L130.876 110.989L130.866 110.997L130.856 111.004L130.846 111.012L130.836 111.02L130.826 111.028L130.816 111.037L130.807 111.045L130.796 111.053L130.782 111.066L130.766 111.078L130.752 111.091L130.736 111.104C130.713 111.125 130.69 111.145 130.667 111.166L130.649 111.183L130.631 111.2L130.615 111.215L130.605 111.224L130.595 111.234L130.585 111.244L130.575 111.254L130.565 111.263L130.556 111.272L130.547 111.281L130.538 111.291L130.529 111.299L130.52 111.308L130.512 111.317L130.502 111.327L130.492 111.338L130.482 111.348L130.472 111.359L130.463 111.369L130.452 111.38L130.44 111.395L130.427 111.409L130.414 111.423L130.4 111.439L130.382 111.46L130.365 111.48L130.346 111.504L130.325 111.53C130.317 111.539 130.31 111.549 130.304 111.558L130.282 111.587C130.275 111.596 130.268 111.606 130.261 111.615L130.242 111.644C130.236 111.653 130.229 111.663 130.224 111.672L130.207 111.699L130.191 111.725L130.177 111.75L125.405 120.637C125.401 120.646 125.396 120.654 125.392 120.663C125.388 120.671 125.384 120.679 125.381 120.687C125.377 120.696 125.374 120.703 125.371 120.711C125.367 120.719 125.364 120.728 125.361 120.735C125.358 120.743 125.356 120.751 125.354 120.759C125.351 120.768 125.35 120.776 125.348 120.784C125.346 120.791 125.348 120.793 125.346 120.798V120.801V120.809C125.344 120.818 125.343 120.827 125.343 120.837ZM137.654 108.296C137.659 108.296 137.668 108.289 137.673 108.288C137.691 108.284 137.695 108.295 137.711 108.294C137.692 108.293 137.673 108.293 137.655 108.296H137.654ZM131.272 111.965C131.319 111.92 131.372 111.879 131.423 111.836C131.373 111.879 131.32 111.919 131.272 111.965H131.272ZM131.013 112.24C131.032 112.217 131.057 112.193 131.079 112.169C131.059 112.193 131.033 112.217 131.014 112.24H131.013ZM125.999 121.55C126.01 121.493 126.03 121.438 126.059 121.388C126.027 121.442 126.008 121.503 126.001 121.566C126.002 121.558 125.998 121.557 125.999 121.55Z" fill="#263238"/>
<path opacity="0.15" d="M125.343 120.81V120.802V120.8C125.343 120.795 125.343 120.79 125.345 120.785C125.347 120.78 125.348 120.769 125.351 120.761C125.353 120.752 125.355 120.744 125.358 120.737C125.361 120.729 125.364 120.721 125.368 120.713C125.371 120.705 125.374 120.697 125.378 120.689C125.381 120.681 125.385 120.672 125.389 120.664C125.393 120.656 125.398 120.648 125.402 120.639L130.177 111.755L130.832 112.503L126.059 121.387C126.03 121.438 126.01 121.493 125.999 121.55C125.995 121.567 125.995 121.585 125.999 121.602C126.002 121.62 126.01 121.636 126.02 121.65L125.365 120.901C125.357 120.891 125.351 120.879 125.347 120.866C125.344 120.857 125.343 120.846 125.343 120.836C125.342 120.828 125.342 120.819 125.343 120.81Z" fill="white"/>
<path opacity="0.2" d="M130.19 111.729L130.206 111.702L130.223 111.675C130.229 111.666 130.235 111.657 130.242 111.647L130.261 111.619C130.268 111.61 130.274 111.6 130.282 111.591L130.303 111.562C130.31 111.552 130.317 111.543 130.325 111.534L130.346 111.507L130.365 111.483L130.382 111.463L130.4 111.443L130.414 111.427L130.426 111.412L130.439 111.398L130.452 111.383L130.462 111.372L130.472 111.362L130.482 111.351L130.492 111.341L130.502 111.331L130.511 111.321L130.52 111.312L130.529 111.303L130.538 111.294L130.547 111.285L130.556 111.276L130.565 111.267L130.575 111.257L130.585 111.247L130.595 111.238L130.605 111.228L130.615 111.218L130.631 111.203L130.649 111.187L130.667 111.17C130.69 111.149 130.711 111.128 130.736 111.108L130.751 111.095L130.766 111.082L130.782 111.069L130.796 111.056L130.807 111.048L130.816 111.04L130.826 111.032L130.836 111.024L130.846 111.016L130.856 111.008L130.866 111L130.875 110.993L130.885 110.985L130.895 110.978L130.904 110.97L130.914 110.963L130.924 110.955L130.936 110.946L130.948 110.937L130.96 110.928L130.972 110.919L130.984 110.911L131 110.899L131.017 110.887L131.033 110.876L131.051 110.863L131.074 110.848L131.097 110.832L131.123 110.815L131.152 110.797L131.182 110.779L131.213 110.761L131.231 110.751L136.718 107.664L136.731 107.657L136.763 107.64L136.793 107.624L136.824 107.61C136.833 107.605 136.843 107.6 136.853 107.596C136.863 107.592 136.872 107.587 136.882 107.583L136.911 107.571L136.94 107.561L136.969 107.551L136.999 107.543L137.019 107.539H137.021H137.03C137.041 107.537 137.052 107.535 137.063 107.534C137.075 107.534 137.088 107.534 137.101 107.534C137.116 107.534 137.132 107.537 137.146 107.543C137.16 107.549 137.173 107.558 137.184 107.569L137.838 108.318C137.809 108.284 137.754 108.273 137.676 108.291C137.569 108.318 137.468 108.36 137.374 108.417L131.888 111.503C131.78 111.565 131.676 111.634 131.577 111.71C131.472 111.79 131.371 111.876 131.275 111.967C131.183 112.054 131.097 112.146 131.017 112.243C130.948 112.324 130.888 112.411 130.836 112.504L130.181 111.755L130.19 111.729Z" fill="white"/>
<path d="M106.427 93.5154C106.767 92.8557 107.266 92.2913 107.879 91.8736C108.493 91.4559 109.2 91.1982 109.939 91.1237L110.862 92.5336C111.823 94.2903 112.316 96.2647 112.294 98.2671L112.129 113.091H112.125C112.489 113.239 112.851 113.393 113.213 113.543C116.273 114.859 119.472 115.826 122.749 116.425C124.458 115.069 126.583 114.348 128.763 114.384L127.954 115.891C129.487 116.872 132.95 115.103 132.95 115.103C133.204 117.264 131.805 119.507 129.948 120.642C128.092 121.778 110.37 120.109 106.614 117.677C104.143 116.077 104.727 100.793 104.727 100.793C104.555 98.2517 105.147 95.7171 106.427 93.5154Z" fill="#FFA8A7"/>
<path d="M136.696 110.633C136.814 111.217 136.882 111.81 136.897 112.406C136.76 113.822 136.159 115.154 135.188 116.196C134.987 116.424 134.735 116.602 134.453 116.715C134.311 116.77 134.158 116.786 134.008 116.762C133.858 116.738 133.717 116.675 133.599 116.579C133.39 116.33 133.284 116.011 133.301 115.687C133.256 115.207 133.283 114.723 133.38 114.252C133.481 113.776 133.749 113.353 134.136 113.06C134.438 112.881 134.76 112.739 135.095 112.636C135.424 112.498 135.717 112.286 135.951 112.017L136.696 110.633Z" fill="#FFA8A7"/>
<path d="M109.938 91.1237C105.677 91.5264 103.315 94.4798 104.358 107.531C107.387 109.494 112.733 107.821 112.733 107.821C113.643 93.5269 111.324 91.9576 109.938 91.1237Z" fill="#3C8F7C"/>
<path opacity="0.2" d="M109.938 91.1237C105.677 91.5264 103.315 94.4798 104.358 107.531C107.387 109.494 112.733 107.821 112.733 107.821C113.643 93.5269 111.324 91.9576 109.938 91.1237Z" fill="#3C8F7C"/>
<path d="M102.076 48.1368C102.298 47.739 102.624 47.4087 103.018 47.1812L118.378 38.2134C119.513 37.5622 122.2 38.4449 122.2 40.269V56.9361C122.2 57.3819 122.082 57.8198 121.858 58.2054C121.634 58.591 121.313 58.9105 120.926 59.1317L110.929 64.8439L112.655 63.8572L111.826 66.2079C111.814 66.2416 111.789 66.2692 111.757 66.285C111.725 66.3007 111.688 66.3034 111.654 66.2924L111.658 66.3022C111.511 66.2266 110.858 65.8773 110.489 65.6319L110.483 65.6275L110.458 65.6119V65.607C110.445 65.599 110.434 65.589 110.424 65.5772L110.221 65.2475L105.567 68.0684C105.193 68.3018 104.765 68.4322 104.324 68.4464C103.884 68.4606 103.448 68.358 103.06 68.1492C102.672 67.9404 102.346 67.6327 102.116 67.2573C101.885 66.882 101.758 66.4523 101.747 66.0119V49.3746C101.749 48.9405 101.862 48.5142 102.076 48.1368Z" fill="#90EA93"/>
<path opacity="0.2" d="M110.425 65.5786C110.435 65.5903 110.446 65.6004 110.459 65.6084V65.6133L110.484 65.6293L110.49 65.6333C110.861 65.8786 111.512 66.2279 111.659 66.3035L111.655 66.2942C111.622 66.2862 111.593 66.2654 111.574 66.2364L110.771 64.9359L110.93 64.847L110.224 65.2506L110.425 65.5786Z" fill="black"/>
<path opacity="0.4" d="M104.592 49.5657C104.755 49.238 104.985 48.9488 105.269 48.7172C105.365 48.6392 105.468 48.5689 105.575 48.507L120.934 39.5392C121.063 39.4661 121.208 39.4278 121.356 39.4283C121.503 39.4288 121.648 39.468 121.776 39.542C121.904 39.616 122.01 39.7222 122.084 39.8499C122.158 39.9777 122.197 40.1227 122.197 40.2703C122.197 38.448 119.511 37.5636 118.375 38.2147L103.016 47.1825C102.621 47.4102 102.296 47.7404 102.073 48.1381L104.592 49.5657Z" fill="black"/>
<path opacity="0.2" d="M104.307 67.3382V50.6995C104.307 50.5994 104.313 50.4995 104.326 50.4004C104.368 50.1091 104.458 49.8269 104.593 49.5657L102.078 48.1367C101.864 48.5143 101.751 48.9406 101.75 49.3745V66.0132C101.76 66.4536 101.888 66.8832 102.118 67.2586C102.349 67.6339 102.674 67.9416 103.062 68.1505C103.45 68.3593 103.886 68.4619 104.327 68.4478C104.767 68.4337 105.196 68.3034 105.569 68.0702C105.441 68.1432 105.296 68.1814 105.148 68.1808C105 68.1802 104.855 68.1409 104.728 68.0668C104.6 67.9928 104.494 67.8865 104.42 67.7586C104.346 67.6308 104.307 67.4858 104.307 67.3382Z" fill="black"/>
<path d="M113.575 56.4099C114.369 55.9512 115.014 56.3183 115.016 57.2317C114.99 57.7296 114.847 58.2143 114.598 58.6463C114.349 59.0783 114.002 59.4454 113.584 59.7175C112.789 60.1762 112.145 59.8042 112.142 58.8908C112.168 58.3936 112.312 57.9096 112.561 57.4784C112.81 57.0472 113.157 56.6811 113.575 56.4099Z" fill="black"/>
<path d="M113.565 53.2529C114.605 52.6529 115.604 52.4604 116.443 52.7106L115.5 54.6902C115.169 54.6214 114.828 54.6194 114.496 54.6842C114.165 54.7491 113.849 54.8796 113.569 55.068C112.801 55.5363 112.144 56.1669 111.645 56.9156L110.695 56.0294C111.435 54.9038 112.416 53.9558 113.565 53.2529Z" fill="black"/>
<path d="M113.558 50.5382C115.113 49.6399 116.603 49.359 117.857 49.7292L116.914 51.7084C115.937 51.4222 114.776 51.6391 113.563 52.3395C112.224 53.1605 111.08 54.2649 110.213 55.5752L109.262 54.6894C110.373 53.0076 111.839 51.5904 113.558 50.5382Z" fill="black"/>
<path d="M113.55 47.823C115.625 46.6252 117.606 46.2505 119.275 46.7412L118.336 48.7181C116.938 48.3141 115.288 48.6243 113.555 49.6253C111.647 50.7937 110.018 52.3665 108.784 54.2329L107.833 53.3467C109.311 51.1085 111.263 49.2227 113.55 47.823Z" fill="black"/>
</svg>
