<svg width="325" height="250" viewBox="0 0 325 250" fill="none" xmlns="http://www.w3.org/2000/svg">
<path d="M325 113.284C325 180.509 236.933 215.477 207.717 235.006C178.5 254.535 77 199.59 77 132.365C77 65.1395 170.5 -11.4559 186.75 1.4313C203 14.3185 325 46.0588 325 113.284Z" fill="#D2F2D3"/>
<path d="M217.065 176.111L123 121.635L173.775 92.2289L267.842 146.707L217.065 176.111Z" fill="#FFE5CF"/>
<path d="M217.065 222.449L123 167.973L173.775 138.567L267.842 193.043L217.065 222.449Z" fill="#FFE5CF"/>
<path d="M216.166 168.43L203.727 161.314L206.513 159.701L218.953 166.818L216.166 168.43Z" fill="#442E3A"/>
<path d="M193.773 155.434L181.333 148.318L184.116 146.703L196.556 153.82L193.773 155.434Z" fill="#442E3A"/>
<path d="M171.631 142.429L159.191 135.313L161.977 133.701L174.411 140.815L171.631 142.429Z" fill="#442E3A"/>
<path d="M148.356 128.607L135.916 121.491L138.702 119.877L151.142 126.993L148.356 128.607Z" fill="#442E3A"/>
<path d="M221.501 164.773C222.724 165.33 224.06 165.591 225.402 165.537C226.743 165.482 228.054 165.113 229.228 164.459L256.177 148.851C258.459 147.529 258.708 145.523 256.731 144.376L244.02 137.015C242.797 136.461 241.461 136.201 240.119 136.257C238.777 136.313 237.467 136.683 236.294 137.337L209.345 152.934C207.061 154.256 206.812 156.264 208.789 157.409L221.501 164.773Z" fill="white"/>
<path d="M237.701 142.23L211.763 157.25L210.415 156.465C209.218 155.773 209.37 154.55 210.753 153.749L237.701 138.141C238.414 137.744 239.211 137.519 240.026 137.486C240.841 137.452 241.653 137.61 242.397 137.946L255.108 145.308C256.305 146.002 256.153 147.225 254.771 148.026L253.76 148.611L242.397 142.031C241.653 141.694 240.841 141.537 240.025 141.572C239.21 141.607 238.414 141.832 237.701 142.23Z" fill="#FFD5B0"/>
<path d="M223.128 163.831L211.763 157.25L237.701 142.23C238.414 141.833 239.211 141.608 240.026 141.574C240.841 141.541 241.653 141.698 242.397 142.035L253.757 148.616L227.819 163.636C227.106 164.033 226.311 164.258 225.496 164.291C224.682 164.325 223.871 164.168 223.128 163.831Z" fill="#F93568"/>
<path d="M238.704 144.321C240.841 143.824 241.143 144.386 242.391 146.645C242.86 147.493 242.652 148.875 243.443 149.836C244.474 150.946 245.712 151.843 247.087 152.477L245.706 153.278C245.706 153.278 241.812 150.528 241.68 148.8C241.549 147.071 241.801 145.892 239.913 145.761C238.025 145.631 234.633 147.027 236.461 148.357C238.29 149.687 240.625 152.125 239.913 152.282C239.201 152.439 237.897 152.309 236.33 150.345C234.763 148.38 232.936 146.548 235.156 145.763C237.375 144.978 237.773 144.538 238.704 144.321Z" fill="#EC234F"/>
<path d="M243.638 146.105C244.25 145.695 244.274 147.038 244.911 147.922C245.866 148.801 247.057 149.381 248.336 149.591C249.017 149.793 249.62 150.198 250.067 150.751L249.153 151.282C248.499 150.704 247.707 150.308 246.854 150.131C245.204 149.688 244.324 149.776 243.981 148.357C243.638 146.937 243.198 146.399 243.638 146.105Z" fill="#EC234F"/>
<path d="M239.381 147.578C240.068 147.558 240.071 148.294 240.606 149.483C241.142 150.671 240.115 150.516 239.381 149.709C238.646 148.902 237.717 147.627 239.381 147.578Z" fill="#EC234F"/>
<path d="M231.141 146.025C232.098 146.746 232.916 147.636 233.556 148.65C234.094 149.831 234.829 152.295 236.543 152.928C238.071 153.243 239.634 153.359 241.192 153.273C242.043 153.512 242.82 153.96 243.454 154.578L242.109 155.363C241.579 154.76 240.886 154.324 240.115 154.107C239.038 153.911 237.422 154.314 235.954 153.278C234.486 152.241 233.529 149.885 232.759 149.395C231.989 148.905 232.29 150.755 230.032 150.337C228.774 150.158 227.631 149.507 226.831 148.517L231.141 146.025Z" fill="#EC234F"/>
<path d="M232.762 152.045C233.313 152.673 233.36 153.763 234.389 154.843C235.417 155.924 235.563 154.991 236.934 155.04C238.305 155.088 239.595 156.812 239.595 156.812L238.715 157.323C238.715 157.323 237.023 156.267 236.192 156.561C235.361 156.855 233.403 158.131 232.423 157.937C231.443 157.742 230.759 156.512 231.444 155.776C232.13 155.04 232.668 154.008 231.2 153.714C229.732 153.421 227.443 155.032 226.257 153.911C225.228 152.932 228.655 151.997 229.829 151.701C231.003 151.406 231.942 151.113 232.762 152.045Z" fill="#EC234F"/>
<path d="M225.335 150.695C226.337 149.695 227.047 149.968 227.39 150.345C227.733 150.722 227.047 151.554 226.02 151.653C224.993 151.752 223.231 152.351 222.838 153.278C222.445 154.204 223.866 155.487 224.992 155.361C226.117 155.236 229.298 155.88 229.005 157.246C228.713 158.612 229.201 160.091 230.474 159.943C231.445 159.909 232.413 160.082 233.313 160.45L231.904 161.262C230.773 161.512 229.588 161.302 228.609 160.68C227.385 159.65 227.63 159.257 227.827 158.225C227.85 157.936 227.808 157.644 227.704 157.373C227.599 157.102 227.435 156.858 227.223 156.66C227.011 156.462 226.757 156.314 226.48 156.228C226.203 156.142 225.911 156.12 225.624 156.164C224.156 156.212 223.128 157.392 221.512 156.311C219.897 155.231 218.576 155.134 220.338 153.906C222.101 152.678 221.839 151.408 221.839 151.408L223.405 150.499C223.405 150.499 224.748 151.282 225.335 150.695Z" fill="#EC234F"/>
<path d="M251.701 147.426C250.527 147.751 249.306 147.869 248.092 147.774C246.966 147.479 245.498 146.35 245.351 145.565C245.204 144.78 243.687 144.19 242.708 143.797C241.73 143.404 242.395 142.035 242.395 142.035L251.701 147.426Z" fill="#EC234F"/>
<path d="M250.067 148.357C251.265 148.212 252.154 148.577 251.91 148.961C251.668 149.192 251.362 149.343 251.033 149.394C250.704 149.445 250.367 149.394 250.067 149.247C249.461 148.903 249.303 148.449 250.067 148.357Z" fill="#EC234F"/>
<path d="M225.383 157.25C226.238 157.489 226.847 158.035 226.409 158.869C225.97 159.703 225.411 159.325 224.419 158.398C223.181 157.25 224.865 157.106 225.383 157.25Z" fill="#EC234F"/>
<path d="M217.915 153.688C217.789 154.014 217.744 154.366 217.784 154.713C217.823 155.061 217.945 155.394 218.14 155.683C218.826 156.413 218.532 156.614 220.049 157.254C220.633 157.439 221.138 157.815 221.484 158.321C221.83 158.828 221.997 159.437 221.958 160.05C221.908 161.088 221.912 162.128 221.969 163.165L220.999 162.603C220.825 161.522 220.736 160.429 220.734 159.334C220.833 158.478 220.136 158.177 219.505 157.96C218.709 157.886 217.908 157.886 217.112 157.96C215.858 157.524 214.658 156.944 213.537 156.233L214.476 155.691C214.476 155.691 215.797 156.421 216.434 156.225C217.071 156.029 216.871 154.305 216.871 154.305L217.915 153.688Z" fill="#EC234F"/>
<path d="M224.405 159.606C225.327 159.934 225.881 161.275 226.831 161.765C227.781 162.255 228.951 162.982 228.951 162.982L227.819 163.636C227.819 163.636 225.922 163.479 225.482 162.452C225.042 161.426 224.424 161.077 223.974 161.617C223.62 162.343 223.408 163.13 223.348 163.936L222.522 163.479C222.767 162.494 222.956 161.495 223.087 160.488C223.181 159.529 223.671 159.343 224.405 159.606Z" fill="#EC234F"/>
<path d="M218.385 158.869C219.324 158.792 219.95 159.31 219.901 159.802C219.853 160.293 218.474 159.694 217.984 159.497C217.494 159.301 217.771 158.918 218.385 158.869Z" fill="#EC234F"/>
<path d="M154.737 125.655C155.961 126.209 157.297 126.469 158.639 126.413C159.98 126.357 161.29 125.987 162.464 125.333L189.413 109.727C191.697 108.405 191.946 106.397 189.969 105.252L177.257 97.8894C176.033 97.3349 174.697 97.0753 173.355 97.1311C172.014 97.187 170.704 97.5569 169.53 98.2113L142.581 113.819C140.299 115.141 140.05 117.148 142.027 118.294L154.737 125.655Z" fill="white"/>
<path d="M170.939 103.11L145.001 118.132L143.653 117.347C142.456 116.653 142.608 115.43 143.99 114.629L170.939 99.0278C171.652 98.6304 172.448 98.4056 173.264 98.3716C174.079 98.3375 174.891 98.495 175.635 98.8315L188.342 106.194C189.54 106.887 189.39 108.11 188.006 108.911L186.995 109.496L175.632 102.916C174.889 102.579 174.077 102.421 173.262 102.455C172.447 102.489 171.652 102.713 170.939 103.11Z" fill="#FFD5B0"/>
<path d="M156.364 124.713L145.001 118.132L170.939 103.11C171.652 102.713 172.448 102.488 173.264 102.454C174.079 102.42 174.891 102.578 175.635 102.916L186.998 109.496L161.057 124.514C160.344 124.911 159.549 125.136 158.734 125.171C157.919 125.205 157.108 125.049 156.364 124.713Z" fill="#FFB448"/>
<path d="M169.622 103.873C169.622 103.873 170.81 109.437 166.985 111.773C163.159 114.109 158.868 113.912 158.175 116.857C157.482 119.803 154.155 120.389 153.177 118.132C152.617 116.604 152.617 114.925 153.177 113.397L169.622 103.873Z" fill="#FFA227"/>
<path d="M176.81 103.599C176.81 103.599 173.854 104.682 173.157 106.646C172.46 108.611 172.811 111.065 170.726 112.734C168.641 114.403 165.172 114.796 163.237 116.76C161.303 118.724 158.969 121.357 156.896 121.276C154.952 121.2 153.005 121.328 151.087 121.656L154.723 123.763C154.723 123.763 158.854 124.123 160.323 122.257C161.791 120.392 163.55 117.349 166.634 116.268C169.718 115.188 172.246 116.138 173.544 115.089C174.639 114.205 175.594 113.048 176.569 112.831C177.884 112.649 179.222 112.803 180.461 113.28L186.993 109.496L176.81 103.599Z" fill="#FFA227"/>
<path d="M151.087 114.607C151.393 115.762 151.393 116.977 151.087 118.132C150.574 119.127 149.695 119.882 148.636 120.236L147.006 119.294C147.006 119.294 148.511 118.476 149.17 118.134C150.533 117.424 149.17 115.857 149.17 115.857L151.087 114.607Z" fill="#FFA227"/>
<path d="M171.612 118.404C169.767 118.208 167.907 118.592 166.29 119.503C165.007 120.377 164.035 121.636 163.513 123.1L171.612 118.404Z" fill="#FFA227"/>
<path d="M199.572 151.956C200.796 152.51 202.132 152.77 203.474 152.714C204.815 152.658 206.125 152.288 207.299 151.634L234.248 136.028C236.53 134.706 236.779 132.697 234.802 131.553L222.091 124.19C220.868 123.636 219.532 123.376 218.19 123.432C216.848 123.488 215.538 123.858 214.365 124.512L187.416 140.12C185.133 141.442 184.885 143.448 186.862 144.593L199.572 151.956Z" fill="white"/>
<path d="M215.774 129.411L189.836 144.433L188.488 143.648C187.29 142.954 187.441 141.731 188.824 140.93L215.774 125.328C216.487 124.931 217.283 124.706 218.098 124.672C218.914 124.638 219.726 124.796 220.47 125.132L233.18 132.495C234.378 133.187 234.226 134.41 232.844 135.211L231.832 135.797L220.47 129.216C219.726 128.879 218.914 128.721 218.099 128.755C217.283 128.789 216.487 129.013 215.774 129.411Z" fill="#FFD5B0"/>
<path d="M201.199 151.014L189.836 144.433L215.774 129.411C216.487 129.013 217.283 128.789 218.099 128.755C218.914 128.721 219.726 128.879 220.47 129.216L231.828 135.797L205.89 150.819C205.177 151.216 204.382 151.44 203.567 151.474C202.753 151.508 201.942 151.35 201.199 151.014Z" fill="#4A86FF"/>
<path d="M209.352 133.129L222.893 140.971L205.89 150.819C205.177 151.217 204.38 151.441 203.565 151.475C202.75 151.509 201.938 151.351 201.194 151.014L189.831 144.433L209.352 133.129Z" fill="#326CFC"/>
<path d="M201.199 151.014L189.836 144.433L199.926 138.589L213.466 146.43L205.89 150.819C205.177 151.216 204.382 151.44 203.567 151.474C202.753 151.508 201.942 151.35 201.199 151.014Z" fill="#185EEA"/>
<path d="M177.559 139.063C178.782 139.619 180.118 139.88 181.459 139.825C182.801 139.77 184.111 139.402 185.285 138.749L212.234 123.141C214.518 121.819 214.767 119.811 212.788 118.666L200.078 111.305C198.855 110.748 197.519 110.487 196.177 110.541C194.836 110.596 193.525 110.965 192.351 111.619L165.402 127.227C163.12 128.549 162.871 130.556 164.848 131.702L177.559 139.063Z" fill="white"/>
<path d="M193.76 116.518L167.822 131.54L166.474 130.755C165.277 130.061 165.429 128.838 166.811 128.037L193.76 112.436C194.473 112.038 195.27 111.813 196.085 111.779C196.9 111.746 197.712 111.904 198.456 112.241L211.167 119.602C212.364 120.296 212.212 121.518 210.83 122.318L209.819 122.904L198.456 116.323C197.712 115.986 196.9 115.828 196.085 115.862C195.27 115.896 194.473 116.12 193.76 116.518Z" fill="#FFD5B0"/>
<path d="M179.185 138.121L167.822 131.54L193.76 116.518C194.473 116.12 195.27 115.896 196.085 115.862C196.9 115.828 197.712 115.986 198.456 116.323L209.819 122.904L183.881 137.926C183.168 138.324 182.372 138.548 181.556 138.582C180.741 138.616 179.929 138.458 179.185 138.121Z" fill="#84D4ED"/>
<path opacity="0.7" d="M187.339 120.236L200.879 128.079L183.876 137.926C183.163 138.324 182.367 138.548 181.551 138.582C180.736 138.616 179.924 138.458 179.18 138.121L167.818 131.54L187.339 120.236Z" fill="#5AC8E2"/>
<path d="M179.185 138.121L167.822 131.54L177.912 125.696L191.453 133.537L183.876 137.926C183.164 138.323 182.368 138.547 181.554 138.581C180.739 138.615 179.928 138.457 179.185 138.121Z" fill="#3EC6DD"/>
<path d="M217.065 176.112L267.842 146.707V193.044L217.067 222.449L217.065 176.112Z" fill="#3C8F7C"/>
<path d="M217.065 217.538L267.842 188.133V193.044L217.067 222.449L217.065 217.538Z" fill="#2B1722"/>
<path d="M123 121.635V167.973L217.065 222.449V176.112L123 121.635Z" fill="#6FCF97"/>
<path d="M123 163.062V167.973L217.065 222.449V217.538L123 163.062Z" fill="#442E3A"/>
<path d="M266.942 146.275C266.942 147.06 265.913 147.688 264.642 147.688C263.371 147.688 262.343 147.06 262.343 146.275C262.343 145.49 263.373 144.862 264.642 144.862C265.912 144.862 266.942 145.493 266.942 146.275Z" fill="#442E3A"/>
<path d="M266.942 146.275H262.343V71.8918H266.942V146.275Z" fill="#442E3A"/>
<path d="M173.534 95.9894C172.264 95.9894 171.235 95.3553 171.235 94.5731C171.235 93.7909 172.264 93.1568 173.534 93.1568C174.804 93.1568 175.834 93.7909 175.834 94.5731C175.834 95.3553 174.804 95.9894 173.534 95.9894Z" fill="#442E3A"/>
<path d="M175.834 94.5716H171.235V20.187H175.834V94.5716Z" fill="#442E3A"/>
<path d="M172.219 12L125.293 53.9099L219.976 108.832L266.903 66.9221L172.219 12Z" fill="#90EA93"/>
<path d="M172.219 12L125.293 53.9099L131.376 57.3879L178.307 15.478L172.219 12Z" fill="white"/>
<path d="M183.923 18.8398L136.999 60.7418L143.08 64.2182L190.006 22.3099L183.923 18.8398Z" fill="white"/>
<path d="M195.623 25.6654L148.697 67.5737L154.78 71.0517L201.706 29.1433L195.623 25.6654Z" fill="white"/>
<path d="M207.322 32.5004L160.396 74.4088L166.479 77.8789L213.405 35.9768L207.322 32.5004Z" fill="white"/>
<path d="M219.313 39.4234L172.387 81.3333L178.47 84.8113L225.396 42.9013L219.313 39.4234Z" fill="white"/>
<path d="M231.076 46.1956L184.086 88.1668L190.169 91.6447L237.095 49.7348L231.076 46.1956Z" fill="white"/>
<path d="M242.804 53.0087L195.878 94.917L201.922 98.4295L248.848 56.5243L242.804 53.0087Z" fill="white"/>
<path d="M254.527 59.8217L207.596 101.728L213.64 105.241L260.572 63.3311L254.527 59.8217Z" fill="white"/>
<path d="M266.903 66.9221V81.3678L219.976 108.832L266.903 66.9221Z" fill="#6FCF97"/>
<path d="M126.907 158.251C127.593 157.726 127.727 157.623 128.433 157.151C127.908 155.817 127.684 154.382 127.776 152.95C127.868 151.518 128.275 150.125 128.967 148.869C127.715 144.248 131.741 139.465 135.556 139.837C137.025 139.98 138.401 140.622 139.458 141.656C140.514 142.69 141.187 144.055 141.366 145.524C141.729 143.731 142.324 140.622 142.587 139.861C143.063 139.681 143.575 139.619 144.08 139.681C144.585 139.742 145.067 139.925 145.486 140.214C145.145 142.876 144.632 145.513 143.951 148.109C144.359 147.492 144.755 146.865 145.176 146.259C146.003 144.948 146.918 143.694 147.914 142.508C148.37 142.508 149.963 142.91 150.287 144.059C149.61 145.106 148.879 146.116 148.096 147.085C147.555 147.807 146.936 148.467 146.249 149.051C147.048 149.182 147.808 149.493 148.471 149.961C149.134 150.429 149.682 151.041 150.076 151.752C151.838 154.671 151.28 159.166 148.567 160.923C148.483 161.105 148.378 161.275 148.254 161.432C146.299 165.186 142.238 166.241 138.459 165.643C138.363 166.405 138.138 167.146 137.794 167.832C136.936 168.846 133.757 167.706 131.011 165.503C129.016 164.104 127.449 162.173 126.488 159.929C126.359 159.643 126.33 159.321 126.406 159.017C126.482 158.712 126.659 158.442 126.907 158.251ZM133.059 141.103C132.249 141.518 131.539 142.106 130.98 142.826C130.421 143.546 130.026 144.38 129.823 145.27C129.447 146.926 129.465 148.647 129.878 150.294C130.224 151.425 130.804 152.47 131.581 153.359C131.581 153.337 131.581 153.32 131.581 153.298C132.257 148.588 136.747 146.086 140.047 148.599C140.544 147.599 140.724 146.471 140.563 145.366C140.403 144.261 139.909 143.231 139.149 142.416C138.389 141.6 137.398 141.037 136.309 140.802C135.22 140.567 134.086 140.672 133.059 141.103ZM140.389 150.111C137.451 146.782 133.065 148.611 132.012 153.903C133.473 155.658 135.166 157.206 137.043 158.505C137.536 158.819 138.092 159.147 138.68 159.464C141.852 157.359 143.287 153.392 140.389 150.108V150.111ZM144.929 140.548C144.691 140.409 144.434 140.306 144.167 140.242C143.818 140.185 143.461 140.225 143.134 140.358C142.714 143.507 142.039 146.616 141.116 149.654C141.343 149.949 141.543 150.264 141.714 150.596C142.062 150.28 142.444 150.005 142.853 149.775C142.955 149.618 143.065 149.461 143.166 149.304C143.772 146.375 144.502 143.532 144.927 140.548H144.929ZM147.557 146.707C148.266 145.835 148.908 144.906 149.564 143.981C149.209 143.205 148.294 142.882 148.019 143.167C147.471 144.332 144.635 148.297 143.999 149.269C144.55 149.085 145.127 148.996 145.707 149.005C146.271 148.199 146.889 147.431 147.556 146.707H147.557ZM149.658 158.466C150.121 157.584 150.368 156.605 150.378 155.609C150.388 154.613 150.162 153.628 149.717 152.738C149.427 152.026 148.963 151.4 148.368 150.915C147.774 150.43 147.067 150.103 146.314 149.963C145.56 149.823 144.784 149.875 144.056 150.115C143.328 150.354 142.671 150.773 142.146 151.332C142.12 151.355 142.091 151.373 142.06 151.386C143.19 154.526 142.651 158.233 139.408 159.838C141.958 161.094 144.887 161.986 147.191 160.862C148.233 160.329 149.092 159.494 149.656 158.466H149.658ZM138.874 164.817C140.082 164.978 141.31 164.893 142.485 164.569C143.892 164.139 145.183 163.395 146.261 162.393C142.806 162.785 137.013 159.788 135.598 158.766C132.746 156.655 130.511 153.815 129.127 150.543C128.504 152.289 128.428 154.186 128.909 155.977C128.975 156.225 129.515 157.696 129.593 157.861C130.715 160.182 132.505 162.111 134.732 163.399C135.58 163.889 136.486 164.269 137.429 164.528C137.573 164.567 138.605 164.783 138.877 164.817H138.874ZM129.518 163.267C130.631 164.418 131.913 165.391 133.319 166.153C134.414 166.821 135.654 167.215 136.933 167.301C137.512 167.252 137.633 165.988 137.797 165.528C136.019 165.167 134.341 164.416 132.885 163.33C131.092 161.858 129.668 159.985 128.726 157.861C128.048 158.356 127.226 158.948 127.173 159.53C127.079 160.527 128.909 162.627 129.517 163.267H129.518Z" fill="white"/>
<path d="M195.919 202.29C196.041 201.376 196.064 201.191 196.244 200.308C194.846 199.698 193.599 198.786 192.593 197.637C191.587 196.487 190.847 195.129 190.424 193.66C186.005 191.127 185.453 184.473 188.608 181.871C189.823 180.869 191.343 180.312 192.915 180.294C194.488 180.275 196.02 180.795 197.259 181.767C196.188 180.141 194.3 177.347 193.926 176.575C194.15 176.08 194.49 175.646 194.916 175.311C195.343 174.976 195.844 174.749 196.377 174.65C198.12 176.914 199.714 179.29 201.15 181.763C200.994 180.989 200.823 180.216 200.68 179.442C200.32 177.828 200.069 176.192 199.929 174.544C200.318 174.181 200.799 173.93 201.319 173.819C201.839 173.709 202.38 173.742 202.883 173.916C203.16 175.216 203.369 176.53 203.509 177.851C203.644 178.805 203.671 179.77 203.592 180.729C204.294 180.225 205.101 179.885 205.952 179.737C206.803 179.589 207.677 179.636 208.507 179.874C212.029 180.742 214.983 184.554 214.258 187.927C214.333 188.13 214.381 188.341 214.404 188.555C215.75 192.864 213.482 196.728 210.177 199.132C210.677 199.78 211.064 200.508 211.322 201.285C211.434 202.698 208.183 204.243 204.458 204.656C201.901 205.108 199.27 204.836 196.859 203.871C196.548 203.753 196.285 203.532 196.114 203.245C195.943 202.958 195.874 202.621 195.919 202.29ZM187.676 184.711C187.376 185.637 187.282 186.616 187.402 187.582C187.521 188.547 187.85 189.474 188.366 190.298C189.327 191.832 190.635 193.117 192.184 194.048C193.294 194.639 194.516 194.987 195.77 195.07C195.753 195.057 195.737 195.042 195.723 195.026C192.696 190.964 194.198 185.687 198.575 185.084C198.2 183.954 197.489 182.966 196.538 182.253C195.587 181.541 194.441 181.137 193.254 181.096C192.068 181.056 190.897 181.38 189.9 182.027C188.903 182.673 188.126 183.61 187.676 184.711ZM199.968 185.968C195.252 185.68 193.319 190.374 196.499 195.159C198.92 195.377 201.359 195.265 203.75 194.827C204.359 194.692 205.023 194.513 205.705 194.312C206.514 190.322 204.622 186.247 199.968 185.961V185.968ZM196.211 175.33C195.927 175.404 195.656 175.521 195.405 175.675C195.1 175.896 194.862 176.196 194.715 176.543C196.763 179.235 198.589 182.088 200.176 185.076C200.568 185.126 200.955 185.211 201.332 185.332C201.357 184.83 201.438 184.333 201.573 183.849C201.529 183.652 201.496 183.454 201.454 183.256C199.711 180.59 198.127 177.9 196.207 175.323L196.211 175.33ZM202.819 177.985C202.698 176.793 202.484 175.606 202.285 174.414C201.432 174.1 200.494 174.54 200.508 174.968C200.97 176.262 201.809 181.394 202.061 182.607C202.34 182.052 202.711 181.548 203.157 181.116C202.973 180.079 202.858 179.031 202.814 177.978L202.819 177.985ZM213.231 185.258C212.919 184.243 212.369 183.318 211.629 182.559C210.888 181.8 209.978 181.23 208.974 180.894C208.22 180.577 207.4 180.455 206.588 180.539C205.775 180.623 204.997 180.91 204.324 181.374C203.65 181.838 203.104 182.464 202.735 183.195C202.366 183.925 202.185 184.737 202.21 185.556C202.207 185.593 202.199 185.629 202.186 185.663C205.391 187.17 207.775 190.374 206.535 194.038C209.396 193.054 212.278 191.526 213.17 188.929C213.557 187.739 213.578 186.46 213.231 185.258ZM209.872 198.195C210.905 197.404 211.768 196.412 212.41 195.279C213.146 193.892 213.56 192.355 213.62 190.785C211.311 193.691 204.697 195.81 202.858 196.109C200.51 196.493 195.114 196.532 191.802 194.801C192.643 196.588 194.008 198.075 195.715 199.061C195.95 199.201 197.462 199.9 197.647 199.966C200.235 200.868 203.033 200.969 205.679 200.258C206.687 199.987 207.656 199.588 208.562 199.069C208.704 198.989 209.642 198.372 209.871 198.195H209.872ZM201.656 204.099C203.359 204.125 205.056 203.89 206.688 203.401C208.016 203.078 209.246 202.438 210.274 201.536C210.675 201.065 209.816 200.016 209.595 199.545C207.983 200.618 206.154 201.32 204.24 201.6C201.783 201.846 199.302 201.51 196.997 200.621C196.858 201.506 196.684 202.574 197.08 203.053C197.758 203.874 200.709 204.075 201.648 204.099H201.656Z" fill="white"/>
<path d="M152.574 158.776C154.318 159.785 155.152 158.105 155.152 155.814C155.152 153.056 154.086 149.523 152.078 148.361C151.981 148.306 151.084 147.912 150.639 147.733C150.725 149.521 150.796 151.51 150.796 153.15C150.796 154.651 150.752 155.899 150.7 157.212C151.254 157.814 151.884 158.339 152.574 158.776ZM152.627 157.11C152.451 157.005 152.293 156.874 152.158 156.72C152.18 155.687 152.2 154.623 152.2 153.564C152.2 152.432 152.18 151.288 152.136 150.231C152.189 150.176 152.263 150.192 152.347 150.24C153.335 151.521 153.847 153.108 153.795 154.726C153.794 156.537 153.244 157.465 152.632 157.11H152.627Z" fill="#2B1722"/>
<path d="M159.914 153.406C159.317 152.69 158.598 152.086 157.79 151.624L156.162 150.878C156.14 151.977 156.118 153.09 156.118 154.434C156.118 156.102 156.204 158.725 156.287 160.373C157.406 161.259 158.586 162.065 159.819 162.784V161.045C159.12 160.641 158.328 160.153 157.599 159.661C157.577 158.843 157.557 157.995 157.546 157.198C158.152 157.666 158.788 158.095 159.449 158.482L159.65 157.042C159.036 156.673 158.137 156.04 157.524 155.601C157.524 154.61 157.524 153.903 157.536 153.159C158.36 153.721 159.131 154.354 159.728 154.858L159.914 153.406Z" fill="#2B1722"/>
<path d="M160.991 153.817C160.906 155.566 160.853 157.345 160.853 159.099C160.853 160.57 160.886 162.059 160.971 163.552L162.379 164.196C162.273 162.508 162.223 160.878 162.223 159.328C162.223 158.297 162.223 157.235 162.276 156.218C162.868 156.676 163.544 157.16 164.155 157.586L164.366 156.067C163.71 155.588 163.065 155.087 162.124 154.34L160.991 153.817Z" fill="#2B1722"/>
<path d="M166.662 166.803C166.598 165.279 166.567 163.592 166.567 161.924C166.567 160.055 166.609 158.226 166.703 156.684L165.277 156.026C165.181 157.967 165.139 159.653 165.139 161.337C165.139 162.865 165.172 164.369 165.235 166.145L166.662 166.803Z" fill="#2B1722"/>
<path d="M170.651 164.928C170.651 165.945 170.629 167.44 170.09 167.135C169.402 166.737 168.927 163.533 168.927 162.133C168.927 160.691 169.223 159.886 169.899 160.277C170.48 160.614 170.702 161.732 170.893 162.762L172.235 163.391C171.897 161.045 171.263 159.25 169.899 158.459C168.314 157.542 167.522 158.908 167.522 161.17C167.522 163.617 168.261 167.878 170.183 168.993C171.886 169.977 171.98 167.501 172.011 165.539L170.651 164.928Z" fill="#2B1722"/>
<path d="M174.802 171.521C174.739 169.998 174.707 168.31 174.707 166.641C174.707 164.774 174.749 162.946 174.844 161.401L173.417 160.746C173.321 162.685 173.279 164.372 173.279 166.055C173.279 167.583 173.312 169.087 173.375 170.863L174.802 171.521Z" fill="#2B1722"/>
<path d="M178.301 173.744C179.537 174.46 180.68 173.708 180.68 170.255C180.68 166.834 179.411 163.92 178.175 163.204C176.94 162.488 175.755 163.204 175.755 166.667C175.754 170.089 176.97 172.972 178.301 173.744ZM178.174 164.871C178.712 165.185 179.27 167.035 179.27 169.442C179.27 171.703 178.8 172.353 178.298 172.06C177.706 171.717 177.156 169.872 177.156 167.481C177.16 165.217 177.646 164.565 178.174 164.871Z" fill="#2B1722"/>
<path d="M183.152 176.071C182.995 173.873 182.92 171.976 182.92 169.756C182.92 168.823 183.257 168.056 183.775 168.355C184.611 168.839 184.705 171.453 184.705 172.615C184.705 174.171 184.642 175.803 184.567 177.326L186.005 177.954C186.079 176.541 186.152 174.886 186.152 173.443C186.152 171.76 185.879 167.894 183.775 166.675C182.391 165.875 181.471 167.194 181.471 168.907C181.471 171.169 181.555 173.113 181.715 175.412L183.152 176.071Z" fill="#2B1722"/>
<path d="M189.789 176.591C189.866 176.981 189.911 177.377 189.925 177.775C189.925 178.51 189.62 178.728 189.271 178.527C189.028 178.312 188.836 178.046 188.71 177.747C188.584 177.448 188.526 177.124 188.541 176.8C188.511 176.53 188.58 176.258 188.736 176.035C188.892 175.813 189.123 175.655 189.386 175.591C190.548 175.288 191.288 175.096 191.288 173.609C191.286 172.825 191.095 172.054 190.733 171.359C190.37 170.664 189.847 170.067 189.206 169.618C187.863 168.833 187.156 170.226 186.755 171.21L187.78 172.466C188.065 171.612 188.572 170.896 189.164 171.243C189.377 171.384 189.551 171.575 189.671 171.801C189.791 172.026 189.853 172.278 189.851 172.534C189.851 173.254 189.354 173.492 188.857 173.655C188.329 173.736 187.852 174.017 187.524 174.439C187.195 174.862 187.041 175.395 187.092 175.928C187.092 176.756 187.288 177.571 187.663 178.308C188.038 179.045 188.581 179.682 189.249 180.168C190.539 180.915 191.373 179.801 191.373 178.529C191.364 177.932 191.271 177.34 191.099 176.769L189.789 176.591Z" fill="#2B1722"/>
<path d="M188.668 182.231C190.152 183.256 191.663 184.792 191.606 186.137C191.565 186.811 191.002 186.706 190.783 186.765C190.626 186.825 190.673 186.941 190.811 186.966C190.945 186.999 191.085 187 191.22 186.968C191.354 186.937 191.479 186.874 191.585 186.785C191.691 186.695 191.774 186.583 191.828 186.455C191.882 186.327 191.905 186.189 191.896 186.051C191.915 185.986 191.929 185.92 191.936 185.853C192.018 184.046 190.193 182.29 188.516 181.318C188.514 181.248 188.5 181.178 188.475 181.113C188.435 180.831 187.693 180.346 187.721 180.674C187.751 180.765 187.774 180.858 187.79 180.952C187.339 180.707 186.834 180.579 186.322 180.58C186.113 180.58 185.578 181.051 186.401 181.161C186.962 181.286 187.497 181.508 187.982 181.818C188.618 185.312 189.541 188.747 190.742 192.088C190.896 192.438 191.07 192.779 191.263 193.109C190.26 192.545 189.396 192.01 188.818 191.62C188.366 191.319 188.723 191.934 188.806 192.052C189.053 192.366 193.143 194.839 193.791 195.192C194.147 195.379 194.299 195.318 194.104 194.583C193.967 194.082 193.478 193.748 193.334 193.826C192.786 194.059 191.811 193.844 191 191.942C189.922 188.785 189.141 185.534 188.668 182.231Z" fill="#313131"/>
<path d="M186.234 190.852C187.552 191.928 188.541 191.583 187.923 189.314C187.511 187.827 185.382 184.185 184.352 184.049C184.105 184.017 183.9 184.137 183.995 184.669C184.01 184.788 184.243 185.611 184.338 185.493C184.393 185.47 184.407 185.385 184.393 185.322C184.381 185.186 184.326 185.025 184.326 184.916C184.326 184.749 184.393 184.586 184.531 184.667C185.885 186.115 186.841 187.89 187.306 189.819C187.619 191.363 186.824 191.009 186.041 190.264C184.857 189.063 183.94 187.624 183.351 186.041C183.282 185.884 183.213 185.925 183.185 185.909C183.116 185.909 183.158 186.095 183.185 186.184C183.808 187.966 184.854 189.568 186.234 190.852Z" fill="#313131"/>
<path d="M182.223 186.271C182.43 186.407 182.524 186.206 182.319 186.068C181.637 185.431 181.057 184.693 180.597 183.879C180.279 183.415 180.067 182.885 179.979 182.328C179.993 181.822 180.487 182.384 180.68 182.623C181.75 184.017 182.529 185.612 182.973 187.313C183.316 189.056 182.259 188.461 181.367 187.47C180.351 186.305 179.542 184.972 178.977 183.531C178.922 183.407 178.853 183.374 178.82 183.389C178.75 183.389 178.75 183.477 178.808 183.601C179.342 185.112 180.146 186.511 181.181 187.732C182.582 189.303 184.341 189.562 183.584 186.811C183.172 185.321 181.043 181.683 180.015 181.544C179.451 181.477 179.533 182.46 179.796 183.126C180.351 184.348 181.182 185.425 182.223 186.271Z" fill="#313131"/>
<path d="M168.502 170.972C168.555 173.138 171.369 176.917 172.744 177.881C173.184 178.195 173.046 177.523 172.675 177.272C171.042 176.041 169.84 174.322 169.242 172.362C168.912 171.326 168.857 170.264 169.613 170.536C171.055 171.076 174.583 176.557 175.586 181.345C176.176 184.094 175.284 184.68 173.828 183.857C171.434 182.297 169.586 180.025 168.541 177.36C168.445 177.12 168.279 177.226 168.35 177.413C169.411 180.234 171.327 182.65 173.828 184.322C175.503 185.274 176.795 184.697 176.259 181.411C175.558 177.182 172.29 171.101 169.599 170.093C168.844 169.795 168.488 170.231 168.502 170.972Z" fill="#313131"/>
<path d="M168.854 178.087C168.363 177.003 167.937 175.891 167.576 174.756C167.783 174.84 167.919 174.733 167.864 174.482C167.636 173.685 167.258 172.939 166.752 172.283C166.354 171.812 166.066 171.443 166.438 172.56L166.974 174.009C166.478 173.773 165.996 173.506 165.532 173.211C164.707 172.679 165.037 173.494 165.518 174.508C166.033 175.62 166.446 176.776 166.753 177.963C166.974 178.917 166.769 179.312 166.315 178.737C165.514 177.565 164.833 176.316 164.28 175.008C164.213 174.838 164.034 174.851 164.101 175.052C164.578 176.291 165.177 177.481 165.887 178.602C166.161 179.052 166.526 179.439 166.96 179.737C167.26 179.911 167.522 179.894 167.617 179.439C167.591 178.052 167.187 176.7 166.449 175.527C166.244 175.097 165.614 173.921 166.559 174.271C166.777 174.336 166.987 174.425 167.185 174.537C167.68 175.76 168.148 176.986 168.696 178.205C168.826 178.511 169.06 178.555 168.854 178.087Z" fill="#313131"/>
<path d="M163.151 175.231C163.358 175.367 163.453 175.166 163.247 175.028C162.566 174.39 161.985 173.652 161.525 172.839C161.206 172.375 160.995 171.845 160.907 171.288C160.921 170.782 161.415 171.344 161.608 171.583C162.678 172.977 163.458 174.573 163.901 176.275C164.244 178.016 163.187 177.421 162.295 176.432C161.279 175.266 160.47 173.934 159.905 172.494C159.851 172.368 159.781 172.329 159.748 172.351C159.678 172.351 159.678 172.439 159.734 172.563C160.269 174.073 161.074 175.473 162.109 176.694C163.518 178.264 165.269 178.523 164.512 175.772C164.1 174.284 161.973 170.644 160.943 170.506C160.379 170.44 160.462 171.423 160.722 172.087C161.279 173.309 162.111 174.385 163.151 175.231Z" fill="#313131"/>
<path d="M160.254 174.962C161.268 173.822 158.137 169.253 157.109 168.327C156.696 167.94 156.092 167.554 155.735 167.678C155.662 167.705 155.601 167.754 155.559 167.819C155.517 167.884 155.497 167.96 155.501 168.038C155.501 168.168 155.517 168.176 155.583 168.177C155.739 167.954 156.01 168.077 156.27 168.228C157.267 169.034 158.082 170.045 158.66 171.192C159.045 171.891 160.183 174.296 159.756 174.86C159.563 175.114 158.89 174.066 158.698 173.752C158.342 173.139 157.724 172.084 157.366 171.362C157.175 170.975 156.131 168.827 156.007 168.755C155.883 168.683 155.334 168.513 155.458 168.879C155.866 169.886 156.143 170.942 156.281 172.02C156.364 172.858 156.088 173.119 155.655 172.553C154.847 171.381 154.162 170.128 153.61 168.815C153.542 168.647 153.376 168.658 153.445 168.867C153.917 170.109 154.515 171.299 155.231 172.418C155.67 173.114 156.686 174.146 156.96 173.204C157.025 172.406 156.95 171.604 156.741 170.833C156.973 171.115 158.278 174.444 159.377 175.081C159.515 175.165 159.677 175.198 159.836 175.177C159.996 175.155 160.143 175.079 160.254 174.962Z" fill="#313131"/>
<path d="M153.748 169.636C153.884 169.919 153.884 169.493 153.761 169.184C153.411 168.418 153.109 167.632 152.856 166.829C152.814 166.493 152.759 165.817 152.141 165.679C151.921 165.627 151.936 165.798 152.045 166.15C152.388 167.361 152.828 169.25 152.992 169.934C152.234 168.247 151.391 166.599 150.466 164.998C149.573 163.563 148.943 163.509 149.519 165.367C149.655 165.795 149.918 166.756 150.04 167.121C149.502 166.101 148.868 165.137 148.144 164.241C147.988 164.084 147.033 163.082 147.404 164.051C147.817 165.125 148.107 166.242 148.268 167.381C148.351 168.22 148.075 168.48 147.642 167.917C146.833 166.744 146.147 165.49 145.594 164.176C145.527 164.008 145.349 164.019 145.417 164.22C145.893 165.46 146.491 166.65 147.202 167.771C147.654 168.476 148.672 169.498 148.947 168.556C149.004 167.756 148.925 166.952 148.712 166.178C148.608 165.731 148.48 165.289 148.329 164.855C149.149 165.939 149.845 167.112 150.401 168.353C150.566 168.981 151.294 169.569 151.089 168.75C150.813 167.708 150.387 166.361 150.265 165.976C150.018 165.244 150.14 164.93 151.143 166.668C151.926 168.082 153.078 171.17 153.335 171.523C153.473 171.696 154.197 172.558 154.063 172.128C153.98 171.844 153.54 169.879 153.197 168.359C153.357 168.795 153.541 169.221 153.748 169.636Z" fill="#313131"/>
<path d="M125.518 208.928C123.605 208.326 121.586 208.211 119.716 208.6C117.846 208.988 116.208 209.861 115.01 211.109C113.813 212.357 113.109 213.923 112.988 215.61C112.866 217.297 113.333 219.029 114.329 220.587C115.325 222.144 116.805 223.458 118.583 224.361C120.36 225.264 122.355 225.716 124.315 225.66C126.275 225.604 128.112 225.043 129.594 224.047C131.075 223.051 132.135 221.666 132.639 220.065C133.315 217.92 132.945 215.541 131.609 213.452C130.274 211.363 128.083 209.736 125.518 208.928Z" fill="#3C8F7C"/>
<path d="M20.2125 146.236C20.1227 146.519 20.1656 146.832 20.3324 147.112C20.4991 147.391 20.7772 147.615 21.1095 147.739C23.6452 148.669 26.1167 149.754 28.5039 150.985C28.8292 151.154 29.2059 151.211 29.5513 151.143C29.8967 151.075 30.1824 150.888 30.3456 150.622C30.5088 150.357 30.5361 150.035 30.4215 149.728C30.3069 149.421 30.0599 149.154 29.7346 148.985C27.2281 147.688 24.6328 146.545 21.9698 145.563C21.6244 145.435 21.248 145.426 20.9234 145.538C20.5988 145.65 20.3526 145.875 20.2389 146.162L20.2125 146.236ZM34.7175 153.935C34.6497 154.151 34.6585 154.386 34.743 154.611C34.8275 154.836 34.9839 155.041 35.1931 155.202C37.2446 156.779 39.077 158.559 40.6445 160.498C40.7499 160.636 40.8841 160.757 41.0394 160.854C41.1947 160.951 41.3677 161.022 41.5485 161.063C41.7292 161.104 41.914 161.114 42.0918 161.093C42.2697 161.071 42.437 161.018 42.5839 160.937C42.7309 160.856 42.8545 160.749 42.9475 160.621C43.0404 160.494 43.1009 160.349 43.1253 160.195C43.1496 160.041 43.1374 159.882 43.0894 159.725C43.0413 159.569 42.9584 159.42 42.8455 159.286C41.1365 157.172 39.1393 155.231 36.9035 153.511C36.7251 153.374 36.5145 153.274 36.2905 153.221C36.0665 153.167 35.8362 153.161 35.6204 153.204C35.4046 153.246 35.21 153.336 35.0541 153.465C34.8982 153.593 34.7859 153.757 34.7274 153.941L34.7175 153.935ZM44.3959 165.97C44.3203 166.21 44.3398 166.473 44.4514 166.72C45.4313 168.925 46.1691 171.186 46.6544 173.47C46.6845 173.629 46.7504 173.783 46.8485 173.925C46.9465 174.067 47.0747 174.193 47.2252 174.296C47.3758 174.4 47.5458 174.478 47.7252 174.526C47.9046 174.574 48.0898 174.592 48.2697 174.577C48.4496 174.563 48.6207 174.517 48.7728 174.443C48.9249 174.368 49.0549 174.266 49.1552 174.143C49.2555 174.02 49.324 173.878 49.3567 173.726C49.3894 173.574 49.3856 173.414 49.3455 173.257C48.8255 170.821 48.0373 168.41 46.992 166.059C46.8837 165.82 46.6942 165.609 46.4504 165.456C46.2066 165.303 45.9208 165.215 45.6336 165.206C45.3463 165.196 45.0722 165.265 44.8499 165.403C44.6277 165.54 44.4686 165.74 44.3952 165.973L44.3959 165.97ZM47.7281 180.048C47.6888 180.173 47.6749 180.305 47.687 180.438C47.9082 182.91 48.0081 185.389 48.0756 187.488C48.0858 187.802 48.2401 188.112 48.5045 188.351C48.769 188.589 49.1219 188.736 49.4857 188.759C49.8495 188.783 50.1943 188.68 50.4444 188.475C50.6944 188.27 50.8291 187.978 50.8189 187.664C50.7485 185.537 50.6485 183.022 50.4208 180.497C50.3954 180.217 50.2566 179.944 50.0291 179.726C49.8016 179.508 49.4999 179.358 49.1776 179.305C48.8552 179.251 48.5329 179.296 48.2676 179.432C48.0023 179.569 47.8112 179.787 47.7281 180.048ZM48.347 194.262C48.3125 194.371 48.298 194.486 48.304 194.603C48.422 197.43 48.594 199.717 48.8417 201.79C48.8604 201.946 48.9142 202.1 49.0001 202.244C49.086 202.388 49.2022 202.518 49.3422 202.628C49.4821 202.738 49.6431 202.826 49.8159 202.885C49.9886 202.944 50.1698 202.975 50.3491 202.975C50.5283 202.974 50.7021 202.943 50.8606 202.884C51.019 202.824 51.159 202.736 51.2726 202.626C51.3861 202.515 51.4709 202.385 51.5223 202.241C51.5736 202.096 51.5904 201.942 51.5717 201.786C51.3353 199.76 51.1617 197.535 51.045 194.759C51.034 194.474 50.9048 194.192 50.6809 193.964C50.457 193.737 50.1534 193.578 49.8257 193.518C49.498 193.457 49.1682 193.5 48.8967 193.636C48.6251 193.773 48.43 193.995 48.347 194.262ZM50.2446 208.452C50.1857 208.638 50.1836 208.839 50.2386 209.036C50.9041 211.469 51.8732 213.859 53.1282 216.161C53.295 216.45 53.5798 216.681 53.9214 216.806C54.2631 216.931 54.6343 216.939 54.9555 216.83C55.2766 216.72 55.522 216.501 55.6391 216.22C55.7561 215.938 55.7354 215.617 55.5814 215.324C54.4156 213.184 53.5166 210.963 52.9009 208.701C52.827 208.441 52.657 208.2 52.4177 208.018C52.1784 207.835 51.8834 207.72 51.5792 207.692C51.2749 207.663 50.9787 207.722 50.7371 207.86C50.4955 207.998 50.3222 208.206 50.2446 208.452ZM57.627 221.547C57.5691 221.731 57.5669 221.93 57.6205 222.125C57.6742 222.32 57.782 222.505 57.9342 222.664C58.9299 223.703 60.0021 224.688 61.1428 225.611C62.2043 226.474 63.2598 227.279 64.3093 228.026C64.4542 228.137 64.6206 228.224 64.7987 228.281C64.9768 228.339 65.1628 228.365 65.3456 228.36C65.5284 228.354 65.7042 228.317 65.8626 228.249C66.0209 228.182 66.1586 228.086 66.2672 227.967C66.3758 227.849 66.4532 227.71 66.4948 227.559C66.5364 227.408 66.5412 227.248 66.5091 227.089C66.4769 226.93 66.4084 226.775 66.3077 226.633C66.207 226.491 66.0761 226.365 65.9229 226.263C64.9266 225.551 63.9223 224.784 62.9099 223.963C61.8666 223.116 60.8842 222.215 59.9694 221.266C59.8038 221.094 59.5919 220.959 59.356 220.876C59.1201 220.792 58.869 220.763 58.6292 220.792C58.3893 220.821 58.1696 220.907 57.9933 221.039C57.8169 221.172 57.6903 221.348 57.627 221.547ZM70.8393 230.981C70.7581 231.24 70.7878 231.525 70.9233 231.786C71.0587 232.048 71.2913 232.269 71.5809 232.412C73.5359 233.381 75.5713 234.203 77.6619 234.867C78.3444 235.082 79.0202 235.275 79.6891 235.447C80.0469 235.538 80.4177 235.506 80.7201 235.358C81.0224 235.21 81.2315 234.957 81.3013 234.655C81.3712 234.354 81.296 234.028 81.0925 233.75C80.8889 233.472 80.5735 233.265 80.2158 233.173C79.6043 233.016 78.9865 232.84 78.3624 232.643C76.433 232.034 74.5543 231.279 72.7493 230.387C72.4207 230.225 72.0443 230.176 71.7025 230.252C71.3607 230.327 71.0815 230.52 70.9261 230.788C70.8883 230.852 70.8583 230.919 70.8365 230.99L70.8393 230.981ZM86.802 234.987C86.7609 235.115 86.7476 235.252 86.7627 235.389C86.7953 235.703 86.9703 236.006 87.2493 236.231C87.5283 236.457 87.8884 236.585 88.2505 236.59C91.1046 236.614 93.9108 236.309 96.595 235.681C96.7639 235.642 96.9188 235.574 97.0508 235.48C97.1828 235.386 97.2894 235.269 97.3644 235.134C97.4395 235 97.4815 234.852 97.4882 234.697C97.4948 234.543 97.4659 234.386 97.4032 234.235C97.3404 234.085 97.245 233.943 97.1223 233.819C96.9997 233.694 96.8523 233.59 96.6885 233.511C96.5247 233.432 96.3477 233.38 96.1676 233.358C95.9876 233.336 95.808 233.345 95.6391 233.384C93.1837 233.959 90.6167 234.24 88.0058 234.219C87.7232 234.216 87.4554 234.289 87.2393 234.428C87.0232 234.567 86.8694 234.765 86.7992 234.996L86.802 234.987ZM102.129 231.589C102.059 231.812 102.071 232.055 102.163 232.287C102.256 232.518 102.424 232.728 102.647 232.887C102.87 233.046 103.136 233.149 103.412 233.181C103.687 233.213 103.959 233.173 104.191 233.066C106.566 231.964 108.811 230.685 110.906 229.243C111.047 229.155 111.164 229.04 111.248 228.906C111.332 228.773 111.383 228.623 111.396 228.466C111.409 228.309 111.385 228.148 111.326 227.993C111.266 227.837 111.172 227.691 111.049 227.562C110.925 227.433 110.776 227.324 110.609 227.243C110.442 227.161 110.261 227.107 110.077 227.085C109.892 227.063 109.709 227.074 109.536 227.115C109.364 227.157 109.207 227.229 109.075 227.328C107.092 228.688 104.967 229.895 102.722 230.937C102.424 231.074 102.21 231.31 102.126 231.598L102.129 231.589ZM114.413 223.301C114.334 223.552 114.359 223.828 114.484 224.083C114.609 224.339 114.827 224.559 115.102 224.707C115.377 224.855 115.693 224.923 115.997 224.9C116.302 224.877 116.578 224.763 116.78 224.579C118.636 222.906 120.333 221.104 121.857 219.189C122.046 218.938 122.104 218.622 122.018 218.311C121.932 217.999 121.709 217.717 121.398 217.527C121.087 217.337 120.714 217.254 120.36 217.297C120.007 217.34 119.702 217.505 119.513 217.755C118.064 219.567 116.455 221.273 114.698 222.859C114.562 222.985 114.464 223.139 114.41 223.31L114.413 223.301Z" fill="#3C8F7C"/>
</svg>
