<svg width="16" height="16" viewBox="0 0 16 16" fill="none" xmlns="http://www.w3.org/2000/svg">
<path d="M8 7.27397C12.4187 7.27397 16 5.64465 16 3.63698C16 1.62931 12.4187 0 8 0C3.58125 0 0 1.62931 0 3.63698C0 5.64465 3.58125 7.27397 8 7.27397ZM8 13.0891C4.94688 13.0891 2.24688 12.288 0.54375 11.0507C0.196875 11.4597 0 11.8994 0 12.363C0 14.3707 3.58125 16 8 16C12.4187 16 16 14.3707 16 12.363C16 11.8994 15.8031 11.4597 15.4563 11.0541C13.7531 12.288 11.0531 13.0891 8 13.0891ZM8 8.72603C4.94688 8.72603 2.24688 7.92501 0.54375 6.68769C0.196875 7.09672 0 7.53643 0 8C0 10.0077 3.58125 11.637 8 11.637C12.4187 11.637 16 10.0077 16 8C16 7.53643 15.8031 7.09672 15.4563 6.69109C13.7531 7.92501 11.0531 8.72603 8 8.72603Z" fill="black"/>
</svg>
