<svg width="21" height="21" viewBox="0 0 21 21" fill="none" xmlns="http://www.w3.org/2000/svg">
<path d="M20.89 8.32L20.1 5.8C20.0147 5.50876 19.8717 5.23767 19.6793 5.00292C19.487 4.76817 19.2493 4.57456 18.9806 4.43364C18.7118 4.29272 18.4174 4.20737 18.1149 4.1827C17.8124 4.15802 17.5081 4.19451 17.22 4.29L16.88 4.4C16.6137 4.48805 16.33 4.51039 16.0531 4.46511C15.7763 4.41984 15.5145 4.3083 15.29 4.14L15.18 4.06C14.961 3.89237 14.7845 3.67562 14.6646 3.42723C14.5448 3.17884 14.485 2.90575 14.49 2.63V2.35C14.4949 1.72202 14.2503 1.11779 13.81 0.67C13.6006 0.458452 13.3515 0.290362 13.0769 0.175383C12.8023 0.0604042 12.5077 0.000802192 12.21 0H9.66004C9.04821 0.00790627 8.46428 0.257192 8.03538 0.693583C7.60648 1.12997 7.36735 1.71813 7.37003 2.33V2.57C7.36907 2.86027 7.30299 3.14663 7.17665 3.40796C7.05031 3.6693 6.86693 3.89895 6.64003 4.08L6.51004 4.18C6.25938 4.36962 5.9662 4.49516 5.65599 4.5457C5.34578 4.59624 5.02792 4.57025 4.73003 4.47C4.45645 4.37533 4.1665 4.33715 3.87773 4.35777C3.58897 4.3784 3.30739 4.4574 3.05003 4.59C2.78209 4.72299 2.54438 4.90969 2.3517 5.1385C2.15901 5.36731 2.01548 5.63333 1.93003 5.92L1.11003 8.52C0.919877 9.1062 0.968643 9.74374 1.24574 10.2942C1.52284 10.8447 2.00591 11.2636 2.59003 11.46H2.75003C3.01949 11.561 3.26134 11.7241 3.45594 11.9361C3.65054 12.148 3.79241 12.4029 3.87003 12.68L3.93003 12.84C4.04151 13.1461 4.07879 13.4743 4.03881 13.7977C3.99883 14.121 3.88272 14.4302 3.70003 14.7C3.33025 15.2036 3.17428 15.8328 3.26604 16.4508C3.3578 17.0688 3.68988 17.6256 4.19003 18L6.26004 19.57C6.65199 19.855 7.12547 20.0058 7.61003 20C7.73972 20.0127 7.87035 20.0127 8.00003 20C8.30014 19.9419 8.58526 19.8233 8.838 19.6514C9.09073 19.4794 9.30579 19.2578 9.47004 19L9.70004 18.67C9.86138 18.4386 10.0749 18.2483 10.3233 18.1145C10.5717 17.9808 10.848 17.9073 11.13 17.9C11.4256 17.8927 11.7182 17.9604 11.9805 18.0968C12.2428 18.2332 12.4663 18.4339 12.63 18.68L12.75 18.85C12.9205 19.1037 13.1412 19.3199 13.3984 19.4852C13.6555 19.6504 13.9438 19.7613 14.2455 19.8109C14.5471 19.8606 14.8558 19.848 15.1523 19.7739C15.4489 19.6997 15.7272 19.5657 15.97 19.38L18 17.86C18.48 17.4872 18.7992 16.945 18.8922 16.3444C18.9851 15.7438 18.8448 15.1304 18.5 14.63L18.24 14.25C18.0837 14.0084 17.9813 13.736 17.9399 13.4512C17.8985 13.1664 17.919 12.8761 18 12.6C18.0826 12.3044 18.236 12.0334 18.4468 11.8104C18.6576 11.5874 18.9196 11.4191 19.21 11.32L19.41 11.25C19.9887 11.0492 20.4667 10.6312 20.7429 10.0845C21.0191 9.53769 21.0718 8.90496 20.89 8.32ZM11 13.5C10.3078 13.5 9.63111 13.2947 9.05554 12.9101C8.47997 12.5256 8.03136 11.9789 7.76646 11.3394C7.50155 10.6999 7.43224 9.99612 7.56729 9.31718C7.70233 8.63825 8.03568 8.01461 8.52516 7.52513C9.01464 7.03564 9.63829 6.7023 10.3172 6.56725C10.9962 6.4322 11.6999 6.50151 12.3394 6.76642C12.979 7.03133 13.5256 7.47993 13.9102 8.0555C14.2948 8.63108 14.5 9.30777 14.5 10C14.5 10.9283 14.1313 11.8185 13.4749 12.4749C12.8185 13.1313 11.9283 13.5 11 13.5Z" fill="black"/>
</svg>
