<svg width="20" height="18" viewBox="0 0 20 18" fill="none" xmlns="http://www.w3.org/2000/svg">
<path d="M11.8333 0.75V17.25H1.74992C1.5068 17.25 1.27365 17.1534 1.10174 16.9815C0.929829 16.8096 0.833252 16.5764 0.833252 16.3333V11.2917C1.44104 11.2917 2.02393 11.0502 2.45371 10.6205C2.88348 10.1907 3.12492 9.60779 3.12492 9C3.12492 8.39221 2.88348 7.80932 2.45371 7.37955C2.02393 6.94978 1.44104 6.70833 0.833252 6.70833V1.66667C0.833252 1.42355 0.929829 1.19039 1.10174 1.01849C1.27365 0.846577 1.5068 0.75 1.74992 0.75H11.8333ZM13.6666 0.75H18.2499C18.493 0.75 18.7262 0.846577 18.8981 1.01849C19.07 1.19039 19.1666 1.42355 19.1666 1.66667V6.70833C18.5588 6.70833 17.9759 6.94978 17.5461 7.37955C17.1164 7.80932 16.8749 8.39221 16.8749 9C16.8749 9.60779 17.1164 10.1907 17.5461 10.6205C17.9759 11.0502 18.5588 11.2917 19.1666 11.2917V16.3333C19.1666 16.5764 19.07 16.8096 18.8981 16.9815C18.7262 17.1534 18.493 17.25 18.2499 17.25H13.6666V0.75Z" fill="black"/>
</svg>
