<svg width="17" height="21" viewBox="0 0 17 21" fill="none" xmlns="http://www.w3.org/2000/svg">
<path d="M0.00300014 2.66397C0.00300014 1.16797 1.234 -0.140027 2.824 0.016973C8.00125 0.529872 12.7978 2.96598 16.266 6.84397C17.336 8.03697 17.003 9.80797 15.787 10.689L15.364 10.996L15.001 10.456L14.993 10.444C11.803 6.03797 6.613 3.16997 0.753 3.16997H0.00300014V2.66397ZM13.771 11.314L14.149 11.877C12.8328 12.8312 11.5171 13.7862 10.202 14.742L10 14.892V16.994C10 17.2592 9.89464 17.5135 9.70711 17.7011C9.51957 17.8886 9.26522 17.994 9 17.994C8.73478 17.994 8.48043 17.8886 8.29289 17.7011C8.10536 17.5135 8 17.2592 8 16.994V16.934C7.984 16.8081 7.92075 16.693 7.82307 16.6121C7.72539 16.5311 7.60057 16.4903 7.47393 16.4979C7.34728 16.5056 7.22827 16.561 7.14101 16.6532C7.05375 16.7453 7.00477 16.8671 7.004 16.994V18.495C7.00403 18.7515 6.90545 18.9983 6.72863 19.1842C6.55182 19.3702 6.31031 19.481 6.05406 19.4938C5.79781 19.5067 5.54643 19.4205 5.35191 19.2532C5.15739 19.0859 5.03463 18.8503 5.009 18.595L3.569 19.635C2.08 20.709 -0.00099964 19.645 3.60268e-07 17.809L0.00300014 4.66897H0.753C6.107 4.66897 10.849 7.28597 13.771 11.314ZM4.004 8.99397C4.26922 8.99397 4.52357 8.88862 4.71111 8.70108C4.89864 8.51354 5.004 8.25919 5.004 7.99397C5.004 7.72876 4.89864 7.4744 4.71111 7.28687C4.52357 7.09933 4.26922 6.99397 4.004 6.99397C3.73878 6.99397 3.48443 7.09933 3.29689 7.28687C3.10936 7.4744 3.004 7.72876 3.004 7.99397C3.004 8.25919 3.10936 8.51354 3.29689 8.70108C3.48443 8.88862 3.73878 8.99397 4.004 8.99397ZM8.004 11.992C8.26922 11.992 8.52357 11.8866 8.71111 11.6991C8.89864 11.5115 9.004 11.2572 9.004 10.992C9.004 10.7268 8.89864 10.4724 8.71111 10.2849C8.52357 10.0973 8.26922 9.99197 8.004 9.99197C7.73878 9.99197 7.48443 10.0973 7.29689 10.2849C7.10936 10.4724 7.004 10.7268 7.004 10.992C7.004 11.2572 7.10936 11.5115 7.29689 11.6991C7.48443 11.8866 7.73878 11.992 8.004 11.992ZM4.004 14.99C4.26922 14.99 4.52357 14.8846 4.71111 14.6971C4.89864 14.5095 5.004 14.2552 5.004 13.99C5.004 13.7248 4.89864 13.4704 4.71111 13.2829C4.52357 13.0953 4.26922 12.99 4.004 12.99C3.73878 12.99 3.48443 13.0953 3.29689 13.2829C3.10936 13.4704 3.004 13.7248 3.004 13.99C3.004 14.2552 3.10936 14.5095 3.29689 14.6971C3.48443 14.8846 3.73878 14.99 4.004 14.99Z" fill="black"/>
</svg>
