<svg width="18" height="21" viewBox="0 0 18 21" fill="none" xmlns="http://www.w3.org/2000/svg">
<path d="M9 0.916748C11.188 0.916748 13.2865 1.78594 14.8336 3.33312C16.3808 4.88029 17.25 6.97871 17.25 9.16675C17.25 12.5822 14.6467 16.1609 9.55 19.9834C9.39133 20.1024 9.19834 20.1667 9 20.1667C8.80166 20.1667 8.60867 20.1024 8.45 19.9834C3.35333 16.1609 0.75 12.5822 0.75 9.16675C0.75 6.97871 1.61919 4.88029 3.16637 3.33312C4.71354 1.78594 6.81196 0.916748 9 0.916748ZM9 6.41675C8.27065 6.41675 7.57118 6.70648 7.05546 7.22221C6.53973 7.73793 6.25 8.4374 6.25 9.16675C6.25 9.89609 6.53973 10.5956 7.05546 11.1113C7.57118 11.627 8.27065 11.9167 9 11.9167C9.72935 11.9167 10.4288 11.627 10.9445 11.1113C11.4603 10.5956 11.75 9.89609 11.75 9.16675C11.75 8.4374 11.4603 7.73793 10.9445 7.22221C10.4288 6.70648 9.72935 6.41675 9 6.41675Z" fill="black"/>
</svg>
