<svg width="12" height="21" viewBox="0 0 12 21" fill="none" xmlns="http://www.w3.org/2000/svg">
<path d="M3.97648 13.1799V1.99988C3.97648 1.73466 3.87112 1.48031 3.68358 1.29277C3.49605 1.10524 3.24169 0.999879 2.97648 0.999879C2.71126 0.999879 2.45691 1.10524 2.26937 1.29277C2.08183 1.48031 1.97648 1.73466 1.97648 1.99988V13.1799C1.39732 13.3901 0.896937 13.7735 0.543318 14.278C0.1897 14.7826 0 15.3838 0 15.9999C0 16.616 0.1897 17.2172 0.543318 17.7217C0.896937 18.2262 1.39732 18.6097 1.97648 18.8199V19.9999C1.97648 20.2651 2.08183 20.5195 2.26937 20.707C2.45691 20.8945 2.71126 20.9999 2.97648 20.9999C3.24169 20.9999 3.49605 20.8945 3.68358 20.707C3.87112 20.5195 3.97648 20.2651 3.97648 19.9999V18.8199C4.55563 18.6097 5.05602 18.2262 5.40963 17.7217C5.76325 17.2172 5.95295 16.616 5.95295 15.9999C5.95295 15.3838 5.76325 14.7826 5.40963 14.278C5.05602 13.7735 4.55563 13.3901 3.97648 13.1799ZM11.9765 3.99988C11.978 3.44953 11.8281 2.90936 11.5433 2.43848C11.2584 1.96761 10.8494 1.58417 10.3612 1.33015C9.87298 1.07612 9.32429 0.961287 8.77518 0.998218C8.22606 1.03515 7.69769 1.22242 7.24788 1.53953C6.79807 1.85665 6.44417 2.29139 6.22489 2.79617C6.00561 3.30095 5.92942 3.85633 6.00465 4.40152C6.07987 4.94671 6.30362 5.46069 6.6514 5.88723C6.99919 6.31377 7.4576 6.63643 7.97648 6.81988V19.9999C7.97648 20.2651 8.08183 20.5195 8.26937 20.707C8.45691 20.8945 8.71126 20.9999 8.97648 20.9999C9.24169 20.9999 9.49605 20.8945 9.68358 20.707C9.87112 20.5195 9.97648 20.2651 9.97648 19.9999V6.81988C10.56 6.61357 11.0655 6.23181 11.4235 5.72694C11.7816 5.22208 11.9747 4.61882 11.9765 3.99988Z" fill="black"/>
</svg>
