<svg width="21" height="17" viewBox="0 0 21 17" fill="none" xmlns="http://www.w3.org/2000/svg">
<path d="M18.375 0.625H2.625C1.6625 0.625 0.875 1.4125 0.875 2.375V14.625C0.875 15.5875 1.6625 16.375 2.625 16.375H18.375C19.3375 16.375 20.125 15.5875 20.125 14.625V2.375C20.125 1.4125 19.3375 0.625 18.375 0.625ZM9.625 7.625H3.5C3.01875 7.625 2.625 7.23125 2.625 6.75C2.625 6.26875 3.01875 5.875 3.5 5.875H9.625C10.1062 5.875 10.5 6.26875 10.5 6.75C10.5 7.23125 10.1062 7.625 9.625 7.625ZM9.625 4.125H3.5C3.01875 4.125 2.625 3.73125 2.625 3.25C2.625 2.76875 3.01875 2.375 3.5 2.375H9.625C10.1062 2.375 10.5 2.76875 10.5 3.25C10.5 3.73125 10.1062 4.125 9.625 4.125Z" fill="black"/>
</svg>
