<svg width="19" height="19" viewBox="0 0 19 19" fill="none" xmlns="http://www.w3.org/2000/svg">
<path d="M0.685785 3.28254C0.476962 3.40468 0.303441 3.5816 0.182954 3.79523C0.0624666 4.00885 -0.000666131 4.25151 7.1006e-06 4.49842V17.4312C-0.000751336 17.6721 0.0592605 17.9092 0.174192 18.1192C0.289124 18.3292 0.455054 18.5051 0.655807 18.6296C0.856561 18.7541 1.08529 18.8231 1.31969 18.8297C1.55409 18.8364 1.78617 18.7805 1.9933 18.6675C2.01154 18.6575 2.02935 18.647 2.04674 18.6353L5.61516 16.2362C5.66254 16.2045 5.70145 16.161 5.72834 16.1099C5.75523 16.0587 5.76924 16.0015 5.76911 15.9434V0.367488C5.76928 0.303979 5.75257 0.241627 5.72077 0.187164C5.68898 0.132702 5.64331 0.0881987 5.5887 0.0584586C5.53409 0.0287185 5.47261 0.0148716 5.4109 0.0184131C5.34919 0.0219546 5.2896 0.0427498 5.23855 0.0785537L0.685785 3.28254ZM7.64916 0.056328C7.59801 0.0221589 7.53883 0.00279688 7.47787 0.0002809C7.4169 -0.00223508 7.35641 0.0121881 7.30275 0.0420315C7.24909 0.071875 7.20426 0.116034 7.17297 0.169859C7.14169 0.223684 7.1251 0.285182 7.12497 0.347877V15.9303C7.12483 15.9884 7.13885 16.0457 7.16574 16.0968C7.19262 16.148 7.23153 16.1914 7.27892 16.2231L11.3503 18.9434C11.4015 18.9777 11.4608 18.9972 11.5218 18.9997C11.5829 19.0023 11.6435 18.9878 11.6972 18.9579C11.751 18.928 11.7959 18.8837 11.8271 18.8298C11.8584 18.7758 11.8749 18.7142 11.8749 18.6514V3.07902C11.8751 3.02078 11.8611 2.96342 11.8341 2.91218C11.8071 2.86095 11.7681 2.81748 11.7206 2.78573L7.64916 0.056328ZM18.3438 0.36836C18.1438 0.242581 17.9152 0.172854 17.6808 0.166125C17.4464 0.159396 17.2144 0.215901 17.0079 0.330009C16.9896 0.339656 16.9719 0.350425 16.9549 0.362258L13.386 2.75915C13.3386 2.7909 13.2997 2.83433 13.2728 2.88548C13.246 2.93663 13.2319 2.99387 13.2321 3.05201V18.6301C13.2319 18.6936 13.2485 18.7561 13.2804 18.8106C13.3122 18.8651 13.3579 18.9097 13.4126 18.9394C13.4673 18.9692 13.5288 18.983 13.5906 18.9794C13.6524 18.9758 13.712 18.9549 13.7631 18.919L18.3039 15.7176C18.5153 15.5965 18.6913 15.4194 18.8136 15.2049C18.936 14.9903 19.0003 14.7461 18.9999 14.4974V1.59775C19.0027 1.35214 18.9438 1.10995 18.8288 0.894589C18.7139 0.679227 18.5469 0.497976 18.3438 0.36836Z" fill="black"/>
</svg>
