<?xml version="1.0" encoding="utf-8"?>

<!-- Uploaded to: SVG Repo, www.svgrepo.com, Generator: SVG Repo Mixer Tools -->
<svg fill="#000000" width="800px" height="800px" viewBox="0 -30.87 122.88 122.88" version="1.1" id="Layer_1" xmlns="http://www.w3.org/2000/svg" xmlns:xlink="http://www.w3.org/1999/xlink"  style="enable-background:new 0 0 122.88 61.14" xml:space="preserve">

<style type="text/css">.st0{fill-rule:evenodd;clip-rule:evenodd;}</style>

<g>

<path class="st0" d="M105.01,40.54c-5.7,0-10.3,4.63-10.3,10.3c0,5.7,4.63,10.3,10.3,10.3c5.7,0,10.3-4.63,10.3-10.3 C115.31,45.14,110.68,40.54,105.01,40.54L105.01,40.54z M61.86,41.46c-5.2,0-9.38,4.22-9.38,9.38c0,5.2,4.22,9.38,9.38,9.38 c5.2,0,9.38-4.22,9.38-9.38C71.24,45.64,67.02,41.46,61.86,41.46L61.86,41.46z M61.86,47.23c-1.99,0-3.61,1.62-3.61,3.61 s1.62,3.61,3.61,3.61c1.99,0,3.61-1.62,3.61-3.61S63.85,47.23,61.86,47.23L61.86,47.23z M24.11,41.46c-5.2,0-9.38,4.22-9.38,9.38 c0,5.2,4.22,9.38,9.38,9.38c5.2,0,9.38-4.22,9.38-9.38C33.5,45.64,29.28,41.46,24.11,41.46L24.11,41.46z M24.11,47.23 c-1.99,0-3.61,1.62-3.61,3.61s1.62,3.61,3.61,3.61c1.99,0,3.61-1.62,3.61-3.61S26.11,47.23,24.11,47.23L24.11,47.23z M47.37,53.53 H38.1v-3.01h9.27V53.53L47.37,53.53z M10.46,53.53H5.63c-1.55,0-2.95-0.66-3.96-1.71c-1.01-1.05-1.65-2.5-1.65-4.02V8.06 c0-2.44-0.36-4.44,1.62-6.42C2.66,0.63,4.05,0,5.6,0h73.32c1.55,0,2.95,0.63,3.96,1.65c1.01,1.01,1.65,2.41,1.65,3.96l0,7.26 l10.27,0.07l3.62,0.02l0,0c0.73,0.79,1.4,1.6,2.01,2.42c2.71,3.64,4.23,7.94,4.52,12.11l16.38,6.27l1.55,16.51h-5.01 c-2.31-18.03-25.03-15.84-25.73,0l-7.61,0v1.74c0,0.86-0.67,1.52-1.52,1.52l-6.69,0v-3.04h5.16V5.61c0-0.7-0.28-1.33-0.76-1.81 c-0.48-0.48-1.11-0.76-1.81-0.76H5.6c-0.7,0-1.33,0.29-1.81,0.76C2.76,4.77,3.07,6.43,3.07,7.7v40.1c0,0.73,0.32,1.43,0.79,1.93 c0.48,0.48,1.08,0.79,1.77,0.79h4.82V53.53L10.46,53.53z M94.46,17.89l-5.83-0.09v9.69h11.02C99.12,23.98,97.49,20.9,94.46,17.89 L94.46,17.89z M105.01,46.88c-2.19,0-3.96,1.77-3.96,3.96c0,2.19,1.77,3.96,3.96,3.96c2.19,0,3.96-1.77,3.96-3.96 C108.97,48.65,107.2,46.88,105.01,46.88L105.01,46.88z"/>

</g>

</svg>