<svg width="17" height="18" viewBox="0 0 17 18" fill="none" xmlns="http://www.w3.org/2000/svg">
<path d="M5.53152 7.6677C5.71367 7.6677 5.88836 7.59523 6.01716 7.46624C6.14596 7.33725 6.21832 7.16229 6.21832 6.97987V4.29733C6.21832 3.72041 6.44716 3.16712 6.85449 2.75918C7.26181 2.35124 7.81427 2.12206 8.39032 2.12206C8.96637 2.12206 9.51883 2.35124 9.92616 2.75918C10.3335 3.16712 10.5623 3.72041 10.5623 4.29733V6.97987C10.5623 7.16229 10.6347 7.33725 10.7635 7.46624C10.8923 7.59523 11.067 7.6677 11.2491 7.6677C11.4313 7.6677 11.606 7.59523 11.7348 7.46624C11.8636 7.33725 11.9359 7.16229 11.9359 6.97987V4.29733C11.9359 3.35556 11.5624 2.45237 10.8974 1.78644C10.2325 1.12051 9.33067 0.746399 8.39032 0.746399C7.44997 0.746399 6.54814 1.12051 5.88321 1.78644C5.21828 2.45237 4.84473 3.35556 4.84473 4.29733V6.97987C4.84473 7.16229 4.91709 7.33725 5.04589 7.46624C5.17469 7.59523 5.34937 7.6677 5.53152 7.6677Z" fill="black"/>
<path d="M16.2647 6.12148H12.6247V6.9792C12.6247 7.34405 12.48 7.69396 12.2224 7.95194C11.9648 8.20993 11.6154 8.35487 11.2511 8.35487C10.8868 8.35487 10.5375 8.20993 10.2799 7.95194C10.0223 7.69396 9.87754 7.34405 9.87754 6.9792V6.12148H6.9051V6.9792C6.9051 7.34405 6.76038 7.69396 6.50278 7.95194C6.24518 8.20993 5.89581 8.35487 5.53151 8.35487C5.16721 8.35487 4.81783 8.20993 4.56023 7.95194C4.30263 7.69396 4.15792 7.34405 4.15792 6.9792V6.12148H0.468454C0.426758 6.11875 0.385026 6.12624 0.346878 6.14332C0.30873 6.16039 0.275317 6.18653 0.249538 6.21947C0.223758 6.2524 0.20639 6.29113 0.19894 6.33231C0.19149 6.37349 0.194183 6.41587 0.206785 6.45576L2.61057 16.256C2.69598 16.5359 2.86622 16.7823 3.09769 16.961C3.32916 17.1397 3.61039 17.2419 3.90243 17.2533H12.8308C13.1231 17.242 13.4047 17.1398 13.6364 16.961C13.8681 16.7821 14.0385 16.5355 14.124 16.2553L16.5278 6.45508C16.5403 6.4151 16.5429 6.37267 16.5353 6.33147C16.5277 6.29027 16.5102 6.25155 16.4843 6.21867C16.4583 6.18579 16.4248 6.15975 16.3865 6.14281C16.3483 6.12587 16.3065 6.11855 16.2647 6.12148Z" fill="black"/>
</svg>
