<svg width="57" height="56" viewBox="0 0 57 56" fill="none" xmlns="http://www.w3.org/2000/svg">
<rect x="4.66675" y="4" width="48" height="48" rx="24" fill="#EFF9EA" fill-opacity="0.7"/>
<rect x="4.66675" y="4" width="48" height="48" rx="24" stroke="#EFF9EA" stroke-width="8"/>
<path d="M23.6667 17.8281C23.698 17.1406 24.0574 16.75 24.7449 16.6562L31.8699 16.0469C32.3386 16.0781 32.6042 16.3281 32.6667 16.7969V18.2031C32.6355 18.6719 32.3855 18.9219 31.9167 18.9531H24.7917C24.1042 18.8906 23.7292 18.5156 23.6667 17.8281ZM14.6667 27.5781C14.6667 27.2656 14.7761 27 14.9949 26.7812C15.2136 26.5625 15.4792 26.4531 15.7917 26.4531H29.3386C30.3386 26.4531 31.2761 26.7188 32.1511 27.25C32.9949 27.75 33.6824 28.4375 34.2136 29.3125L38.5261 36.8125C38.8074 37.4375 38.6667 37.9531 38.1042 38.3594C37.4792 38.6406 36.9636 38.4844 36.5574 37.8906L32.6667 31.1875V38.5C32.6667 38.9375 32.5261 39.2969 32.2449 39.5781C31.9636 39.8594 31.6042 40 31.1667 40H25.1667C24.7292 40 24.3699 39.8594 24.0886 39.5781C23.8074 39.2969 23.6667 38.9375 23.6667 38.5V28.7031H15.7917C15.1042 28.6719 14.7292 28.2969 14.6667 27.5781ZM25.9167 28.7031V32.5938L29.3386 28.75C29.3074 28.75 29.2917 28.7344 29.2917 28.7031H25.9167ZM30.4167 37.75V36.25H25.9167V37.75H30.4167ZM27.698 34H30.4167V30.9531L27.698 34ZM24.4167 21.2031C24.4167 20.9844 24.448 20.75 24.5105 20.5H26.8542C26.7292 20.7188 26.6667 20.9531 26.6667 21.2031C26.6667 21.6406 26.8074 22 27.0886 22.2812C27.3699 22.5625 27.7292 22.7031 28.1667 22.7031C28.6042 22.7031 28.9636 22.5625 29.2449 22.2812C29.5261 22 29.6667 21.6406 29.6667 21.2031C29.6667 20.9531 29.6042 20.7188 29.4792 20.5H31.823C31.8855 20.75 31.9167 20.9844 31.9167 21.2031C31.8855 22.2969 31.5261 23.1875 30.8386 23.875C30.1199 24.5625 29.2292 24.9219 28.1667 24.9531C27.1042 24.9219 26.2136 24.5625 25.4949 23.875C24.8074 23.1875 24.448 22.2969 24.4167 21.2031Z" fill="#5AC12F"/>
</svg>
