<svg width="24" height="18" viewBox="0 0 24 18" fill="none" xmlns="http://www.w3.org/2000/svg">
<path d="M20 0H4C2.94011 0.00316545 1.92453 0.425609 1.17507 1.17507C0.425609 1.92453 0.00316545 2.94011 0 4L0 14C0.00316545 15.0599 0.425609 16.0755 1.17507 16.8249C1.92453 17.5744 2.94011 17.9968 4 18H20C21.0599 17.9968 22.0755 17.5744 22.8249 16.8249C23.5744 16.0755 23.9968 15.0599 24 14V4C23.9968 2.94011 23.5744 1.92453 22.8249 1.17507C22.0755 0.425609 21.0599 0.00316545 20 0ZM21.6 5.8L13.7 11.1C13.1881 11.4153 12.6011 11.5879 12 11.6C11.3989 11.5879 10.8119 11.4153 10.3 11.1L2.4 5.8C2.19981 5.63243 2.06864 5.39677 2.03172 5.13833C1.9948 4.87988 2.05474 4.61692 2.2 4.4C2.36757 4.19981 2.60323 4.06864 2.86167 4.03172C3.12012 3.9948 3.38308 4.05474 3.6 4.2L11.5 9.5C11.6666 9.59824 11.8566 9.65005 12.05 9.65005C12.2434 9.65005 12.4334 9.59824 12.6 9.5L20.5 4.2C20.6104 4.12389 20.7352 4.07115 20.8667 4.045C20.9982 4.01886 21.1336 4.01986 21.2647 4.04795C21.3958 4.07605 21.5198 4.13064 21.629 4.20837C21.7383 4.28611 21.8305 4.38535 21.9 4.5C22.0009 4.71934 22.0262 4.96595 21.9719 5.2012C21.9176 5.43645 21.7868 5.64705 21.6 5.8Z" fill="#90EA93"/>
</svg>
