<svg width="18" height="25" viewBox="0 0 18 25" fill="none" xmlns="http://www.w3.org/2000/svg">
<g clip-path="url(#clip0_212_12)">
<path d="M8.99998 7.66935e-05C7.81672 -0.0048181 6.64419 0.224632 5.55005 0.675191C4.45591 1.12575 3.46181 1.7885 2.62511 2.6252C1.78841 3.46191 1.12566 4.456 0.6751 5.55014C0.224541 6.64428 -0.00490965 7.81681 -1.48592e-05 9.00008C0.0365001 12.0008 0.835861 14.9428 2.32285 17.5494C3.80984 20.1561 5.93556 22.3415 8.49998 23.9001C8.66649 23.9987 8.85645 24.0508 9.04998 24.0508C9.24352 24.0508 9.43348 23.9987 9.59999 23.9001C12.1288 22.311 14.2213 20.1162 15.688 17.5145C17.1548 14.9128 17.9494 11.9863 18 9.00008C18.0049 7.81681 17.7754 6.64428 17.3249 5.55014C16.8743 4.456 16.2116 3.46191 15.3749 2.6252C14.5382 1.7885 13.5441 1.12575 12.4499 0.675191C11.3558 0.224632 10.1833 -0.0048181 8.99998 7.66935e-05ZM8.99998 13.0001C8.20886 13.0001 7.4355 12.7655 6.7777 12.326C6.11991 11.8864 5.60722 11.2617 5.30447 10.5308C5.00172 9.79991 4.9225 8.99564 5.07684 8.21972C5.23118 7.44379 5.61215 6.73106 6.17156 6.17165C6.73097 5.61224 7.4437 5.23128 8.21962 5.07694C8.99555 4.9226 9.79981 5.00181 10.5307 5.30456C11.2616 5.60731 11.8863 6.12 12.3259 6.7778C12.7654 7.43559 13 8.20895 13 9.00008C12.9968 10.06 12.5744 11.0755 11.8249 11.825C11.0755 12.5745 10.0599 12.9969 8.99998 13.0001Z" fill="#90EA93"/>
</g>
<defs>
<clipPath id="clip0_212_12">
<rect width="18" height="24.05" fill="white"/>
</clipPath>
</defs>
</svg>
