<svg width="34" height="34" viewBox="0 0 34 34" fill="none" xmlns="http://www.w3.org/2000/svg">
<path d="M8.15527 18.2293C8.15527 18.4692 8.27522 18.5891 8.51508 18.5891C8.93484 18.5891 9.1747 18.2293 9.23467 17.6896C9.11474 17.6896 9.11472 17.6896 8.99479 17.6896C8.45511 17.6896 8.15527 17.8695 8.15527 18.2293Z" fill="black"/>
<path d="M23.5059 18.2293C23.5059 18.4692 23.6258 18.5891 23.8656 18.5891C24.2854 18.5891 24.5253 18.2293 24.5852 17.6896C24.4653 17.6896 24.4653 17.6896 24.3453 17.6896C23.7457 17.6896 23.5059 17.8695 23.5059 18.2293Z" fill="black"/>
<path d="M16.1905 16.4303C15.8906 16.4303 15.6508 16.6702 15.5908 17.0899H16.6702C16.6702 16.97 16.7901 16.4303 16.1905 16.4303Z" fill="black"/>
<path d="M29.2029 16.5503C28.7831 16.5503 28.4233 17.09 28.4233 17.8095C28.4233 18.2892 28.6032 18.5291 28.903 18.5291C29.3828 18.5291 29.6826 17.9894 29.6826 17.2699C29.7425 16.7902 29.5627 16.5503 29.2029 16.5503Z" fill="black"/>
<path d="M22.9663 8.03529C20.6877 8.03529 18.5889 8.87479 16.9699 10.3139C15.4108 8.87479 13.3121 8.03529 11.0334 8.03529C6.11628 8.03529 2.09863 12.0529 2.09863 16.97C2.09863 21.8872 6.11628 25.9048 11.0334 25.9048C13.3121 25.9048 15.4108 25.0653 16.9699 23.6261C18.529 25.0653 20.6277 25.9048 22.9663 25.9048C27.8835 25.9048 31.9011 21.8872 31.9011 16.97C31.9011 12.0529 27.8835 8.03529 22.9663 8.03529ZM5.8764 19.3686L6.4161 15.8907L5.15682 19.3686H4.49722L4.43727 15.8907L3.83762 19.3686H2.93815L3.71769 14.8113H5.09687L5.15682 17.6296L6.11628 14.8113H7.61539L6.83586 19.3686H5.8764ZM9.11451 19.3686V19.0088C8.87465 19.3086 8.51486 19.4286 8.09511 19.4286C7.55542 19.4286 7.19563 19.0088 7.19563 18.4092C7.19563 17.5097 7.79527 16.97 8.87464 16.97C8.99457 16.97 9.11451 16.97 9.2944 16.97C9.35436 16.8501 9.35435 16.7901 9.35435 16.7302C9.35435 16.4903 9.17446 16.3704 8.7547 16.3704C8.27498 16.3704 7.91523 16.4903 7.73533 16.5503C7.73533 16.4903 7.85523 15.7108 7.85523 15.7108C8.33495 15.5908 8.63479 15.5309 8.99458 15.5309C9.83408 15.5309 10.2538 15.8907 10.2538 16.6102C10.2538 16.7901 10.2538 17.03 10.1939 17.3298C10.1339 17.8695 9.95401 19.0088 9.89405 19.3086C9.77412 19.3686 9.11451 19.3686 9.11451 19.3686ZM11.9928 17.1499C12.4725 17.3898 12.6524 17.6896 12.6524 18.1693C12.6524 19.0088 12.1727 19.4286 11.1533 19.4286C10.5536 19.4286 10.3738 19.3686 10.1339 19.3086C10.1339 19.2487 10.2538 18.4692 10.2538 18.4692C10.5536 18.5891 10.8535 18.5891 11.1533 18.5891C11.5131 18.5891 11.693 18.4691 11.693 18.2293C11.693 18.0494 11.633 17.9894 11.2133 17.8095C10.6736 17.5697 10.4937 17.2698 10.4937 16.7901C10.4937 16.1305 10.8535 15.5309 11.9329 15.5309C12.1727 15.5309 12.5325 15.5908 12.7723 15.5908L12.6524 16.4303C12.4125 16.3704 12.1727 16.3704 11.9329 16.3704C11.633 16.3704 11.4531 16.4903 11.4531 16.6702C11.5131 16.9101 11.5731 16.97 11.9928 17.1499ZM14.0916 18.5291C14.2115 18.5291 14.2715 18.5291 14.3315 18.4692L14.2115 19.3086C13.9717 19.3686 13.7318 19.4286 13.4919 19.4286C13.0122 19.4286 12.7124 19.1287 12.7124 18.5891C12.7124 18.4092 12.7724 17.9894 12.8323 17.6296C12.8923 17.2699 13.2521 15.1111 13.2521 15.1111H14.2115L14.0916 15.6508H14.5713L14.4514 16.5503H13.9716C13.8517 17.2699 13.6718 18.1094 13.6718 18.2293C13.7917 18.4092 13.9117 18.5291 14.0916 18.5291ZM16.3702 18.5891C16.73 18.5891 17.0298 18.5291 17.3896 18.3492L17.2098 19.2487C16.85 19.3686 16.5501 19.3686 16.1903 19.3686C15.111 19.3686 14.5713 18.8289 14.5713 17.7496C14.5713 16.4903 15.2909 15.5309 16.2503 15.5309C17.0298 15.5309 17.5695 16.0706 17.5695 16.8501C17.5695 17.1499 17.5096 17.3898 17.4496 17.7496H15.5307C15.4708 18.3492 15.8305 18.5891 16.3702 18.5891ZM18.529 19.3686H17.5695L17.6295 19.1288C17.8094 17.9894 17.9893 16.8501 18.1092 15.7108H19.0087C19.0087 15.8907 18.9487 16.0706 18.9487 16.2505C19.2485 15.8307 19.4884 15.5908 19.9082 15.6508C19.7882 15.8307 19.6083 16.2505 19.5484 16.7302C18.9487 16.6702 18.8888 17.09 18.529 19.3686ZM22.2468 19.3086C21.887 19.4286 21.6471 19.4286 21.4073 19.4286C20.3879 19.4286 19.7283 18.649 19.7283 17.4498C19.7283 15.8307 20.6277 14.6914 21.9469 14.6914C22.3667 14.6914 22.8464 14.8713 23.0263 14.9312L22.8464 15.8907C22.4866 15.7108 22.2468 15.6508 22.0069 15.6508C21.2874 15.6508 20.7476 16.3704 20.7476 17.3298C20.7476 17.9894 21.1074 18.4092 21.6471 18.4092C21.887 18.4092 22.1269 18.3492 22.4866 18.1693L22.2468 19.3086ZM25.245 19.3686C25.1251 19.3686 24.4655 19.3686 24.4655 19.3686V19.0088C24.2256 19.3086 23.8658 19.4286 23.4461 19.4286C22.9064 19.4286 22.5466 19.0088 22.5466 18.4092C22.5466 17.5097 23.1463 16.97 24.2256 16.97C24.3456 16.97 24.4655 16.97 24.6454 16.97C24.7053 16.8501 24.7053 16.7901 24.7053 16.7302C24.7053 16.4903 24.5254 16.3704 24.1057 16.3704C23.626 16.3704 23.2662 16.4903 23.0863 16.5503C23.0863 16.4903 23.2062 15.7108 23.2062 15.7108C23.6859 15.5908 23.9857 15.5309 24.3455 15.5309C25.185 15.5309 25.6048 15.8907 25.6048 16.6102C25.6048 16.7901 25.6048 17.03 25.5448 17.3298C25.4249 17.9295 25.245 19.0688 25.245 19.3686ZM26.5642 19.3686H25.6048L25.6648 19.1288C25.8447 17.9894 26.0245 16.8501 26.1445 15.7108H27.0439C27.0439 15.8907 26.984 16.0706 26.984 16.2505C27.2838 15.8307 27.5237 15.5908 27.9434 15.6508C27.8235 15.8307 27.6436 16.2505 27.5836 16.7302C26.984 16.6702 26.8641 17.09 26.5642 19.3686ZM29.4425 19.3686L29.5025 19.0088C29.2627 19.3086 28.9628 19.4286 28.603 19.4286C27.8835 19.4286 27.4038 18.829 27.4038 17.8695C27.4038 16.6702 28.1233 15.5908 28.9628 15.5908C29.3226 15.5908 29.6224 15.7708 29.8623 16.0706L30.1022 14.7513H31.0616L30.342 19.3086H29.4425V19.3686Z" fill="black"/>
</svg>
