<svg width="56" height="56" viewBox="0 0 56 56" fill="none" xmlns="http://www.w3.org/2000/svg">
<rect x="4" y="4" width="48" height="48" rx="24" fill="#EFF9EA" fill-opacity="0.7"/>
<rect x="4" y="4" width="48" height="48" rx="24" stroke="#EFF9EA" stroke-width="8"/>
<path d="M37.625 38.0781C37.875 38.2969 37.9844 38.5625 37.9531 38.875C37.9531 39.1562 37.8438 39.4062 37.625 39.625C37.4062 39.8438 37.1562 39.9531 36.875 39.9531C36.5625 39.9844 36.2969 39.875 36.0781 39.625L28.5781 32.1719L29.3281 31.375C30.1094 31.875 30.9531 32.1719 31.8594 32.2656L37.625 38.0781ZM21.4062 31.3281L16.5312 26.4531C15.2812 25.2031 14.4844 23.7031 14.1406 21.9531C13.8281 20.2344 14.0156 18.5469 14.7031 16.8906C14.7969 16.6719 14.9375 16.4844 15.125 16.3281C15.3438 16.1719 15.5625 16.0781 15.7812 16.0469C16.0312 15.9844 16.2812 15.9844 16.5312 16.0469C16.75 16.1406 16.9531 16.2656 17.1406 16.4219L24.7344 24.0625C24.7344 24.125 24.7344 24.1875 24.7344 24.25C24.7031 24.3438 24.6875 24.4375 24.6875 24.5312C24.7188 25.6875 25.0312 26.7344 25.625 27.6719L25.3906 27.9062L16.3906 18.9062C16.1719 19.9688 16.2031 21.0312 16.4844 22.0938C16.7969 23.1562 17.3438 24.0781 18.125 24.8594L23 29.7344C23.0938 29.8281 23.2188 29.8906 23.375 29.9219L21.7344 31.5625C21.6094 31.5 21.5 31.4219 21.4062 31.3281ZM40.9062 23.0781C40.9375 23.1719 40.9531 23.2812 40.9531 23.4062C40.9531 23.4375 40.9531 23.4688 40.9531 23.5C40.9531 23.5312 40.9531 23.5469 40.9531 23.5469C40.9531 23.6719 40.9375 23.7969 40.9062 23.9219C40.875 23.9531 40.8594 23.9844 40.8594 24.0156C40.7969 24.1094 40.7188 24.2031 40.625 24.2969L35.375 29.5938C34.5625 30.375 33.5938 30.7812 32.4688 30.8125C31.3125 30.7812 30.3281 30.375 29.5156 29.5938L29.2812 29.3125L18.9219 39.625C18.8281 39.7812 18.7031 39.8906 18.5469 39.9531C18.4219 40.0156 18.2812 40.0469 18.125 40.0469C17.9688 40.0469 17.8125 40.0156 17.6562 39.9531C17.5312 39.8906 17.4062 39.8125 17.2812 39.7188C17.1875 39.5938 17.1094 39.4688 17.0469 39.3438C16.9844 39.1875 16.9531 39.0312 16.9531 38.875C16.9531 38.7188 16.9844 38.5781 17.0469 38.4531C17.1094 38.2969 17.2031 38.1719 17.3281 38.0781L27.6875 27.7188L27.4062 27.4844C26.625 26.6719 26.2188 25.6875 26.1875 24.5312C26.2188 23.4062 26.625 22.4375 27.4062 21.625L32.7031 16.3281C32.9219 16.1406 33.1875 16.0469 33.5 16.0469C33.8125 16.0469 34.0781 16.1562 34.2969 16.375C34.4844 16.5938 34.5938 16.8438 34.625 17.125C34.625 17.4375 34.5156 17.7031 34.2969 17.9219L30.3125 21.9062L31.9062 23.5L35.7969 19.5625C35.9531 19.4688 36.0938 19.3906 36.2188 19.3281C36.3438 19.2656 36.4688 19.2344 36.5938 19.2344C36.7812 19.2344 36.9375 19.2656 37.0625 19.3281C37.2188 19.3906 37.3438 19.4688 37.4375 19.5625C37.5312 19.6562 37.6094 19.7812 37.6719 19.9375C37.7031 20.0625 37.7188 20.1875 37.7188 20.3125C37.7188 20.3125 37.7188 20.3281 37.7188 20.3594C37.7188 20.3906 37.7188 20.4062 37.7188 20.4062C37.7188 20.5312 37.7031 20.6562 37.6719 20.7812C37.6094 20.9375 37.5312 21.0625 37.4375 21.1562L33.5 25.0938L35.0938 26.6875L39.0781 22.7031C39.1719 22.5781 39.2969 22.5 39.4531 22.4688C39.5781 22.4062 39.7188 22.375 39.875 22.375C40.0312 22.375 40.1719 22.4062 40.2969 22.4688C40.4531 22.5 40.5625 22.5781 40.625 22.7031C40.7188 22.7656 40.7969 22.8438 40.8594 22.9375C40.8594 22.9688 40.875 23.0156 40.9062 23.0781ZM32.2344 28.5156C32.6719 28.5469 33.0781 28.4375 33.4531 28.1875L28.8125 23.5469C28.5625 23.9219 28.4531 24.3281 28.4844 24.7656C28.5156 25.2031 28.6719 25.5781 28.9531 25.8906L31.1094 28C31.4219 28.3125 31.7969 28.4844 32.2344 28.5156Z" fill="#5AC12F"/>
</svg>
