<svg width="57" height="56" viewBox="0 0 57 56" fill="none" xmlns="http://www.w3.org/2000/svg">
<rect x="4.33331" y="4" width="48" height="48" rx="24" fill="#EFF9EA" fill-opacity="0.7"/>
<rect x="4.33331" y="4" width="48" height="48" rx="24" stroke="#EFF9EA" stroke-width="8"/>
<path d="M27.8333 34V32.5C27.7708 30.375 27.0364 28.6094 25.6302 27.2031C24.2239 25.7969 22.4583 25.0625 20.3333 25H16.9583C16.2708 24.9375 15.8958 24.5625 15.8333 23.875C15.8958 23.1875 16.2708 22.8125 16.9583 22.75H20.3333C22.7083 22.7812 24.7552 23.5 26.4739 24.9062L30.9271 21.1562L30.1771 19.75H27.4583C26.7708 19.6875 26.3958 19.3125 26.3333 18.625C26.3958 17.9375 26.7708 17.5625 27.4583 17.5H30.4114C31.1302 17.5312 31.6771 17.8594 32.0521 18.4844L32.7083 19.7031L34.8646 17.875C35.1458 17.625 35.4739 17.5 35.8489 17.5H36.8333C37.2708 17.5 37.6302 17.6406 37.9114 17.9219C38.1927 18.2031 38.3333 18.5625 38.3333 19V20.5C38.3333 20.9375 38.1927 21.2969 37.9114 21.5781C37.6302 21.8594 37.2708 22 36.8333 22H33.9271L36.5052 26.7344C37.0989 26.5781 37.7083 26.5 38.3333 26.5C40.0208 26.5312 41.4427 27.1094 42.5989 28.2344C43.7239 29.3906 44.3021 30.8125 44.3333 32.5C44.3021 34.1875 43.7239 35.6094 42.5989 36.7656C41.4427 37.8906 40.0208 38.4688 38.3333 38.5C36.6458 38.4688 35.2239 37.8906 34.0677 36.7656C32.9427 35.6094 32.3646 34.1875 32.3333 32.5C32.3958 30.5312 33.1302 28.9844 34.5364 27.8594L33.8333 26.5C32.8958 27.1875 32.1614 28.0469 31.6302 29.0781C31.0989 30.1094 30.8333 31.25 30.8333 32.5V34H27.8333ZM29.3333 28.75C30.0833 27 31.2239 25.5938 32.7552 24.5312L32.0052 23.1719L28.0677 26.5469C28.5677 27.2031 28.9896 27.9375 29.3333 28.75ZM38.3333 36.25C39.3958 36.2188 40.2864 35.8594 41.0052 35.1719C41.6927 34.4531 42.0521 33.5625 42.0833 32.5C42.0521 31.4375 41.6927 30.5469 41.0052 29.8281C40.2864 29.1406 39.3958 28.7812 38.3333 28.75C38.0833 28.75 37.8489 28.7656 37.6302 28.7969L39.3177 31.9844C39.5989 32.6094 39.4427 33.1094 38.8489 33.4844C38.2239 33.7656 37.7239 33.6094 37.3489 33.0156L35.6614 29.875C34.9739 30.5938 34.6146 31.4688 34.5833 32.5C34.6146 33.5625 34.9739 34.4531 35.6614 35.1719C36.3802 35.8594 37.2708 36.2188 38.3333 36.25ZM14.3333 32.5C14.3646 30.8125 14.9427 29.3906 16.0677 28.2344C17.2239 27.1094 18.6458 26.5312 20.3333 26.5C22.0208 26.5312 23.4427 27.1094 24.5989 28.2344C25.7239 29.3906 26.3021 30.8125 26.3333 32.5C26.3021 34.1875 25.7239 35.6094 24.5989 36.7656C23.4427 37.8906 22.0208 38.4688 20.3333 38.5C18.6458 38.4688 17.2239 37.8906 16.0677 36.7656C14.9427 35.6094 14.3646 34.1875 14.3333 32.5ZM23.8958 31.375C23.6458 30.5938 23.2083 29.9688 22.5833 29.5C21.9271 29 21.1771 28.75 20.3333 28.75C19.2708 28.7812 18.3802 29.1406 17.6614 29.8281C16.9739 30.5469 16.6146 31.4375 16.5833 32.5C16.6146 33.5625 16.9739 34.4531 17.6614 35.1719C18.3802 35.8594 19.2708 36.2188 20.3333 36.25C21.1771 36.25 21.9271 36 22.5833 35.5C23.2083 35.0312 23.6458 34.4062 23.8958 33.625H21.3177C21.0364 33.8438 20.7083 33.9688 20.3333 34C19.8958 34 19.5364 33.8594 19.2552 33.5781C18.9739 33.2969 18.8333 32.9375 18.8333 32.5C18.8333 32.0625 18.9739 31.7031 19.2552 31.4219C19.5364 31.1406 19.8958 31 20.3333 31C20.7083 31 21.0364 31.125 21.3177 31.375H23.8958Z" fill="#5AC12F"/>
</svg>
