<svg width="24" height="22" viewBox="0 0 24 22" fill="none" xmlns="http://www.w3.org/2000/svg">
<path d="M19.5875 9.93867C19.5875 9.93867 19.9042 11.5371 19.975 11.8723H18.5833C18.7208 11.4898 19.25 10.0031 19.25 10.0031C19.2417 10.016 19.3875 9.61211 19.4708 9.36289L19.5875 9.93867ZM24 3.4375V18.5625C24 19.7012 23.1042 20.625 22 20.625H2C0.895833 20.625 0 19.7012 0 18.5625V3.4375C0 2.29883 0.895833 1.375 2 1.375H22C23.1042 1.375 24 2.29883 24 3.4375ZM6.35417 14.2313L8.9875 7.5625H7.21667L5.57917 12.1172L5.4 11.1934L4.81667 8.12539C4.72083 7.7 4.425 7.57969 4.05833 7.5625H1.3625L1.33333 7.6957C1.99167 7.86758 2.57917 8.1168 3.09167 8.43047L4.58333 14.2313H6.35417ZM10.2875 14.2398L11.3375 7.5625H9.6625L8.61667 14.2398H10.2875ZM16.1167 12.057C16.125 11.2965 15.675 10.7164 14.7125 10.2395C14.125 9.93437 13.7667 9.72813 13.7667 9.41445C13.775 9.13086 14.0708 8.83867 14.7292 8.83867C15.275 8.82578 15.675 8.95898 15.975 9.09219L16.125 9.16523L16.3542 7.72148C16.025 7.58828 15.5 7.43789 14.8542 7.43789C13.2 7.43789 12.0375 8.34883 12.0292 9.64648C12.0167 10.6047 12.8625 11.1375 13.4958 11.4598C14.1417 11.7863 14.3625 12.0012 14.3625 12.2891C14.3542 12.7359 13.8375 12.9422 13.3583 12.9422C12.6917 12.9422 12.3333 12.8348 11.7875 12.5855L11.5667 12.4781L11.3333 13.9777C11.725 14.1625 12.45 14.3258 13.2 14.3344C14.9583 14.3387 16.1042 13.4406 16.1167 12.057ZM22 14.2398L20.65 7.5625H19.3542C18.9542 7.5625 18.65 7.68281 18.4792 8.1168L15.9917 14.2398H17.75C17.75 14.2398 18.0375 13.4148 18.1 13.2387H20.25C20.3 13.475 20.45 14.2398 20.45 14.2398H22Z" fill="black"/>
</svg>
