<svg width="23" height="23" viewBox="0 0 23 23" fill="none" xmlns="http://www.w3.org/2000/svg">
<g clip-path="url(#clip0_212_6)">
<path d="M11.5 0C8.45535 0.0173249 5.54034 1.23449 3.38741 3.38742C1.23449 5.54034 0.0173234 8.45535 -1.45251e-06 11.5C-0.0131225 13.8201 0.684862 16.0886 2 18L0.699999 21.9C0.662687 21.9834 0.652268 22.0764 0.670188 22.166C0.688107 22.2556 0.733477 22.3374 0.799999 22.4C0.884695 22.4635 0.9834 22.5057 1.08781 22.5231C1.19222 22.5405 1.29929 22.5326 1.4 22.5L5.4 21.2C7.21526 22.3799 9.33497 23.0054 11.5 23C14.5446 22.9827 17.4597 21.7655 19.6126 19.6126C21.7655 17.4597 22.9827 14.5446 23 11.5C22.9827 8.45535 21.7655 5.54034 19.6126 3.38742C17.4597 1.23449 14.5446 0.0173249 11.5 0ZM18.4 16.2C18.158 16.688 17.8064 17.1135 17.3728 17.4431C16.9391 17.7727 16.435 17.9975 15.9 18.1C15.7 18.1 15.5 18.2 15.2 18.2C14.0246 18.0908 12.8755 17.7867 11.8 17.3C9.50988 16.2255 7.56901 14.5272 6.2 12.4L6.1 12.3C5.23001 11.2511 4.70603 9.95861 4.6 8.6C4.60873 7.48472 5.03717 6.41364 5.8 5.6C5.99582 5.40289 6.22993 5.24796 6.48791 5.14477C6.74588 5.04158 7.02226 4.99231 7.3 5H7.7C8.2 5 8.5 5.2 8.8 5.8L9 6.2C9.3 6.9 9.7 8 9.8 8.2C9.89889 8.348 9.95167 8.522 9.95167 8.7C9.95167 8.878 9.89889 9.052 9.8 9.2C9.7024 9.42165 9.56706 9.62466 9.4 9.8C9.3 9.9 9.2 10 9.2 10.1L8.9 10.4V10.5C9.35966 11.2802 9.93257 11.988 10.6 12.6C11.2759 13.227 12.0537 13.7343 12.9 14.1H13C13.1 14.1 13.2 14.2 13.2 14.1C13.4 13.9 13.6 13.5 13.9 13.2L14 13.1C14.1027 12.9543 14.237 12.8337 14.3929 12.7472C14.5487 12.6606 14.722 12.6103 14.9 12.6C15.041 12.585 15.1827 12.6205 15.3 12.7C16.0648 13 16.8011 13.3682 17.5 13.8L17.7 13.9C18 14 18.2 14.1 18.3 14.4C18.7 14.6 18.6 15.5 18.4 16.2Z" fill="#90EA93"/>
</g>
<defs>
<clipPath id="clip0_212_6">
<rect width="23" height="23" fill="white"/>
</clipPath>
</defs>
</svg>
