<svg width="132" height="131" viewBox="0 0 132 131" fill="none" xmlns="http://www.w3.org/2000/svg">
<path d="M115.909 112.573C112.479 116.108 109.41 118.185 107.061 119.754C84.1463 135.051 57.9527 130.642 49.8542 129.135C36.7884 126.704 25.759 124.988 16.2828 116.429C-5.24992 96.9784 -4.20264 56.4037 12.2511 31.2694C14.202 28.2892 30.6308 3.9415 56.8812 0.510622C57.5232 0.426705 58.0023 0.37893 58.4218 0.334544C62.4827 -0.0953468 87.6472 -2.36413 108.166 14.8234C111.103 17.2838 115.83 21.7215 120.214 28.4899C136.241 53.238 136.292 91.5673 115.909 112.573Z" fill="#D6F8D7"/>
<path d="M44.4606 106.393L36.7194 108.819C36.7194 108.819 34.0175 105.305 35.0361 101.909C37.1145 94.9787 30.899 93.6424 28.3792 92.6933C24.5794 91.262 22.2678 88.5986 25.3096 85.4477C28.7514 81.8826 23.2027 77.0029 16.733 75.5757C10.4019 74.179 9.23187 62.121 23.2124 63.886C31.5615 64.94 32.8444 73.038 34.4646 76.9736C36.0848 80.9092 42.208 79.3578 41.6977 84.9456C41.2618 89.7186 38.8841 93.8445 42.3451 95.9474C45.8061 98.0504 47.0904 101.222 44.4606 106.393Z" fill="#6FCF97"/>
<g style="mix-blend-mode:soft-light" opacity="0.5">
<g style="mix-blend-mode:soft-light" opacity="0.5">
<path d="M41.3354 108.161L41.1654 108.182C41.1525 108.077 39.8173 97.5427 35.3442 87.499C31.2234 78.2461 23.5186 67.528 10.2147 69.0133L10.1957 68.8431C16.118 68.1818 21.442 69.8419 26.0199 73.7772C29.6769 76.9208 32.8672 81.515 35.5021 87.4325C39.9847 97.4994 41.3224 108.056 41.3354 108.161Z" fill="#6FCF97"/>
</g>
<g style="mix-blend-mode:soft-light" opacity="0.5">
<path d="M27.8618 75.5042L27.6933 75.5348C26.6734 69.9276 22.2138 62.9061 22.1689 62.836L22.3132 62.7437C22.3583 62.8143 26.836 69.8642 27.8618 75.5042Z" fill="#6FCF97"/>
</g>
<g style="mix-blend-mode:soft-light" opacity="0.5">
<path d="M24.7397 72.9657C18.164 71.2628 13.5396 74.5179 13.4937 74.551L13.3936 74.4121C13.4402 74.3784 18.1263 71.0762 24.7827 72.7997L24.7397 72.9657Z" fill="#6FCF97"/>
</g>
<g style="mix-blend-mode:soft-light" opacity="0.5">
<path d="M37.9105 94.2244C33.668 87.0935 22.5965 88.4883 22.4898 88.5109L22.4434 88.3462C22.5461 88.3141 33.7777 86.9427 38.0576 94.1369L37.9105 94.2244Z" fill="#6FCF97"/>
</g>
<g style="mix-blend-mode:soft-light" opacity="0.5">
<path d="M36.938 90.9444L36.7675 90.9612C36.2458 85.6926 40.5452 80.6075 40.5887 80.5567L40.7188 80.6681C40.6757 80.7183 36.4234 85.7493 36.938 90.9444Z" fill="#6FCF97"/>
</g>
<g style="mix-blend-mode:soft-light" opacity="0.5">
<path d="M40.9187 106.529C39.7431 103.604 34.7171 102.572 34.6665 102.562L34.7 102.394C34.9103 102.436 39.8673 103.454 41.0776 106.465L40.9187 106.529Z" fill="#6FCF97"/>
</g>
<g style="mix-blend-mode:soft-light" opacity="0.5">
<path d="M40.6362 104.03L40.4667 104.053C40.1323 101.583 42.8574 97.8615 43.753 96.6384C43.8796 96.4655 43.9888 96.3164 44.003 96.2859L44.1592 96.3563C44.1397 96.3995 44.0675 96.4988 43.8912 96.7396C43.0056 97.9489 40.3107 101.629 40.6362 104.03Z" fill="#6FCF97"/>
</g>
</g>
<path d="M77.645 37.8423C67.7522 37.8423 59.7358 45.9036 59.7358 55.8565C59.7358 73.0602 77.645 95.488 77.645 95.488C77.645 95.488 95.5542 73.0602 95.5542 55.8565C95.5542 45.9036 87.5379 37.8423 77.645 37.8423ZM77.645 64.5935C72.9613 64.5935 69.1783 60.7804 69.1783 56.0817C69.1783 51.383 72.9763 47.555 77.645 47.555C82.3288 47.555 86.1117 51.368 86.1117 56.0817C86.1117 60.7804 82.3288 64.5935 77.645 64.5935Z" fill="#3C8F7C"/>
<path d="M20.1033 28.4866L23.8295 28.1293C23.9751 28.1154 24.1213 28.1487 24.2467 28.2244C24.3721 28.3001 24.47 28.4141 24.5262 28.5498L27.3391 35.352C27.3801 35.4513 27.3973 35.5588 27.3894 35.666C27.3814 35.7732 27.3486 35.877 27.2935 35.9691C27.2384 36.0612 27.1625 36.139 27.072 36.1963C26.9815 36.2537 26.8789 36.2889 26.7724 36.2991L22.8953 36.6711C22.7473 36.6853 22.5988 36.6507 22.4722 36.5725C22.3456 36.4944 22.2477 36.377 22.1934 36.238L19.5314 29.4211C19.4928 29.3221 19.4777 29.2154 19.4871 29.1095C19.4965 29.0036 19.5303 28.9014 19.5857 28.8108C19.6412 28.7202 19.7168 28.6438 19.8066 28.5875C19.8964 28.5313 19.998 28.4967 20.1033 28.4866Z" fill="#233862"/>
<path d="M67.3509 118.364L65.3736 119.419C65.3736 119.419 54.6822 108.031 52.1124 97.1034C51.6541 95.1524 51.4683 93.2276 51.6648 91.4024C51.6648 91.4024 51.5095 90.9076 51.2374 90.0324C51.2255 89.9941 51.2133 89.9549 51.2011 89.9157C51.0826 89.5317 50.9395 89.08 50.7808 88.5687C50.2648 86.9173 49.5555 84.6576 48.7476 82.0852C46.8867 76.1649 42.6307 62.8128 40.812 57.2589L53.8833 52.5083C53.8833 52.5083 55.368 55.9093 57.5015 65.1535C57.8299 66.3601 58.159 67.6942 58.4668 69.1484C58.8153 70.7949 59.1406 72.5952 59.4113 74.54C59.9187 78.2076 60.1805 81.9053 60.1951 85.6081C60.2023 87.2621 60.162 88.9772 60.0644 90.7469C59.9929 92.0446 60.1847 93.7737 60.5448 95.7408C62.1918 104.734 67.3509 118.364 67.3509 118.364Z" fill="black"/>
<path d="M74.5079 123.396H63.9401C63.9401 123.396 63.5451 121.703 64.2389 120.55C64.8532 119.531 64.6176 118.95 64.1628 118.107C64.7237 118.351 65.3318 118.466 65.9427 118.444C66.4693 118.413 67.0261 118.173 67.5143 117.888C67.9691 118.409 69.9166 120.626 70.5251 121.066C71.2159 121.564 74.2953 121.386 74.5079 123.396Z" fill="#3C8F7C"/>
<path d="M59.4113 74.5396L51.2011 89.9157C51.0826 89.5317 50.9395 89.08 50.7808 88.5687C50.2648 86.9173 49.5555 84.6576 48.7476 82.0852C46.8867 76.1649 42.6307 62.8128 40.812 57.2589L53.8833 52.5083C53.8833 52.5083 55.368 55.9093 57.5015 65.1535C57.8299 66.3601 58.159 67.6942 58.4668 69.1484C58.8153 70.7944 59.1406 72.5947 59.4113 74.5396Z" fill="#161616"/>
<path d="M23.8235 40.6316C23.758 40.6884 20.6257 37.4718 18.9531 35.6897L20.6285 34.6652L29.7764 40.434L23.8235 40.6316Z" fill="#FFB27D"/>
<path d="M40.5993 120.073C40.5993 120.073 40.3534 121.875 41.0422 123.396H45.4207C45.4207 123.396 45.4531 122.082 44.3383 120.435C43.2236 118.788 40.5993 120.073 40.5993 120.073Z" fill="#3C8F7C"/>
<path d="M49.228 2.73463C49.2872 2.45314 50.0335 -0.557563 54.6846 0.0913699C54.6846 0.0913699 52.3638 -0.0337828 51.7971 0.901508C51.7971 0.901508 53.5601 -0.0684271 54.7517 0.551058C55.9432 1.17054 56.2992 3.51868 56.1804 4.24978C56.0615 4.98089 54.9533 7.2109 54.1186 7.27099C53.7875 7.28059 53.4579 7.22342 53.1492 7.10285C53.3155 7.50151 53.4584 7.9096 53.5772 8.32504C54.7628 12.4517 52.2164 15.837 50.7256 15.1532C49.7696 14.7147 49.1888 16.3822 49.1888 16.3822L40.8281 6.76659C40.8281 6.76659 45.6898 -0.0382207 49.228 2.73463Z" fill="black"/>
<path d="M40.6714 28.5203C41.7622 29.2804 43.1297 29.9072 44.8465 30.3052C51.282 31.7992 53.7481 26.3351 54.6745 22.5846C54.0022 22.2106 53.2596 21.9815 52.4943 21.9117C52.029 21.8566 51.5398 21.82 51.1347 21.7999C50.412 21.2439 49.3348 18.9683 49.0977 15.4352L48.7949 15.5168L43.723 16.9112C43.723 16.9112 43.9553 18.5308 44.0692 20.0617C44.1571 21.2594 44.171 22.4042 43.9452 22.6843C43.5495 22.7709 43.3119 22.8269 43.3119 22.8269C43.3114 22.8286 43.3105 22.8303 43.3093 22.8317C42.251 24.6388 41.3677 26.5437 40.6714 28.5203Z" fill="#FFB27D"/>
<path d="M43.7222 16.9121C43.7222 16.9121 43.9553 18.5304 44.0682 20.0626C46.9417 19.7735 48.2752 17.0255 48.7945 15.518L43.7222 16.9121Z" fill="#ED985F"/>
<path d="M42.8638 18.4323C42.8638 18.4323 49.6841 18.0543 49.3843 13.7913C49.0844 9.52835 49.7631 6.60858 45.3957 6.66975C41.0283 6.73092 40.2979 8.41745 40.0531 9.86472C39.8083 11.312 41.0819 18.4209 42.8638 18.4323Z" fill="#FFB27D"/>
<path d="M40.087 7.48022C41.0485 6.12216 41.8645 6.34605 42.3377 6.69943C45.9145 4.3749 48.5309 7.24226 48.5309 7.24226C49.2049 10.2679 51.5258 11.8618 51.5258 11.8618C51.5258 11.8618 50.3392 12.7216 47.4238 12.1885C46.5333 12.0256 45.708 11.4576 44.9905 10.7486C45.8344 11.9326 46.8351 12.9953 47.9652 13.9074C44.4328 12.5662 42.7186 7.88794 42.5456 7.39275C42.1565 7.79798 41.395 8.67199 41.2022 9.48873C40.9402 10.5986 40.9469 12.8443 40.2932 12.8148C40.2932 12.8145 38.6452 9.51677 40.087 7.48022Z" fill="black"/>
<path d="M41.7604 22.4839C41.7604 22.4839 52.8713 19.7741 57.7028 23.7767L55.2886 57.6016L33.5581 52.3283C33.5581 52.3283 34.1695 50.1878 38.3364 44.4964C42.5032 38.8049 40.6908 30.4566 41.7604 22.4839Z" fill="#FFB27D"/>
<path d="M48.2375 53.8364C48.2375 53.8364 48.2246 53.951 48.2019 54.1696C48.1921 54.2634 48.1793 54.3771 48.1655 54.5096C48.0721 55.3866 47.8951 57.0684 47.6668 59.2557C47.0705 64.9923 46.1348 74.2059 45.4972 81.4785C44.9983 87.1646 44.6815 91.6648 44.8527 92.3873C45.3674 94.5617 44.8527 120.556 44.8527 120.556C43.0059 121.446 40.2056 120.556 40.2056 120.556C40.2056 120.556 35.286 97.1315 35.9747 93.8757C36.6634 90.6199 35.5143 87.8408 35.5143 87.8408C31.6946 69.9717 32.1127 60.0681 32.8714 55.3269C33.0174 54.347 33.2358 53.3793 33.5247 52.4319C33.597 52.1895 33.6844 51.9519 33.7864 51.7204C42.2118 49.4431 48.2375 53.8364 48.2375 53.8364Z" fill="black"/>
<path d="M55.2889 57.6012C52.8705 58.6161 50.2873 59.1769 47.6675 59.2557C45.5604 59.3171 43.4539 59.1163 41.3959 58.6577C37.2289 57.7474 34.0563 56.0622 32.8721 55.3269C33.0181 54.347 33.2365 53.3793 33.5254 52.4319C36.0905 50.5975 42.4329 52.3529 47.6143 54.299C47.7992 54.3692 47.9832 54.4394 48.1662 54.5096C52.1345 56.0336 55.2889 57.6012 55.2889 57.6012Z" fill="#233862"/>
<path d="M59.2007 33.4243C58.6646 37.4935 56.5186 42.473 55.7519 45.1534C55.7519 45.1534 57.0329 54.4591 55.8098 57.014C55.671 57.3056 55.499 57.5093 55.2883 57.6011C50.7573 59.5838 33.1116 57.6584 32.3667 51.9407C32.096 49.8632 39.0879 42.5551 39.4953 41.6685C39.6646 41.3017 39.8446 40.1127 39.025 37.6487C37.8629 41.2472 35.717 45.4025 33.5582 46.1112C31.186 46.8907 21.806 39.8696 21.806 39.8696C21.806 39.8696 21.7522 39.0167 22.9377 38.21C23.7002 37.6912 25.4516 37.5164 25.4516 37.5164L31.4497 40.2121C32.2024 38.9184 34.0778 29.9676 36.1716 25.9272C37.7459 22.8898 41.9493 22.4498 41.9493 22.4498C41.9493 22.4498 43.6986 25.2372 47.9295 24.8418C52.1603 24.4464 52.9342 21.845 52.9342 21.845C52.9342 21.845 56.6865 22.346 57.8427 23.283C58.0434 23.446 59.9043 28.0927 59.2007 33.4243Z" fill="#90EA93"/>
<path d="M55.7521 45.1534C55.7521 45.1534 57.0331 54.4591 55.81 57.014C52.5089 55.3495 48.2062 51.7568 49.5159 46.1428C51.4178 37.9866 59.2007 33.4243 59.2007 33.4243C58.6645 37.4935 56.5189 42.473 55.7521 45.1534Z" fill="#6FCF97"/>
<path d="M52.9341 38.8984C52.9341 38.8984 48.235 39.5826 47.8598 39.9347C47.4847 40.2868 46.1882 42.3346 46.3481 43.0468C46.5079 43.7591 46.4913 44.493 46.7792 44.4425C47.067 44.3919 48.0053 42.582 48.36 42.4989C48.7147 42.4159 49.0067 42.172 49.0498 42.3309C49.0929 42.4898 48.3285 43.2511 48.3663 43.4677C48.4041 43.6842 49.0057 43.4308 49.276 43.0106C49.5463 42.5904 50.221 42.3826 50.3223 42.1208C50.4236 41.8589 50.8894 40.9924 51.522 41.0322C52.1545 41.0719 52.9341 38.8984 52.9341 38.8984Z" fill="#FFB27D"/>
<path d="M57.5063 38.7125L52.934 38.8984L51.3696 41.0411L57.5883 41.25L57.5063 38.7125Z" fill="#FFB27D"/>
<path d="M52.9341 21.8459C52.9341 21.8459 58.3837 22.4955 59.8843 24.8427C61.7812 27.8109 68.4843 37.654 68.34 40.6329C68.34 40.6329 64.1642 42.3038 52.9387 41.4082C52.9387 41.4082 52.7347 39.7024 55.0961 38.3341C55.0961 38.3341 61.1227 37.505 61.7868 36.9174L57.3123 32.1409L52.9341 21.8459Z" fill="#90EA93"/>
<path d="M19.2915 28.5609L23.0176 28.2036C23.1632 28.1897 23.3095 28.223 23.4349 28.2987C23.5602 28.3744 23.6582 28.4884 23.7143 28.6241L26.5273 35.4264C26.5683 35.5257 26.5856 35.6333 26.5778 35.7405C26.5699 35.8477 26.5371 35.9516 26.482 36.0437C26.4269 36.1359 26.351 36.2138 26.2604 36.2711C26.1699 36.3284 26.0672 36.3636 25.9607 36.3738L22.0842 36.7456C21.9362 36.7598 21.7877 36.7252 21.661 36.6471C21.5344 36.569 21.4365 36.4515 21.3822 36.3126L18.7202 29.4959C18.6815 29.3969 18.6662 29.2903 18.6755 29.1843C18.6848 29.0784 18.7185 28.9761 18.7739 28.8854C18.8293 28.7948 18.9049 28.7183 18.9947 28.662C19.0845 28.6057 19.1861 28.5711 19.2915 28.5609Z" fill="#2B478B"/>
<path d="M18.9527 35.6897C18.9527 35.6897 17.9687 33.9848 18.0425 33.5648C18.1164 33.1449 19.1346 31.1968 19.6579 31.0032C20.5924 30.6573 21.9044 30.4432 21.544 31.4316C21.3057 32.084 20.3632 33.0294 20.5271 33.3262C20.691 33.6231 20.6283 34.6654 20.6283 34.6654L18.9527 35.6897Z" fill="#FFB27D"/>
</svg>
