<svg width="168" height="167" viewBox="0 0 168 167" fill="none" xmlns="http://www.w3.org/2000/svg">
<path d="M147.787 143.534C143.414 148.041 139.501 150.69 136.506 152.69C107.289 172.194 73.8914 166.572 63.5657 164.651C46.9063 161.551 32.8435 159.364 20.7611 148.45C-6.6938 123.65 -5.35849 71.9165 15.6205 39.8695C18.108 36.0696 39.0551 5.02553 72.5252 0.651059C73.3438 0.544062 73.9546 0.483147 74.4896 0.426553C79.6673 -0.12157 111.753 -3.01433 137.915 18.9003C141.66 22.0373 147.687 27.6956 153.276 36.3255C173.711 67.8801 173.776 116.751 147.787 143.534Z" fill="#BDF0BF"/>
<path d="M73.7598 48.2342C73.7598 48.2342 74.2034 47.2348 74.4911 46.7616C74.7788 46.2884 76.0066 44.9018 76.2163 45.2154C76.426 45.5291 77.2616 47.6423 76.8173 48.2339C76.3731 48.8256 76.8461 49.8547 74.6367 50.4781L73.7598 48.2342Z" fill="#FFB27D"/>
<path d="M49.207 41.9239C49.207 41.9239 60.5168 51.3749 64.9268 50.4999C68.3751 49.8158 73.6678 47.9997 73.6678 47.9997L74.7261 50.7099C74.7261 50.7099 69.98 57.1551 65.0321 57.1974C57.2973 57.2631 51.5827 53.845 51.5827 53.845L49.207 41.9239Z" fill="#6FCF97"/>
<path d="M29.373 141.612C29.373 141.612 29.7017 146.914 30.7261 146.991C30.8623 147.001 35.9231 147.001 35.9231 147.001L42.3832 146.963C42.3832 146.963 42.3409 145.405 40.4525 145.075C38.5641 144.746 35.4034 143.417 34.2596 140.919C33.0561 138.29 29.373 141.612 29.373 141.612Z" fill="#484747"/>
<path d="M29.0001 141.98C29.0001 141.98 30.9639 142.638 32.4972 142.638C33.6009 142.624 34.6982 142.467 35.7619 142.172C35.7619 142.172 36.1316 138.592 38.1662 130.705C39.233 126.571 40.7563 121.256 42.9235 114.651C48.9159 96.3981 50.738 85.72 50.9045 84.7088C50.9133 84.6557 50.9168 84.6292 50.9168 84.6292L50.8974 84.6201L32.4746 76.5225C32.4746 76.5225 34.7518 101.679 31.8465 111.336C31.4054 112.856 31.0533 114.401 30.792 115.962C28.9575 126.451 29.0001 141.98 29.0001 141.98Z" fill="black"/>
<path d="M38.1655 130.705C39.2324 126.571 40.7557 121.256 42.9228 114.651C48.9152 96.3979 50.7374 85.7199 50.9038 84.7086C50.902 84.6784 50.9002 84.6502 50.8968 84.62L32.474 76.5224C32.474 76.5224 34.7511 101.679 31.8459 111.336C31.439 112.686 38.1655 130.705 38.1655 130.705Z" fill="#1E1E1E"/>
<path d="M43.7617 141.612C43.7617 141.612 44.0903 146.914 45.1146 146.991C45.251 147.001 50.3116 147.001 50.3116 147.001L56.7719 146.963C56.7719 146.963 56.7295 145.405 54.8412 145.075C52.9528 144.746 49.7922 143.417 48.6483 140.919C47.4449 138.29 43.7617 141.612 43.7617 141.612Z" fill="#484747"/>
<path d="M54.2065 77.1153C54.2065 77.1153 54.4457 93.4174 51.6282 113.434C48.8107 133.45 49.7658 141.945 49.7658 141.945C49.7658 141.945 47.8301 142.573 47.0488 142.637C45.0586 142.799 43.0178 142.17 43.0178 142.17C43.0178 142.17 38.9851 122.147 40.1413 112.128C41.2975 102.109 34.6191 77.7506 34.6191 77.7506L54.2065 77.1153Z" fill="black"/>
<path d="M41.1426 38.9662L44.7387 41.327L48.0143 40.3996C48.6131 39.5443 48.7716 37.896 48.7803 36.4685C48.7843 35.5941 48.7414 34.7201 48.6518 33.8503L43.8001 31.7066L41.9897 30.9079C41.9948 30.9362 42.1306 32.396 42.1499 32.6093C42.4879 36.3941 41.1426 38.9662 41.1426 38.9662Z" fill="#FFB27D"/>
<path d="M54.2893 81.6476C49.8131 85.9735 32.8732 85.2463 31.8287 80.4797C30.7843 75.7131 32.9672 39.9021 40.6132 37.6524C42.1999 37.1855 50.6823 39.9302 50.6823 39.9302C51.6177 42.5112 52.3545 45.1601 52.8863 47.8536C53.0555 48.7178 53.5502 57.8689 53.9203 66.4306C54.0928 70.4346 54.239 74.3107 54.3136 77.1486C54.3821 79.8065 54.3854 81.5528 54.2893 81.6476Z" fill="#90EA93"/>
<path d="M42.5131 32.6759C43.4975 34.342 46.951 35.7998 48.7807 36.4681C48.7847 35.5938 48.7418 34.7198 48.6522 33.85L43.8005 31.7063C42.7279 31.6921 42.0746 31.932 42.5131 32.6759Z" fill="#FCA56B"/>
<path d="M50.482 33.5543C50.482 33.5543 42.6647 35.9956 41.221 31.0985C39.7772 26.2015 37.796 23.2185 42.7262 21.4529C47.6563 19.6874 49.1814 21.2679 50.0604 22.7853C50.9395 24.3026 52.4784 32.793 50.482 33.5543Z" fill="#FFB27D"/>
<path d="M49.7541 22.3132C49.7541 22.3132 49.2556 28.0119 48.0782 27.7644C46.9008 27.5168 45.6051 26.9879 45.778 28.7056C45.9508 30.4233 44.6332 33.3681 42.9355 33.3605C39.2948 33.3455 35.3393 23.9936 36.336 22.2203C39.2118 17.1036 53.9106 16.0712 49.7541 22.3132Z" fill="black"/>
<path d="M48.6041 37.7756C48.5032 37.7332 42.7846 35.1651 42.1157 35.3861C41.4468 35.6072 40.6133 37.6521 40.6133 37.6521L50.6831 39.9312C50.6831 39.9312 49.8905 38.3179 48.6041 37.7756Z" fill="#6FCF97"/>
<path d="M105.904 42.032C110 42.032 113.616 42.832 116.752 44.432C119.952 46.032 122.416 48.336 124.144 51.344C125.936 54.288 126.832 57.712 126.832 61.616C126.832 68.528 124.688 73.616 120.4 76.88C116.176 80.08 110.384 81.68 103.024 81.68L102.736 92.24H96.976L96.592 76.88H99.088C105.68 76.88 110.864 75.856 114.64 73.808C118.48 71.696 120.4 67.632 120.4 61.616C120.4 57.392 119.056 54.032 116.368 51.536C113.744 49.04 110.256 47.792 105.904 47.792C101.552 47.792 98.096 48.976 95.536 51.344C92.976 53.712 91.696 56.944 91.696 61.04H85.264C85.264 57.2 86.128 53.872 87.856 51.056C89.648 48.176 92.08 45.968 95.152 44.432C98.288 42.832 101.872 42.032 105.904 42.032ZM99.856 110.48C98.448 110.48 97.264 110 96.304 109.04C95.408 108.08 94.96 106.896 94.96 105.488C94.96 104.08 95.408 102.928 96.304 102.032C97.264 101.072 98.448 100.592 99.856 100.592C101.2 100.592 102.32 101.072 103.216 102.032C104.176 102.928 104.656 104.08 104.656 105.488C104.656 106.896 104.176 108.08 103.216 109.04C102.32 110 101.2 110.48 99.856 110.48Z" fill="black"/>
<path d="M84.2059 65.5091L52.1489 95.725C51.5206 96.3171 50.7283 96.5058 50.3882 96.1443L49.3061 94.9929C48.966 94.631 49.2019 93.8508 49.8302 93.2585L81.887 63.0438C82.5155 62.4516 83.3078 62.2628 83.6479 62.6244L84.73 63.7749C85.0701 64.1371 84.8343 64.917 84.2059 65.5091Z" fill="black"/>
<path d="M66.2162 82.4655L52.1489 95.7247C51.5206 96.3168 50.7283 96.5055 50.3882 96.1439L49.3061 94.9925C48.966 94.6307 49.2019 93.8505 49.8302 93.2582L63.8974 80.0002L66.2162 82.4655Z" fill="#3C8F7C"/>
<path d="M76.8377 54.1016C77.9541 57.766 79.892 61.1267 82.5034 63.9272C85.1147 66.7278 88.3306 68.8942 91.9056 70.2612C95.4806 71.6281 99.3203 72.1596 103.132 71.8149C106.943 71.4702 110.625 70.2585 113.898 68.2722C117.17 66.286 119.946 63.5777 122.014 60.354C124.082 57.1302 125.386 53.4763 125.829 49.6709C126.271 45.8655 125.84 42.0092 124.567 38.3963C123.294 34.7833 121.213 31.5092 118.484 28.8237C118.356 28.6951 118.223 28.5682 118.09 28.443C114.055 24.6438 108.88 22.2856 103.368 21.7352C97.8562 21.1847 92.3173 22.4729 87.6124 25.3993C82.9076 28.3257 79.3005 32.7264 77.3521 37.9171C75.4036 43.1078 75.223 48.7975 76.8383 54.1016H76.8377ZM84.0193 30.8865C87.1558 27.5489 91.2105 25.2173 95.6707 24.1867C100.131 23.1561 104.796 23.4727 109.077 25.0965C113.357 26.7203 117.06 29.5783 119.718 33.3092C122.376 37.04 123.869 41.4761 124.009 46.0565C124.148 50.6368 122.928 55.1557 120.501 59.0416C118.075 62.9275 114.553 66.0059 110.379 67.8876C106.205 69.7692 101.568 70.3696 97.0532 69.6127C92.5386 68.8558 88.3496 66.7757 85.016 63.6354C82.7993 61.5526 81.0149 59.0524 79.7648 56.2781C78.5148 53.5039 77.8237 50.51 77.7311 47.468C77.6385 44.4259 78.1463 41.3955 79.2253 38.5502C80.3043 35.7049 81.9334 33.1006 84.0193 30.8865Z" fill="black"/>
<g opacity="0.5">
<path opacity="0.5" d="M117.728 62.6362C114.592 65.9741 110.537 68.3059 106.077 69.3368C101.616 70.3677 96.9509 70.0513 92.6703 68.4276C88.3897 66.804 84.6862 63.946 82.0281 60.2152C79.3701 56.4844 77.8768 52.0482 77.7373 47.4678C77.5978 42.8873 78.8182 38.3683 81.2443 34.4823C83.6703 30.5963 87.193 27.5177 91.3669 25.636C95.5407 23.7543 100.178 23.1539 104.693 23.9108C109.208 24.6677 113.397 26.7479 116.73 29.8882C118.955 31.9663 120.746 34.4647 122.001 37.2393C123.256 40.0139 123.95 43.0098 124.043 46.0542C124.136 49.0986 123.626 52.1313 122.542 54.9773C121.458 57.8233 119.822 60.4263 117.728 62.6362Z" fill="#3C8F7C"/>
</g>
<path d="M54.3145 77.1482C36.6508 64.5487 38.1197 47.7337 38.1197 47.7337C44.5758 51.379 50.9819 59.4388 53.9211 66.4302C54.0941 70.4343 54.2399 74.3104 54.3145 77.1482Z" fill="#6FCF97"/>
<path d="M71.7471 71.41C72.9925 71.1222 73.8292 70.1795 74.003 70.0148C74.003 70.0148 74.5342 70.0512 73.9159 71.1855C73.8642 71.2804 73.7493 71.5242 73.6627 71.6967C73.6548 71.713 73.651 71.731 73.6516 71.7491C73.6523 71.7672 73.6574 71.7849 73.6666 71.8006C73.6757 71.8162 73.6886 71.8294 73.704 71.8389C73.7194 71.8484 73.737 71.8539 73.7551 71.8549C74.4739 71.9097 75.1964 71.6247 76.5811 71.9141C76.7722 71.954 76.8276 72.412 76.8204 72.6073C76.8079 72.9377 76.8317 73.3082 76.4482 73.8151C76.2252 74.1097 75.6025 74.4267 74.2163 74.9852C73.688 75.1981 72.1781 75.0376 70.7626 74.5508L69.6318 74.0268L69.9825 71.9227L70.2665 71.9823C70.7179 72.077 71.2767 71.5256 71.7471 71.41Z" fill="#FFB27D"/>
<path d="M43.6005 39.9317C43.6005 39.9317 27.7286 42.9569 48.2697 65.9652C51.555 69.6451 69.3036 74.4362 69.3036 74.4362C69.3036 74.4362 71.1038 72.903 70.1961 71.6613C70.1961 71.6613 57.9758 62.7777 55.2869 61.3646C54.0774 60.7292 50.5925 47.186 48.6207 43.9234C46.6489 40.6608 43.6005 39.9317 43.6005 39.9317Z" fill="#90EA93"/>
<path d="M74.1895 48.5132C74.1895 48.5132 74.7088 47.52 74.81 46.9963C74.9112 46.4726 75.5649 44.9444 75.8343 44.6753C75.9423 44.5675 76.2975 44.707 76.3394 45.1699C76.3578 45.3715 76.2591 45.7378 76.0846 46.1749C75.8006 46.8859 75.8475 47.8502 75.7487 48.1717C75.5029 48.9723 74.1895 48.5132 74.1895 48.5132Z" fill="#FFB27D"/>
</svg>
