<svg xmlns="http://www.w3.org/2000/svg" width="134.443" height="150.834" viewBox="0 0 134.443 150.834">
  <g id="icon_B" data-name="icon B" transform="translate(-107.404 420.849)">
    <path id="Path_3851" data-name="Path 3851" d="M160.488-419.389c-.882.232-2.739.7-4.038.975a5.435,5.435,0,0,0-2.46.882c0,.186-.371.371-.882.371a6.153,6.153,0,0,0-2.182.7,6.639,6.639,0,0,1-2.414.7c-.6,0-.928.186-.789.464.139.232-.093.464-.557.464a3.381,3.381,0,0,0-1.717.7,3.7,3.7,0,0,1-1.764.7c-.464,0-.836.186-.836.464,0,.232-.325.464-.7.464s-.7.139-.7.371c0,.325-1.393,1.16-2.878,1.764-.464.139-.836.464-.836.7s-.325.418-.7.418-.7.186-.7.464c0,.232-.511.557-1.16.743-.65.139-1.021.464-.882.7s0,.418-.279.418c-.557,0-1.114.418-3.76,2.878A8.723,8.723,0,0,1,128-402.307c-.279,0-.464.139-.464.371a10.887,10.887,0,0,1-2,2.414c-1.068,1.16-2.6,2.924-3.342,3.946a29.9,29.9,0,0,1-2.414,2.878,3.2,3.2,0,0,0-1.068,1.764c0,.371-.139.7-.371.7-.325,0-1.16,1.393-1.764,2.878-.139.464-.464.836-.7.836s-.418.325-.418.7-.232.7-.511.7c-.232,0-.325.186-.186.464.139.232.046.464-.186.464-.279,0-.511.418-.511.928s-.186.928-.464.928c-.232,0-.464.511-.464,1.16s-.186,1.16-.464,1.16c-.232,0-.557.743-.743,1.625a3.829,3.829,0,0,1-.7,1.9,1.894,1.894,0,0,0-.418,1.393c0,.6-.186,1.114-.371,1.114a5.4,5.4,0,0,0-.882,2.414c-.279,1.346-.743,3.435-1.068,4.642a77.73,77.73,0,0,0-1.094,13.677c.035,7.13.981,14.541,1.419,15.056a8.625,8.625,0,0,1,.836,2.878,5.775,5.775,0,0,0,.743,2.46,1.894,1.894,0,0,1,.418,1.393c0,.6.186,1.114.418,1.114.279,0,.6.928.789,2.089.139,1.16.464,1.95.7,1.81s.418.093.418.511a7.761,7.761,0,0,0,1.16,2.553,7.371,7.371,0,0,1,1.16,2.553c0,.371.186.7.371.7a12.716,12.716,0,0,1,2.089,2.878,28.377,28.377,0,0,0,2.878,4.178,6.1,6.1,0,0,1,1.16,1.532c0,.557,5.8,6.5,8.82,9.052,1.068.882,2.414,2.089,3.017,2.646a3.943,3.943,0,0,0,1.578,1.068,3.826,3.826,0,0,1,1.532,1.021,13.08,13.08,0,0,0,3.017,2,5.176,5.176,0,0,1,2,1.253c0,.232.325.371.7.371s.7.186.7.464c0,.232.371.464.836.464a3.694,3.694,0,0,1,1.764.7,3.526,3.526,0,0,0,1.764.7c.511,0,.743.139.557.325-.279.279,2.553,1.253,5.431,1.857.7.139,1.253.418,1.253.65s.464.418,1.068.418c1.625,0,4.5.928,4.5,1.439a4.824,4.824,0,0,0,1.16,1.717,4.774,4.774,0,0,1,1.16,1.625,4.448,4.448,0,0,0,1.068,1.393,17.785,17.785,0,0,1,2.321,2.878,31.915,31.915,0,0,0,2.367,3.2,6.456,6.456,0,0,1,1.207,1.671,3.9,3.9,0,0,0,.836,1.207,16.822,16.822,0,0,1,1.671,2.182,2.408,2.408,0,0,0,2.414,1.253c.882,0,1.578-.232,1.578-.511a3.511,3.511,0,0,1,1.16-1.625,5.014,5.014,0,0,0,1.16-1.346,2.6,2.6,0,0,1,.464-.836c2.182-2.553,2.832-3.435,3.064-4.178.139-.418.464-.789.7-.789a.473.473,0,0,0,.418-.511,2.219,2.219,0,0,1,.6-1.114c.279-.325.975-1.16,1.485-1.857.511-.65,1.253-1.578,1.625-2a21.413,21.413,0,0,0,1.485-2.042c.65-.975,1.3-1.3,3.389-1.532,1.393-.186,2.553-.511,2.553-.743s.371-.418.882-.418a6.153,6.153,0,0,0,2.182-.7,6.638,6.638,0,0,1,2.414-.7c.557,0,1.021-.232,1.021-.464,0-.279.418-.464.928-.464s.928-.186.928-.464c0-.232.743-.557,1.625-.743.928-.139,1.578-.418,1.439-.557s.232-.511.882-.836a24.928,24.928,0,0,0,5.06-3.11,4.393,4.393,0,0,1,1.207-.789,5.839,5.839,0,0,0,1.671-1.16,5.839,5.839,0,0,1,1.671-1.16,23.273,23.273,0,0,0,3.342-2.924c1.671-1.578,3.3-3.11,3.621-3.389.325-.325,1.253-1.346,2-2.275.789-.975,1.95-2.414,2.692-3.2a9.559,9.559,0,0,0,1.532-2.228c.139-.464.464-.836.7-.836s.418-.325.418-.7.186-.7.371-.7c.232,0,.789-.928,1.3-2.089a5.075,5.075,0,0,1,1.207-2.089c.186,0,.371-.325.371-.7s.186-.7.371-.7c.418,0,1.95-3.249,1.95-4.178,0-.325.139-.464.325-.279.279.279,1.253-2.553,1.857-5.431.139-.7.418-1.253.6-1.253a5.982,5.982,0,0,0,.7-2.692,10.464,10.464,0,0,1,.836-3.3c.377-.448,1.288-6,1.375-12.356a80.845,80.845,0,0,0-1-13.453c-1.207-5.8-1.625-7.427-1.9-7.659a3.022,3.022,0,0,1-.6-1.393c-.975-3.992-1.485-5.57-1.81-5.57-.232,0-.371-.418-.371-.882,0-.511-.139-.975-.325-1.068-.511-.186-2-3.11-2-3.9,0-.371-.186-.65-.371-.65a8.275,8.275,0,0,1-1.717-2.321,7.782,7.782,0,0,0-1.671-2.321c-.186,0-.464-.371-.6-.836a10.3,10.3,0,0,0-1.671-2.414,10.308,10.308,0,0,1-1.393-1.9c0-.371-5.385-5.756-7.891-7.845-1.021-.882-2.553-2.182-3.342-2.924a5.9,5.9,0,0,0-1.717-1.253,3.462,3.462,0,0,1-1.253-.836,30.386,30.386,0,0,0-5.152-3.064c-.6-.279-1.068-.65-1.068-.836,0-.139-.6-.418-1.393-.6-.743-.186-1.393-.511-1.393-.743s-.418-.418-.928-.418-.928-.186-.928-.418-.836-.557-1.857-.743a5.068,5.068,0,0,1-2.135-.743,1.5,1.5,0,0,0-1.16-.418c-.464,0-.882-.186-.882-.418s-.975-.511-2.182-.7a21.059,21.059,0,0,1-4.085-.975c-1.439-.511-4.6-1.6-14.39-1.6A72.309,72.309,0,0,0,160.488-419.389Zm22.374,18.428c-.371.232.7.464,2.785.65,1.857.139,3.435.511,3.528.789.093.232.7.464,1.3.464s1.114.186,1.114.464c0,.232.325.464.7.464.975,0,4.41,1.532,4.41,1.95,0,.232.371.371.882.371a2.23,2.23,0,0,1,1.439.7,2.053,2.053,0,0,0,1.207.7c.371,0,.65.186.65.464a.5.5,0,0,0,.464.464c.511,0,1.16.464,3.017,2.182a4.208,4.208,0,0,0,1.439,1.068c.6,0,6.127,5.988,6.452,6.963.139.511.511.928.743.928s.789.743,1.207,1.625.928,1.625,1.16,1.625c.186,0,.371.325.371.7s.232.7.464.7a.477.477,0,0,1,.464.511,11.623,11.623,0,0,0,2,4.178,4.774,4.774,0,0,1,.65,2.182c.139,1.068.418,1.81.65,1.671s.418.371.418,1.068a3.166,3.166,0,0,0,.511,1.857c.279.279.6,2.321.743,4.5s.464,3.853.65,3.713c.232-.139.418,1.764.418,4.224s-.186,4.363-.418,4.224c-.186-.139-.511,1.532-.65,3.714s-.464,4.224-.743,4.5a3.166,3.166,0,0,0-.511,1.857c0,.7-.186,1.207-.418,1.068s-.511.6-.65,1.671a3.735,3.735,0,0,1-.743,2.135,1.138,1.138,0,0,0-.511,1.068c0,.464-.186.882-.418.882s-.557.557-.743,1.253a3.423,3.423,0,0,1-.65,1.532,15.247,15.247,0,0,0-1.625,2.507c-1.578,2.692-1.9,3.11-6.174,7.381-4.271,4.317-6.127,5.9-6.916,5.9-.371,0-.65.186-.65.464,0,.232-.325.464-.7.464s-.7.186-.7.418-.928.789-2.089,1.3a5.249,5.249,0,0,0-2.089,1.16c0,.232-.279.371-.65.371a6.211,6.211,0,0,0-1.95.7,7.017,7.017,0,0,1-2.6.7c-.743,0-1.3.186-1.3.464,0,.232-.464.464-1.068.464a2.712,2.712,0,0,0-1.625.557c-.836.836-22.1.836-22.884,0a3.56,3.56,0,0,0-1.9-.557c-.7,0-1.3-.232-1.3-.464,0-.279-.511-.464-1.16-.464-1.3,0-4.874-1.439-4.874-1.95,0-.232-.325-.371-.743-.371-.836,0-3.574-1.439-3.806-2-.093-.186-.511-.325-.882-.325-.418,0-.65-.139-.464-.279.139-.186-.371-.65-1.207-1.068-2.321-1.207-5.756-4.363-9.144-8.4-.882-1.068-1.857-2.182-2.182-2.553-.325-.325-.418-.7-.279-.882.186-.139.046-.279-.232-.279a.635.635,0,0,1-.557-.7c0-.371-.139-.7-.325-.7-.511,0-2-2.692-2-3.528,0-.371-.139-.65-.371-.65-.464,0-1.95-3.481-1.95-4.642,0-.511-.186-.928-.464-.928-.232,0-.464-.464-.464-1.068a2.557,2.557,0,0,0-.511-1.578,11.776,11.776,0,0,1-.743-4.038c-.186-2.182-.418-3.342-.65-2.971-.232.325-.371-2.46-.371-6.359,0-3.853.186-6.545.371-6.034.232.557.464-.557.7-3.249.139-2.321.511-4.271.743-4.317.279-.093.464-.7.464-1.3s.232-1.114.464-1.114c.279,0,.464-.418.464-.975a11.564,11.564,0,0,1,1.857-4.6,12.93,12.93,0,0,0,1.114-2.228c.511-1.068,1.068-1.95,1.3-1.95.186,0,.371-.232.371-.511a5.428,5.428,0,0,1,1.068-1.9c1.532-2.089,10.026-10.583,10.583-10.583a3.257,3.257,0,0,0,1.346-.836,16.394,16.394,0,0,1,2.646-1.717,16.427,16.427,0,0,0,2-1.16,11.564,11.564,0,0,1,4.6-1.857c.557,0,.975-.232.975-.464,0-.279.371-.464.836-.464a2.184,2.184,0,0,0,1.3-.464,10.525,10.525,0,0,1,3.853-.789c2.089-.186,3.11-.418,2.739-.65-.325-.232,3.342-.418,8.216-.418S183.187-401.193,182.862-400.961Z" fill="#6fcf97"/>
    <path id="Path_3852" data-name="Path 3852" d="M192.712-373.325a14.873,14.873,0,0,1-3.389.464c-1.346.046-2.135.232-1.95.511.139.232-.139.464-.7.464a4.674,4.674,0,0,0-1.764.418,20.965,20.965,0,0,1-4.967,1.9c-.371,0-.7.139-.7.325,0,.232-.882.789-2,1.3a16.234,16.234,0,0,0-2.553,1.485,10.533,10.533,0,0,1-1.578,1.114c-1.625.882-7.009,5.9-9.284,8.727-1.207,1.439-5.477,8.4-5.477,8.912a25.146,25.146,0,0,1-1.207,3.064c-1.9,4.271-2,4.456-2.275,6.638-.975,7.705-.557,19.635.743,21.074a2.737,2.737,0,0,1,.418,1.532c0,.6.232,1.068.464,1.068.279,0,.464.511.464,1.114a2.118,2.118,0,0,0,.418,1.439,3.51,3.51,0,0,1,.743,1.625c.186.789.464,1.393.6,1.393a5.249,5.249,0,0,1,1.16,2.089c.511,1.16,1.068,2.089,1.3,2.089s.418.325.418.7.186.7.371.7c.232,0,.789.743,1.3,1.625a4.646,4.646,0,0,0,1.671,1.9c.464.139.836.418.836.6,0,.789,5.709,6.081,6.545,6.081a.256.256,0,0,1,.232.418c-.139.232.186.511.789.7a5.409,5.409,0,0,1,1.95,1.068,14.963,14.963,0,0,0,2.878,1.764,5.176,5.176,0,0,1,2,1.253c0,.232.371.371.836.371A24.541,24.541,0,0,1,187-285.362a3.581,3.581,0,0,0,1.625.279c.789,0,1.253.186,1.068.464-.186.325,3.017.464,9.284.464s9.469-.139,9.284-.464c-.186-.279.371-.464,1.346-.464a3.064,3.064,0,0,0,1.9-.464,1.292,1.292,0,0,1,1.068-.464,6.579,6.579,0,0,0,2.135-.7,6.154,6.154,0,0,1,2.182-.7c.511,0,.882-.139.882-.371a5.493,5.493,0,0,1,2.089-1.253,6.527,6.527,0,0,0,2.089-1.207c0-.186.371-.418.836-.6,1.578-.511,3.017-1.625,7.148-5.57,3.853-3.667,5.013-5.756,5.013-8.866,0-1.393-.186-2.553-.464-2.553-.232,0-.464-.325-.464-.7a7.047,7.047,0,0,0-1.857-2.553,6.132,6.132,0,0,0-4.224-2.275c-2.46-.418-6.452.186-6.452.928,0,.232-.325.418-.7.418s-.7.186-.7.418c0,.7-3.806,4.224-4.5,4.224-.371,0-.511.186-.371.464.139.232-.046.464-.418.464-.418,0-.743.186-.743.418s-.6.557-1.393.743c-.743.186-1.393.511-1.393.743s-.418.418-.928.418-.928.139-.928.371c0,.789-3.853,1.578-9.1,1.81-4.6.186-6.081.093-8.448-.6A7.976,7.976,0,0,1,189-303.744c0-.186-.511-.371-1.16-.371s-1.16-.186-1.16-.418-.464-.511-1.068-.7a5.261,5.261,0,0,1-2.042-1.207,3.694,3.694,0,0,0-1.439-.928,14.13,14.13,0,0,1-2.553-2.46c-3.017-3.342-3.11-3.481-3.11-4.038a.508.508,0,0,0-.511-.464c-.232,0-.325-.232-.186-.464.139-.279.046-.464-.232-.464-.325,0-.464-.279-.325-.6a2.633,2.633,0,0,0-.65-1.671c-1.3-1.625-.447-1.37-.841-3.064.246-.868.148.068.377-1.439-.928.279.418-.65.836-1.114,1.207-1.3,12.672.093,12.672,1.485,0,.232.371.371.882.371a2.23,2.23,0,0,1,1.439.7,2.053,2.053,0,0,0,1.207.7c.371,0,.65.186.65.464,0,.232.325.464.7.464s.7.186.7.464,5.849.464,16.618.464c10.862,0,16.339-.186,15.875-.464-.511-.325-.325-.464.836-.464,1.485,0,1.485,0,1.485-2.321v-2.321H215.922c-6.638,0-12.069-.139-12.069-.371.046-.975.975-1.3,3.946-1.393,1.81-.046,7.056-.232,11.744-.371l8.448-.325v-2.46a19.3,19.3,0,0,0-.093-2.553c-.093,0-5.06-.186-11.048-.418-12.069-.464-12.626-.557-12.9-1.3-.139-.418,2.924-.557,11.93-.557H227.99v-2.321c0-1.532-.186-2.321-.557-2.321-.418,0-.418-.139.046-.418.928-.6-3.481-.882-17.546-1.253-8.634-.232-12.487-.139-14.483.279a6.373,6.373,0,0,0-2.739.975c0,.232-.325.418-.7.418s-.7.186-.7.418-.511.557-1.16.7c-.65.186-1.16.511-1.16.743,0,.279-.418.464-.928.464s-.928.139-.928.325c0,.928-2.971,1.671-7.381,1.857-4.688.279-4.828.232-5.663-.836-1.253-1.625-1.068-2.878.882-6.824,1.9-3.9,7.473-10.026,9.562-10.583.65-.139,1.207-.464,1.207-.7s.325-.418.7-.418.7-.186.7-.371c0-.511,5.152-1.95,7.1-1.95.928,0,1.717-.232,1.717-.464,0-.279,1.393-.464,3.249-.464,1.81,0,3.249.186,3.249.418s1.114.511,2.46.6c2.135.186,6.638,1.857,7.288,2.739a4.463,4.463,0,0,0,1.346.65c1.3.418,3.3,2.135,7.845,6.87a4.324,4.324,0,0,0,2.089,1.114c.7.139,1.253.418,1.253.65,0,.557,4.038.557,4.363,0a2.738,2.738,0,0,1,1.485-.7c1.114-.279,3.435-2.182,3.435-2.832a4.578,4.578,0,0,1,.928-1.253c.743-.789.928-1.671.928-3.946,0-1.625-.186-2.924-.464-2.924a.465.465,0,0,1-.464-.464c0-1.207-7.566-8.82-10.119-10.166a10.534,10.534,0,0,1-1.578-1.114,16.234,16.234,0,0,0-2.553-1.485c-1.114-.511-2-1.068-2-1.3,0-.186-.325-.325-.7-.325a12.85,12.85,0,0,1-3.11-1.16,11.485,11.485,0,0,0-3.249-1.16c-.464,0-.836-.186-.836-.418s-.975-.557-2.182-.7C204.688-373.511,193.919-373.7,192.712-373.325Z" transform="translate(-24.797 -24.851)" fill="#6fcf97"/>
  </g>
</svg>
