<svg width="203" height="48" viewBox="0 0 203 48" fill="none" xmlns="http://www.w3.org/2000/svg">
<path d="M32.0933 27.3037C33.0992 28.342 33.0513 29.9939 32.0614 31.0322C31.2471 31.8975 30.337 32.6684 29.3151 33.3134C27.0638 34.7608 24.3654 35.5946 21.4914 35.6103C13.6197 35.626 7.12124 29.3331 7.00947 21.5614C6.89771 13.6008 13.4122 7.11914 21.4594 7.11914C24.3015 7.11914 26.936 7.92149 29.1714 9.30593C30.4168 10.0768 31.5185 11.0207 32.4606 12.122C33.4186 13.2233 33.4984 14.8594 32.5723 15.9764C32.5404 16.0236 32.4925 16.0708 32.4446 16.118C31.3588 17.2507 29.4748 17.1249 28.5008 15.8978C27.6546 14.8437 26.5848 13.9942 25.3394 13.3963C24.1578 12.8457 22.8485 12.531 21.4594 12.531C17.34 12.531 13.8592 15.2685 12.8214 19.0127C12.9172 19.5476 13.3802 19.9724 13.971 19.9882L15.5996 20.0511C16.1585 20.0668 16.7173 19.9252 17.2123 19.642L18.3938 18.9341C19.3039 18.3835 20.3577 18.1003 21.4275 18.1003H29.2193C29.9378 18.1003 30.5286 18.6824 30.5286 19.3903V20.0983H23.0721C22.9603 20.0983 22.8805 20.1769 22.8805 20.2871C22.8805 20.3815 22.9603 20.4759 23.0561 20.4759L30.5126 20.9164V22.3637L22.8326 22.6941C22.609 22.7098 22.609 23.0245 22.8326 23.0402L30.4966 23.3077V23.3234C30.4966 24.0628 29.8899 24.6606 29.1395 24.6764L20.3897 24.7865C19.719 24.8022 19.0644 24.5977 18.5056 24.2201C17.7551 23.7324 16.9089 23.3234 15.7273 23.1661C14.6735 23.0245 13.6357 23.4493 12.9651 24.2359C14.1147 27.5082 17.1803 29.9467 20.8367 30.1827C22.3376 30.2771 23.7587 30.0096 25.036 29.459C26.3772 28.8769 27.1436 28.4521 27.8462 27.5711C28.6605 26.5485 30.0975 26.2024 31.279 26.753C31.5984 26.8946 31.8698 27.0677 32.0933 27.3037Z" fill="#1E1E1E"/>
<path d="M21.4754 0.212891C9.61202 0.212891 0 9.68373 0 21.3728C0 31.4572 7.1691 39.9055 16.7651 42.0136L21.3636 47.7873L25.9141 42.0765C35.6379 40.0628 42.9507 31.5516 42.9507 21.3728C42.9507 9.68373 33.3227 0.212891 21.4754 0.212891ZM21.4754 36.6646C12.9012 36.6646 5.95562 29.8211 5.95562 21.3728C5.95562 12.9246 12.9012 6.08103 21.4754 6.08103C30.0495 6.08103 36.9951 12.9246 36.9951 21.3728C36.9951 29.8211 30.0495 36.6646 21.4754 36.6646Z" fill="#1E1E1E"/>
<path d="M12.9973 24.2363C12.9334 24.315 12.8695 24.3937 12.8057 24.488L12.9973 24.2363Z" fill="#1E1E1E"/>
<path d="M12.8057 18.7461C12.8057 18.8562 12.8057 18.9349 12.8216 19.0135L12.8057 18.7461Z" fill="#1E1E1E"/>
<path d="M53.7146 34.4899V11.9941H69.332V15.9183H58.6115V21.2738H68.5179V25.1979H58.6115V30.5658H69.3695V34.4899H53.7146Z" fill="#1E1E1E"/>
<path d="M92.6139 11.9941V34.4776H88.3808L78.299 20.336H78.1237V34.4899H73.2268V11.9941H77.5225L87.5291 26.1358H87.7295V11.9941H92.6139Z" fill="#1E1E1E"/>
<path d="M100.642 34.4893H95.3943L103.397 12.0059H109.709L117.699 34.4893H112.452L106.641 17.1393H106.453L100.642 34.4893ZM100.316 25.6415H112.715V29.3559H100.316V25.6415Z" fill="#1E1E1E"/>
<path d="M116.748 15.9183V11.9941H135.784V15.9183H128.696V34.4899H123.849V15.9183H116.748Z" fill="#1E1E1E"/>
<path d="M138.915 34.4899V11.9941H154.532V15.9183H143.812V21.2738H153.718V25.1979H143.812V30.5658H154.57V34.4899H138.915Z" fill="#1E1E1E"/>
<path d="M173.807 19.2617C173.644 18.7311 173.431 18.2498 173.143 17.8426C172.855 17.423 172.504 17.0775 172.091 16.7937C171.678 16.5099 171.214 16.2877 170.688 16.1273C170.162 15.9792 169.586 15.8929 168.948 15.8929C167.758 15.8929 166.718 16.1767 165.829 16.7443C164.94 17.312 164.239 18.1387 163.738 19.237C163.237 20.3229 162.986 21.6556 162.986 23.2228C162.986 24.79 163.237 26.1227 163.725 27.221C164.214 28.3192 164.915 29.1583 165.804 29.726C166.706 30.306 167.758 30.5898 168.985 30.5898C170.1 30.5898 171.039 30.3923 171.828 30.0098C172.617 29.6273 173.218 29.0843 173.644 28.3809C174.07 27.6775 174.27 26.8508 174.27 25.8883L175.272 26.0363H169.298V22.4577H178.992V25.2959C178.992 27.2703 178.566 28.9732 177.702 30.38C176.838 31.7991 175.66 32.885 174.145 33.6501C172.642 34.4152 170.914 34.7977 168.96 34.7977C166.793 34.7977 164.877 34.3288 163.237 33.4033C161.596 32.4655 160.306 31.1451 159.392 29.4175C158.478 27.6899 158.014 25.6415 158.014 23.2722C158.014 21.4459 158.29 19.817 158.828 18.3855C159.379 16.9541 160.143 15.7448 161.133 14.7452C162.122 13.7457 163.274 12.993 164.589 12.4747C165.904 11.9564 167.319 11.6973 168.86 11.6973C170.175 11.6973 171.39 11.8824 172.529 12.2526C173.657 12.6228 174.671 13.141 175.548 13.8197C176.424 14.4984 177.151 15.2882 177.702 16.2137C178.265 17.1392 178.616 18.1634 178.779 19.274H173.807V19.2617Z" fill="#1E1E1E"/>
<path d="M185.943 34.4893H180.695L188.698 12.0059H195.01L203 34.4893H197.753L191.954 17.1393H191.779L185.943 34.4893ZM185.617 25.6415H198.016V29.3559H185.617V25.6415Z" fill="#1E1E1E"/>
</svg>
