<svg width="208" height="193" viewBox="0 0 208 193" fill="none" xmlns="http://www.w3.org/2000/svg">
<path d="M175.787 169.534C171.414 174.041 167.501 176.69 164.506 178.69C135.289 198.194 101.891 192.572 91.5657 190.651C74.9063 187.551 60.8435 185.364 48.7611 174.45C21.3062 149.65 22.6415 97.9165 43.6205 65.8695C46.108 62.0696 67.0551 31.0255 100.525 26.6511C101.344 26.5441 101.955 26.4831 102.49 26.4266C107.667 25.8784 139.753 22.9857 165.915 44.9003C169.66 48.0373 175.687 53.6956 181.276 62.3255C201.711 93.8801 201.776 142.751 175.787 169.534Z" fill="#D6F8D7"/>
<path d="M130.824 26.8947C130.856 26.7885 131.737 25.2906 132.873 23.6546C138.137 16.0588 145.949 8.7393 155.109 9.01551L155.119 8.96239C150.98 8.50558 146.925 9.61042 143.359 11.5757C137.479 14.7415 131.758 20.7863 128.627 25.4287L130.824 26.8947Z" fill="#90EA93"/>
<path d="M153.082 13.2225L153.697 8.95186L150.534 6.01979C150.174 5.69047 150.354 5.08493 150.832 4.99994L155.077 4.26693L156.881 0.346889C157.083 -0.0992945 157.72 -0.120542 157.943 0.315018L159.949 4.13945L164.226 4.64937C164.714 4.70249 164.927 5.2974 164.576 5.64797L161.562 8.73939L162.401 12.9781C162.496 13.4562 161.997 13.8386 161.562 13.6262L157.699 11.7139L153.931 13.8174C153.527 14.0617 153.007 13.7005 153.082 13.2225Z" fill="#90EA93"/>
<path d="M69.7426 5.40353L69.1801 7.49634L70.8677 8.91988L70.0717 11.2145L72.3324 12.1706L71.547 14.8159L73.5317 15.9632L73.1815 18.6191L72.1732 18.4916L72.4279 16.505L70.3476 15.2939L71.1012 12.7549L68.798 11.7776L69.679 9.23858L68.0232 7.85754L68.5539 5.91345L67.2803 5.23356L67.7579 4.33057L69.7426 5.40353Z" fill="#96D9C9"/>
<path d="M22.0235 135.424C24.4647 138.154 24.2418 142.34 21.5141 144.794C18.7864 147.237 14.5939 147.003 12.1528 144.284C9.71164 141.553 9.93453 137.368 12.6622 134.914C15.39 132.47 19.5824 132.704 22.0235 135.424Z" fill="#90EA93"/>
<path d="M15.1562 142.998C16.4617 144.454 18.7012 144.581 20.1553 143.275C21.6094 141.968 21.7367 139.726 20.4313 138.271L15.1562 142.998Z" fill="#90EA93"/>
<path d="M14.8167 118.819L13.0867 117.831C12.6091 118.596 12.0253 119.276 11.4628 119.796C10.9958 120.232 10.2635 120.221 9.80706 119.775L9.754 119.722C9.24454 119.233 9.25515 118.415 9.78584 117.948C10.3271 117.47 10.8472 116.875 11.2505 116.163C11.8449 115.122 11.8449 114.187 11.1126 113.773C10.4227 113.38 9.64786 113.72 8.42728 114.803C6.66541 116.386 4.99906 117.194 3.22657 116.195C1.6239 115.281 1.0083 113.444 1.73003 111.266L0 110.278L1.0083 108.493L2.61097 109.407C3.01429 108.759 3.41761 108.27 3.78909 107.877C4.2561 107.399 5.00967 107.399 5.48729 107.856C5.97552 108.334 5.98613 109.12 5.48729 109.598C5.11581 109.959 4.71249 110.426 4.35162 111.075C3.68296 112.264 3.96953 112.934 4.47899 113.22C5.08397 113.56 5.82693 113.135 7.29162 111.924C9.28699 110.193 10.7835 109.885 12.4287 110.809C14.0525 111.733 14.7849 113.667 13.957 115.972L15.8144 117.024L14.8167 118.819Z" fill="black"/>
<path d="M185.103 45.6343L183.957 48.492L179.149 47.1534L176.962 51.1266L173.205 50.7123L172.993 52.6139L178.024 53.1663L180.093 49.4056L185.092 50.7973L186.812 46.4948L185.103 45.6343Z" fill="black"/>
<path d="M176.792 146.918L177.801 144.422C176.697 143.912 175.678 143.253 174.882 142.595C174.224 142.042 174.107 141.065 174.617 140.364L174.68 140.279C175.243 139.514 176.347 139.376 177.058 140.003C177.79 140.64 178.682 141.224 179.711 141.639C181.208 142.244 182.471 142.074 182.885 141.022C183.288 140.024 182.704 139.057 181.017 137.612C178.586 135.53 177.196 133.448 178.225 130.898C179.159 128.582 181.516 127.424 184.551 128.009L185.559 125.512L188.139 126.553L187.204 128.869C188.139 129.294 188.871 129.74 189.465 130.187C190.176 130.728 190.325 131.738 189.794 132.46C189.242 133.204 188.192 133.352 187.459 132.779C186.918 132.343 186.207 131.897 185.283 131.525C183.575 130.835 182.726 131.355 182.428 132.088C182.078 132.959 182.779 133.883 184.668 135.626C187.353 137.995 188.032 139.949 187.077 142.308C186.133 144.645 183.681 145.984 180.444 145.282L179.361 147.959L176.792 146.918Z" fill="#96D9C9"/>
<path d="M36.6812 60.5178C36.9359 60.8577 36.9147 61.3252 36.6387 61.6439C36.0868 62.26 35.1846 63.0037 34.049 63.5561C32.3932 64.3634 30.4934 64.6078 28.6997 63.9916C27.5852 63.6092 26.5132 62.8231 25.7172 61.7501L24.7407 62.2281C24.4117 62.3875 24.0084 62.2494 23.8492 61.9201L23.8386 61.8988C23.6794 61.5695 23.8174 61.1658 24.1464 61.0064L24.953 60.6134C24.7938 60.3478 24.6877 60.1884 24.6134 60.0397C24.486 59.7848 24.3693 59.4767 24.2631 59.1261L23.4353 59.5298C23.1062 59.6891 22.7029 59.551 22.5437 59.2217C22.3845 58.8924 22.5225 58.4887 22.8515 58.3294L23.8598 57.8407C23.5732 56.5552 23.6263 55.2486 24.0084 54.1331C24.6665 52.2315 26.0993 50.7761 27.8399 49.9369C28.8482 49.4482 29.6973 49.2463 30.3979 49.172C30.8861 49.1188 31.3212 49.4588 31.3849 49.9475V49.9581C31.4592 50.4574 31.109 50.9142 30.5995 50.9779C30.0264 51.0523 29.3683 51.2329 28.6147 51.6047C27.5109 52.1465 26.5769 53.0283 26.1099 54.3137C25.8552 55.0573 25.7809 55.9391 26.0356 56.7783L31.6821 54.0269C32.0111 53.8675 32.4145 54.0056 32.5737 54.3349C32.7329 54.6643 32.5949 55.068 32.2659 55.2273L26.3646 58.1063C26.4708 58.3931 26.5875 58.6799 26.6724 58.8605C26.7786 59.0836 26.8953 59.3173 27.0651 59.6042L32.977 56.7252C33.3166 56.5552 33.7306 56.704 33.8898 57.0439C34.0596 57.3839 33.911 57.7982 33.5713 57.9575L27.9142 60.7196C28.4449 61.357 29.103 61.8138 29.7716 62.0475C31.0984 62.4831 32.2765 62.345 33.5289 61.7395C34.2931 61.3676 34.9193 60.9002 35.3757 60.454C35.7578 60.0503 36.3628 60.0928 36.6812 60.5178Z" fill="black"/>
<path d="M18.4252 78.3761L15.5064 78.6735L14.5087 74.0205L10.1784 73.9249L8.86226 70.5679L7.16406 71.2372L8.92594 75.7309L13.0228 75.8158L14.063 80.6601L18.457 80.2139L18.4252 78.3761Z" fill="black"/>
<path d="M157.731 44.349L159.567 44.9546C159.567 44.9546 162.475 44.0091 162.762 43.4142C163.048 42.8193 163.133 41.3851 163.547 41.3426C163.961 41.3001 164.757 41.4382 164.948 42.4262C165.086 43.138 164.035 45.2095 164.205 45.4326C164.311 45.5707 165.351 45.9532 166.115 46.2081C166.625 46.3781 166.986 46.8243 167.06 47.3661C167.113 47.7273 166.911 48.0778 166.572 48.216L166.041 48.4178L166.211 48.9596C166.338 49.3633 166.115 49.7988 165.712 49.9369L165.309 50.075L165.436 50.4044C165.606 50.8293 165.372 51.318 164.927 51.4455L164.566 51.5517L164.576 51.6473C164.64 52.0404 164.385 52.4228 164.003 52.5291L163.653 52.6247L158.771 51.0099C158.314 50.8612 157.89 50.6168 157.529 50.2875L155.905 49.427C155.735 49.3314 155.65 49.1296 155.714 48.9383L157.221 44.604C157.306 44.3915 157.529 44.2747 157.731 44.349Z" fill="#90EA93"/>
<path d="M45.8939 50.1705C45.8514 50.0537 44.875 48.3752 43.612 46.5585C37.732 38.0811 29.0181 29.9117 18.7865 30.2197L18.7759 30.156C23.4035 29.6461 27.9249 30.8784 31.905 33.0774C38.4643 36.615 44.8538 43.3609 48.3563 48.5451L45.8939 50.1705Z" fill="#90EA93"/>
<path d="M21.0577 34.9155L20.3678 30.1455L23.9021 26.8735C24.3055 26.5017 24.1038 25.8324 23.5625 25.7368L18.8182 24.9188L16.8016 20.542C16.5681 20.0427 15.8676 20.0214 15.6128 20.5101L13.3733 24.7701L8.59717 25.3438C8.05587 25.4075 7.82237 26.0661 8.20446 26.4592L11.569 29.9118L10.635 34.6392C10.5289 35.181 11.0808 35.606 11.5796 35.3616L15.8994 33.2263L20.1024 35.5741C20.5588 35.8503 21.132 35.4572 21.0577 34.9155Z" fill="#90EA93"/>
<path d="M180.974 117.629L181.303 116.503C183.054 116.174 184.562 114.995 185.06 113.295C185.22 112.753 185.326 112.296 185.411 111.68L183.065 111L183.479 109.577L185.602 110.193C185.687 109.481 185.803 108.557 186.069 107.675C186.854 105.009 189.21 103.797 191.736 104.531C192.458 104.743 193.021 105.009 193.435 105.285C193.806 105.54 193.912 106.039 193.658 106.421C193.413 106.804 192.904 106.91 192.511 106.676C192.193 106.475 191.779 106.294 191.259 106.145C189.476 105.635 188.393 106.645 187.926 108.249C187.64 109.215 187.565 109.98 187.491 110.745L190.771 111.691L190.357 113.114L187.257 112.222C187.077 113.104 186.865 113.975 186.419 114.729C185.878 115.632 185.092 116.28 184.126 116.716L184.116 116.758L190.113 118.49C190.558 118.617 190.813 119.074 190.686 119.52L190.664 119.584C190.537 120.019 190.07 120.274 189.624 120.147L180.974 117.629Z" fill="#90EA93"/>
<path d="M0.849251 51.1269L1.96369 49.2359L1.0403 47.2493C0.93416 47.0262 1.13582 46.7713 1.37994 46.8244L3.51329 47.3024L5.11596 45.8152C5.2964 45.6452 5.59358 45.7621 5.61481 46.0064L5.81646 48.1842L7.72693 49.2572C7.94982 49.374 7.92859 49.6927 7.69509 49.7989L5.6891 50.6701L5.26455 52.816C5.21149 53.0603 4.90369 53.1453 4.74448 52.9541L3.30102 51.3075L1.12521 51.5731C0.891707 51.6049 0.721887 51.3393 0.849251 51.1269Z" fill="#96D9C9"/>
<path d="M206.85 81.4247L204.176 81.2017L203.804 83.6875L201.162 83.5813L200.525 85.9078L198.529 86.1628L198.657 87.172L201.321 86.8321L201.926 84.633L204.685 84.7286L205.036 82.2959L207.466 82.4871L206.85 81.4247Z" fill="#96D9C9"/>
<path d="M63.6082 21.2854L63.449 18.5977L60.9441 18.5871L60.6682 15.9525L58.2801 15.6444L57.7494 13.7109L56.7729 13.9765L57.4735 16.5686L59.7448 16.8555L60.0314 19.5963L62.4937 19.6069L62.6423 22.0397L63.6082 21.2854Z" fill="black"/>
<path d="M127.63 15.1455L127.502 16.7815L124.849 16.8559L124.371 19.2249L122.397 19.6073L122.588 20.6059L125.231 20.0854L125.687 17.8545L128.436 17.7695L128.638 15.3155L127.63 15.1455Z" fill="#50BFA5"/>
<path d="M203.019 54.9301L204.813 54.8238C205.004 54.8132 205.11 54.5582 204.982 54.3989L203.836 52.901L204.324 50.9888C204.377 50.7869 204.197 50.6063 204.017 50.6807L202.34 51.435L200.843 50.362C200.684 50.2451 200.461 50.3832 200.482 50.5957L200.588 52.561L199.177 53.804C199.028 53.9421 199.071 54.2077 199.262 54.2502L201.002 54.707L201.618 56.5448C201.682 56.7467 201.936 56.7679 202.032 56.5873L203.019 54.9301Z" fill="black"/>
<path d="M66.2192 88.1496C66.2192 88.1496 69.4352 81.9456 69.934 79.6722C70.4329 77.3988 72.1098 65.9361 72.0143 65.1924C71.8339 63.7795 69.9871 62.8659 70.3267 62.2391C70.6664 61.6124 72.4176 61.4211 73.012 61.4742C73.6064 61.5274 74.8057 61.8779 75.3258 62.3029C75.8353 62.7278 74.7527 76.4639 74.4236 79.4172C74.0946 82.3705 70.0932 91.4854 70.0932 91.4854L66.2192 88.1496Z" fill="#F7A491"/>
<path d="M75.9095 62.0479C75.8352 62.0903 75.5699 62.1753 75.5062 62.2284L75.0073 62.3878C75.0073 62.3878 76.281 62.3559 77.0345 63.1633C77.0239 63.1633 76.6737 62.5259 75.9095 62.0479Z" fill="#F47257"/>
<path d="M136.768 64.5441C137.267 64.1617 137.522 63.2056 137.628 62.5894L137.883 61.782C137.692 61.697 133.903 60.9746 132.756 60.8896C132.629 61.2508 132.555 61.5483 132.586 61.7501C132.714 62.6956 133.637 68.8572 133.637 68.8572L136.917 69.0697C136.906 69.0697 136.365 65.4152 136.768 64.5441Z" fill="#F7A491"/>
<path d="M136.853 61.9521C136.853 61.9521 136.174 62.2602 135.42 63.1632C135.42 63.1632 133.616 61.8884 133.701 61.5165C133.807 61.0172 135.664 62.0371 135.664 62.0371L136.853 61.9521Z" fill="#F47458"/>
<path d="M152.837 152.028C152.837 152.028 157.252 155.215 157.942 156.16C158.94 157.531 150.47 160.091 151.394 158.487C151.606 158.115 152.221 156.883 152.243 156.755C152.381 156.107 150.587 154.344 150.587 154.344L152.837 152.028Z" fill="#F7A491"/>
<path d="M149.101 161.164L152.094 156.926C152.094 156.926 153.962 156.49 155.883 154.333C155.883 154.333 157.613 154.992 158.675 156.426C158.675 156.426 156.669 158.593 153.58 161.026C153.58 161.026 151.744 162.652 149.218 163.502C146.692 164.351 149.101 161.164 149.101 161.164Z" fill="#F7CC7F"/>
<path d="M188.86 73.4891C188.86 73.4891 187.725 75.3694 187.597 75.2526C187.502 75.1676 188.181 74.169 188.669 72.9685C188.797 72.6605 188.913 72.3524 189.03 72.0762C189.317 71.3325 188.966 70.9501 188.542 71.6831C188.393 71.9381 188.16 72.3736 188.032 72.703C187.894 73.0641 187.661 73.351 187.502 73.6272C187.183 74.1902 186.96 74.6045 186.95 74.5833C186.929 74.5514 186.791 74.6152 186.918 74.2858C187.067 73.8821 187.555 73.1066 187.735 72.5011C187.831 72.1612 188.075 71.46 188.075 71.46C188.075 71.46 188.255 70.3339 188.192 70.3021C187.863 70.1321 187.534 70.8757 187.459 71.3538C187.258 71.6406 187.024 72.3842 187.024 72.3842C187.024 72.3842 186.217 73.7865 186.016 73.6803C185.931 73.6378 186.334 72.7136 186.589 71.7468C186.822 70.8545 186.918 69.909 186.759 69.8452C186.483 69.7284 186.111 70.6951 186.111 70.6951C186.111 70.6951 185.888 71.3856 185.804 71.6087C185.697 71.8743 185.326 72.6392 185.326 72.6392C185.326 72.6392 183.861 75.2207 183.691 75.0932C183.522 74.9764 183.235 74.4877 183.267 74.2965C183.299 74.1052 183.543 73.7865 183.575 73.5953C183.606 73.4041 183.5 73.1279 183.267 73.0748C183.044 73.0217 182.535 73.8821 182.535 73.8821C182.535 73.8821 182.121 74.5833 182.11 75.157C182.068 77.1117 182.386 77.0373 182.375 77.2816C182.365 77.5791 180.104 80.8405 180.104 80.8405C180.104 80.8405 180.093 80.8617 180.062 80.8936L182.747 82.8483C183.638 81.3929 184.339 80.2456 184.541 79.895C184.541 79.895 185.888 78.7477 186.706 77.9934C187.523 77.2391 187.99 76.1556 188.192 75.9112C188.223 75.8794 188.839 75.0082 189.338 73.744C189.752 72.6392 188.86 73.4891 188.86 73.4891Z" fill="#F8A492"/>
<path d="M159.587 119.308L158.887 122.761L141.343 138.728L153.899 151.444L150.513 154.907C150.513 154.907 131.971 141.277 131.302 139.493C130.272 136.741 144.601 118.522 144.601 118.522L159.587 119.308Z" fill="black"/>
<path d="M172.505 161.579C172.505 161.579 176.92 164.766 177.61 165.711C178.607 167.082 170.138 169.642 171.061 168.038C171.273 167.666 171.889 166.434 171.91 166.306C172.048 165.658 170.254 163.895 170.254 163.895L172.505 161.579Z" fill="#F7A491"/>
<path d="M168.768 170.736L171.761 166.497C171.761 166.497 173.757 166.136 175.667 163.979C175.667 163.979 177.27 164.564 178.331 165.987C178.331 165.987 176.325 168.154 173.237 170.587C173.237 170.587 171.401 172.213 168.875 173.063C166.348 173.923 168.768 170.736 168.768 170.736Z" fill="#F7CC7F"/>
<path d="M158.983 120.912L159.259 143.614L173.194 161.111L169.915 164.755C169.915 164.755 152.657 150.392 150.768 146.27C149.6 143.71 145.323 119.542 145.323 119.542L158.983 120.912Z" fill="#1B1A1A"/>
<path d="M144.835 119.128C146.257 115.909 146.098 92.8027 151.649 87.3848C153.602 87.7141 154.992 87.9053 155.321 87.9903C155.607 90.3699 155.926 99.1024 156.128 107.112C156.255 112.445 156.128 118.033 156.775 120.987C157.189 122.803 143.529 122.07 144.835 119.128Z" fill="#90EA93"/>
<path d="M121.325 100.643C118.077 100.834 116.708 101.344 115.711 101.152C114.713 100.961 112.049 100.016 112.102 99.0066C115.668 98.2948 121.888 99.3996 121.888 99.3996C121.463 101.482 121.325 100.643 121.325 100.643Z" fill="#F7A491"/>
<path d="M149.282 88.1175C149.282 88.1175 147.838 95.2033 146.161 96.4144C144.484 97.6361 135.972 101.917 135.452 101.885C132.884 101.737 120.572 101.237 120.572 101.237L120.954 97.2855L134.826 96.1594C134.826 96.1594 144.867 89.5729 146.225 88.5318C147.17 87.9263 149.282 88.1175 149.282 88.1175Z" fill="#3C8F7C"/>
<path d="M144.283 120.668C143.03 120.668 142.574 120.498 141.746 120.243C141.746 120.243 141.205 110.968 143.858 97.2217C144.856 92.0375 144.888 88.893 146.936 88.0962C148.783 87.3738 151.044 87.2782 151.659 87.3845C146.225 102.788 146.204 114.644 145.429 118.086C145.036 119.807 144.697 120.678 144.283 120.668Z" fill="#3C8F7C"/>
<path d="M152.222 85.058L151.648 87.3845C151.648 87.3845 151.521 89.4136 152.455 89.5942C153.591 89.8173 155.268 88.1175 155.268 88.1175L156.244 81.5522L152.222 85.058Z" fill="#F7A491"/>
<path d="M152.222 85.058L151.648 87.3845C151.648 87.3845 151.521 89.4136 152.455 89.5942C153.591 89.8173 155.268 88.1175 155.268 88.1175L156.244 81.5522L152.222 85.058Z" fill="#F7A491"/>
<path d="M156.245 81.584L152.222 85.0578L151.797 86.8001C153.336 86.4283 155.533 84.7285 156.245 81.584Z" fill="#F47458"/>
<path d="M152.211 75.5396C151.234 75.5396 150.364 76.2088 150.024 77.1862C149.738 77.9936 149.377 79.1834 149.144 80.5538C148.719 83.0822 150.152 85.3875 151.404 85.5681C152.657 85.7487 155.629 84.92 156.287 81.3506C156.573 79.8208 156.945 77.813 155.682 76.7506C154.705 75.9326 153.325 75.5502 152.211 75.5396Z" fill="#F7A491"/>
<path d="M155.883 84.0806C155.883 84.0806 160.288 80.1499 160.479 77.0797C160.67 74.0096 157.836 72.3629 155.416 72.278C154.323 72.2355 153.58 72.2886 152.455 72.4267C150.025 72.7348 148.454 73.8077 149.006 75.7943C149.749 78.4608 154.779 76.2086 155.809 77.0372C156.658 77.7171 155.278 79.3638 156.106 79.9906C156.881 80.5855 156.488 80.3836 156.234 81.4991C155.979 82.6464 155.883 84.0806 155.883 84.0806Z" fill="#13375B"/>
<path d="M157.581 80.522C157.475 81.255 157.019 81.7968 156.573 81.7331C156.127 81.6694 155.851 81.0213 155.968 80.2777C156.074 79.5447 156.531 79.0029 156.977 79.0666C157.422 79.1304 157.688 79.789 157.581 80.522Z" fill="#F7A491"/>
<path d="M137.522 60.7199C137.129 60.0294 136.535 60.7412 136.917 61.6335C136.938 61.676 136.917 61.7504 136.917 61.7398C136.821 61.9735 135.898 62.7065 135.898 62.7065C135.898 62.7065 136.63 64.7568 137.044 64.2256C137.458 63.6838 137.766 61.931 137.766 61.931L137.522 60.7199Z" fill="#F7A491"/>
<path d="M183.957 81.7329L180.953 78.7583C180.953 78.7583 175.253 86.949 172.367 88.3619C169.554 89.7429 160.203 89.2436 159.874 89.1693C158.749 88.9143 155.3 87.9688 155.3 87.9688C155.3 87.9688 152.413 112.806 156.17 121.443C157.401 124.258 165.043 122.389 165.043 122.389C165.043 122.389 162.687 112.041 162.559 110.692C162.443 109.396 161.785 99.134 161.891 99.0384C162.167 98.7622 172.6 96.4888 175.455 94.311C178.48 92.0269 183.957 81.7329 183.957 81.7329Z" fill="#3C8F7C"/>
<path d="M38.3156 104.276C43.4632 109.641 47.9741 104.892 47.7512 104.966C47.9316 104.892 49.0567 104.892 49.789 104.871C52.8564 104.754 55.6478 102.555 56.8577 99.6439C61.4429 99.0384 64.4465 94.7996 63.0986 91.1345C65.1258 88.6062 64.4996 84.5799 62.5785 81.9984C62.1327 77.7703 56.6136 77.0479 52.8033 78.5352C50.8716 79.2894 49.2371 80.9148 48.388 82.8801C44.7263 82.7952 41.5952 85.4935 40.778 89.2436C35.0996 90.8265 33.0618 98.8046 38.3156 104.276Z" fill="black"/>
<path d="M71.3666 156.277C70.8359 159.178 69.9125 161.727 69.7957 162.025C69.732 162.173 69.1589 162.694 69.0952 162.843C69.403 166.38 71.6531 168.473 73.7652 169.971C73.3089 168.186 72.2899 166.146 72.4173 165.753C72.6296 165.127 73.4468 162.248 75.1875 158.625C73.415 158.423 72.7888 157.35 71.3666 156.277Z" fill="#F7A491"/>
<path d="M64.9348 114.23L52.729 122.569C52.729 122.569 58.6727 126.436 60.7105 128.38C62.7483 130.324 73.6592 139.142 73.8291 139.588C73.9564 139.917 72.8208 144.103 70.1992 157.489C71.3561 158.678 73.914 159.836 75.4211 160.219C78.5946 153.08 82.1714 138.218 81.7681 136.582C81.1525 134.053 64.9348 114.23 64.9348 114.23Z" fill="black"/>
<path d="M34.0276 131.025C34.3885 131.376 36.7659 136.018 37.6787 138.504C39.0054 137.665 39.8121 136.677 41.2874 136.114C40.1199 134.425 37.8379 130.345 37.6469 129.379C37.2011 127.073 36.681 126.733 36.681 126.733C36.681 126.733 28.9755 129.347 28.4554 130.08C27.9459 130.802 32.5841 129.612 34.0276 131.025Z" fill="#F7A491"/>
<path d="M37.7316 129.878C38.326 129.878 37.6785 127.169 37.5406 126.553C37.3814 125.852 36.978 125.639 36.8825 125.618C36.6066 125.554 28.0413 128.455 26.5978 129.496C26.5023 129.57 26.3219 129.793 26.3006 129.836C25.5046 131.312 32.5734 131.599 33.5817 130.951C34.4838 130.378 35.0463 129.868 37.7316 129.878Z" fill="#3C8F7C"/>
<path d="M67.1527 116.843C67.1527 116.843 56.815 112.764 56.677 113.2C55.605 116.652 52.2723 115.537 50.2982 121.613C49.4703 124.163 48.8228 130.877 48.2603 135.859C47.8782 139.28 47.3369 142.032 47.3369 142.032C47.3369 142.032 44.9382 138.483 40.438 133.405C40.0878 133.012 36.4473 136.475 36.4473 136.475C43.6221 150.721 48.8547 152.729 50.001 152.347C55.1911 150.594 62.0581 126.713 62.0475 126.723C62.8966 125.087 67.1527 116.843 67.1527 116.843Z" fill="#1B1A1A"/>
<path d="M51.1897 92.7175C51.1897 92.7175 38.846 92.7068 36.2032 92.5475C33.8151 92.4094 24.3264 92.6537 23.955 92.6112C23.5835 92.5687 21.1317 88.415 20.7284 88.8612C20.3251 89.3073 22.0976 90.9221 21.5456 91.3364C20.9937 91.7507 15.1137 90.8159 15.188 91.2514C15.3366 92.0694 18.7648 91.9632 18.7648 92.3563C18.7648 92.7493 15.1668 92.1332 14.9227 92.7918C14.6786 93.4505 18.3828 93.0574 18.5207 93.3549C18.6693 93.6417 15.0925 94.1835 15.4534 94.789C15.655 95.1184 18.6269 94.2366 18.6056 94.6828C18.595 95.129 16.4192 96.1595 16.6846 96.51C16.9499 96.8606 18.3828 95.4052 19.6458 95.3946C20.9088 95.3733 21.8004 94.7147 23.817 95.2671C24.804 95.5433 32.3822 96.4675 38.7717 97.0093C45.331 97.5724 50.7015 97.753 50.7015 97.753L51.1897 92.7175Z" fill="#F7A491"/>
<path d="M69.4985 103.691C69.6577 101.705 69.2756 97.9335 69.1801 97.2748C69.7745 95.2139 71.0587 90.8158 71.5151 89.9553C71.5151 89.9553 69.3711 85.8228 67.1635 85.8547C67.1635 85.8547 64.9134 90.9221 63.1834 91.8357C63.1621 91.825 62.5678 92.1013 62.313 92.1013C60.6361 92.0906 54.7773 91.91 53.6841 91.8888L54.2997 100.207C56.6135 106.337 56.1889 111.765 55.7856 113.656C55.5627 114.708 65.7413 117.863 67.3015 116.854C67.3439 116.811 69.1589 107.707 69.4985 103.691Z" fill="#90EA93"/>
<path d="M56.6557 92.1967C55.5731 91.6762 47.7508 91.9418 47.7508 91.9418C47.7508 91.9418 46.6575 97.3916 47.5385 98.7089C47.5385 98.7089 54.5329 99.75 54.3313 100.324L56.6557 92.1967Z" fill="#90EA93"/>
<path d="M58.0146 88.3833C58.0146 88.3833 58.8319 91.2516 58.9805 92.4839C59.1291 93.7269 61.0077 97.5726 63.5762 97.0308C66.1448 96.4783 63.4701 92.877 62.9606 91.7403C62.4618 90.6036 61.1032 86.0249 61.1032 86.0249L58.0146 88.3833Z" fill="#F7A491"/>
<path d="M61.6656 87.9052C61.3472 86.8642 61.0925 86.0249 61.0925 86.0249L58.0039 88.3833C58.0039 88.3833 58.1525 88.9145 58.3329 89.605C59.9781 89.8281 61.0925 89.042 61.6656 87.9052Z" fill="#F47257"/>
<path d="M55.7752 79.7993C55.7752 79.7993 54.4272 80.5748 53.9602 82.2108C53.4932 83.8468 54.1088 88.0537 57.6326 89.0098C61.1457 89.9766 62.621 86.6196 61.8568 84.0274C61.1032 81.4353 59.4793 78.1633 55.7752 79.7993Z" fill="#F7A491"/>
<path d="M62.2813 83.0182C62.2282 83.7194 61.8461 84.2612 61.4322 84.2293C61.0289 84.1974 60.7423 83.6025 60.7954 82.9014C60.8485 82.2002 61.2306 81.6584 61.6445 81.6903C62.0584 81.7222 62.3344 82.3171 62.2813 83.0182Z" fill="#F7A491"/>
<path d="M69.7638 162.11C69.5409 161.557 67.312 163.321 66.7813 163.682C66.1869 164.086 66.1445 164.542 66.1551 164.649C66.1975 164.925 71.8759 171.926 73.5422 172.892C73.7014 172.988 74.0305 172.988 74.126 172.946C75.0494 172.584 73.5422 166.858 72.3323 165.722C71.5469 164.999 70.7614 164.617 69.7638 162.11Z" fill="#3C8F7C"/>
<path d="M56.1889 79.5869C56.1889 79.5869 55.6264 84.2931 54.1192 85.1642C52.6121 86.0353 53.2808 88.1069 53.2808 88.1069C53.2808 88.1069 51.8373 83.2945 53.0154 81.7222C54.1829 80.1393 56.1889 79.5869 56.1889 79.5869Z" fill="#1B1A1A"/>
<path d="M55.0215 85.8231C55.4461 86.4286 55.4461 87.151 55.0427 87.4378C54.6288 87.7247 53.9601 87.4591 53.5462 86.8535C53.1217 86.248 53.1217 85.5256 53.525 85.2388C53.9283 84.9519 54.6076 85.2175 55.0215 85.8231Z" fill="#F7A491"/>
<path d="M118.736 41.4062C116.815 41.7886 109.152 52.0615 109.152 52.0615L108.886 52.7732C108.886 52.7732 122.758 51.2328 123.257 50.6379C124.616 49.0444 120.317 41.0981 118.736 41.4062ZM109.247 52.2846C111.773 49.0444 117.547 44.317 118.789 43.3184C119.903 44.4551 121.58 47.8121 121.803 49.3206C120.211 49.65 113.302 51.7959 109.247 52.2846Z" fill="black"/>
<path d="M100.162 43.1588C96.3941 40.6942 95.354 40.7155 94.2501 41.3422C93.1463 41.969 89.0919 47.7906 90.9068 49.6073C92.7218 51.4239 107.093 52.7199 107.093 52.7199L107.422 51.8382C107.422 51.8382 103.93 45.6235 100.162 43.1588ZM93.4117 48.9592C92.5732 48.12 94.6641 44.6355 95.6087 43.8919C95.8528 43.7537 105.522 49.9153 106.87 52.0188C101.467 51.4451 94.1865 49.6604 93.4117 48.9592Z" fill="black"/>
<path d="M107.209 55.4394H108.016C108.822 55.4394 109.47 54.7914 109.47 53.984V51.6043C109.47 50.7969 108.822 50.1489 108.016 50.1489H107.209C106.402 50.1489 105.755 50.7969 105.755 51.6043V53.984C105.755 54.7914 106.402 55.4394 107.209 55.4394Z" fill="black"/>
<path d="M137.872 52.8264L72.1204 52.6245C70.3692 52.6245 69.0318 54.1755 69.2866 55.9071L70.3055 62.6211L73.5957 62.6105L75.5805 96.4036C75.6866 98.2096 77.1832 99.6225 78.9875 99.6225H131.462L133.648 62.483L136.747 62.4724L137.872 52.8264Z" fill="#6FCF97"/>
<path d="M72.5128 63.4175L72.5234 62.6101C71.8972 62.3658 71.1542 62.4401 70.7828 62.3445L69.9018 61.6965C69.7214 61.6115 69.4561 61.824 69.4561 62.0258C69.4561 62.217 69.7108 62.6101 69.8275 62.7057C69.8275 62.7057 71.409 64.0018 71.9609 64.4054C72.2368 64.5967 73.0966 65.1278 73.0966 65.1278L73.5954 64.1824L72.5128 63.4175Z" fill="#F7A491"/>
<path d="M132.597 99.6329H92.3182L90.1636 53.5166H138.021L136.015 96.4246C135.93 98.2199 134.423 99.6329 132.597 99.6329Z" fill="#90EA93"/>
<path d="M139.995 62.5147L88.0408 62.6528L86.8521 52.6455L137.745 52.8367C139.411 52.8474 140.727 54.2815 140.579 55.9494L139.995 62.5147Z" fill="#90EA93"/>
<path d="M88.0405 62.6528L137.596 62.5146L89.6114 65.1386L88.0405 62.6528Z" fill="#6FCF97"/>
<path d="M108.918 52.7197H107.538V62.5995H108.918V52.7197Z" fill="black"/>
<path d="M113.259 62.5571H111.54V99.7072H113.259V62.5571Z" fill="black"/>
<path d="M71.6641 33.3431C76.2492 35.1279 80.0277 36.3283 83.8062 37.3269C85.048 37.6562 87.107 38.6017 88.2533 37.7625C88.8477 37.3269 89.1024 36.6683 88.7521 35.9777C88.1153 34.7029 86.1306 34.6073 84.8781 34.278C81.0572 33.2582 76.7905 31.9302 72.5556 30.3261C71.7596 30.0286 70.8362 30.6235 70.6027 31.3991C70.3374 32.2702 70.8681 33.0351 71.6641 33.3431Z" fill="#DEF0F8"/>
<path d="M101.032 26.2891C99.6736 15.91 99.7691 15.8887 99.196 14.9008C98.6122 13.9022 96.9989 14.0296 96.6805 15.1982C96.3621 16.3456 96.4364 16.165 97.9011 27.0752C98.0178 27.9463 99.0898 28.4456 99.8646 28.2544C100.788 28.0207 101.149 27.1602 101.032 26.2891Z" fill="#DEF0F8"/>
<path d="M117.706 27.617C118.735 26.2359 119.595 24.7486 120.306 23.1764C120.964 21.7104 122.174 19.5644 121.039 18.1196C120.794 17.8116 120.221 17.6628 119.86 17.7903C118.332 18.3215 118.035 20.4674 117.419 21.8166C116.751 23.2826 115.923 24.6849 115.021 26.0128C114.543 26.714 114.861 27.7445 115.562 28.1588C116.347 28.6262 117.196 28.2969 117.706 27.617Z" fill="#DEF0F8"/>
<path d="M140.791 35.5104C141.258 34.873 140.865 34.0444 140.324 33.6407C139.199 32.8014 137.225 33.5769 135.994 33.9169C134.571 34.31 133.192 34.8411 131.844 35.4573C131.069 35.8185 130.857 36.9127 131.249 37.6138C131.706 38.4318 132.608 38.5381 133.404 38.2087C138.562 36.0522 139.645 37.0827 140.791 35.5104Z" fill="#DEF0F8"/>
</svg>
